<svg xmlns="http://www.w3.org/2000/svg" xmlns:xlink="http://www.w3.org/1999/xlink" width="315.033" height="281.169" viewBox="0 0 315.033 281.169">
  <defs>
    <clipPath id="clip-path">
      <rect id="Rectangle_410880" data-name="Rectangle 410880" width="247" height="258" transform="translate(5263.432 -9309.517)" fill="#fff" stroke="#707070" stroke-width="1"/>
    </clipPath>
  </defs>
  <g id="Group_1200766" data-name="Group 1200766" transform="translate(-5234.199 9321.422)">
    <g id="Group_1200697" data-name="Group 1200697" transform="translate(5234.199 -9321.422)">
      <g id="Group_1200628" data-name="Group 1200628">
        <ellipse id="Ellipse_12399" data-name="Ellipse 12399" cx="79.304" cy="79.304" rx="79.304" ry="79.304" transform="translate(156.426 122.56)" fill="#c8a0e6"/>
        <ellipse id="Ellipse_12400" data-name="Ellipse 12400" cx="57.676" cy="57.676" rx="57.676" ry="57.676" fill="#c8a0e6"/>
      </g>
    </g>
    <g id="Mask_Group_1099465" data-name="Mask Group 1099465" clip-path="url(#clip-path)">
      <g id="sheet_14180779" transform="translate(5249.869 -9317.579)">
        <g id="Group_1200763" data-name="Group 1200763">
          <g id="Group_1200756" data-name="Group 1200756">
            <g id="Group_1200751" data-name="Group 1200751">
              <path id="Path_1242627" data-name="Path 1242627" d="M239.243,74.674V249.911a13.129,13.129,0,0,1-13.129,13.129H63.284a13.129,13.129,0,0,1-13.129-13.129V24.216A13.129,13.129,0,0,1,63.284,11.087H175.655Z" fill="#fff"/>
            </g>
            <g id="Group_1200752" data-name="Group 1200752" opacity="0.5">
              <path id="Path_1242628" data-name="Path 1242628" d="M218.85,54.282V263.04h7.264a13.129,13.129,0,0,0,13.129-13.129V74.674Z" fill="#eaeaea"/>
            </g>
            <g id="Group_1200753" data-name="Group 1200753" opacity="0.5">
              <path id="Path_1242629" data-name="Path 1242629" d="M73.523,11.087H63.284A13.129,13.129,0,0,0,50.155,24.216v225.7A13.129,13.129,0,0,0,63.284,263.04H73.523Z" fill="#eaeaea"/>
            </g>
            <g id="Group_1200754" data-name="Group 1200754" opacity="0.5">
              <path id="Path_1242630" data-name="Path 1242630" d="M89.828,11.086h12.69V263.039H89.828Z" fill="#eaeaea"/>
            </g>
            <g id="Group_1200755" data-name="Group 1200755">
              <path id="Path_1242631" data-name="Path 1242631" d="M239.243,74.674h-50.46a13.129,13.129,0,0,1-13.129-13.129V11.087Z" fill="#f33"/>
            </g>
          </g>
          <g id="Group_1200761" data-name="Group 1200761">
            <g id="Group_1200757" data-name="Group 1200757">
              <path id="Path_1242632" data-name="Path 1242632" d="M149.736,178.735v40.443a9.3,9.3,0,0,1-9.3,9.3h-97.5a8.063,8.063,0,0,1-8.062-8.062V177.5a8.063,8.063,0,0,1,8.063-8.062h97.5a9.3,9.3,0,0,1,9.3,9.3Z" fill="#f33"/>
            </g>
            <g id="Group_1200758" data-name="Group 1200758">
              <path id="Path_1242633" data-name="Path 1242633" d="M61.839,169.436v59.04H42.933a8.062,8.062,0,0,1-8.062-8.062V177.5a8.062,8.062,0,0,1,8.063-8.062Z" fill="#ef0a0a"/>
            </g>
            <g id="Group_1200759" data-name="Group 1200759">
              <path id="Path_1242634" data-name="Path 1242634" d="M80.625,169.437h14.65v59.042H80.625Z" fill="#ef0a0a"/>
            </g>
            <g id="Group_1200760" data-name="Group 1200760">
              <path id="Path_1242635" data-name="Path 1242635" d="M72.164,186.516a9.474,9.474,0,0,1,6.322,1.917,6.966,6.966,0,0,1,2.252,5.614,7.07,7.07,0,0,1-2.252,5.649,9.358,9.358,0,0,1-6.322,1.951H66.783v7.5a.918.918,0,0,1-.905.907H63.153a.924.924,0,0,1-.909-.907V187.424a.924.924,0,0,1,.909-.907h9.011Zm-5.382,10.928h5.212a5.463,5.463,0,0,0,3.059-.758,2.923,2.923,0,0,0,1.146-2.64,2.841,2.841,0,0,0-1.146-2.606,5.673,5.673,0,0,0-3.059-.722H66.783Z" fill="#fff"/>
              <path id="Path_1242636" data-name="Path 1242636" d="M93.616,186.516a12.824,12.824,0,0,1,4.319.655,7.908,7.908,0,0,1,4.945,4.791,13.032,13.032,0,0,1,.787,3.834,45.612,45.612,0,0,1,0,4.976,13.032,13.032,0,0,1-.787,3.832,8.339,8.339,0,0,1-1.866,2.925A8.108,8.108,0,0,1,98,209.4a12.326,12.326,0,0,1-4.22.655H85.309a.924.924,0,0,1-.909-.907V187.424a.924.924,0,0,1,.909-.907h8.307Zm5.511,9.281a6.7,6.7,0,0,0-.421-2,4.554,4.554,0,0,0-1.039-1.614,4.776,4.776,0,0,0-1.732-1.075,7.165,7.165,0,0,0-2.488-.388H88.939V205.85h4.677A6.661,6.661,0,0,0,96,205.462a4.7,4.7,0,0,0,1.681-1.059,4.4,4.4,0,0,0,1.024-1.614,6.854,6.854,0,0,0,.421-2.016,45.625,45.625,0,0,0,0-4.976Z" fill="#fff"/>
              <path id="Path_1242637" data-name="Path 1242637" d="M123.334,186.516a.917.917,0,0,1,.909.907v2.388a.914.914,0,0,1-.909.907H112.61v6.523h10.055a.918.918,0,0,1,.905.907v2.388a.914.914,0,0,1-.905.907H112.61v7.7a.917.917,0,0,1-.909.907h-2.72a.917.917,0,0,1-.909-.907V187.424a.917.917,0,0,1,.909-.907h14.353Z" fill="#fff"/>
            </g>
          </g>
          <g id="Group_1200762" data-name="Group 1200762">
            <path id="Path_1242638" data-name="Path 1242638" d="M178.524,164.655c-4.61,0-9.745-2.207-13.954-6.415-2.21-2.209-6.935-12.493-12.263-25.532-1.831-.478-3.73-.905-5.689-1.266a173.177,173.177,0,0,0-24.357-2.5c-9.618,10.543-18.881,17.91-22.081,19.087-9.472,3.48-18.959.6-21.593-6.555v0c-1.335-3.63-.6-7.813,2.014-11.476a21.7,21.7,0,0,1,10.206-7.474c2.947-1.083,14.371-2,27.9-1.712A132.836,132.836,0,0,0,129.964,106a120.774,120.774,0,0,0,7.279-13.013c-5.116-14.487-8.854-26.376-8.854-29.1,0-10.1,5.974-18,13.6-18,7.612,0,13.574,7.909,13.574,18,0,3.2-3.3,15.808-9.671,29.681,3.832,10.527,8.314,22.247,12.422,32.472,13.558,4.2,23.1,10.617,25.469,12.983a21.683,21.683,0,0,1,6.124,11.074c.829,4.425-.268,8.535-3.01,11.277a11.591,11.591,0,0,1-8.375,3.279Zm-16.1-28.608c3.663,8.72,6.62,15.086,7.885,16.531,3.988,3.986,9.047,4.935,10.893,3.1,1.138-1.138.98-3.049.785-4.088a13.788,13.788,0,0,0-3.9-6.86C176.764,143.4,170.985,139.48,162.421,136.047Zm-76.267,2.647c.905,2.455,5.909,3.728,11.245,1.77,1.407-.587,7.017-4.889,13.824-11.661-9.242.11-16.127.772-17.643,1.291a13.787,13.787,0,0,0-6.415,4.584c-.614.858-1.559,2.523-1.012,4.016Zm42.7-17.452a167.67,167.67,0,0,1,19.225,2.272c.2.035.394.073.59.11-2.6-6.606-5.23-13.556-7.7-20.3-1.325,2.386-2.738,4.754-4.238,7.065C134.277,114.166,131.606,117.81,128.854,121.242Zm13.137-67.3c-2.614,0-5.539,4.252-5.539,9.942.077,2.11,2.24,9.167,5.448,18.448,3.667-9.332,5.565-16.786,5.6-18.456,0-5.683-2.909-9.934-5.511-9.934Z" fill="#f91c1c"/>
          </g>
        </g>
        <g id="Group_1200765" data-name="Group 1200765">
          <g id="Group_1200764" data-name="Group 1200764">
            <path id="Path_1242639" data-name="Path 1242639" d="M241.429,72.619c-.384-.4-63.02-63.08-63.786-63.76a3.511,3.511,0,0,0-2-.8H63.291A16.184,16.184,0,0,0,47.124,24.229v142.2H42.934a11.1,11.1,0,0,0-11.086,11.086v42.917a11.1,11.1,0,0,0,11.086,11.086h4.191v18.418a16.164,16.164,0,0,0,16.166,16.125H226.111a16.164,16.164,0,0,0,16.166-16.125V74.7a3.406,3.406,0,0,0-.848-2.082ZM178.677,18.4l53.269,53.264H188.783a10.116,10.116,0,0,1-10.106-10.1V18.4ZM37.894,220.433V177.516a5.044,5.044,0,0,1,5.039-5.039h97.5a6.282,6.282,0,0,1,6.275,6.275V219.2a6.282,6.282,0,0,1-6.275,6.275h-97.5a5.044,5.044,0,0,1-5.039-5.039Zm198.336,29.5a10.11,10.11,0,0,1-10.119,10.078H63.29a10.11,10.11,0,0,1-10.119-10.078V231.519h87.266A12.335,12.335,0,0,0,152.76,219.2V178.753a12.335,12.335,0,0,0-12.322-12.322H53.171V24.229A10.13,10.13,0,0,1,63.29,14.109H172.63V61.565a16.17,16.17,0,0,0,16.153,16.151h47.448V249.938Z"/>
          </g>
        </g>
      </g>
    </g>
  </g>
</svg>
