<svg xmlns="http://www.w3.org/2000/svg" width="92" height="92" viewBox="0 0 92 92">
  <g id="Grupo_1205081" data-name="Grupo 1205081" transform="translate(-1182.051 -16158)">
    <rect id="Rectángulo_410927" data-name="Rectángulo 410927" width="92" height="92" transform="translate(1182.051 16158)" fill="#88ddd8"/>
    <g id="video77" transform="translate(1196.051 16174.004)">
      <path id="Trazado_1241791" data-name="Trazado 1241791" d="M22.45,250.578a4.127,4.127,0,0,1-4.129-4.129V232H12.129A4.127,4.127,0,0,0,8,236.129V260.9a4.127,4.127,0,0,0,4.129,4.129H43.092a4.127,4.127,0,0,0,4.129-4.129V250.578Zm0,0" transform="translate(-6.968 -202.068)" fill="#fcd770"/>
      <path id="Trazado_1241792" data-name="Trazado 1241792" d="M127.221,138.578V148.9a4.127,4.127,0,0,1-4.129,4.129H92.129A4.127,4.127,0,0,1,88,148.9V124.129A4.127,4.127,0,0,1,92.129,120h30.964a4.127,4.127,0,0,1,4.129,4.129Zm0,0" transform="translate(-76.647 -104.518)" fill="#e6e9ed"/>
      <path id="Trazado_1241793" data-name="Trazado 1241793" d="M200.514,192.257,184,200.514V184Zm0,0" transform="translate(-160.261 -160.261)" fill="#ff826e"/>
      <path id="Trazado_1241794" data-name="Trazado 1241794" d="M184,22.45V12.129A4.127,4.127,0,0,1,188.129,8h30.964a4.127,4.127,0,0,1,4.129,4.129V36.9a4.127,4.127,0,0,1-4.129,4.129h-8.257V26.578a4.127,4.127,0,0,0-4.129-4.129Zm0,0" transform="translate(-160.261 -6.968)" fill="#48cfad"/>
      <path id="Trazado_1241795" data-name="Trazado 1241795" d="M84.129,426.064v2.064H80V424h4.129Zm0,0" transform="translate(-69.679 -369.297)" fill="#e6e9ed"/>
      <g id="Grupo_1205080" data-name="Grupo 1205080">
        <path id="Trazado_1241796" data-name="Trazado 1241796" d="M112,146.064v8.257h2.064v-8.257h4.129V144h-4.129A2.066,2.066,0,0,0,112,146.064Zm0,0" transform="translate(-97.55 -125.422)" fill="#1e1713"/>
        <path id="Trazado_1241797" data-name="Trazado 1241797" d="M112,240h2.064v2.064H112Zm0,0" transform="translate(-97.55 -209.036)" fill="#1e1713"/>
        <path id="Trazado_1241798" data-name="Trazado 1241798" d="M112,272h2.064v2.064H112Zm0,0" transform="translate(-97.55 -236.908)" fill="#1e1713"/>
        <path id="Trazado_1241799" data-name="Trazado 1241799" d="M352,256h2.064v2.064H352Zm0,0" transform="translate(-306.586 -222.972)" fill="#1e1713"/>
        <path id="Trazado_1241800" data-name="Trazado 1241800" d="M352,288h2.064v2.064H352Zm0,0" transform="translate(-306.586 -250.843)" fill="#1e1713"/>
        <path id="Trazado_1241801" data-name="Trazado 1241801" d="M352,320h2.064v2.064H352Zm0,0" transform="translate(-306.586 -278.715)" fill="#1e1713"/>
        <path id="Trazado_1241802" data-name="Trazado 1241802" d="M32,304h2.064v2.064H32Zm0,0" transform="translate(-27.871 -264.779)" fill="#1e1713"/>
        <path id="Trazado_1241803" data-name="Trazado 1241803" d="M32,336h2.064v2.064H32Zm0,0" transform="translate(-27.871 -292.65)" fill="#1e1713"/>
        <path id="Trazado_1241804" data-name="Trazado 1241804" d="M32,272h2.064v2.064H32Zm0,0" transform="translate(-27.871 -236.908)" fill="#1e1713"/>
        <path id="Trazado_1241805" data-name="Trazado 1241805" d="M58.832,0H27.868a5.167,5.167,0,0,0-5.161,5.161V14.45H15.482a5.167,5.167,0,0,0-5.161,5.161V28.9H5.161A5.167,5.167,0,0,0,0,34.06V58.832a5.167,5.167,0,0,0,5.161,5.161H36.125a5.167,5.167,0,0,0,5.161-5.161V49.542h5.161a5.167,5.167,0,0,0,5.161-5.161V35.092h7.225a5.167,5.167,0,0,0,5.161-5.161V5.161A5.167,5.167,0,0,0,58.832,0ZM39.221,58.832a3.1,3.1,0,0,1-3.1,3.1H5.161a3.1,3.1,0,0,1-3.1-3.1V34.06a3.1,3.1,0,0,1,3.1-3.1h5.161V44.382a5.167,5.167,0,0,0,5.161,5.161H39.221Zm10.321-14.45a3.1,3.1,0,0,1-3.1,3.1H15.482a3.1,3.1,0,0,1-3.1-3.1V19.611a3.1,3.1,0,0,1,3.1-3.1H46.446a3.1,3.1,0,0,1,3.1,3.1ZM57.8,8.257H43.35V6.193H57.8Zm4.129,21.675a3.1,3.1,0,0,1-3.1,3.1H51.607V19.611a5.167,5.167,0,0,0-5.161-5.161h-3.1V10.321H57.8V20.833a3.054,3.054,0,0,0-1.032-.19,3.1,3.1,0,1,0,3.1,3.1V4.129H41.285V14.45H24.771V5.161a3.1,3.1,0,0,1,3.1-3.1H58.832a3.1,3.1,0,0,1,3.1,3.1ZM57.8,23.739a1.032,1.032,0,1,1-1.032-1.032A1.033,1.033,0,0,1,57.8,23.739Zm0,0" fill="#1e1713"/>
        <path id="Trazado_1241806" data-name="Trazado 1241806" d="M176,190.909l19.854-9.927L176,171.055Zm2.064-16.514,13.174,6.587-13.174,6.587Zm0,0" transform="translate(-153.293 -148.986)" fill="#1e1713"/>
        <path id="Trazado_1241807" data-name="Trazado 1241807" d="M43.353,416H37.161v2.064H32v2.064h5.161v2.064h6.193v-2.064H65.028v-2.064H43.353Zm-2.064,4.129H39.225v-2.064h2.064Zm0,0" transform="translate(-27.871 -362.329)" fill="#1e1713"/>
        <path id="Trazado_1241808" data-name="Trazado 1241808" d="M208,32h12.386v2.064H208Zm0,0" transform="translate(-181.165 -27.871)" fill="#1e1713"/>
        <path id="Trazado_1241809" data-name="Trazado 1241809" d="M208,64h12.386v2.064H208Zm0,0" transform="translate(-181.165 -55.743)" fill="#1e1713"/>
      </g>
    </g>
  </g>
</svg>
