<svg xmlns="http://www.w3.org/2000/svg" xmlns:xlink="http://www.w3.org/1999/xlink" width="440" height="244" viewBox="0 0 440 244">
  <defs>
    <clipPath id="clip-path">
      <rect id="Rectángulo_410910" data-name="Rectángulo 410910" width="235.177" height="164.792" fill="none"/>
    </clipPath>
  </defs>
  <g id="Grupo_1205906" data-name="Grupo 1205906" transform="translate(-895.051 -2872)">
    <rect id="Rectángulo_410664" data-name="Rectángulo 410664" width="440" height="244" rx="12" transform="translate(895.051 2872)" fill="#634f72"/>
    <g id="Grupo_1205015" data-name="Grupo 1205015" transform="translate(997.051 2910)">
      <g id="Grupo_1205014" data-name="Grupo 1205014" transform="translate(0 0)" clip-path="url(#clip-path)">
        <path id="Trazado_1241740" data-name="Trazado 1241740" d="M10.144,20.747A10.145,10.145,0,1,0,20.287,30.893,10.144,10.144,0,0,0,10.144,20.747m0,17.2a7.051,7.051,0,1,1,7.05-7.05,7.051,7.051,0,0,1-7.05,7.05" transform="translate(0 22.298)" fill="#454545"/>
        <path id="Trazado_1241741" data-name="Trazado 1241741" d="M113.716,20.747a10.145,10.145,0,1,0,10.144,10.146,10.144,10.144,0,0,0-10.144-10.146m0,17.2a7.051,7.051,0,1,1,7.05-7.05,7.051,7.051,0,0,1-7.05,7.05" transform="translate(111.318 22.298)" fill="#454545"/>
        <path id="Trazado_1241742" data-name="Trazado 1241742" d="M212.5,34.516h-.456L195.523,5.287A10.408,10.408,0,0,0,186.464,0H113.946a10.408,10.408,0,0,0-9.059,5.287L88.368,34.516h-76.2a7.28,7.28,0,0,0-7.28,7.28V157.514a7.28,7.28,0,0,0,7.28,7.278H212.5a7.28,7.28,0,0,0,7.28-7.278V41.8a7.28,7.28,0,0,0-7.28-7.28" transform="translate(5.255 -0.001)" fill="#ed6b6c"/>
        <rect id="Rectángulo_410907" data-name="Rectángulo 410907" width="31.174" height="7.179" transform="translate(19.138 27.335)" fill="#a64b4b"/>
        <path id="Trazado_1241743" data-name="Trazado 1241743" d="M31.885,9.715H13.349A2.085,2.085,0,0,0,11.264,11.8v5.094H33.97V11.8a2.085,2.085,0,0,0-2.085-2.085" transform="translate(12.106 10.441)" fill="#454545"/>
        <rect id="Rectángulo_410908" data-name="Rectángulo 410908" width="31.174" height="7.179" transform="translate(57.316 27.335)" fill="#a64b4b"/>
        <rect id="Rectángulo_410909" data-name="Rectángulo 410909" width="22.217" height="3.589" transform="translate(61.795 23.746)" fill="#454545"/>
        <path id="Trazado_1241744" data-name="Trazado 1241744" d="M12.169,110.409H212.5a7.28,7.28,0,0,0,7.28-7.28V50.6H4.889v52.529a7.28,7.28,0,0,0,7.28,7.28" transform="translate(5.255 54.383)" fill="#57cdcd"/>
        <path id="Trazado_1241745" data-name="Trazado 1241745" d="M225.539,58.208H6.481a5.013,5.013,0,0,1,0-10.025H225.539a5.013,5.013,0,1,1,0,10.025" transform="translate(1.578 51.786)" fill="#30a8a8"/>
        <path id="Trazado_1241746" data-name="Trazado 1241746" d="M225.54,51.928H6.482A5,5,0,0,1,2.16,49.4a4.935,4.935,0,0,0-.691,2.486A5.027,5.027,0,0,0,6.482,56.9H225.54a5.027,5.027,0,0,0,5.013-5.013,4.955,4.955,0,0,0-.689-2.486,5.008,5.008,0,0,1-4.324,2.527" transform="translate(1.579 53.095)" fill="#227a7a"/>
        <path id="Trazado_1241747" data-name="Trazado 1241747" d="M167.908,77.933A62.23,62.23,0,1,1,105.679,15.7a62.228,62.228,0,0,1,62.229,62.229" transform="translate(46.697 16.878)" fill="#454545"/>
        <path id="Trazado_1241748" data-name="Trazado 1241748" d="M152.569,72.7a52.125,52.125,0,1,1-52.125-52.125A52.125,52.125,0,0,1,152.569,72.7" transform="translate(51.933 22.112)" fill="#262626"/>
        <path id="Trazado_1241749" data-name="Trazado 1241749" d="M140.39,68.543a44.1,44.1,0,1,1-44.1-44.1,44.1,44.1,0,0,1,44.1,44.1" transform="translate(56.088 26.268)" fill="#57cdcd"/>
        <path id="Trazado_1241750" data-name="Trazado 1241750" d="M100.416,51.367a21.3,21.3,0,1,1-21.3-21.3,21.3,21.3,0,0,1,21.3,21.3" transform="translate(62.131 32.311)" fill="#bee8e8"/>
        <path id="Trazado_1241751" data-name="Trazado 1241751" d="M99.978,60.218A12.015,12.015,0,1,1,87.963,48.2,12.016,12.016,0,0,1,99.978,60.218" transform="translate(81.628 51.807)" fill="#bee8e8"/>
        <path id="Trazado_1241752" data-name="Trazado 1241752" d="M123.845,19.75H64.71a7.18,7.18,0,1,1,0-14.36h59.136a7.18,7.18,0,0,1,0,14.36" transform="translate(61.831 5.792)" fill="#a64b4b"/>
        <path id="Trazado_1241753" data-name="Trazado 1241753" d="M121.748,15.372H63.4a4.3,4.3,0,0,1,0-8.592h58.343a4.3,4.3,0,1,1,0,8.592" transform="translate(63.531 7.286)" fill="#fff"/>
        <path id="Trazado_1241754" data-name="Trazado 1241754" d="M57.849,52.129H17.472a6.208,6.208,0,1,1,0-12.416H57.849a6.208,6.208,0,1,1,0,12.416" transform="translate(12.106 42.682)" fill="#a64b4b"/>
        <path id="Trazado_1241755" data-name="Trazado 1241755" d="M29.933,75.459a9.055,9.055,0,1,0-9.056,9.056,9.056,9.056,0,0,0,9.056-9.056" transform="translate(12.706 71.369)" fill="#317373"/>
        <path id="Trazado_1241756" data-name="Trazado 1241756" d="M24.428,73.581A5.43,5.43,0,1,0,19,79.01a5.431,5.431,0,0,0,5.43-5.43" transform="translate(14.584 73.247)" fill="#fff"/>
        <path id="Trazado_1241757" data-name="Trazado 1241757" d="M20.343,44.564a3.59,3.59,0,1,1-3.589-3.589,3.589,3.589,0,0,1,3.589,3.589" transform="translate(14.146 44.039)" fill="#ed6b6c"/>
        <path id="Trazado_1241758" data-name="Trazado 1241758" d="M38.484,44.564a3.59,3.59,0,1,1-3.589-3.589,3.589,3.589,0,0,1,3.589,3.589" transform="translate(33.644 44.039)" fill="#ed6b6c"/>
      </g>
    </g>
  </g>
</svg>
