<svg xmlns="http://www.w3.org/2000/svg" width="84.595" height="98.694" viewBox="0 0 84.595 98.694">
  <g id="Icons" transform="translate(-8 -4)">
    <g id="Grupo_1205036" data-name="Grupo 1205036" transform="translate(8 4)">
      <g id="Grupo_1205017" data-name="Grupo 1205017">
        <path id="Trazado_1241759" data-name="Trazado 1241759" d="M78.5,25.149v75.783a1.768,1.768,0,0,1-1.762,1.762H9.762A1.768,1.768,0,0,1,8,100.932V5.762A1.768,1.768,0,0,1,9.762,4H57.347Z" transform="translate(-8 -4)" fill="#f0f0f0"/>
      </g>
      <g id="Grupo_1205018" data-name="Grupo 1205018" transform="translate(24.674 58.159)">
        <path id="Trazado_1241760" data-name="Trazado 1241760" d="M67.822,37V68.723h-42.3A3.535,3.535,0,0,1,22,65.2V40.525A3.535,3.535,0,0,1,25.525,37Z" transform="translate(-22 -37)" fill="#d2d2d2"/>
      </g>
      <g id="Grupo_1205019" data-name="Grupo 1205019" transform="translate(24.674 56.397)">
        <path id="Trazado_1241761" data-name="Trazado 1241761" d="M78.4,67.723H25.525A3.524,3.524,0,0,1,22,64.2V39.525A3.524,3.524,0,0,1,25.525,36H78.4a3.524,3.524,0,0,1,3.525,3.525V64.2A3.524,3.524,0,0,1,78.4,67.723Z" transform="translate(-22 -36)" fill="#0a5078"/>
      </g>
      <g id="Grupo_1205021" data-name="Grupo 1205021" transform="translate(47.585 61.684)">
        <g id="Grupo_1205020" data-name="Grupo 1205020">
          <path id="Trazado_1241762" data-name="Trazado 1241762" d="M47.337,60.149a1.761,1.761,0,0,1-1.762-1.762V47.125L43.56,50.48a1.833,1.833,0,0,1-3.023,0l-2.013-3.356V58.386a1.762,1.762,0,0,1-3.525,0V40.762a1.762,1.762,0,0,1,3.273-.908l3.777,6.3,3.777-6.294a1.762,1.762,0,0,1,3.273.906V58.386a1.761,1.761,0,0,1-1.762,1.762Z" transform="translate(-35 -39)" fill="#f0f0f0"/>
        </g>
      </g>
      <g id="Grupo_1205024" data-name="Grupo 1205024" transform="translate(66.971 61.684)">
        <g id="Grupo_1205022" data-name="Grupo 1205022">
          <path id="Trazado_1241763" data-name="Trazado 1241763" d="M53.05,53.1H47.762A1.761,1.761,0,0,1,46,51.337V40.762A1.761,1.761,0,0,1,47.762,39H53.05a7.05,7.05,0,1,1,0,14.1Zm-3.525-3.525H53.05a3.525,3.525,0,1,0,0-7.05H49.525Z" transform="translate(-46 -39)" fill="#f0f0f0"/>
        </g>
        <g id="Grupo_1205023" data-name="Grupo 1205023" transform="translate(0 10.574)">
          <path id="Trazado_1241764" data-name="Trazado 1241764" d="M47.762,55.574A1.761,1.761,0,0,1,46,53.812v-7.05a1.762,1.762,0,0,1,3.525,0v7.05A1.761,1.761,0,0,1,47.762,55.574Z" transform="translate(-46 -45)" fill="#f0f0f0"/>
        </g>
      </g>
      <g id="Grupo_1205025" data-name="Grupo 1205025" transform="translate(49.347)">
        <path id="Trazado_1241765" data-name="Trazado 1241765" d="M57.149,25.149H37.762A1.763,1.763,0,0,1,36,23.386V4Z" transform="translate(-36 -4)" fill="#d2d2d2"/>
      </g>
      <g id="Grupo_1205028" data-name="Grupo 1205028" transform="translate(5.426 25.733)">
        <g id="Grupo_1205026" data-name="Grupo 1205026">
          <path id="Trazado_1241766" data-name="Trazado 1241766" d="M21.9,19.262,11.469,32.3a1.763,1.763,0,0,0,1.376,2.864H33.71A1.763,1.763,0,0,0,35.087,32.3L24.655,19.262a1.766,1.766,0,0,0-2.755,0Z" transform="translate(-11.079 -18.601)" fill="#00a0c8"/>
        </g>
        <g id="Grupo_1205027" data-name="Grupo 1205027" transform="translate(17.624)">
          <path id="Trazado_1241767" data-name="Trazado 1241767" d="M31.9,19.262,21.469,32.3a1.763,1.763,0,0,0,1.376,2.864H43.71A1.763,1.763,0,0,0,45.087,32.3L34.655,19.262a1.766,1.766,0,0,0-2.755,0Z" transform="translate(-21.079 -18.601)" fill="#00a0c8"/>
        </g>
      </g>
      <g id="Grupo_1205029" data-name="Grupo 1205029" transform="translate(19.147 10.255)">
        <circle id="Elipse_12415" data-name="Elipse 12415" cx="7.294" cy="7.294" r="7.294" transform="translate(0 0)" fill="#fab400"/>
      </g>
      <g id="Grupo_1205032" data-name="Grupo 1205032" transform="translate(23.053 35.706)">
        <g id="Grupo_1205030" data-name="Grupo 1205030">
          <path id="Trazado_1241768" data-name="Trazado 1241768" d="M26.085,30.851H22.842A1.758,1.758,0,0,1,21.468,28l3-3.736,3,3.736a1.758,1.758,0,0,1-1.375,2.855Z" transform="translate(-21.08 -24.26)" fill="#0082aa"/>
        </g>
        <g id="Grupo_1205031" data-name="Grupo 1205031">
          <path id="Trazado_1241769" data-name="Trazado 1241769" d="M26.085,30.851H22.842A1.758,1.758,0,0,1,21.468,28l3-3.736,3,3.736a1.758,1.758,0,0,1-1.375,2.855Z" transform="translate(-21.08 -24.26)" fill="#0082aa"/>
        </g>
      </g>
      <g id="Grupo_1205035" data-name="Grupo 1205035" transform="translate(29.961 61.684)">
        <g id="Grupo_1205034" data-name="Grupo 1205034">
          <g id="Grupo_1205033" data-name="Grupo 1205033">
            <path id="Trazado_1241770" data-name="Trazado 1241770" d="M32.931,60.149H26.762A1.761,1.761,0,0,1,25,58.386V40.762A1.761,1.761,0,0,1,26.762,39h6.168a6.165,6.165,0,0,1,4.313,10.574,6.165,6.165,0,0,1-4.313,10.574Zm-4.406-3.525h4.406a2.644,2.644,0,0,0,0-5.287H28.525Zm0-8.812h4.406a2.644,2.644,0,0,0,0-5.287H28.525Z" transform="translate(-25 -39)" fill="#f0f0f0"/>
          </g>
        </g>
      </g>
    </g>
  </g>
</svg>
