<svg xmlns="http://www.w3.org/2000/svg" width="86.398" height="98.694" viewBox="0 0 86.398 98.694">
  <g id="Layer_2_00000048490172295242501950000002125601581950818963_" transform="translate(-31.9)">
    <g id="Layer_1-2" transform="translate(31.9)">
      <g id="TIFF" transform="translate(0)">
        <g id="File" transform="translate(8.827)">
          <path id="Trazado_1241771" data-name="Trazado 1241771" d="M120.967,0H84.137A6.453,6.453,0,0,0,77.7,6.456V92.238a6.469,6.469,0,0,0,6.456,6.456h64.659a6.469,6.469,0,0,0,6.456-6.456l-.193-63.715Z" transform="translate(-77.7)" fill="#edf4ff"/>
          <path id="Trazado_1241772" data-name="Trazado 1241772" d="M301.8,0l-.1,27.849s.1.675.675.675h33.534Z" transform="translate(-258.53)" fill="#fb4a4a"/>
        </g>
        <path id="Trazado_1241773" data-name="Trazado 1241773" d="M34.521,246.7H99.585a2.624,2.624,0,0,1,2.621,2.621v29.063A2.624,2.624,0,0,1,99.585,281H34.521a2.624,2.624,0,0,1-2.621-2.621V249.321A2.624,2.624,0,0,1,34.521,246.7Z" transform="translate(-31.9 -199.155)" fill="#fb4a4a"/>
        <g id="Grupo_1205037" data-name="Grupo 1205037" transform="translate(11.178 57.644)">
          <path id="Trazado_1241774" data-name="Trazado 1241774" d="M89.9,299.1h13.568v3.565H98.92v10.87H94.468v-10.87H89.9Z" transform="translate(-89.9 -299.1)" fill="#fff"/>
          <path id="Trazado_1241775" data-name="Trazado 1241775" d="M171.7,299.1h4.471v14.435H171.7Z" transform="translate(-155.935 -299.1)" fill="#fff"/>
          <path id="Trazado_1241776" data-name="Trazado 1241776" d="M211.6,299.1h11.024v3.1h-6.553v2.525h5.589v2.91h-5.589v5.9H211.6Z" transform="translate(-188.145 -299.1)" fill="#fff"/>
          <path id="Trazado_1241777" data-name="Trazado 1241777" d="M281.4,299.1h11.024v3.1h-6.553v2.525h5.589v2.91h-5.589v5.9H281.4Z" transform="translate(-244.493 -299.1)" fill="#fff"/>
        </g>
      </g>
    </g>
  </g>
</svg>
