<svg xmlns="http://www.w3.org/2000/svg" xmlns:xlink="http://www.w3.org/1999/xlink" width="107.141" height="107.142" viewBox="0 0 107.141 107.142">
  <defs>
    <filter id="Trazado_874925" x="0" y="0" width="107.141" height="107.142" filterUnits="userSpaceOnUse">
      <feOffset dy="3" input="SourceAlpha"/>
      <feGaussianBlur stdDeviation="3" result="blur"/>
      <feFlood flood-opacity="0.161"/>
      <feComposite operator="in" in2="blur"/>
      <feComposite in="SourceGraphic"/>
    </filter>
  </defs>
  <g id="Grupo_1205156" data-name="Grupo 1205156" transform="translate(299 8906)">
    <g id="Grupo_1204931" data-name="Grupo 1204931" transform="translate(-575 -14997.407)">
      <g id="Grupo_1187153" data-name="Grupo 1187153" transform="translate(285 6097.407)">
        <g id="Grupo_1182177" data-name="Grupo 1182177">
          <g id="Grupo_1181903" data-name="Grupo 1181903">
            <g id="Grupo_1181438" data-name="Grupo 1181438">
              <g id="Grupo_1111314" data-name="Grupo 1111314">
                <g transform="matrix(1, 0, 0, 1, -9, -6)" filter="url(#Trazado_874925)">
                  <g id="Trazado_874925-2" data-name="Trazado 874925" transform="translate(9 6)" fill="#e6e51d">
                    <path d="M 44.57049560546875 88.14150238037109 C 38.68807220458984 88.14150238037109 32.98214340209961 86.98964691162109 27.61120223999023 84.71792602539062 C 22.42297744750977 82.52349090576172 17.76327133178711 79.38175964355469 13.76150703430176 75.38001251220703 C 9.759742736816406 71.37824249267578 6.618013381958008 66.71852874755859 4.423577785491943 61.53030395507812 C 2.151860237121582 56.15936279296875 1.000001430511475 50.45343399047852 1.000001430511475 44.57101058959961 C 1.000001430511475 38.68807983398438 2.151860237121582 32.98215103149414 4.423577785491943 27.61119842529297 C 6.618013381958008 22.42297554016113 9.759742736816406 17.76326942443848 13.76150703430176 13.76150417327881 C 17.76327133178711 9.759739875793457 22.42297744750977 6.6180100440979 27.61120223999023 4.423574924468994 C 32.98214340209961 2.151857137680054 38.68807220458984 0.9999982714653015 44.57049560546875 0.9999982714653015 C 50.45291900634766 0.9999982714653015 56.15884780883789 2.151857137680054 61.52978897094727 4.423574924468994 C 66.71800994873047 6.6180100440979 71.37773132324219 9.759739875793457 75.37949371337891 13.76150417327881 C 79.38124847412109 17.76326942443848 82.52297973632812 22.42297554016113 84.71741485595703 27.61119842529297 C 86.98912811279297 32.98215103149414 88.1409912109375 38.68807983398438 88.1409912109375 44.57050323486328 C 88.1409912109375 50.45343399047852 86.98912811279297 56.15936279296875 84.71741485595703 61.53030395507812 C 82.52297973632812 66.71853637695312 79.38124847412109 71.37824249267578 75.37949371337891 75.38001251220703 C 71.37773132324219 79.38175964355469 66.71802520751953 82.52349090576172 61.52978897094727 84.71792602539062 C 56.15884780883789 86.98964691162109 50.45291900634766 88.14150238037109 44.57049560546875 88.14150238037109 Z" stroke="none"/>
                    <path d="M 44.57049560546875 2.000007629394531 C 38.82262802124023 2.000007629394531 33.24776077270508 3.125282287597656 28.00074768066406 5.344581604003906 C 22.93172454833984 7.488601684570312 18.37885284423828 10.55836486816406 14.46860504150391 14.46860504150391 C 10.55836486816406 18.37886047363281 7.488601684570312 22.93172454833984 5.344573974609375 28.00075149536133 C 3.125282287597656 33.24776458740234 2 38.8226318359375 2 44.57100296020508 C 2 50.31887054443359 3.125282287597656 55.89373779296875 5.344573974609375 61.14075088500977 C 7.488601684570312 66.20977783203125 10.55836486816406 70.76264190673828 14.46860504150391 74.67289733886719 C 18.37885284423828 78.58313751220703 22.93172454833984 81.65290069580078 28.00074768066406 83.79692077636719 C 33.24776077270508 86.01622009277344 38.82262802124023 87.14149475097656 44.57049560546875 87.14149475097656 C 50.31836318969727 87.14149475097656 55.89323043823242 86.01622009277344 61.14024353027344 83.79692077636719 C 66.20926666259766 81.65290069580078 70.76213836669922 78.58313751220703 74.67238616943359 74.67289733886719 C 78.58262634277344 70.76264190673828 81.65238952636719 66.20977783203125 83.79641723632812 61.14075088500977 C 86.01570892333984 55.89373779296875 87.1409912109375 50.31887054443359 87.1409912109375 44.57049942016602 C 87.1409912109375 38.8226318359375 86.01570892333984 33.24776458740234 83.79641723632812 28.00075149536133 C 81.65238952636719 22.93172454833984 78.58262634277344 18.37886047363281 74.67238616943359 14.46860504150391 C 70.76213836669922 10.55836486816406 66.20926666259766 7.488601684570312 61.14024353027344 5.344581604003906 C 55.89323043823242 3.125282287597656 50.31836318969727 2.000007629394531 44.57049560546875 2.000007629394531 M 44.57049560546875 7.62939453125e-06 C 69.18611145019531 7.62939453125e-06 89.1409912109375 19.95488739013672 89.1409912109375 44.57049942016602 L 89.1409912109375 44.57100296020508 C 89.1409912109375 69.18661499023438 69.18611145019531 89.14149475097656 44.57049560546875 89.14149475097656 C 19.95487976074219 89.14149475097656 0 69.18661499023438 0 44.57100296020508 L 0 44.57049942016602 C 0 19.95488739013672 19.95487976074219 7.62939453125e-06 44.57049560546875 7.62939453125e-06 Z" stroke="none" fill="#a09f14"/>
                  </g>
                </g>
              </g>
            </g>
          </g>
        </g>
      </g>
    </g>
    <g id="Filled_outline" data-name="Filled outline" transform="translate(-288 -8897)">
      <path id="Trazado_1241899" data-name="Trazado 1241899" d="M91.479,72h34.786a3.479,3.479,0,0,1,3.479,3.479v26.96a2.609,2.609,0,0,1-2.609,2.609H90.609A2.609,2.609,0,0,1,88,102.438V75.479A3.479,3.479,0,0,1,91.479,72Z" transform="translate(-64.173 -49.912)" fill="#4db7e5"/>
      <path id="Trazado_1241900" data-name="Trazado 1241900" d="M432.87,72H432v33.047h1.739V72.11a3.486,3.486,0,0,0-.87-.11Z" transform="translate(-370.778 -49.912)" fill="#48add9"/>
      <path id="Trazado_1241901" data-name="Trazado 1241901" d="M157.568,24h-26.09A3.479,3.479,0,0,0,128,27.479V64h33.047V27.479A3.479,3.479,0,0,0,157.568,24Z" transform="translate(-99.825 -7.13)" fill="#348fd9"/>
      <path id="Trazado_1241902" data-name="Trazado 1241902" d="M171.743,100,140,131.743h31.743Z" transform="translate(-110.52 -74.869)" fill="#3086cd"/>
      <path id="Trazado_1241903" data-name="Trazado 1241903" d="M198.611,131.306q0,.439-.033.87a11.291,11.291,0,0,1-9.7,10.326c-.233.034-.467.059-.7.077q-.43.033-.87.033t-.87-.033c-.237-.018-.472-.043-.7-.077a11.163,11.163,0,0,1-2.633-.7,11.3,11.3,0,0,1-7.066-9.627q-.033-.43-.033-.87t.033-.87a11.292,11.292,0,0,1,9.576-10.309q.409-.062.827-.095t.87-.033q.439,0,.87.033c.237.018.472.043.7.077a11.157,11.157,0,0,1,2.631.7,11.344,11.344,0,0,1,5.827,5.28,11.215,11.215,0,0,1,1.241,4.348Q198.611,130.866,198.611,131.306Z" transform="translate(-142.607 -92.694)" fill="#4db7e5"/>
      <path id="Trazado_1241904" data-name="Trazado 1241904" d="M198.579,132.175q.033-.43.033-.87t-.033-.87h-4.332a22.121,22.121,0,0,0-.6-4.348h3.686a11.24,11.24,0,0,0-1.12-1.739h-3.07a17.885,17.885,0,0,0-1.637-3.541,11.157,11.157,0,0,0-2.631-.7l.607.783a15.234,15.234,0,0,1,1.814,3.456h-3.125v-4.316q-.43-.033-.87-.033t-.87.033v4.316h-3.125a15.177,15.177,0,0,1,1.824-3.469c.011-.014.02-.029.029-.043l.445-.709a11.2,11.2,0,0,0-2.508.681,17.827,17.827,0,0,0-1.637,3.541h-3.07a11.239,11.239,0,0,0-1.12,1.739h3.686a22.1,22.1,0,0,0-.6,4.348h-4.332q-.033.43-.033.87t.033.87h4.333a21.792,21.792,0,0,0,.831,5.218h-3.42a11.35,11.35,0,0,0,1.372,1.739h2.637a16.919,16.919,0,0,0,1.313,2.67,11.162,11.162,0,0,0,2.633.7l-.607-.784a14.4,14.4,0,0,1-1.458-2.585h2.769v3.446q.43.033.87.033t.87-.033v-3.446h2.769a14.345,14.345,0,0,1-1.458,2.585l-.607.784a11.162,11.162,0,0,0,2.633-.7,16.825,16.825,0,0,0,1.313-2.67h2.637a11.351,11.351,0,0,0,1.372-1.739h-3.42a21.828,21.828,0,0,0,.831-5.218Zm-12.143,5.218h-3.421a19.883,19.883,0,0,1-.909-5.218h4.33Zm0-6.957H182.1a20.21,20.21,0,0,1,.649-4.348h3.682Zm5.16,6.957h-3.421v-5.218h4.33A19.922,19.922,0,0,1,191.6,137.393Zm-3.421-6.957v-4.348h3.682a20.241,20.241,0,0,1,.649,4.348Z" transform="translate(-142.607 -92.694)" fill="#60d1e0"/>
      <path id="Trazado_1241905" data-name="Trazado 1241905" d="M100.339,360.87a2.969,2.969,0,0,1-2.1.87H91.133a2.969,2.969,0,0,1-2.1-.87,2.969,2.969,0,0,0-2.1-.87H72v2.609a2.609,2.609,0,0,0,2.609,2.609h40a2.609,2.609,0,0,0,2.609-2.609V360H102.438a2.969,2.969,0,0,0-2.1.87Z" transform="translate(-49.912 -306.605)" fill="#e0e0de"/>
      <path id="Trazado_1241906" data-name="Trazado 1241906" d="M434.609,360v2.609A2.609,2.609,0,0,1,432,365.218h3.479a2.609,2.609,0,0,0,2.609-2.609V360Z" transform="translate(-370.778 -306.605)" fill="#d6d6d4"/>
      <path id="Trazado_1241907" data-name="Trazado 1241907" d="M48.35,353.957v10.871a1.933,1.933,0,0,1-.267.986,1.953,1.953,0,0,1-1.689.971H25.957a1.953,1.953,0,0,1-1.689-.971,1.932,1.932,0,0,1-.267-.986V353.957a1.933,1.933,0,0,1,.267-.986A1.953,1.953,0,0,1,25.957,352H46.394a1.953,1.953,0,0,1,1.689.971A1.933,1.933,0,0,1,48.35,353.957Z" transform="translate(-7.13 -299.474)" fill="#ffb531"/>
      <path id="Trazado_1241908" data-name="Trazado 1241908" d="M50.276,352.971c-2.693,1.5-7.024,2.472-11.908,2.472s-9.215-.973-11.908-2.472A1.953,1.953,0,0,1,28.149,352H48.586A1.953,1.953,0,0,1,50.276,352.971Z" transform="translate(-9.323 -299.474)" fill="#ffcb73"/>
      <path id="Trazado_1241909" data-name="Trazado 1241909" d="M50.276,458.8a1.953,1.953,0,0,1-1.689.971H28.149a1.953,1.953,0,0,1-1.689-.971c2.693-1.5,7.024-2.472,11.908-2.472S47.583,457.3,50.276,458.8Z" transform="translate(-9.323 -392.463)" fill="#ffa912"/>
      <path id="Trazado_1241910" data-name="Trazado 1241910" d="M57.566,216A9.566,9.566,0,0,0,48,225.566v5.218h3.479v-5.218a6.088,6.088,0,1,1,12.175,0v5.218h3.479v-5.218A9.566,9.566,0,0,0,57.566,216Z" transform="translate(-28.521 -178.258)" fill="#e0e0de"/>
      <path id="Trazado_1241911" data-name="Trazado 1241911" d="M117.215,394.516a2.609,2.609,0,1,0-3.479,2.449v1.9h1.739v-1.9A2.6,2.6,0,0,0,117.215,394.516Z" transform="translate(-85.561 -335.033)" fill="#95573a"/>
      <path id="Trazado_1241912" data-name="Trazado 1241912" d="M124.353,52.526h-.87V25.566a4.353,4.353,0,0,0-4.348-4.348v-.87A4.353,4.353,0,0,0,114.786,16H88.7a4.353,4.353,0,0,0-4.348,4.348v.87A4.353,4.353,0,0,0,80,25.566V36h1.739V25.566a2.612,2.612,0,0,1,2.609-2.609V35.133h1.739V20.348A2.612,2.612,0,0,1,88.7,17.739h26.09a2.612,2.612,0,0,1,2.609,2.609V49.917h1.739V22.957a2.612,2.612,0,0,1,2.609,2.609v26.96H109.568a3.809,3.809,0,0,0-2.711,1.124,2.091,2.091,0,0,1-1.49.615h-4.5V56h4.5a3.82,3.82,0,0,0,2.72-1.124,2.081,2.081,0,0,1,1.481-.615h13.915V56a1.741,1.741,0,0,1-1.739,1.739H100.872v1.739h20.872A3.483,3.483,0,0,0,125.222,56V53.4A.87.87,0,0,0,124.353,52.526Z" transform="translate(-57.043)"/>
      <path id="Trazado_1241913" data-name="Trazado 1241913" d="M120,272h1.739v6.088H120Z" transform="translate(-92.694 -228.171)"/>
      <path id="Trazado_1241914" data-name="Trazado 1241914" d="M159.995,48h1.739v1.739h-1.739Z" transform="translate(-128.342 -28.521)"/>
      <path id="Trazado_1241915" data-name="Trazado 1241915" d="M191.995,48h1.739v1.739h-1.739Z" transform="translate(-156.863 -28.521)"/>
      <path id="Trazado_1241916" data-name="Trazado 1241916" d="M223.995,48h1.739v1.739h-1.739Z" transform="translate(-185.384 -28.521)"/>
      <path id="Trazado_1241917" data-name="Trazado 1241917" d="M160,80h26.09v1.739H160Z" transform="translate(-128.346 -57.043)"/>
      <path id="Trazado_1241918" data-name="Trazado 1241918" d="M180.188,134.267c-.184-.047-.37-.1-.551-.159l-.532,1.656c.214.069.432.132.644.186a12.174,12.174,0,1,0-7.153-18.331,12.022,12.022,0,0,0-1.6,3.749l1.693.4a10.278,10.278,0,0,1,1.122-2.809h2.69a22.217,22.217,0,0,0-.612,5.218c0,.6.024,1.211.072,1.809l1.734-.139c-.021-.265-.037-.533-.048-.8h4.33v5.218H179.37V132h2.609v2.57A10.415,10.415,0,0,1,180.188,134.267ZM189.743,132a10.478,10.478,0,0,1-1.979,1.375c.219-.445.422-.9.605-1.375Zm1.578-1.739h-2.364a21.873,21.873,0,0,0,.832-5.218h3.461A10.252,10.252,0,0,1,191.321,130.265ZM180.5,114.01a10.388,10.388,0,0,1,1.477-.23v3.44h-3.123A15.38,15.38,0,0,1,180.5,114.01Zm3.217-.23a10.409,10.409,0,0,1,1.477.23,15.377,15.377,0,0,1,1.646,3.21h-3.123Zm3.681,5.179a20.228,20.228,0,0,1,.649,4.348h-4.33V118.96Zm5.848,4.348H189.79a22.067,22.067,0,0,0-.6-4.348h2.689a10.337,10.337,0,0,1,1.364,4.348Zm-2.625-6.088H188.69a18.687,18.687,0,0,0-.934-2.257,10.339,10.339,0,0,1,2.867,2.257Zm-12.682-2.257a18.687,18.687,0,0,0-.934,2.257h-1.934A10.338,10.338,0,0,1,177.942,114.963Zm-.293,8.345a20.22,20.22,0,0,1,.649-4.348h3.681v4.348Zm6.069,1.739h4.33a19.92,19.92,0,0,1-.91,5.218h-3.42ZM186.486,132a14.5,14.5,0,0,1-1.287,2.34,10.372,10.372,0,0,1-1.48.23V132Z" transform="translate(-138.15 -85.566)"/>
      <path id="Trazado_1241919" data-name="Trazado 1241919" d="M39.481,222.8v-4.366a10.436,10.436,0,0,0-20.872,0V222.8A2.928,2.928,0,0,0,16,225.708v10.675a2.928,2.928,0,0,0,2.924,2.924H39.166a2.928,2.928,0,0,0,2.924-2.924V225.708a2.928,2.928,0,0,0-2.609-2.907ZM29.045,209.739a8.706,8.706,0,0,1,8.7,8.7v4.348H36v-4.348a6.957,6.957,0,0,0-13.915,0v4.348H20.348v-4.348A8.706,8.706,0,0,1,29.045,209.739Zm5.218,13.045H23.827v-4.348a5.218,5.218,0,0,1,10.436,0Zm6.088,13.6a1.186,1.186,0,0,1-1.185,1.185H18.924a1.186,1.186,0,0,1-1.185-1.185V225.708a1.186,1.186,0,0,1,1.185-1.185H39.166a1.186,1.186,0,0,1,1.185,1.185Z" transform="translate(0 -171.128)"/>
      <path id="Trazado_1241920" data-name="Trazado 1241920" d="M114.616,392a2.609,2.609,0,0,0-.87,5.068v1.889h1.739v-1.889a2.609,2.609,0,0,0-.87-5.068Zm0,3.479a.87.87,0,1,1,.87-.87A.87.87,0,0,1,114.616,395.479Z" transform="translate(-85.571 -335.126)"/>
    </g>
  </g>
</svg>
