<svg xmlns="http://www.w3.org/2000/svg" xmlns:xlink="http://www.w3.org/1999/xlink" width="107.141" height="107.142" viewBox="0 0 107.141 107.142">
  <defs>
    <filter id="Trazado_874925" x="0" y="0" width="107.141" height="107.142" filterUnits="userSpaceOnUse">
      <feOffset dy="3" input="SourceAlpha"/>
      <feGaussianBlur stdDeviation="3" result="blur"/>
      <feFlood flood-opacity="0.161"/>
      <feComposite operator="in" in2="blur"/>
      <feComposite in="SourceGraphic"/>
    </filter>
    <clipPath id="clip-path">
      <path id="path254" d="M0-682.665H55.188v55.188H0Z" transform="translate(0 682.665)"/>
    </clipPath>
  </defs>
  <g id="Grupo_1205157" data-name="Grupo 1205157" transform="translate(-27 8906)">
    <g id="Grupo_1204932" data-name="Grupo 1204932" transform="translate(-249 -14997.407)">
      <g id="Grupo_1187153" data-name="Grupo 1187153" transform="translate(285 6097.407)">
        <g id="Grupo_1182177" data-name="Grupo 1182177">
          <g id="Grupo_1181903" data-name="Grupo 1181903">
            <g id="Grupo_1181438" data-name="Grupo 1181438">
              <g id="Grupo_1111314" data-name="Grupo 1111314">
                <g transform="matrix(1, 0, 0, 1, -9, -6)" filter="url(#Trazado_874925)">
                  <g id="Trazado_874925-2" data-name="Trazado 874925" transform="translate(9 6)" fill="#e6e51d">
                    <path d="M 44.57049560546875 88.14150238037109 C 38.68807220458984 88.14150238037109 32.98214340209961 86.98964691162109 27.61120223999023 84.71792602539062 C 22.42297744750977 82.52349090576172 17.76327133178711 79.38175964355469 13.76150703430176 75.38001251220703 C 9.759742736816406 71.37824249267578 6.618013381958008 66.71852874755859 4.423577785491943 61.53030395507812 C 2.151860237121582 56.15936279296875 1.000001430511475 50.45343399047852 1.000001430511475 44.57101058959961 C 1.000001430511475 38.68807983398438 2.151860237121582 32.98215103149414 4.423577785491943 27.61119842529297 C 6.618013381958008 22.42297554016113 9.759742736816406 17.76326942443848 13.76150703430176 13.76150417327881 C 17.76327133178711 9.759739875793457 22.42297744750977 6.6180100440979 27.61120223999023 4.423574924468994 C 32.98214340209961 2.151857137680054 38.68807220458984 0.9999982714653015 44.57049560546875 0.9999982714653015 C 50.45291900634766 0.9999982714653015 56.15884780883789 2.151857137680054 61.52978897094727 4.423574924468994 C 66.71800994873047 6.6180100440979 71.37773132324219 9.759739875793457 75.37949371337891 13.76150417327881 C 79.38124847412109 17.76326942443848 82.52297973632812 22.42297554016113 84.71741485595703 27.61119842529297 C 86.98912811279297 32.98215103149414 88.1409912109375 38.68807983398438 88.1409912109375 44.57050323486328 C 88.1409912109375 50.45343399047852 86.98912811279297 56.15936279296875 84.71741485595703 61.53030395507812 C 82.52297973632812 66.71853637695312 79.38124847412109 71.37824249267578 75.37949371337891 75.38001251220703 C 71.37773132324219 79.38175964355469 66.71802520751953 82.52349090576172 61.52978897094727 84.71792602539062 C 56.15884780883789 86.98964691162109 50.45291900634766 88.14150238037109 44.57049560546875 88.14150238037109 Z" stroke="none"/>
                    <path d="M 44.57049560546875 2.000007629394531 C 38.82262802124023 2.000007629394531 33.24776077270508 3.125282287597656 28.00074768066406 5.344581604003906 C 22.93172454833984 7.488601684570312 18.37885284423828 10.55836486816406 14.46860504150391 14.46860504150391 C 10.55836486816406 18.37886047363281 7.488601684570312 22.93172454833984 5.344573974609375 28.00075149536133 C 3.125282287597656 33.24776458740234 2 38.8226318359375 2 44.57100296020508 C 2 50.31887054443359 3.125282287597656 55.89373779296875 5.344573974609375 61.14075088500977 C 7.488601684570312 66.20977783203125 10.55836486816406 70.76264190673828 14.46860504150391 74.67289733886719 C 18.37885284423828 78.58313751220703 22.93172454833984 81.65290069580078 28.00074768066406 83.79692077636719 C 33.24776077270508 86.01622009277344 38.82262802124023 87.14149475097656 44.57049560546875 87.14149475097656 C 50.31836318969727 87.14149475097656 55.89323043823242 86.01622009277344 61.14024353027344 83.79692077636719 C 66.20926666259766 81.65290069580078 70.76213836669922 78.58313751220703 74.67238616943359 74.67289733886719 C 78.58262634277344 70.76264190673828 81.65238952636719 66.20977783203125 83.79641723632812 61.14075088500977 C 86.01570892333984 55.89373779296875 87.1409912109375 50.31887054443359 87.1409912109375 44.57049942016602 C 87.1409912109375 38.8226318359375 86.01570892333984 33.24776458740234 83.79641723632812 28.00075149536133 C 81.65238952636719 22.93172454833984 78.58262634277344 18.37886047363281 74.67238616943359 14.46860504150391 C 70.76213836669922 10.55836486816406 66.20926666259766 7.488601684570312 61.14024353027344 5.344581604003906 C 55.89323043823242 3.125282287597656 50.31836318969727 2.000007629394531 44.57049560546875 2.000007629394531 M 44.57049560546875 7.62939453125e-06 C 69.18611145019531 7.62939453125e-06 89.1409912109375 19.95488739013672 89.1409912109375 44.57049942016602 L 89.1409912109375 44.57100296020508 C 89.1409912109375 69.18661499023438 69.18611145019531 89.14149475097656 44.57049560546875 89.14149475097656 C 19.95487976074219 89.14149475097656 0 69.18661499023438 0 44.57100296020508 L 0 44.57049942016602 C 0 19.95488739013672 19.95487976074219 7.62939453125e-06 44.57049560546875 7.62939453125e-06 Z" stroke="none" fill="#a09f14"/>
                  </g>
                </g>
              </g>
            </g>
          </g>
        </g>
      </g>
    </g>
    <g id="g240" transform="translate(53 -8200.335)">
      <path id="path242" d="M63.571-584.444H10v-46.888H63.571Z" transform="translate(-9.192 -47.183)" fill="#fff6cc"/>
      <path id="path244" d="M619.332-584.444h4.312v-46.888h-4.312Z" transform="translate(-569.264 -47.183)" fill="#fff1b5"/>
      <path id="path246" d="M63.571-625.17H10v-6.162H63.571Z" transform="translate(-9.192 -47.183)" fill="#7b7b7f"/>
      <path id="path248" d="M619.332-625.17h4.312v-6.162h-4.312Z" transform="translate(-569.264 -47.183)" fill="#6b6b73"/>
      <g id="g250" transform="translate(0 -682.665)">
        <g id="g252" clip-path="url(#clip-path)">
          <g id="g258" transform="translate(14.743 15.69)">
            <path id="path260" d="M-18.99-37.981h30.3a1.67,1.67,0,0,0,1.67-1.67,1.67,1.67,0,0,0-1.67-1.67h-30.3a1.67,1.67,0,0,0-1.67,1.67,1.67,1.67,0,0,0,1.67,1.67" transform="translate(20.66 41.321)" fill="#00cfe9"/>
          </g>
          <g id="g262" transform="translate(42.399 15.69)">
            <path id="path264" d="M-49.022,0h-4.312a1.67,1.67,0,0,1,1.67,1.67,1.67,1.67,0,0,1-1.67,1.67h4.312a1.67,1.67,0,0,0,1.67-1.67A1.67,1.67,0,0,0-49.022,0" transform="translate(53.333)" fill="#00bfd6"/>
          </g>
          <g id="g266" transform="translate(22.733 22.251)">
            <path id="path268" d="M-18.99-37.981H3.317a1.67,1.67,0,0,0,1.67-1.67,1.67,1.67,0,0,0-1.67-1.67H-18.99a1.67,1.67,0,0,0-1.67,1.67,1.67,1.67,0,0,0,1.67,1.67" transform="translate(20.66 41.321)" fill="#80e1ff"/>
          </g>
          <g id="g270" transform="translate(42.399 22.251)">
            <path id="path272" d="M-49.022,0h-4.312a1.67,1.67,0,0,1,1.67,1.67,1.67,1.67,0,0,1-1.67,1.67h4.312a1.67,1.67,0,0,0,1.67-1.67A1.67,1.67,0,0,0-49.022,0" transform="translate(53.333)" fill="#59d8ff"/>
          </g>
          <g id="g274" transform="translate(14.743 35.372)">
            <path id="path276" d="M-18.99-37.981h30.3a1.67,1.67,0,0,0,1.67-1.67,1.67,1.67,0,0,0-1.67-1.67h-30.3a1.67,1.67,0,0,0-1.67,1.67,1.67,1.67,0,0,0,1.67,1.67" transform="translate(20.66 41.321)" fill="#fd0"/>
          </g>
          <g id="g278" transform="translate(42.399 35.372)">
            <path id="path280" d="M-49.022,0h-4.312a1.67,1.67,0,0,1,1.67,1.67,1.67,1.67,0,0,1-1.67,1.67h4.312a1.67,1.67,0,0,0,1.67-1.67A1.67,1.67,0,0,0-49.022,0" transform="translate(53.333)" fill="#f7d200"/>
          </g>
          <g id="g282" transform="translate(14.743 41.816)">
            <path id="path284" d="M-18.99-37.981h30.3a1.67,1.67,0,0,0,1.67-1.67,1.67,1.67,0,0,0-1.67-1.67h-30.3a1.67,1.67,0,0,0-1.67,1.67,1.67,1.67,0,0,0,1.67,1.67" transform="translate(20.66 41.321)" fill="#ff7de9"/>
          </g>
          <g id="g286" transform="translate(42.399 41.816)">
            <path id="path288" d="M-49.022,0h-4.312a1.67,1.67,0,0,1,1.67,1.67,1.67,1.67,0,0,1-1.67,1.67h4.312a1.67,1.67,0,0,0,1.67-1.67A1.67,1.67,0,0,0-49.022,0" transform="translate(53.333)" fill="#ff5ee4"/>
          </g>
          <g id="g290" transform="translate(31.381 28.812)">
            <path id="path292" d="M-18.991-37.981H-5.332a1.67,1.67,0,0,0,1.67-1.67,1.67,1.67,0,0,0-1.67-1.67H-18.991a1.67,1.67,0,0,0-1.67,1.67,1.67,1.67,0,0,0,1.67,1.67" transform="translate(20.661 41.321)" fill="#c4f1ff"/>
          </g>
          <g id="g294" transform="translate(42.399 28.812)">
            <path id="path296" d="M-49.022,0h-4.312a1.67,1.67,0,0,1,1.67,1.67,1.67,1.67,0,0,1-1.67,1.67h4.312a1.67,1.67,0,0,0,1.67-1.67A1.67,1.67,0,0,0-49.022,0" transform="translate(53.333)" fill="#a1e9ff"/>
          </g>
          <g id="g298" transform="translate(0 3.341)">
            <path id="path300" d="M44.38-446.942H-9.192A.808.808,0,0,1-10-447.75v-7.644a.808.808,0,0,1,.808-.808.808.808,0,0,1,.808.808v6.835H43.571V-493.83H-8.383V-459.7a.808.808,0,0,1-.808.808A.808.808,0,0,1-10-459.7v-34.94a.808.808,0,0,1,.808-.808H44.38a.808.808,0,0,1,.808.808v46.888A.808.808,0,0,1,44.38-446.942Z" transform="translate(10 495.447)"/>
          </g>
          <g id="g302" transform="translate(0 9.503)">
            <path id="path304" d="M-618.286-8.383h-53.571a.808.808,0,0,1-.808-.808.808.808,0,0,1,.808-.808h53.571a.808.808,0,0,1,.808.808A.808.808,0,0,1-618.286-8.383Z" transform="translate(672.665 10)"/>
          </g>
          <g id="g306" transform="translate(3.71 6.422)">
            <path id="path308" d="M-8.879-18.383a.809.809,0,0,0,0-1.617.809.809,0,0,0,0,1.617" transform="translate(9.659 20)"/>
          </g>
          <g id="g310" transform="translate(6.603 6.422)">
            <path id="path312" d="M-8.879-18.383a.809.809,0,0,0,0-1.617.809.809,0,0,0,0,1.617" transform="translate(9.66 20)"/>
          </g>
          <g id="g314" transform="translate(9.495 6.422)">
            <path id="path316" d="M-8.879-18.383a.809.809,0,0,0,0-1.617.809.809,0,0,0,0,1.617" transform="translate(9.66 20)"/>
          </g>
          <g id="g318" transform="translate(21.925 21.443)">
            <path id="path320" d="M-5.874-46.364H-28.181a2.481,2.481,0,0,1-2.479-2.479,2.481,2.481,0,0,1,2.479-2.479H-5.874A2.482,2.482,0,0,1-3.4-48.842,2.481,2.481,0,0,1-5.874-46.364ZM-28.181-49.7a.863.863,0,0,0-.862.862.863.863,0,0,0,.862.862H-5.874a.863.863,0,0,0,.862-.862.863.863,0,0,0-.862-.862Z" transform="translate(30.66 51.321)"/>
          </g>
          <g id="g322" transform="translate(13.934 34.564)">
            <path id="path324" d="M-28.183-10h30.3A2.481,2.481,0,0,1,4.594-7.521,2.481,2.481,0,0,1,2.115-5.043h-30.3a2.481,2.481,0,0,1-2.479-2.479A2.482,2.482,0,0,1-28.183-10Zm30.3,3.34a.863.863,0,0,0,.862-.862.863.863,0,0,0-.862-.862h-30.3a.863.863,0,0,0-.862.862.863.863,0,0,0,.862.862Z" transform="translate(30.661 10)"/>
          </g>
          <g id="g326" transform="translate(13.934 14.882)">
            <path id="path328" d="M-264.542-5.043h-30.3a2.481,2.481,0,0,1-2.479-2.479A2.481,2.481,0,0,1-294.839-10h21.557a.808.808,0,0,1,.808.808.808.808,0,0,1-.808.808h-21.557a.863.863,0,0,0-.862.862.863.863,0,0,0,.862.862h30.3a.863.863,0,0,0,.862-.862.863.863,0,0,0-.862-.862h-4.43a.808.808,0,0,1-.808-.808.808.808,0,0,1,.808-.808h4.43a2.482,2.482,0,0,1,2.479,2.479A2.481,2.481,0,0,1-264.542-5.043Z" transform="translate(297.318 10)"/>
          </g>
          <g id="g330" transform="translate(13.934 41.007)">
            <path id="path332" d="M2.116-46.364h-30.3a2.481,2.481,0,0,1-2.479-2.479,2.481,2.481,0,0,1,2.479-2.479h30.3a2.481,2.481,0,0,1,2.479,2.479A2.481,2.481,0,0,1,2.116-46.364Zm-30.3-3.34a.863.863,0,0,0-.862.862.863.863,0,0,0,.862.862h30.3a.863.863,0,0,0,.862-.862.863.863,0,0,0-.862-.862Z" transform="translate(30.66 51.321)"/>
          </g>
          <g id="g334" transform="translate(30.572 28.003)">
            <path id="path336" d="M-14.523-46.364H-28.183a2.482,2.482,0,0,1-2.479-2.479,2.481,2.481,0,0,1,2.479-2.479h13.659a2.481,2.481,0,0,1,2.479,2.479A2.481,2.481,0,0,1-14.523-46.364ZM-28.183-49.7a.863.863,0,0,0-.862.862.863.863,0,0,0,.862.862h13.659a.863.863,0,0,0,.862-.862.863.863,0,0,0-.862-.862Z" transform="translate(30.661 51.321)"/>
          </g>
          <g id="g338" transform="translate(5.999 14.882)">
            <path id="path340" d="M-7.984-28.772a.808.808,0,0,1-.572-.237l-1.207-1.207a.808.808,0,0,1,0-1.143.808.808,0,0,1,1.143,0l.636.636,2.535-2.535a.808.808,0,0,1,1.143,0,.808.808,0,0,1,0,1.143l-3.107,3.107A.808.808,0,0,1-7.984-28.772Z" transform="translate(10 33.496)"/>
          </g>
          <g id="g342" transform="translate(13.975 21.443)">
            <path id="path344" d="M-7.984-28.772a.808.808,0,0,1-.572-.237l-1.207-1.207a.808.808,0,0,1,0-1.143.808.808,0,0,1,1.143,0l.636.636,2.535-2.535a.808.808,0,0,1,1.143,0,.808.808,0,0,1,0,1.143l-3.107,3.107A.808.808,0,0,1-7.984-28.772Z" transform="translate(10 33.496)"/>
          </g>
          <g id="g346" transform="translate(22.706 28.003)">
            <path id="path348" d="M-7.984-28.772a.808.808,0,0,1-.572-.237l-1.207-1.207a.808.808,0,0,1,0-1.143.808.808,0,0,1,1.143,0l.636.636,2.535-2.535a.808.808,0,0,1,1.143,0,.808.808,0,0,1,0,1.143l-3.107,3.107A.808.808,0,0,1-7.984-28.772Z" transform="translate(10 33.496)"/>
          </g>
          <g id="g350" transform="translate(5.999 34.564)">
            <path id="path352" d="M-7.984-28.772a.808.808,0,0,1-.572-.237l-1.207-1.207a.808.808,0,0,1,0-1.143.808.808,0,0,1,1.143,0l.636.636,2.535-2.535a.808.808,0,0,1,1.143,0,.808.808,0,0,1,0,1.143l-3.107,3.107A.808.808,0,0,1-7.984-28.772Z" transform="translate(10 33.496)"/>
          </g>
          <g id="g354" transform="translate(5.999 41.124)">
            <path id="path356" d="M-7.984-28.772a.808.808,0,0,1-.572-.237l-1.207-1.207a.808.808,0,0,1,0-1.143.808.808,0,0,1,1.143,0l.636.636,2.535-2.535a.808.808,0,0,1,1.143,0,.808.808,0,0,1,0,1.143l-3.107,3.107A.808.808,0,0,1-7.984-28.772Z" transform="translate(10 33.496)"/>
          </g>
        </g>
      </g>
    </g>
  </g>
</svg>
