<svg xmlns="http://www.w3.org/2000/svg" xmlns:xlink="http://www.w3.org/1999/xlink" width="107.141" height="107.142" viewBox="0 0 107.141 107.142">
  <defs>
    <filter id="Trazado_874925" x="0" y="0" width="107.141" height="107.142" filterUnits="userSpaceOnUse">
      <feOffset dy="3" input="SourceAlpha"/>
      <feGaussianBlur stdDeviation="3" result="blur"/>
      <feFlood flood-opacity="0.161"/>
      <feComposite operator="in" in2="blur"/>
      <feComposite in="SourceGraphic"/>
    </filter>
  </defs>
  <g id="Grupo_1205166" data-name="Grupo 1205166" transform="translate(625 8541)">
    <g id="Grupo_1204933" data-name="Grupo 1204933" transform="translate(-901 -14632.407)">
      <g id="Grupo_1187153" data-name="Grupo 1187153" transform="translate(285 6097.407)">
        <g id="Grupo_1182177" data-name="Grupo 1182177">
          <g id="Grupo_1181903" data-name="Grupo 1181903">
            <g id="Grupo_1181438" data-name="Grupo 1181438">
              <g id="Grupo_1111314" data-name="Grupo 1111314">
                <g transform="matrix(1, 0, 0, 1, -9, -6)" filter="url(#Trazado_874925)">
                  <g id="Trazado_874925-2" data-name="Trazado 874925" transform="translate(9 6)" fill="#e6e51d">
                    <path d="M 44.57049560546875 88.14150238037109 C 38.68807220458984 88.14150238037109 32.98214340209961 86.98964691162109 27.61120223999023 84.71792602539062 C 22.42297744750977 82.52349090576172 17.76327133178711 79.38175964355469 13.76150703430176 75.38001251220703 C 9.759742736816406 71.37824249267578 6.618013381958008 66.71852874755859 4.423577785491943 61.53030395507812 C 2.151860237121582 56.15936279296875 1.000001430511475 50.45343399047852 1.000001430511475 44.57101058959961 C 1.000001430511475 38.68807983398438 2.151860237121582 32.98215103149414 4.423577785491943 27.61119842529297 C 6.618013381958008 22.42297554016113 9.759742736816406 17.76326942443848 13.76150703430176 13.76150417327881 C 17.76327133178711 9.759739875793457 22.42297744750977 6.6180100440979 27.61120223999023 4.423574924468994 C 32.98214340209961 2.151857137680054 38.68807220458984 0.9999982714653015 44.57049560546875 0.9999982714653015 C 50.45291900634766 0.9999982714653015 56.15884780883789 2.151857137680054 61.52978897094727 4.423574924468994 C 66.71800994873047 6.6180100440979 71.37773132324219 9.759739875793457 75.37949371337891 13.76150417327881 C 79.38124847412109 17.76326942443848 82.52297973632812 22.42297554016113 84.71741485595703 27.61119842529297 C 86.98912811279297 32.98215103149414 88.1409912109375 38.68807983398438 88.1409912109375 44.57050323486328 C 88.1409912109375 50.45343399047852 86.98912811279297 56.15936279296875 84.71741485595703 61.53030395507812 C 82.52297973632812 66.71853637695312 79.38124847412109 71.37824249267578 75.37949371337891 75.38001251220703 C 71.37773132324219 79.38175964355469 66.71802520751953 82.52349090576172 61.52978897094727 84.71792602539062 C 56.15884780883789 86.98964691162109 50.45291900634766 88.14150238037109 44.57049560546875 88.14150238037109 Z" stroke="none"/>
                    <path d="M 44.57049560546875 2.000007629394531 C 38.82262802124023 2.000007629394531 33.24776077270508 3.125282287597656 28.00074768066406 5.344581604003906 C 22.93172454833984 7.488601684570312 18.37885284423828 10.55836486816406 14.46860504150391 14.46860504150391 C 10.55836486816406 18.37886047363281 7.488601684570312 22.93172454833984 5.344573974609375 28.00075149536133 C 3.125282287597656 33.24776458740234 2 38.8226318359375 2 44.57100296020508 C 2 50.31887054443359 3.125282287597656 55.89373779296875 5.344573974609375 61.14075088500977 C 7.488601684570312 66.20977783203125 10.55836486816406 70.76264190673828 14.46860504150391 74.67289733886719 C 18.37885284423828 78.58313751220703 22.93172454833984 81.65290069580078 28.00074768066406 83.79692077636719 C 33.24776077270508 86.01622009277344 38.82262802124023 87.14149475097656 44.57049560546875 87.14149475097656 C 50.31836318969727 87.14149475097656 55.89323043823242 86.01622009277344 61.14024353027344 83.79692077636719 C 66.20926666259766 81.65290069580078 70.76213836669922 78.58313751220703 74.67238616943359 74.67289733886719 C 78.58262634277344 70.76264190673828 81.65238952636719 66.20977783203125 83.79641723632812 61.14075088500977 C 86.01570892333984 55.89373779296875 87.1409912109375 50.31887054443359 87.1409912109375 44.57049942016602 C 87.1409912109375 38.8226318359375 86.01570892333984 33.24776458740234 83.79641723632812 28.00075149536133 C 81.65238952636719 22.93172454833984 78.58262634277344 18.37886047363281 74.67238616943359 14.46860504150391 C 70.76213836669922 10.55836486816406 66.20926666259766 7.488601684570312 61.14024353027344 5.344581604003906 C 55.89323043823242 3.125282287597656 50.31836318969727 2.000007629394531 44.57049560546875 2.000007629394531 M 44.57049560546875 7.62939453125e-06 C 69.18611145019531 7.62939453125e-06 89.1409912109375 19.95488739013672 89.1409912109375 44.57049942016602 L 89.1409912109375 44.57100296020508 C 89.1409912109375 69.18661499023438 69.18611145019531 89.14149475097656 44.57049560546875 89.14149475097656 C 19.95487976074219 89.14149475097656 0 69.18661499023438 0 44.57100296020508 L 0 44.57049942016602 C 0 19.95488739013672 19.95487976074219 7.62939453125e-06 44.57049560546875 7.62939453125e-06 Z" stroke="none" fill="#a09f14"/>
                  </g>
                </g>
              </g>
            </g>
          </g>
        </g>
      </g>
    </g>
    <g id="enlace2" transform="translate(-601 -8519)">
      <g id="Grupo_1205164" data-name="Grupo 1205164" transform="translate(1.906 1.906)">
        <g id="Grupo_1205158" data-name="Grupo 1205158" transform="translate(0 7.249)">
          <path id="Trazado_1241921" data-name="Trazado 1241921" d="M3.812,10h25.5a14.5,14.5,0,0,0-1.477,10.873H2V11.812A1.818,1.818,0,0,1,3.812,10Z" transform="translate(-2 -10)" fill="#b4dd7f"/>
        </g>
        <g id="Grupo_1205159" data-name="Grupo 1205159" transform="translate(3.624 10.873)">
          <path id="Trazado_1241922" data-name="Trazado 1241922" d="M16.873,15.812a1.812,1.812,0,0,1-1.812,1.812H7.812a1.812,1.812,0,0,1,0-3.624h7.249A1.812,1.812,0,0,1,16.873,15.812Z" transform="translate(-6 -14)" fill="#e6e9ed"/>
        </g>
        <g id="Grupo_1205160" data-name="Grupo 1205160" transform="translate(0 18.122)">
          <path id="Trazado_1241923" data-name="Trazado 1241923" d="M49.118,51H3.812A1.812,1.812,0,0,1,2,49.184V22H49.118Z" transform="translate(-2 -22)" fill="#e6e9ed"/>
        </g>
        <g id="Grupo_1205161" data-name="Grupo 1205161" transform="translate(25.371 0)">
          <circle id="Elipse_12432" data-name="Elipse 12432" cx="14.5" cy="14.5" r="14.5" transform="translate(-0.278 0.273)" fill="#fcd770"/>
        </g>
        <g id="Grupo_1205162" data-name="Grupo 1205162" transform="translate(3.624 21.747)">
          <ellipse id="Elipse_12433" data-name="Elipse 12433" cx="10.5" cy="11" rx="10.5" ry="11" transform="translate(0.469 -0.474)" fill="#69d6f4"/>
        </g>
        <g id="Grupo_1205163" data-name="Grupo 1205163" transform="translate(32.62 23.559)">
          <path id="Trazado_1241924" data-name="Trazado 1241924" d="M54.31,40.686a1.825,1.825,0,0,1,1.812-1.812,1.818,1.818,0,0,1,1.812,1.812v9.061a9.061,9.061,0,1,1-18.122,0V48.315a5.564,5.564,0,0,0-.571-2.437l-1.087-2.166a1.466,1.466,0,0,1,1.314-2.12,3.968,3.968,0,0,1,3.969,3.969V29.812a1.509,1.509,0,0,1,.036-.353V29.45A1.825,1.825,0,0,1,45.249,28a1.772,1.772,0,0,1,1.278.535,1.754,1.754,0,0,1,.5.915,1.587,1.587,0,0,1,.036.362v9.061a1.818,1.818,0,0,1,1.812-1.812,1.825,1.825,0,0,1,1.812,1.812v.906A1.818,1.818,0,0,1,52.5,37.967,1.825,1.825,0,0,1,54.31,39.78Z" transform="translate(-38 -28)" fill="#f0d0b4"/>
        </g>
      </g>
      <g id="Grupo_1205165" data-name="Grupo 1205165" transform="translate(1 1)">
        <path id="Trazado_1241925" data-name="Trazado 1241925" d="M7.718,18.437h7.249a2.718,2.718,0,0,0,0-5.437H7.718a2.718,2.718,0,0,0,0,5.437Zm2.718-1.812V14.812h1.812v1.812Zm5.437-.906a.907.907,0,0,1-.906.906h-.906V14.812h.906A.907.907,0,0,1,15.873,15.718Zm-8.155-.906h.906v1.812H7.718a.906.906,0,1,1,0-1.812Z" transform="translate(-1.376 -2.127)"/>
        <path id="Trazado_1241926" data-name="Trazado 1241926" d="M52.649,35.433a2.688,2.688,0,0,0-1.333.363,2.717,2.717,0,0,0-1.385-1.1V29.46a15.394,15.394,0,1,0-21.2-21.211H3.718A2.722,2.722,0,0,0,1,10.967V47.212a2.722,2.722,0,0,0,2.718,2.718H35.813a9.966,9.966,0,0,0,19.554-2.718V38.151a2.722,2.722,0,0,0-2.718-2.718Zm-4.531-.739a2.722,2.722,0,0,0-.427.2,2.664,2.664,0,0,0-3.2-1.1V31.552a15.249,15.249,0,0,0,3.624-1.119Zm-8.5-9.046a3.612,3.612,0,0,1-1.463-2.9V19.122a3.627,3.627,0,0,1,5.035-3.34l.706-1.67a5.434,5.434,0,0,0-5.53.784,3.626,3.626,0,0,1-.211-1.211V10.061a3.624,3.624,0,0,1,7.249,0v3.624a3.628,3.628,0,0,1-3.624,3.624,3.587,3.587,0,0,1-1.45-.3L39.6,18.669a5.431,5.431,0,0,0,5.59-.758,3.6,3.6,0,0,1,.211,1.211v3.624a3.615,3.615,0,0,1-1.463,2.9,2.691,2.691,0,0,0-4.322,0ZM41.776,2.812a13.588,13.588,0,0,1,2.718,26.9V27.446a5.423,5.423,0,0,0,2.718-4.7V19.122a5.382,5.382,0,0,0-.738-2.714,5.394,5.394,0,0,0,.738-2.723V10.061a5.437,5.437,0,1,0-10.873,0v3.624a5.374,5.374,0,0,0,.739,2.712,5.4,5.4,0,0,0-.739,2.725v3.624a5.42,5.42,0,0,0,2.718,4.7v2.268a13.588,13.588,0,0,1,2.718-26.9ZM3.718,10.061H27.754a15.2,15.2,0,0,0-1.136,9.061H2.812V10.967A.907.907,0,0,1,3.718,10.061Zm0,38.057a.907.907,0,0,1-.906-.906V20.935H27.065A15.4,15.4,0,0,0,39.057,31.552v7.714a4.831,4.831,0,0,0-3.065-1.115,2.376,2.376,0,0,0-2.372,2.373,2.4,2.4,0,0,0,.25,1.061l1.083,2.167a4.548,4.548,0,0,1,.479,2.026v1.433c0,.305.017.607.044.907Zm49.837-.906a8.155,8.155,0,1,1-16.31,0V45.777a6.38,6.38,0,0,0-.67-2.837l-1.083-2.166a.547.547,0,0,1-.06-.25.561.561,0,0,1,.56-.561,3.069,3.069,0,0,1,3.065,3.065V45.4h1.812V27.278a.906.906,0,1,1,1.812,0V45.4h1.812V36.339a.906.906,0,0,1,1.812,0V45.4h1.812V37.245a.906.906,0,0,1,1.812,0V45.4h1.812V38.151a.906.906,0,1,1,1.812,0Z" transform="translate(-1 -1)"/>
        <path id="Trazado_1241927" data-name="Trazado 1241927" d="M16.78,25a11.78,11.78,0,1,0,11.78,11.78A11.793,11.793,0,0,0,16.78,25Zm0,21.747c-.974,0-2.012-1.384-2.727-3.624h5.454C18.791,45.363,17.754,46.747,16.78,46.747ZM13.591,41.31a22.469,22.469,0,0,1-.417-3.624h7.211a22.572,22.572,0,0,1-.417,3.624ZM6.858,37.686h4.5a24.851,24.851,0,0,0,.371,3.624H7.912a9.876,9.876,0,0,1-1.054-3.624ZM16.78,26.812c.974,0,2.012,1.384,2.727,3.624H14.052C14.768,28.2,15.806,26.812,16.78,26.812Zm3.189,5.437a22.469,22.469,0,0,1,.417,3.624H13.174a22.572,22.572,0,0,1,.417-3.624Zm-8.605,3.624h-4.5a9.877,9.877,0,0,1,1.055-3.624h3.82A24.726,24.726,0,0,0,11.363,35.873ZM22.2,37.686h4.5a9.877,9.877,0,0,1-1.055,3.624h-3.82a24.726,24.726,0,0,0,.371-3.624Zm0-1.812a24.851,24.851,0,0,0-.371-3.624h3.82A9.894,9.894,0,0,1,26.7,35.873Zm2.266-5.437H21.406a12.523,12.523,0,0,0-1.26-3.027A10.012,10.012,0,0,1,24.463,30.437ZM13.414,27.409a12.559,12.559,0,0,0-1.26,3.027H9.1A10.009,10.009,0,0,1,13.414,27.409ZM9.1,43.122h3.056a12.523,12.523,0,0,0,1.26,3.027A10.012,10.012,0,0,1,9.1,43.122ZM20.145,46.15a12.559,12.559,0,0,0,1.26-3.027h3.056A10,10,0,0,1,20.145,46.15Z" transform="translate(-1.376 -3.253)"/>
      </g>
    </g>
  </g>
</svg>
