<svg xmlns="http://www.w3.org/2000/svg" width="99" height="99" viewBox="0 0 99 99">
  <g id="Grupo_1205210" data-name="Grupo 1205210" transform="translate(598 2695)">
    <g id="html-5" transform="translate(-649.883 -2683)">
      <path id="Trazado_1241946" data-name="Trazado 1241946" d="M108.4,0h3.4V3.372h3.135V0h3.4V10.2h-3.4V6.8h-3.105v3.4H108.4Zm14.433,3.4h-3V0h9.42V3.4h-3.017v6.8h-3.4ZM130.744,0h3.564L136.5,3.593,138.685,0h3.564V10.2h-3.4V5.146l-2.381,3.667-2.381-3.667V10.2h-3.342Zm13.191,0h3.4V6.832h4.821V10.2h-8.222Z" transform="translate(-28.802)"/>
      <path id="Trazado_1241947" data-name="Trazado 1241947" d="M79.48,155.374,74.6,100.6h53.65l-4.88,54.744-21.989,6.093" transform="translate(0 -85.724)" fill="#ff4c1e"/>
      <path id="Trazado_1241948" data-name="Trazado 1241948" d="M256,182.683V131h21.93l-4.185,46.729Z" transform="translate(-154.575 -111.628)" fill="#ff651e"/>
      <path id="Trazado_1241949" data-name="Trazado 1241949" d="M142,176.3h16.858l2.507,3.357-2.507,3.357h-9.494l.621,6.876h8.873l2.507,3.482-2.507,3.216H143.834Zm2.129,23.66h6.743l.473,5.368,7.512,2.011,2.828,3.351-2.828,3.658L145.076,210.5Z" transform="translate(-57.433 -150.229)" fill="#ebebeb"/>
      <path id="Trazado_1241950" data-name="Trazado 1241950" d="M272.628,176.3H255.8v6.714h16.207ZM271.4,189.89H255.8V196.6h8.281l-.784,8.725-7.5,2.011v6.98l13.753-3.815Z" transform="translate(-154.405 -150.229)" fill="#fff"/>
    </g>
    <g id="Rectángulo_410933" data-name="Rectángulo 410933" transform="translate(-598 -2695)" fill="none" stroke="#000" stroke-width="1">
      <rect width="99" height="99" stroke="none"/>
      <rect x="0.5" y="0.5" width="98" height="98" fill="none"/>
    </g>
  </g>
</svg>
