<svg xmlns="http://www.w3.org/2000/svg" width="99" height="99" viewBox="0 0 99 99">
  <g id="Grupo_1205221" data-name="Grupo 1205221" transform="translate(-1117.051 -8913)">
    <g id="Rectángulo_410933" data-name="Rectángulo 410933" transform="translate(1117.051 8913)" fill="none" stroke="#000" stroke-width="1">
      <rect width="99" height="99" stroke="none"/>
      <rect x="0.5" y="0.5" width="98" height="98" fill="none"/>
    </g>
    <g id="css3" transform="translate(1048.242 8898.501)">
      <g id="形状_1_19_" transform="translate(91.809 42.021)">
        <g id="形状_1" transform="translate(0 0)">
          <g id="Grupo_1205211" data-name="Grupo 1205211">
            <path id="Trazado_1241951" data-name="Trazado 1241951" d="M91.809,117.07l5.276,57.157,22.863,6.156,22.863-6.156,5.277-57.157Z" transform="translate(-91.809 -117.07)" fill="#1758a7" fill-rule="evenodd"/>
          </g>
        </g>
      </g>
      <g id="形状_1_18_" transform="translate(119.948 46.651)">
        <g id="形状_1_1_" transform="translate(0 0)">
          <g id="Grupo_1205212" data-name="Grupo 1205212">
            <path id="Trazado_1241952" data-name="Trazado 1241952" d="M256,144.084v53.774l.052.014,18.5-4.982,4.27-48.806Z" transform="translate(-255.997 -144.084)" fill="#379ad6" fill-rule="evenodd"/>
          </g>
        </g>
      </g>
      <g id="形状_1_17_" transform="translate(104.672 78.253)">
        <g id="形状_1_2_" transform="translate(0 0)">
          <g id="Grupo_1205213" data-name="Grupo 1205213">
            <path id="Trazado_1241953" data-name="Trazado 1241953" d="M182.073,336.03l-.012,0-7.638-1.947-.463-5.607h-7.1l.926,10.825,14.351,4.283v-7.576Z" transform="translate(-166.861 -328.479)" fill="#e8e8e7" fill-rule="evenodd"/>
          </g>
        </g>
      </g>
      <g id="形状_1_16_" transform="translate(119.949 67.679)">
        <g id="形状_1_3_" transform="translate(0 0)">
          <g id="Grupo_1205214" data-name="Grupo 1205214">
            <path id="Trazado_1241954" data-name="Trazado 1241954" d="M256,266.782v6.877h.02l8.484.009-.544,8.99-7.939,2.237-.02.006v7.556l.02.006.006,0,14.389-4.2,1.867-21.48Z" transform="translate(-256.001 -266.782)" fill="#fbfbfa" fill-rule="evenodd"/>
          </g>
        </g>
      </g>
      <g id="形状_1_15_" transform="translate(103.667 67.679)">
        <g id="形状_1_4_" transform="translate(0 0)">
          <g id="Grupo_1205215" data-name="Grupo 1205215">
            <path id="Trazado_1241955" data-name="Trazado 1241955" d="M161,266.782l.54,6.87v.011h15.74v-6.882Z" transform="translate(-161.002 -266.782)" fill="#e5e4e2" fill-rule="evenodd"/>
          </g>
        </g>
      </g>
      <g id="形状_1_14_" transform="translate(103.668 60.796)">
        <g id="形状_1_5_" transform="translate(0)">
          <g id="Grupo_1205216" data-name="Grupo 1205216">
            <path id="Trazado_1241956" data-name="Trazado 1241956" d="M161.008,233.5h16.24l.04-.017v-6.866Z" transform="translate(-161.008 -226.617)" fill="#eee" fill-rule="evenodd"/>
          </g>
        </g>
      </g>
      <g id="形状_1_13_" transform="translate(119.949 60.461)">
        <g id="形状_1_6_">
          <g id="Grupo_1205217" data-name="Grupo 1205217">
            <path id="Trazado_1241957" data-name="Trazado 1241957" d="M256.953,224.667l-.952.4v6.818l16.788-7.216Z" transform="translate(-256.001 -224.667)" fill="#fff" fill-rule="evenodd"/>
          </g>
        </g>
      </g>
      <g id="形状_1_12_" transform="translate(102.158 53.58)">
        <g id="形状_1_7_" transform="translate(0)">
          <g id="Grupo_1205218" data-name="Grupo 1205218">
            <path id="Trazado_1241958" data-name="Trazado 1241958" d="M152.2,184.515l.851,6.881h16.94v-6.881Z" transform="translate(-152.196 -184.515)" fill="#e7e7e6" fill-rule="evenodd"/>
          </g>
        </g>
      </g>
      <g id="形状_1_11_" transform="translate(119.949 53.58)">
        <g id="形状_1_8_" transform="translate(0 0)">
          <g id="Grupo_1205219" data-name="Grupo 1205219">
            <path id="Trazado_1241959" data-name="Trazado 1241959" d="M256,191.4l17.454-6.881H256Zm0,0H272.76l.7-6.881Z" transform="translate(-256.001 -184.515)" fill="#f8f8f7" fill-rule="evenodd"/>
          </g>
        </g>
      </g>
      <g id="形状_1_10_" transform="translate(103.25 26.499)">
        <g id="形状_1_9_" transform="translate(0 0)">
          <g id="Grupo_1205220" data-name="Grupo 1205220">
            <path id="Trazado_1241960" data-name="Trazado 1241960" d="M158.564,37.021h8.686v-3.4h-4.963v-3.4h4.963V26.5h-8.686Zm12.4-6.8c1.162,1.162,1.768,1.718,3.449,3.4l-3.449,0v3.4h8.687v-3.4l-3.47-3.4h3.47V26.5h-8.687Zm21-3.723h-8.687v3.723c1.162,1.162,1.768,1.718,3.449,3.4l-3.449,0v3.4h8.687v-3.4l-3.47-3.4h3.47Z" transform="translate(-158.564 -26.499)" fill="#1b1b1b" fill-rule="evenodd"/>
          </g>
        </g>
      </g>
    </g>
  </g>
</svg>
