<svg xmlns="http://www.w3.org/2000/svg" width="99" height="99" viewBox="0 0 99 99">
  <g id="Grupo_1205222" data-name="Grupo 1205222" transform="translate(605 2695)">
    <g id="Rectángulo_410933" data-name="Rectángulo 410933" transform="translate(-605 -2695)" fill="none" stroke="#1f1f1f" stroke-width="1">
      <rect width="99" height="99" stroke="none"/>
      <rect x="0.5" y="0.5" width="98" height="98" fill="none"/>
    </g>
    <g id="js" transform="translate(-594.922 -2684.922)">
      <path id="Trazado_1241961" data-name="Trazado 1241961" d="M0,0H78.844V78.844H0Z" fill="#ffdf00"/>
      <path id="Trazado_1241962" data-name="Trazado 1241962" d="M167.013,258.159c1.588,2.593,3.654,4.5,7.309,4.5,3.07,0,5.031-1.534,5.031-3.654,0-2.541-2.015-3.44-5.394-4.918l-1.852-.795c-5.346-2.278-8.9-5.131-8.9-11.163,0-5.557,4.234-9.787,10.85-9.787,4.711,0,8.1,1.639,10.537,5.932l-5.769,3.7c-1.27-2.278-2.641-3.175-4.768-3.175a3.224,3.224,0,0,0-3.546,3.175c0,2.223,1.377,3.122,4.555,4.5l1.852.793c6.3,2.7,9.849,5.451,9.849,11.639,0,6.67-5.24,10.325-12.277,10.325-6.881,0-11.326-3.279-13.5-7.577Zm-26.172.642c1.164,2.065,2.223,3.811,4.768,3.811,2.434,0,3.97-.952,3.97-4.655V232.764h7.409v25.293c0,7.672-4.5,11.163-11.063,11.163-5.932,0-9.367-3.07-11.115-6.767Z" transform="translate(-114.05 -196.562)"/>
    </g>
  </g>
</svg>
