<svg xmlns="http://www.w3.org/2000/svg" width="420" height="204.404" viewBox="0 0 420 204.404">
  <g id="Grupo_1205902" data-name="Grupo 1205902" transform="translate(-790 -10458.068)">
    <rect id="Rectángulo_410879" data-name="Rectángulo 410879" width="420" height="204.405" transform="translate(790 10458.068)" fill="#8b6fa0"/>
    <g id="Grupo_1205227" data-name="Grupo 1205227" transform="translate(869.215 10472.585)">
      <g id="Grupo_1205228" data-name="Grupo 1205228">
        <rect id="Rectángulo_410949" data-name="Rectángulo 410949" width="119.236" height="62.027" transform="translate(38.696 87.521)" fill="#c8a0e6"/>
        <path id="Trazado_1241964" data-name="Trazado 1241964" d="M376.458,26.712v3.573h-122.8V26.712a4.423,4.423,0,0,1,4.424-4.421H372.038a4.42,4.42,0,0,1,4.421,4.421" transform="translate(-148.455 -13.046)" fill="#25292b"/>
        <path id="Trazado_1241965" data-name="Trazado 1241965" d="M518.2,30.95h-8.6a1.036,1.036,0,0,1,0-2.071h8.6a1.036,1.036,0,1,1,0,2.071" transform="translate(-297.646 -16.902)" fill="#f2e9da"/>
        <path id="Trazado_1241966" data-name="Trazado 1241966" d="M484.1,31.316h-8.6a1.036,1.036,0,1,1,0-2.071h8.6a1.036,1.036,0,1,1,0,2.071" transform="translate(-277.685 -17.116)" fill="#e9d8f5"/>
        <path id="Trazado_1241967" data-name="Trazado 1241967" d="M449.938,31.316h-8.6a1.036,1.036,0,0,1,0-2.071h8.6a1.036,1.036,0,1,1,0,2.071" transform="translate(-257.693 -17.116)" fill="#e9d8f5"/>
        <path id="Trazado_1241968" data-name="Trazado 1241968" d="M371.253,21.354H257.781a5.063,5.063,0,0,0-5.057,5.057v60.3h.309v-60.3a4.753,4.753,0,0,1,4.748-4.748H371.253a4.748,4.748,0,0,1,4.736,4.748v80.048a4.748,4.748,0,0,1-4.736,4.748h-.077v.309h.077a5.057,5.057,0,0,0,5.045-5.057V26.411a5.057,5.057,0,0,0-5.045-5.057" transform="translate(-147.909 -12.498)" fill="#25292b"/>
        <rect id="Rectángulo_410950" data-name="Rectángulo 410950" width="89.076" height="36.134" transform="translate(102.215 37.325)" fill="#c8a0e6"/>
        <rect id="Rectángulo_410951" data-name="Rectángulo 410951" width="28.446" height="28.446" transform="translate(105.215 41.17)" fill="#f2e9da"/>
        <rect id="Rectángulo_410952" data-name="Rectángulo 410952" width="47.611" height="2.31" transform="translate(137.437 41.824)" fill="#f2e9da"/>
        <rect id="Rectángulo_410953" data-name="Rectángulo 410953" width="47.611" height="2.31" transform="translate(137.437 46.562)" fill="#f2e9da"/>
        <rect id="Rectángulo_410954" data-name="Rectángulo 410954" width="47.611" height="2.31" transform="translate(137.437 51.627)" fill="#f2e9da"/>
        <rect id="Rectángulo_410955" data-name="Rectángulo 410955" width="47.611" height="2.31" transform="translate(137.437 56.365)" fill="#f2e9da"/>
        <rect id="Rectángulo_410956" data-name="Rectángulo 410956" width="47.611" height="2.31" transform="translate(137.437 61.031)" fill="#f2e9da"/>
        <rect id="Rectángulo_410957" data-name="Rectángulo 410957" width="32.691" height="2.31" transform="translate(137.437 65.768)" fill="#f2e9da"/>
        <path id="Trazado_1241969" data-name="Trazado 1241969" d="M285.232,124.118h-2.4a.207.207,0,1,1,0-.415h2.4a.207.207,0,0,1,0,.415m-4.8,0h-2.4a.207.207,0,1,1,0-.415h2.4a.207.207,0,1,1,0,.415m-4.8,0h-2.4a.207.207,0,0,1,0-.415h2.4a.207.207,0,0,1,0,.415m-4.8,0h-2.4a.207.207,0,1,1,0-.415h2.4a.207.207,0,0,1,0,.415m-4.8,0h-2.4a.207.207,0,0,1,0-.415h2.4a.207.207,0,0,1,0,.415m-4.8,0h-2.4a.207.207,0,1,1,0-.415h2.4a.207.207,0,0,1,0,.415m-4.464-.332a.207.207,0,0,1-.207-.207v-2.4a.207.207,0,0,1,.415,0v2.4a.207.207,0,0,1-.207.207m28.446-.739a.207.207,0,0,1-.207-.207v-2.4a.207.207,0,0,1,.415,0v2.4a.208.208,0,0,1-.207.207m-28.446-4.058a.207.207,0,0,1-.207-.207v-2.4a.207.207,0,1,1,.415,0v2.4a.207.207,0,0,1-.207.207m28.446-.739a.207.207,0,0,1-.207-.207v-2.4a.207.207,0,0,1,.415,0v2.4a.207.207,0,0,1-.207.207m-28.446-4.057a.207.207,0,0,1-.207-.207v-2.4a.207.207,0,1,1,.415,0v2.4a.207.207,0,0,1-.207.207m28.446-.739a.207.207,0,0,1-.207-.207v-2.4a.207.207,0,0,1,.415,0v2.4a.208.208,0,0,1-.207.207M256.785,109.4a.207.207,0,0,1-.207-.207v-2.4a.207.207,0,1,1,.415,0v2.4a.207.207,0,0,1-.207.207m28.446-.739a.207.207,0,0,1-.207-.207v-2.4a.207.207,0,0,1,.415,0v2.4a.207.207,0,0,1-.207.207M256.785,104.6a.207.207,0,0,1-.207-.207v-2.4a.207.207,0,1,1,.415,0v2.4a.207.207,0,0,1-.207.207m28.446-.738a.207.207,0,0,1-.207-.207v-2.4a.207.207,0,0,1,.415,0v2.4a.208.208,0,0,1-.207.207M256.785,99.8a.207.207,0,0,1-.207-.207V97.2a.207.207,0,0,1,.415,0v2.4a.207.207,0,0,1-.207.207m28.446-.739a.207.207,0,0,1-.207-.207v-2.4a.207.207,0,0,1,.415,0v2.4a.208.208,0,0,1-.207.207m-1.4-3.394h-2.4a.207.207,0,0,1,0-.415h2.4a.207.207,0,0,1,0,.415m-4.8,0h-2.4a.207.207,0,0,1,0-.415h2.4a.207.207,0,1,1,0,.415m-4.8,0h-2.4a.207.207,0,0,1,0-.415h2.4a.207.207,0,0,1,0,.415m-4.8,0h-2.4a.207.207,0,0,1,0-.415h2.4a.207.207,0,1,1,0,.415m-4.8,0h-2.4a.207.207,0,0,1,0-.415h2.4a.207.207,0,0,1,0,.415m-4.8,0h-2.4a.207.207,0,0,1,0-.415h2.4a.207.207,0,0,1,0,.415" transform="translate(-150.165 -55.75)" fill="#25292b"/>
        <path id="Trazado_1241970" data-name="Trazado 1241970" d="M335.926,55.538v1.906a3.155,3.155,0,0,1-3.146,3.146H249a3.155,3.155,0,0,1-3.146-3.146V55.538A3.156,3.156,0,0,1,249,52.392H332.78a3.155,3.155,0,0,1,3.146,3.146" transform="translate(-143.889 -30.663)" fill="#f2e9da"/>
        <path id="Trazado_1241971" data-name="Trazado 1241971" d="M290.449,60.513H289.7v-2.15a.94.94,0,0,0-.163-.6.63.63,0,0,0-.517-.2.821.821,0,0,0-.688.28,1.544,1.544,0,0,0-.22.938v1.736h-.743v-4.92h.743v1.249a5.935,5.935,0,0,1-.038.642h.047a1.033,1.033,0,0,1,.422-.392,1.359,1.359,0,0,1,.631-.139,1.128,1.128,0,0,1,1.271,1.281Z" transform="translate(-168.187 -32.536)" fill="#25292b"/>
        <path id="Trazado_1241972" data-name="Trazado 1241972" d="M298.012,60.886a1.814,1.814,0,0,0,.544-.085v.56a1.507,1.507,0,0,1-.318.09,2.166,2.166,0,0,1-.4.036q-1.056,0-1.056-1.113V58.488H296.3V58.16l.512-.272.253-.74h.459v.778h1v.563h-1v1.872a.525.525,0,0,0,.134.4.489.489,0,0,0,.353.128" transform="translate(-173.413 -33.446)" fill="#25292b"/>
        <path id="Trazado_1241973" data-name="Trazado 1241973" d="M304.151,60.886a1.814,1.814,0,0,0,.544-.085v.56a1.506,1.506,0,0,1-.318.09,2.165,2.165,0,0,1-.4.036q-1.056,0-1.056-1.113V58.488h-.477V58.16l.512-.272.253-.74h.459v.778h1v.563h-1v1.872a.525.525,0,0,0,.134.4.489.489,0,0,0,.353.128" transform="translate(-177.006 -33.446)" fill="#25292b"/>
        <path id="Trazado_1241974" data-name="Trazado 1241974" d="M311.335,62.5a1.226,1.226,0,0,1-1.031-.477h-.044c.029.3.044.474.044.538v1.433h-.743V58.934h.6q.025.1.1.468h.038a1.165,1.165,0,0,1,1.043-.531,1.213,1.213,0,0,1,1.02.474,2.6,2.6,0,0,1-.006,2.669,1.224,1.224,0,0,1-1.026.481m-.18-3.017a.772.772,0,0,0-.647.259,1.344,1.344,0,0,0-.2.829v.111a1.636,1.636,0,0,0,.2.925.753.753,0,0,0,.661.286.671.671,0,0,0,.594-.316,1.635,1.635,0,0,0,.209-.9,1.577,1.577,0,0,0-.207-.89.691.691,0,0,0-.609-.3" transform="translate(-181.173 -34.455)" fill="#25292b"/>
        <path id="Trazado_1241975" data-name="Trazado 1241975" d="M321.328,61.436a.915.915,0,0,1-.373.786,1.787,1.787,0,0,1-1.069.273,2.53,2.53,0,0,1-1.123-.212v-.642a2.76,2.76,0,0,0,1.148.285q.687,0,.686-.414a.329.329,0,0,0-.076-.221.908.908,0,0,0-.25-.183,4.354,4.354,0,0,0-.484-.215,2.237,2.237,0,0,1-.817-.468.866.866,0,0,1-.214-.607.8.8,0,0,1,.362-.7,1.719,1.719,0,0,1,.985-.248,2.788,2.788,0,0,1,1.167.25l-.241.559a2.6,2.6,0,0,0-.951-.234q-.589,0-.589.335a.338.338,0,0,0,.153.278,3.357,3.357,0,0,0,.669.313,3.063,3.063,0,0,1,.629.307.919.919,0,0,1,.291.321.931.931,0,0,1,.095.435" transform="translate(-186.555 -34.455)" fill="#25292b"/>
        <path id="Trazado_1241976" data-name="Trazado 1241976" d="M326.625,59.317a.418.418,0,0,1,.468-.477.459.459,0,0,1,.354.126.5.5,0,0,1,.117.351.5.5,0,0,1-.122.356.53.53,0,0,1-.7,0,.5.5,0,0,1-.12-.358m0,2.7a.485.485,0,0,1,.12-.354.463.463,0,0,1,.348-.123.458.458,0,0,1,.351.128.491.491,0,0,1,.12.35.5.5,0,0,1-.122.356.532.532,0,0,1-.7,0,.5.5,0,0,1-.12-.358" transform="translate(-191.16 -34.437)" fill="#25292b"/>
        <path id="Trazado_1241977" data-name="Trazado 1241977" d="M332.449,56.309l-1.72,4.624h-.7l1.723-4.624Z" transform="translate(-193.151 -32.955)" fill="#25292b"/>
        <path id="Trazado_1241978" data-name="Trazado 1241978" d="M338.541,56.309l-1.72,4.624h-.7l1.723-4.624Z" transform="translate(-196.717 -32.955)" fill="#25292b"/>
        <path id="Trazado_1241979" data-name="Trazado 1241979" d="M262.418,56.561V58.53a2.373,2.373,0,0,1-2.367,2.367h-9.674a2.373,2.373,0,0,1-2.367-2.367V56.561a2.373,2.373,0,0,1,2.367-2.367h9.674a2.373,2.373,0,0,1,2.367,2.367" transform="translate(-145.15 -31.718)" fill="#8b6fa0"/>
        <path id="Trazado_1241980" data-name="Trazado 1241980" d="M235.823,187.736v3.813h-122.8v-3.813a4.175,4.175,0,0,1,4.177-4.177H231.647a4.173,4.173,0,0,1,4.177,4.177" transform="translate(-66.147 -107.43)" fill="#25292b"/>
        <path id="Trazado_1241981" data-name="Trazado 1241981" d="M377.569,193.012h-8.6a1.036,1.036,0,0,1,0-2.071h8.6a1.036,1.036,0,1,1,0,2.071" transform="translate(-215.339 -111.75)" fill="#c8a0e6"/>
        <path id="Trazado_1241982" data-name="Trazado 1241982" d="M343.463,193.012h-8.6a1.036,1.036,0,1,1,0-2.071h8.6a1.036,1.036,0,1,1,0,2.071" transform="translate(-195.378 -111.75)" fill="#f2e9da"/>
        <path id="Trazado_1241983" data-name="Trazado 1241983" d="M309.3,193.012h-8.6a1.036,1.036,0,0,1,0-2.071h8.6a1.036,1.036,0,1,1,0,2.071" transform="translate(-175.386 -111.75)" fill="#c8a0e6"/>
        <path id="Trazado_1241984" data-name="Trazado 1241984" d="M230.619,273.212H117.147a5.063,5.063,0,0,1-5.057-5.057V188.107a5.063,5.063,0,0,1,5.057-5.057H230.619a5.057,5.057,0,0,1,5.045,5.057v80.048a5.057,5.057,0,0,1-5.045,5.057M117.147,183.359a4.753,4.753,0,0,0-4.748,4.748v80.048a4.753,4.753,0,0,0,4.748,4.748H230.619a4.748,4.748,0,0,0,4.736-4.748V188.107a4.748,4.748,0,0,0-4.736-4.748Z" transform="translate(-65.602 -107.132)" fill="#25292b"/>
        <rect id="Rectángulo_410958" data-name="Rectángulo 410958" width="28.361" height="28.361" transform="translate(52.893 92.169)" fill="#f2e9da"/>
        <path id="Trazado_1241985" data-name="Trazado 1241985" d="M147.923,249.976a11.064,11.064,0,1,1,11.064-11.064,11.076,11.076,0,0,1-11.064,11.064m0-19.926a8.862,8.862,0,1,0,8.863,8.863,8.872,8.872,0,0,0-8.863-8.863" transform="translate(-80.098 -133.35)" fill="#c8a0e6"/>
        <path id="Trazado_1241986" data-name="Trazado 1241986" d="M165,246.017l-9.368,5.7a.785.785,0,0,1-1.194-.672V239.652a.785.785,0,0,1,1.194-.668L165,244.677a.782.782,0,0,1,0,1.34" transform="translate(-90.384 -139.8)" fill="#c8a0e6"/>
        <path id="Trazado_1241987" data-name="Trazado 1241987" d="M157.413,248.608h-2.5a.207.207,0,1,1,0-.415h2.5a.207.207,0,0,1,0,.415m-5.007,0h-2.5a.207.207,0,0,1,0-.415h2.5a.207.207,0,0,1,0,.415m-5.007,0h-2.5a.207.207,0,1,1,0-.415h2.5a.207.207,0,0,1,0,.415m-5.007,0h-2.5a.207.207,0,1,1,0-.415h2.5a.207.207,0,1,1,0,.415m-5.007,0h-2.5a.207.207,0,1,1,0-.415h2.5a.207.207,0,0,1,0,.415m-5.007,0h-2.5a.207.207,0,0,1,0-.415h2.5a.207.207,0,0,1,0,.415m25.036-.783a.207.207,0,0,1-.207-.207v-2.5a.207.207,0,1,1,.415,0v2.5a.207.207,0,0,1-.207.207m-28.361-.9a.207.207,0,0,1-.207-.207v-2.5a.207.207,0,0,1,.415,0v2.5a.207.207,0,0,1-.207.207m28.361-4.109a.207.207,0,0,1-.207-.207v-2.5a.207.207,0,0,1,.415,0v2.5a.207.207,0,0,1-.207.207m-28.361-.9a.207.207,0,0,1-.207-.207v-2.5a.207.207,0,0,1,.415,0v2.5a.207.207,0,0,1-.207.207m28.361-4.109a.207.207,0,0,1-.207-.207v-2.5a.207.207,0,1,1,.415,0v2.5a.207.207,0,0,1-.207.207m-28.361-.9a.207.207,0,0,1-.207-.207v-2.5a.207.207,0,0,1,.415,0v2.5a.207.207,0,0,1-.207.207m28.361-4.109a.207.207,0,0,1-.207-.207v-2.5a.207.207,0,1,1,.415,0v2.5a.207.207,0,0,1-.207.207m-28.361-.9a.207.207,0,0,1-.207-.207v-2.5a.207.207,0,0,1,.415,0v2.5a.207.207,0,0,1-.207.207m28.361-4.108a.207.207,0,0,1-.207-.207v-2.5a.207.207,0,1,1,.415,0v2.5a.207.207,0,0,1-.207.207m-28.361-.9a.207.207,0,0,1-.207-.207v-2.5a.207.207,0,0,1,.415,0v2.5a.207.207,0,0,1-.207.207m28.361-4.109a.207.207,0,0,1-.207-.207v-2.5a.207.207,0,1,1,.415,0v2.5a.207.207,0,0,1-.207.207m-28.361-.9a.207.207,0,0,1-.207-.207v-1.644a.207.207,0,0,1,.207-.207h.86a.207.207,0,0,1,0,.415h-.653v1.436a.207.207,0,0,1-.207.207m25.9-1.644h-2.5a.207.207,0,1,1,0-.415h2.5a.207.207,0,1,1,0,.415m-5.007,0h-2.5a.207.207,0,1,1,0-.415h2.5a.207.207,0,0,1,0,.415m-5.007,0h-2.5a.207.207,0,0,1,0-.415h2.5a.207.207,0,1,1,0,.415m-5.007,0h-2.5a.207.207,0,1,1,0-.415h2.5a.207.207,0,0,1,0,.415m-5.007,0h-2.5a.207.207,0,1,1,0-.415h2.5a.207.207,0,0,1,0,.415" transform="translate(-75.407 -128.659)" fill="#25292b"/>
        <path id="Trazado_1241988" data-name="Trazado 1241988" d="M155.079,303.144H128.348a.817.817,0,0,1-.815-.815v-.01a.817.817,0,0,1,.815-.815h26.731a.817.817,0,0,1,.815.815v.01a.817.817,0,0,1-.815.815" transform="translate(-74.64 -176.459)" fill="#f2e9da"/>
        <path id="Trazado_1241989" data-name="Trazado 1241989" d="M155.079,316.531H128.348a.817.817,0,0,1-.815-.815v-.01a.817.817,0,0,1,.815-.815h26.731a.817.817,0,0,1,.815.815v.01a.817.817,0,0,1-.815.815" transform="translate(-74.64 -184.293)" fill="#f2e9da"/>
        <path id="Trazado_1241990" data-name="Trazado 1241990" d="M155.079,331.042H128.348a.817.817,0,0,1-.815-.815v-.01a.817.817,0,0,1,.815-.815h26.731a.817.817,0,0,1,.815.815v.01a.817.817,0,0,1-.815.815" transform="translate(-74.64 -192.786)" fill="#f2e9da"/>
        <path id="Trazado_1241991" data-name="Trazado 1241991" d="M155.079,344.43H128.348a.817.817,0,0,1-.815-.815v-.01a.817.817,0,0,1,.815-.815h26.731a.817.817,0,0,1,.815.815v.01a.817.817,0,0,1-.815.815" transform="translate(-74.64 -200.621)" fill="#f2e9da"/>
        <rect id="Rectángulo_410959" data-name="Rectángulo 410959" width="28.361" height="28.361" transform="translate(88.13 92.169)" fill="#f2e9da"/>
        <path id="Trazado_1241992" data-name="Trazado 1241992" d="M232.885,249.976a11.064,11.064,0,1,1,11.064-11.064,11.076,11.076,0,0,1-11.064,11.064m0-19.926a8.862,8.862,0,1,0,8.863,8.863,8.872,8.872,0,0,0-8.863-8.863" transform="translate(-129.823 -133.35)" fill="#c8a0e6"/>
        <path id="Trazado_1241993" data-name="Trazado 1241993" d="M249.959,246.017l-9.368,5.7a.785.785,0,0,1-1.194-.672V239.652a.785.785,0,0,1,1.194-.668l9.368,5.692a.783.783,0,0,1,0,1.34" transform="translate(-140.109 -139.8)" fill="#c8a0e6"/>
        <path id="Trazado_1241994" data-name="Trazado 1241994" d="M242.375,248.608h-2.5a.207.207,0,0,1,0-.415h2.5a.207.207,0,1,1,0,.415m-5.007,0h-2.5a.207.207,0,1,1,0-.415h2.5a.207.207,0,0,1,0,.415m-5.007,0h-2.5a.207.207,0,1,1,0-.415h2.5a.207.207,0,0,1,0,.415m-5.007,0h-2.5a.207.207,0,1,1,0-.415h2.5a.207.207,0,1,1,0,.415m-5.007,0h-2.5a.207.207,0,1,1,0-.415h2.5a.207.207,0,1,1,0,.415m-5.007,0h-2.5a.207.207,0,1,1,0-.415h2.5a.207.207,0,1,1,0,.415m25.036-.783a.207.207,0,0,1-.207-.207v-2.5a.207.207,0,1,1,.415,0v2.5a.207.207,0,0,1-.207.207m-28.361-.9a.207.207,0,0,1-.207-.207v-2.5a.207.207,0,0,1,.415,0v2.5a.207.207,0,0,1-.207.207m28.361-4.108a.207.207,0,0,1-.207-.207v-2.5a.207.207,0,0,1,.415,0v2.5a.207.207,0,0,1-.207.207m-28.361-.9a.207.207,0,0,1-.207-.207v-2.5a.207.207,0,0,1,.415,0v2.5a.207.207,0,0,1-.207.207m28.361-4.108a.207.207,0,0,1-.207-.207v-2.5a.207.207,0,0,1,.415,0v2.5a.207.207,0,0,1-.207.207m-28.361-.9a.207.207,0,0,1-.207-.207v-2.5a.207.207,0,1,1,.415,0v2.5a.207.207,0,0,1-.207.207m28.361-4.109a.207.207,0,0,1-.207-.207v-2.5a.207.207,0,0,1,.415,0v2.5a.207.207,0,0,1-.207.207m-28.361-.9a.207.207,0,0,1-.207-.207v-2.5a.207.207,0,0,1,.415,0v2.5a.207.207,0,0,1-.207.207m28.361-4.108a.207.207,0,0,1-.207-.207v-2.5a.207.207,0,0,1,.415,0v2.5a.207.207,0,0,1-.207.207m-28.361-.9a.207.207,0,0,1-.207-.207v-2.5a.207.207,0,0,1,.415,0v2.5a.207.207,0,0,1-.207.207m28.361-4.108a.207.207,0,0,1-.207-.207v-2.5a.207.207,0,1,1,.415,0v2.5a.207.207,0,0,1-.207.207m-28.361-.9a.207.207,0,0,1-.207-.207v-1.643a.207.207,0,0,1,.207-.207h.86a.207.207,0,0,1,0,.415h-.653v1.436a.207.207,0,0,1-.207.207m25.9-1.643h-2.5a.207.207,0,0,1,0-.415h2.5a.207.207,0,0,1,0,.415m-5.007,0h-2.5a.207.207,0,1,1,0-.415h2.5a.207.207,0,1,1,0,.415m-5.007,0h-2.5a.207.207,0,1,1,0-.415h2.5a.207.207,0,0,1,0,.415m-5.007,0h-2.5a.207.207,0,1,1,0-.415h2.5a.207.207,0,0,1,0,.415m-5.007,0h-2.5a.207.207,0,1,1,0-.415h2.5a.207.207,0,0,1,0,.415" transform="translate(-125.133 -128.659)" fill="#25292b"/>
        <path id="Trazado_1241995" data-name="Trazado 1241995" d="M240.041,303.144H213.31a.817.817,0,0,1-.815-.815v-.01a.817.817,0,0,1,.815-.815h26.731a.817.817,0,0,1,.815.815v.01a.817.817,0,0,1-.815.815" transform="translate(-124.365 -176.459)" fill="#f2e9da"/>
        <path id="Trazado_1241996" data-name="Trazado 1241996" d="M240.041,316.531H213.31a.817.817,0,0,1-.815-.815v-.01a.817.817,0,0,1,.815-.815h26.731a.817.817,0,0,1,.815.815v.01a.817.817,0,0,1-.815.815" transform="translate(-124.365 -184.293)" fill="#f2e9da"/>
        <path id="Trazado_1241997" data-name="Trazado 1241997" d="M240.041,331.042H213.31a.817.817,0,0,1-.815-.815v-.01a.817.817,0,0,1,.815-.815h26.731a.817.817,0,0,1,.815.815v.01a.817.817,0,0,1-.815.815" transform="translate(-124.365 -192.786)" fill="#f2e9da"/>
        <path id="Trazado_1241998" data-name="Trazado 1241998" d="M240.041,344.43H213.31a.817.817,0,0,1-.815-.815v-.01a.817.817,0,0,1,.815-.815h26.731a.817.817,0,0,1,.815.815v.01a.817.817,0,0,1-.815.815" transform="translate(-124.365 -200.621)" fill="#f2e9da"/>
        <rect id="Rectángulo_410960" data-name="Rectángulo 410960" width="28.361" height="28.361" transform="translate(123.066 92.169)" fill="#f2e9da"/>
        <path id="Trazado_1241999" data-name="Trazado 1241999" d="M317.12,249.976a11.064,11.064,0,1,1,11.064-11.064,11.076,11.076,0,0,1-11.064,11.064m0-19.926a8.862,8.862,0,1,0,8.863,8.863,8.872,8.872,0,0,0-8.863-8.863" transform="translate(-179.122 -133.35)" fill="#c8a0e6"/>
        <path id="Trazado_1242000" data-name="Trazado 1242000" d="M334.193,246.017l-9.368,5.7a.785.785,0,0,1-1.194-.672V239.652a.785.785,0,0,1,1.194-.668l9.368,5.692a.783.783,0,0,1,0,1.34" transform="translate(-189.408 -139.8)" fill="#c8a0e6"/>
        <path id="Trazado_1242001" data-name="Trazado 1242001" d="M326.61,248.608h-2.5a.207.207,0,1,1,0-.415h2.5a.207.207,0,1,1,0,.415m-5.007,0h-2.5a.207.207,0,0,1,0-.415h2.5a.207.207,0,0,1,0,.415m-5.007,0h-2.5a.207.207,0,1,1,0-.415h2.5a.207.207,0,1,1,0,.415m-5.007,0h-2.5a.207.207,0,1,1,0-.415h2.5a.207.207,0,0,1,0,.415m-5.008,0h-2.5a.207.207,0,0,1,0-.415h2.5a.207.207,0,1,1,0,.415m-5.007,0h-2.5a.207.207,0,0,1,0-.415h2.5a.207.207,0,1,1,0,.415m25.035-.783a.207.207,0,0,1-.207-.207v-2.5a.207.207,0,1,1,.415,0v2.5a.207.207,0,0,1-.207.207m-28.361-.9a.207.207,0,0,1-.207-.207v-2.5a.207.207,0,1,1,.415,0v2.5a.207.207,0,0,1-.207.207m28.361-4.109a.207.207,0,0,1-.207-.207v-2.5a.207.207,0,1,1,.415,0v2.5a.207.207,0,0,1-.207.207m-28.361-.9a.207.207,0,0,1-.207-.207v-2.5a.207.207,0,1,1,.415,0v2.5a.207.207,0,0,1-.207.207m28.361-4.109a.207.207,0,0,1-.207-.207v-2.5a.207.207,0,1,1,.415,0v2.5a.207.207,0,0,1-.207.207m-28.361-.9a.207.207,0,0,1-.207-.207v-2.5a.207.207,0,1,1,.415,0v2.5a.207.207,0,0,1-.207.207M326.61,232.8a.207.207,0,0,1-.207-.207v-2.5a.207.207,0,1,1,.415,0v2.5a.207.207,0,0,1-.207.207m-28.361-.9a.207.207,0,0,1-.207-.207v-2.5a.207.207,0,1,1,.415,0v2.5a.207.207,0,0,1-.207.207M326.61,227.8a.207.207,0,0,1-.207-.207v-2.5a.207.207,0,1,1,.415,0v2.5a.207.207,0,0,1-.207.207m-28.361-.9a.207.207,0,0,1-.207-.207v-2.5a.207.207,0,1,1,.415,0v2.5a.207.207,0,0,1-.207.207m28.361-4.109a.207.207,0,0,1-.207-.207v-2.5a.207.207,0,1,1,.415,0v2.5a.207.207,0,0,1-.207.207m-28.361-.9a.207.207,0,0,1-.207-.207v-1.644a.207.207,0,0,1,.207-.207h.86a.207.207,0,0,1,0,.415h-.652v1.436a.207.207,0,0,1-.207.207m25.9-1.644h-2.5a.207.207,0,1,1,0-.415h2.5a.207.207,0,1,1,0,.415m-5.007,0h-2.5a.207.207,0,0,1,0-.415h2.5a.207.207,0,0,1,0,.415m-5.008,0h-2.5a.207.207,0,1,1,0-.415h2.5a.207.207,0,1,1,0,.415m-5.007,0h-2.5a.207.207,0,1,1,0-.415h2.5a.207.207,0,0,1,0,.415m-5.007,0h-2.5a.207.207,0,1,1,0-.415h2.5a.207.207,0,1,1,0,.415" transform="translate(-174.432 -128.659)" fill="#25292b"/>
        <path id="Trazado_1242002" data-name="Trazado 1242002" d="M324.276,303.144H297.545a.817.817,0,0,1-.815-.815v-.01a.817.817,0,0,1,.815-.815h26.731a.817.817,0,0,1,.815.815v.01a.817.817,0,0,1-.815.815" transform="translate(-173.664 -176.459)" fill="#f2e9da"/>
        <path id="Trazado_1242003" data-name="Trazado 1242003" d="M324.276,316.531H297.545a.817.817,0,0,1-.815-.815v-.01a.817.817,0,0,1,.815-.815h26.731a.817.817,0,0,1,.815.815v.01a.817.817,0,0,1-.815.815" transform="translate(-173.664 -184.293)" fill="#f2e9da"/>
        <path id="Trazado_1242004" data-name="Trazado 1242004" d="M324.276,331.042H297.545a.817.817,0,0,1-.815-.815v-.01a.817.817,0,0,1,.815-.815h26.731a.817.817,0,0,1,.815.815v.01a.817.817,0,0,1-.815.815" transform="translate(-173.664 -192.786)" fill="#f2e9da"/>
        <path id="Trazado_1242005" data-name="Trazado 1242005" d="M324.276,344.43H297.545a.817.817,0,0,1-.815-.815v-.01a.817.817,0,0,1,.815-.815h26.731a.817.817,0,0,1,.815.815v.01a.817.817,0,0,1-.815.815" transform="translate(-173.664 -200.621)" fill="#f2e9da"/>
        <path id="Trazado_1242006" data-name="Trazado 1242006" d="M205.578,368.143l-6.73,6.73H130.9a3.38,3.38,0,0,1-3.2-2.324,3.281,3.281,0,0,1-.167-1.039,3.377,3.377,0,0,1,3.367-3.367Z" transform="translate(-74.64 -215.459)" fill="#c8a0e6"/>
        <path id="Trazado_1242007" data-name="Trazado 1242007" d="M331.7,371.51a3.376,3.376,0,0,1-3.367,3.363h-28.85l6.73-6.73h22.119a3.376,3.376,0,0,1,3.367,3.367" transform="translate(-175.275 -215.459)" fill="#25292b"/>
        <path id="Trazado_1242008" data-name="Trazado 1242008" d="M295.255,368.143l-6.73,6.73h-2.946l6.726-6.73Z" transform="translate(-167.137 -215.459)" fill="#fff"/>
        <path id="Trazado_1242009" data-name="Trazado 1242009" d="M280.415,368.143l-6.73,6.73h-2.946l6.726-6.73Z" transform="translate(-158.452 -215.459)" fill="#fff"/>
        <path id="Trazado_1242010" data-name="Trazado 1242010" d="M265.575,368.143l-6.73,6.73H255.9l6.726-6.73Z" transform="translate(-149.767 -215.459)" fill="#fff"/>
        <path id="Trazado_1242011" data-name="Trazado 1242011" d="M250.736,368.143l-6.73,6.73h-2.946l6.726-6.73Z" transform="translate(-141.082 -215.459)" fill="#fff"/>
        <path id="Trazado_1242012" data-name="Trazado 1242012" d="M235.89,368.143l-6.73,6.73h-2.95l6.73-6.73Z" transform="translate(-132.391 -215.459)" fill="#fff"/>
        <path id="Trazado_1242013" data-name="Trazado 1242013" d="M221.05,368.143l-6.73,6.73h-2.95l6.73-6.73Z" transform="translate(-123.706 -215.459)" fill="#fff"/>
        <path id="Trazado_1242014" data-name="Trazado 1242014" d="M206.211,368.143l-6.73,6.73h-2.95l6.73-6.73Z" transform="translate(-115.021 -215.459)" fill="#fff"/>
        <path id="Trazado_1242015" data-name="Trazado 1242015" d="M191.371,368.143l-6.73,6.73h-2.95l6.73-6.73Z" transform="translate(-106.336 -215.459)" fill="#fff"/>
        <path id="Trazado_1242016" data-name="Trazado 1242016" d="M176.531,368.143l-6.73,6.73h-2.95l6.73-6.73Z" transform="translate(-97.651 -215.459)" fill="#fff"/>
        <path id="Trazado_1242017" data-name="Trazado 1242017" d="M161.692,368.143l-6.73,6.73h-2.95l6.73-6.73Z" transform="translate(-88.966 -215.459)" fill="#fff"/>
        <path id="Trazado_1242018" data-name="Trazado 1242018" d="M146.852,368.143l-6.73,6.73h-2.95l6.73-6.73Z" transform="translate(-80.281 -215.459)" fill="#fff"/>
        <path id="Trazado_1242019" data-name="Trazado 1242019" d="M135.292,368.143l-6.1,6.1a3.372,3.372,0,0,1-1.252-1.7l4.406-4.406Z" transform="translate(-74.876 -215.459)" fill="#fff"/>
        <path id="Trazado_1242020" data-name="Trazado 1242020" d="M483.953,164.755c4.087,62.442,27.521,74.565,27.521,74.565s9.939-24.441-27.521-74.565" transform="translate(-283.238 -96.424)" fill="#f4ebfa"/>
        <rect id="Rectángulo_410961" data-name="Rectángulo 410961" width="0.355" height="65.193" transform="translate(204.693 79.621) rotate(-20.258)" fill="#25292b"/>
        <path id="Trazado_1242021" data-name="Trazado 1242021" d="M500.038,222.371l-7.764-7.92.255-.249,7.208,7.354.7-10.274.355.024Z" transform="translate(-288.108 -123.654)" fill="#25292b"/>
        <path id="Trazado_1242022" data-name="Trazado 1242022" d="M528.288,298.909l-7.764-7.921.255-.249,7.208,7.354.7-10.274.355.024Z" transform="translate(-304.641 -168.449)" fill="#25292b"/>
        <path id="Trazado_1242023" data-name="Trazado 1242023" d="M513.254,258.176l-7.764-7.92.255-.249,7.208,7.354.7-10.274.355.024Z" transform="translate(-295.843 -144.61)" fill="#25292b"/>
        <path id="Trazado_1242024" data-name="Trazado 1242024" d="M576.213,164.755c-4.087,62.443-27.521,74.565-27.521,74.565s-9.939-24.441,27.521-74.565" transform="translate(-320.428 -96.424)" fill="#f4ebfa"/>
        <rect id="Rectángulo_410962" data-name="Rectángulo 410962" width="65.192" height="0.355" transform="translate(228.892 140.655) rotate(-69.726)" fill="#25292b"/>
        <path id="Trazado_1242025" data-name="Trazado 1242025" d="M588.626,222.371l-.756-11.065.355-.024.7,10.274,7.208-7.354.255.249Z" transform="translate(-344.056 -123.654)" fill="#25292b"/>
        <path id="Trazado_1242026" data-name="Trazado 1242026" d="M560.378,298.909l-.756-11.065.355-.024.7,10.274,7.208-7.354.254.249Z" transform="translate(-327.524 -168.449)" fill="#25292b"/>
        <path id="Trazado_1242027" data-name="Trazado 1242027" d="M575.411,258.176l-.756-11.065.355-.024.7,10.274,7.208-7.354.254.249Z" transform="translate(-336.322 -144.61)" fill="#25292b"/>
        <path id="Trazado_1242028" data-name="Trazado 1242028" d="M539.2,152.9c17.787,59.994,0,79.482,0,79.482s-17.787-19.488,0-79.482" transform="translate(-310.945 -89.487)" fill="#c8a0e6"/>
        <rect id="Rectángulo_410963" data-name="Rectángulo 410963" width="0.356" height="65.193" transform="translate(228.077 75.383)" fill="#25292b"/>
        <path id="Trazado_1242029" data-name="Trazado 1242029" d="M543.948,216.512l-4.541-10.119.324-.146,4.216,9.4,4.216-9.4.325.146Z" transform="translate(-315.693 -120.708)" fill="#25292b"/>
        <path id="Trazado_1242030" data-name="Trazado 1242030" d="M543.948,298.1l-4.541-10.119.324-.146,4.216,9.4,4.216-9.4.325.146Z" transform="translate(-315.693 -168.456)" fill="#25292b"/>
        <path id="Trazado_1242031" data-name="Trazado 1242031" d="M543.948,254.678l-4.541-10.119.324-.146,4.216,9.4,4.216-9.4.325.146Z" transform="translate(-315.693 -143.045)" fill="#25292b"/>
        <path id="Trazado_1242032" data-name="Trazado 1242032" d="M524.207,356.573l-4.8-34.538h25.661L540.422,356.4Z" transform="translate(-303.988 -188.474)" fill="#f4ebfa"/>
        <path id="Trazado_1242033" data-name="Trazado 1242033" d="M523.915,356.487a.207.207,0,0,1-.205-.179l-4.8-34.538a.2.2,0,0,1,.049-.164.207.207,0,0,1,.156-.071h25.661a.21.21,0,0,1,.156.071.207.207,0,0,1,.049.164l-4.647,34.37a.207.207,0,0,1-.2.179l-16.215.168Zm-4.561-34.537L524.1,356.07l15.853-.164,4.591-33.956Z" transform="translate(-303.696 -188.181)" fill="#25292b"/>
        <path id="Trazado_1242034" data-name="Trazado 1242034" d="M176.573,108.479h-.525a.207.207,0,0,1,0-.415h.525a1.8,1.8,0,0,0,1.449-.725.207.207,0,0,1,.332.249,2.209,2.209,0,0,1-1.781.89m-2.924,0h-2.4a.207.207,0,0,1,0-.415h2.4a.207.207,0,0,1,0,.415m-4.8,0h-2.4a.207.207,0,1,1,0-.415h2.4a.207.207,0,1,1,0,.415m-4.8,0h-2.4a.207.207,0,0,1,0-.415h2.4a.207.207,0,0,1,0,.415m-4.8,0h-2.4a.207.207,0,0,1,0-.415h2.4a.207.207,0,0,1,0,.415m-4.8,0h-2.4a.207.207,0,0,1,0-.415h2.4a.207.207,0,0,1,0,.415m-4.8,0h-2.4a.207.207,0,1,1,0-.415h2.4a.207.207,0,0,1,0,.415m-4.8,0h-2.4a.207.207,0,0,1,0-.415h2.4a.207.207,0,1,1,0,.415m-4.8,0H139.5a2.215,2.215,0,0,1-1.746-.844.207.207,0,1,1,.325-.258,1.8,1.8,0,0,0,1.42.687h.578a.207.207,0,0,1,0,.415m-2.6-3.065a.207.207,0,0,1-.207-.207v-2.4a.207.207,0,0,1,.415,0v2.4a.207.207,0,0,1-.207.207m41.112-.053a.207.207,0,0,1-.207-.207v-2.4a.207.207,0,0,1,.415,0v2.4a.207.207,0,0,1-.207.207m-41.112-4.743a.207.207,0,0,1-.207-.207v-2.4a.207.207,0,1,1,.415,0v2.4a.207.207,0,0,1-.207.207m41.112-.053a.207.207,0,0,1-.207-.207v-2.4a.207.207,0,1,1,.415,0v2.4a.207.207,0,0,1-.207.207m-41.112-4.744a.207.207,0,0,1-.207-.207v-2.4a.207.207,0,0,1,.415,0v2.4a.207.207,0,0,1-.207.207m41.112-.053a.207.207,0,0,1-.207-.207v-2.4a.207.207,0,1,1,.415,0v2.4a.207.207,0,0,1-.207.207m-41.112-4.743a.207.207,0,0,1-.207-.207v-2.4a.207.207,0,1,1,.415,0v2.4a.207.207,0,0,1-.207.207m41.112-.053a.207.207,0,0,1-.207-.207v-2.4a.207.207,0,1,1,.415,0v2.4a.207.207,0,0,1-.207.207m-41.112-4.743a.207.207,0,0,1-.207-.207v-2.4a.207.207,0,1,1,.415,0v2.4a.207.207,0,0,1-.207.207m41.112-.053a.207.207,0,0,1-.207-.207v-2.4a.207.207,0,1,1,.415,0v2.4a.207.207,0,0,1-.207.207m-41.112-4.744a.207.207,0,0,1-.207-.207v-2.4a.207.207,0,1,1,.415,0v2.4a.207.207,0,0,1-.207.207m41.112-.053a.207.207,0,0,1-.207-.207v-2.4a.207.207,0,1,1,.415,0v2.4a.207.207,0,0,1-.207.207m-41.112-4.743a.207.207,0,0,1-.207-.207v-2.4a.207.207,0,1,1,.415,0v2.4a.207.207,0,0,1-.207.207m41.112-.053a.207.207,0,0,1-.207-.207v-2.4a.207.207,0,1,1,.415,0v2.4a.207.207,0,0,1-.207.207M137.479,71.84a.207.207,0,0,1-.207-.207v-2.4a.207.207,0,1,1,.415,0v2.4a.207.207,0,0,1-.207.207m41.112-.053a.207.207,0,0,1-.207-.207v-2.4a.175.175,0,0,0-.02-.273,1.823,1.823,0,0,0-1.374-1.49.207.207,0,1,1,.095-.4,2.241,2.241,0,0,1,1.69,1.831.246.246,0,0,0,.024.335v2.4a.207.207,0,0,1-.207.207m-39.9-4.25a.207.207,0,0,1-.083-.4,2.215,2.215,0,0,1,.886-.183h1.572a.207.207,0,0,1,0,.415H139.5a1.8,1.8,0,0,0-.721.149.2.2,0,0,1-.083.017m35.949-.166h-2.4a.207.207,0,0,1,0-.415h2.4a.207.207,0,0,1,0,.415m-4.8,0h-2.4a.207.207,0,0,1,0-.415h2.4a.207.207,0,0,1,0,.415m-4.8,0h-2.4a.207.207,0,0,1,0-.415h2.4a.207.207,0,0,1,0,.415m-4.8,0h-2.4a.207.207,0,1,1,0-.415h2.4a.207.207,0,0,1,0,.415m-4.8,0h-2.4a.207.207,0,1,1,0-.415h2.4a.207.207,0,0,1,0,.415m-4.8,0h-2.4a.207.207,0,0,1,0-.415h2.4a.207.207,0,0,1,0,.415m-4.8,0h-2.4a.207.207,0,0,1,0-.415h2.4a.207.207,0,0,1,0,.415" transform="translate(-80.34 -39.187)" fill="#25292b"/>
        <path id="Trazado_1242035" data-name="Trazado 1242035" d="M424.024,193.719h0a.171.171,0,0,1-.148-.085l-1.61-2.787a.17.17,0,0,1,0-.171l1.61-2.786a.171.171,0,0,1,.3,0l1.614,2.786a.172.172,0,0,1,0,.172l-1.614,2.786a.17.17,0,0,1-.148.085m-1.413-2.957,1.413,2.446,1.416-2.446-1.416-2.445Z" transform="translate(-247.122 -109.915)" fill="#25292b"/>
        <path id="Trazado_1242036" data-name="Trazado 1242036" d="M414.372,191.272a.972.972,0,1,1,.972-.972.973.973,0,0,1-.972.972m0-1.6a.631.631,0,1,0,.63.63.631.631,0,0,0-.63-.63" transform="translate(-241.946 -110.806)" fill="#25292b"/>
        <path id="Trazado_1242037" data-name="Trazado 1242037" d="M421.456,183a.849.849,0,1,1,.849-.849.85.85,0,0,1-.849.849m0-1.357a.508.508,0,1,0,.508.508.509.509,0,0,0-.508-.508" transform="translate(-246.164 -106.107)" fill="#25292b"/>
        <path id="Trazado_1242038" data-name="Trazado 1242038" d="M412.924,184.563a.629.629,0,1,1,.629-.628.629.629,0,0,1-.629.628m0-.916a.287.287,0,1,0,.287.288.288.288,0,0,0-.287-.288" transform="translate(-241.299 -107.281)" fill="#25292b"/>
        <path id="Trazado_1242039" data-name="Trazado 1242039" d="M240.17,41.889h0a.17.17,0,0,1-.148-.085l-1.231-2.132a.17.17,0,0,1,0-.171l1.231-2.132a.17.17,0,0,1,.3,0l1.235,2.132a.17.17,0,0,1,0,.171L240.317,41.8a.171.171,0,0,1-.148.085m-1.034-2.3,1.035,1.791,1.037-1.791L240.17,37.8Z" transform="translate(-139.741 -21.821)" fill="#25292b"/>
        <path id="Trazado_1242040" data-name="Trazado 1242040" d="M233.751,37.927a.972.972,0,1,1,.972-.972.974.974,0,0,1-.972.972m0-1.6a.631.631,0,1,0,.63.631.631.631,0,0,0-.63-.631" transform="translate(-136.236 -21.059)" fill="#25292b"/>
        <path id="Trazado_1242041" data-name="Trazado 1242041" d="M240.836,32.477a.849.849,0,1,1,.849-.849.851.851,0,0,1-.849.849m0-1.357a.508.508,0,1,0,.508.508.509.509,0,0,0-.508-.508" transform="translate(-140.455 -18.014)" fill="#25292b"/>
        <path id="Trazado_1242042" data-name="Trazado 1242042" d="M234.236,30.932a.629.629,0,1,1,.629-.629.629.629,0,0,1-.629.629m0-.916a.287.287,0,1,0,.287.287.288.288,0,0,0-.287-.287" transform="translate(-136.721 -17.368)" fill="#25292b"/>
        <path id="Trazado_1242043" data-name="Trazado 1242043" d="M580.581,178.32h0a.17.17,0,0,1-.148-.085l-1.61-2.787a.172.172,0,0,1,0-.171l1.61-2.786a.171.171,0,0,1,.3,0l1.613,2.786a.172.172,0,0,1,0,.172l-1.613,2.786a.171.171,0,0,1-.148.085m-1.413-2.957,1.413,2.446L582,175.363l-1.416-2.445Z" transform="translate(-338.748 -100.902)" fill="#25292b"/>
        <path id="Trazado_1242044" data-name="Trazado 1242044" d="M565.663,172.006a.972.972,0,1,1,.972-.972.973.973,0,0,1-.972.972m0-1.6a.631.631,0,1,0,.631.631.631.631,0,0,0-.631-.631" transform="translate(-330.491 -99.53)" fill="#25292b"/>
        <path id="Trazado_1242045" data-name="Trazado 1242045" d="M578.226,167.6a.849.849,0,1,1,.849-.849.85.85,0,0,1-.849.849m0-1.357a.508.508,0,1,0,.508.508.509.509,0,0,0-.508-.508" transform="translate(-337.915 -97.094)" fill="#25292b"/>
        <path id="Trazado_1242046" data-name="Trazado 1242046" d="M590.21,175.94a.629.629,0,1,1,.629-.628.629.629,0,0,1-.629.628m0-.916a.287.287,0,1,0,.287.287.288.288,0,0,0-.287-.287" transform="translate(-345.058 -102.235)" fill="#25292b"/>
        <path id="Trazado_1242047" data-name="Trazado 1242047" d="M589.9,164.574h0a.171.171,0,0,1-.148-.085l-1.011-1.75a.172.172,0,0,1,0-.171l1.011-1.75a.171.171,0,0,1,.3,0l1.013,1.75a.172.172,0,0,1,0,.172l-1.013,1.749a.17.17,0,0,1-.148.085m-.814-1.92.814,1.409.816-1.409-.816-1.409Z" transform="translate(-344.55 -94.07)" fill="#25292b"/>
        <path id="Trazado_1242048" data-name="Trazado 1242048" d="M572.607,161.708a.629.629,0,1,1,.629-.628.629.629,0,0,1-.629.628m0-.916a.287.287,0,1,0,.287.287.288.288,0,0,0-.287-.287" transform="translate(-334.755 -93.905)" fill="#25292b"/>
        <path id="Trazado_1242049" data-name="Trazado 1242049" d="M515.413,97.144h0a.17.17,0,0,1-.148-.085l-1.61-2.787a.172.172,0,0,1,0-.171l1.61-2.786a.171.171,0,0,1,.3,0l1.613,2.786a.172.172,0,0,1,0,.172l-1.613,2.786a.171.171,0,0,1-.148.085M514,94.187l1.413,2.446,1.416-2.446-1.416-2.445Z" transform="translate(-300.608 -53.393)" fill="#25292b"/>
        <path id="Trazado_1242050" data-name="Trazado 1242050" d="M500.494,90.83a.972.972,0,1,1,.972-.972.973.973,0,0,1-.972.972m0-1.6a.631.631,0,1,0,.631.631.631.631,0,0,0-.631-.631" transform="translate(-292.35 -52.021)" fill="#25292b"/>
        <path id="Trazado_1242051" data-name="Trazado 1242051" d="M513.057,86.422a.849.849,0,1,1,.849-.849.85.85,0,0,1-.849.849m0-1.357a.508.508,0,1,0,.508.508.509.509,0,0,0-.508-.508" transform="translate(-299.774 -49.585)" fill="#25292b"/>
        <path id="Trazado_1242052" data-name="Trazado 1242052" d="M525.041,94.764a.629.629,0,1,1,.629-.628.629.629,0,0,1-.629.628m0-.916a.287.287,0,1,0,.287.287.288.288,0,0,0-.287-.287" transform="translate(-306.917 -54.726)" fill="#25292b"/>
        <path id="Trazado_1242053" data-name="Trazado 1242053" d="M524.727,83.4h0a.171.171,0,0,1-.148-.085l-1.011-1.75a.172.172,0,0,1,0-.171l1.011-1.75a.17.17,0,0,1,.3,0l1.013,1.75a.171.171,0,0,1,0,.172l-1.013,1.749a.17.17,0,0,1-.148.085m-.814-1.92.814,1.409.816-1.409-.816-1.409Z" transform="translate(-306.41 -46.561)" fill="#25292b"/>
        <path id="Trazado_1242054" data-name="Trazado 1242054" d="M507.438,80.532a.629.629,0,1,1,.629-.628.629.629,0,0,1-.629.628m0-.916a.287.287,0,1,0,.287.287.288.288,0,0,0-.287-.287" transform="translate(-296.615 -46.396)" fill="#25292b"/>
        <path id="Trazado_1242055" data-name="Trazado 1242055" d="M63.775,75.192l-10.592.6s1.691,4.369,1.564,6.372-2.258,5.444-2.258,5.444c.695,2.612,1.119,9.139,2.257,24.464l-.192,0c-11.951,6.323-30.76-3.429-30.76-3.429a22.39,22.39,0,0,1,2.686-5.084,4.792,4.792,0,0,1-4.721-3.937L18.014,79.161a9.826,9.826,0,0,1,5.672-10.744l5.784-2.574,9.965-2.35,24.341.7Z" transform="translate(-10.449 -37.16)" fill="#c8a0e6"/>
        <path id="Trazado_1242056" data-name="Trazado 1242056" d="M38.36,125.315a.207.207,0,0,1-.009-.415l22.467-1.029v-6.585l-17.674-2.567a.207.207,0,0,1-.177-.188l-1.185-14a.207.207,0,0,1,.413-.035l1.171,13.836L61.055,116.9a.207.207,0,0,1,.178.2v6.963a.208.208,0,0,1-.2.207l-22.665,1.038h-.01" transform="translate(-22.329 -58.705)" fill="#25292b"/>
        <path id="Trazado_1242057" data-name="Trazado 1242057" d="M99.818,88.763a.207.207,0,0,1-.172-.09l-2.075-3.046a.207.207,0,1,1,.343-.233l2.075,3.045a.208.208,0,0,1-.055.288.205.205,0,0,1-.117.036" transform="translate(-57.083 -49.924)" fill="#25292b"/>
        <path id="Trazado_1242058" data-name="Trazado 1242058" d="M68.093,123.144a.207.207,0,0,1-.041-.411,74.94,74.94,0,0,1,12.109-1.45.2.2,0,0,1,.215.2.207.207,0,0,1-.2.215,74.539,74.539,0,0,0-12.042,1.442.2.2,0,0,1-.041,0" transform="translate(-39.731 -70.981)" fill="#25292b"/>
        <path id="Trazado_1242059" data-name="Trazado 1242059" d="M29.33,28.723a75.805,75.805,0,0,0,7.912,1.79A17.789,17.789,0,0,0,45,29.581a11.813,11.813,0,0,0,4.1-2.523c-.064-.4-.144-.8-.246-1.185-.472-1.771-1.259-3.442-1.819-5.188a10.342,10.342,0,0,1-.556-4.84,6.019,6.019,0,0,0,1.271-2.358,1.129,1.129,0,0,0,.012-.76c-.2-.431-.776-.484-1.247-.543-2.566-.324-4.369-2.618-6.639-3.853a8.534,8.534,0,0,0-12.339,5.4c-.715,2.81.02,5.887-.987,8.609a27.048,27.048,0,0,1-2.162,3.849,7.914,7.914,0,0,0-.938,2.4,17.017,17.017,0,0,1,5.882.134" transform="translate(-13.723 -4.28)" fill="#25292b"/>
        <path id="Trazado_1242060" data-name="Trazado 1242060" d="M48.814,36.313l1.455,5.008-.124,6.263-10.708-6.9-.763-8.613c-1.563.416-2.77-.516-3.425-2.17-.7-1.778-.432-3.721,1.211-4.373a2.986,2.986,0,0,1,1.155-.208,3.315,3.315,0,0,1,2.07.811s.008,0,.012.008l0-.028.02,0a7.525,7.525,0,0,0,1.211-.26l.044-.012a8.865,8.865,0,0,0,5.084-3.765,8.622,8.622,0,0,0,.755-1.567s3.278.256,4.892,2.114a3.458,3.458,0,0,1,.54.8l.34,4.884a8.792,8.792,0,0,1-2.814,7.083Z" transform="translate(-20.416 -11.998)" fill="#f2e9da"/>
        <path id="Trazado_1242061" data-name="Trazado 1242061" d="M71.219,35.5a.874.874,0,1,0,.8-1.019.919.919,0,0,0-.8,1.019" transform="translate(-41.68 -20.178)" fill="#25292b"/>
        <path id="Trazado_1242062" data-name="Trazado 1242062" d="M58.512,36.385a.874.874,0,1,0,.8-1.019.919.919,0,0,0-.8,1.019" transform="translate(-34.243 -20.697)" fill="#25292b"/>
        <path id="Trazado_1242063" data-name="Trazado 1242063" d="M71.012,31.3a2.062,2.062,0,0,1,1.961.221.267.267,0,1,1-.283.452,1.836,1.836,0,0,0-.173-.111c-.029-.017-.059-.032-.09-.047l-.01,0-.048-.019a1.8,1.8,0,0,0-.2-.064c-.033-.009-.067-.016-.1-.024l-.016,0L72,31.689a1.9,1.9,0,0,0-.206-.014c-.034,0-.069,0-.1,0l-.051,0h-.006a1.957,1.957,0,0,0-.2.036c-.034.008-.067.017-.1.028l-.049.015-.009,0-.009,0a.274.274,0,0,1-.362-.107.27.27,0,0,1,.108-.362" transform="translate(-41.481 -18.229)" fill="#25292b"/>
        <path id="Trazado_1242064" data-name="Trazado 1242064" d="M59.279,32.414a.274.274,0,0,1-.343.157l-.01,0h-.009l-.051-.009-.1-.013a2,2,0,0,0-.206-.008h-.006l-.051,0c-.034,0-.068.007-.1.013a1.765,1.765,0,0,0-.2.042l-.054.016-.015.005c-.032.012-.065.024-.1.037a1.829,1.829,0,0,0-.185.091l-.044.026-.01.006c-.028.019-.056.038-.082.058a1.859,1.859,0,0,0-.156.135.267.267,0,1,1-.343-.409,2.06,2.06,0,0,1,1.912-.491.27.27,0,0,1,.157.343" transform="translate(-33.428 -18.734)" fill="#25292b"/>
        <path id="Trazado_1242065" data-name="Trazado 1242065" d="M58.8,58.522c-.063,0-.127,0-.193,0a4.936,4.936,0,0,1-2.979-1.67.207.207,0,0,1,.315-.269A4.6,4.6,0,0,0,58.625,58.1a2.577,2.577,0,0,0,2.132-.844.207.207,0,1,1,.33.251A2.939,2.939,0,0,1,58.8,58.522" transform="translate(-32.525 -33.07)" fill="#25292b"/>
        <path id="Trazado_1242066" data-name="Trazado 1242066" d="M68.9,39.626h-.015l-2.1-.153a.207.207,0,0,1,.03-.413l1.794.131-1.256-4.038a.207.207,0,1,1,.4-.123l1.346,4.329a.207.207,0,0,1-.2.269" transform="translate(-38.973 -20.415)" fill="#25292b"/>
        <path id="Trazado_1242067" data-name="Trazado 1242067" d="M62.958,47.161h-.021a2.634,2.634,0,0,1-2.2-1.7.208.208,0,1,1,.389-.145,2.217,2.217,0,0,0,1.853,1.433.207.207,0,0,1-.021.414" transform="translate(-35.539 -26.442)" fill="#25292b"/>
        <path id="Trazado_1242068" data-name="Trazado 1242068" d="M39.22,39.318h0a1.586,1.586,0,0,1-1.464-1.16,1.776,1.776,0,0,1,.565-1.779,1.134,1.134,0,0,1,.748-.306.775.775,0,0,1,.235.044,3.434,3.434,0,0,0-.065-.385,1.813,1.813,0,0,0-.378-.791.823.823,0,0,0-.59-.315.614.614,0,0,0-.477.233.811.811,0,0,0-.175.54.207.207,0,1,1-.414.015,1.229,1.229,0,0,1,.27-.82,1.047,1.047,0,0,1,.794-.383h0a1.234,1.234,0,0,1,.9.457,2.215,2.215,0,0,1,.47.97,5.468,5.468,0,0,1,.114,1.018.207.207,0,0,1-.412.039.294.294,0,0,0-.287-.208.743.743,0,0,0-.467.2,1.374,1.374,0,0,0-.435,1.355,1.179,1.179,0,0,0,1.07.855.207.207,0,0,1,0,.415" transform="translate(-21.773 -20.023)" fill="#25292b"/>
        <path id="Trazado_1242069" data-name="Trazado 1242069" d="M69.078,392.089H81.154l3.189,2.817s9.45-.267,9.45,6.644H69.078Z" transform="translate(-40.429 -229.474)" fill="#634f72"/>
        <path id="Trazado_1242070" data-name="Trazado 1242070" d="M70.8,412.373a.207.207,0,0,1,0-.415l23.291-.087h0a.207.207,0,0,1,0,.415l-23.291.087Z" transform="translate(-41.313 -241.051)" fill="#25292b"/>
        <path id="Trazado_1242071" data-name="Trazado 1242071" d="M86.045,393.237a13.083,13.083,0,0,1-1.374-.073c-.866-.092-1.4-.438-1.49-.975-.123-.694.554-1.188,1.171-1.4a6.051,6.051,0,0,1,5.6.958,9.411,9.411,0,0,1,2.228-3.733,2.482,2.482,0,0,1,1.254-.795,1.146,1.146,0,0,1,1.343.749,1.565,1.565,0,0,1-.6,1.381,26.487,26.487,0,0,1-3.741,3.163.207.207,0,0,1-.175.029.2.2,0,0,1-.055.027,13.257,13.257,0,0,1-4.156.667m.186-2.343a5.355,5.355,0,0,0-1.744.287c-.372.128-.98.469-.9.936s.815.6,1.125.635a12.873,12.873,0,0,0,5.159-.513.171.171,0,0,1-.016-.034,5.648,5.648,0,0,0-3.626-1.312m4.063,1.145.039.036a26.012,26.012,0,0,0,3.542-3.016c.275-.279.579-.645.5-.994a.735.735,0,0,0-.861-.438,2.122,2.122,0,0,0-1.035.676,8.992,8.992,0,0,0-2.181,3.736" transform="translate(-48.674 -226.611)" fill="#25292b"/>
        <path id="Trazado_1242072" data-name="Trazado 1242072" d="M48.2,263.471l-13.388.035V211.2L24.781,263.943H11.206s3.621-68.2,5.567-80.008a53.774,53.774,0,0,1,3.13-11.571s18.809,9.753,30.76,3.429l.192,0c.444,30.912-2.436,81.786-2.651,87.681" transform="translate(-6.558 -100.878)" fill="#25292b"/>
        <path id="Trazado_1242073" data-name="Trazado 1242073" d="M22.672,393.144l1.664,8.908H8.481l1.479-8.908Z" transform="translate(-4.963 -230.091)" fill="#634f72"/>
        <path id="Trazado_1242074" data-name="Trazado 1242074" d="M14.116,403.287H28.565v-.941c0-4.477-3.235-7.092-7.224-7.092s-7.224,2.615-7.224,7.092Z" transform="translate(-8.262 -231.327)" fill="#634f72"/>
        <path id="Trazado_1242075" data-name="Trazado 1242075" d="M18.6,398.015a.207.207,0,0,1-.14-.36,8.571,8.571,0,0,1,6.164-2.482,6.511,6.511,0,0,1,4.423,1.71.207.207,0,1,1-.3.291,6.209,6.209,0,0,0-4.127-1.586,8.184,8.184,0,0,0-5.884,2.373.207.207,0,0,1-.14.055" transform="translate(-10.766 -231.279)" fill="#25292b"/>
        <path id="Trazado_1242076" data-name="Trazado 1242076" d="M25.778,412.556H10.416a.207.207,0,1,1,0-.415H25.778a.207.207,0,1,1,0,.415" transform="translate(-5.975 -241.209)" fill="#25292b"/>
        <path id="Trazado_1242077" data-name="Trazado 1242077" d="M67.84,224.321a.192.192,0,0,1-.04,0,.207.207,0,0,1-.163-.243l5.327-27.1a.208.208,0,0,1,.153-.161l9.481-2.37a.207.207,0,1,1,.1.4l-9.354,2.339-5.3,26.975a.207.207,0,0,1-.2.167" transform="translate(-39.583 -113.793)" fill="#f2e9da"/>
        <path id="Trazado_1242078" data-name="Trazado 1242078" d="M18.072,267.742h-.017a.207.207,0,0,1-.19-.224c.051-.614,5.093-61.49,6.265-71.782a39.17,39.17,0,0,1,6.084-17.151.207.207,0,0,1,.335.245,38.741,38.741,0,0,0-6.007,16.953c-1.171,10.285-6.213,71.155-6.264,71.769a.208.208,0,0,1-.207.19" transform="translate(-10.455 -104.469)" fill="#f2e9da"/>
        <rect id="Rectángulo_410964" data-name="Rectángulo 410964" width="43.618" height="38.027" transform="translate(47.782 19.57)" fill="#f2e9da"/>
        <path id="Trazado_1242079" data-name="Trazado 1242079" d="M115.074,94.786s8.989-9.037,15.211-9.037c8.889,0,28.409,22.379,28.409,22.379h-43.62Z" transform="translate(-67.348 -50.185)" fill="#c8a0e6"/>
        <path id="Trazado_1242080" data-name="Trazado 1242080" d="M174.027,69.949a8.355,8.355,0,1,1,8.355-8.355,8.365,8.365,0,0,1-8.355,8.355m0-16.3a7.941,7.941,0,1,0,7.941,7.941,7.95,7.95,0,0,0-7.941-7.941" transform="translate(-96.961 -31.158)" fill="#25292b"/>
        <path id="Trazado_1242081" data-name="Trazado 1242081" d="M183.138,64.185a6.518,6.518,0,1,1-6.518-6.518,6.519,6.519,0,0,1,6.518,6.518" transform="translate(-99.553 -33.75)" fill="#c8a0e6"/>
        <path id="Trazado_1242082" data-name="Trazado 1242082" d="M168.052,103.175v13.37H130.2s19.517-16.415,28.406-16.415c2.945,0,6.511,1.487,9.449,3.046" transform="translate(-76.199 -58.601)" fill="#25292b"/>
        <path id="Trazado_1242083" data-name="Trazado 1242083" d="M108.932,84.144h48.825V40.915H108.932Zm46.222-2.6h-43.62V43.517h43.62Z" transform="translate(-63.753 -23.946)" fill="#25292b"/>
        <path id="Trazado_1242084" data-name="Trazado 1242084" d="M222.672,44.028a1.134,1.134,0,0,1,1.1-1.16l2.8-.008a1.134,1.134,0,0,1,1.16,1.1,1.134,1.134,0,0,1-1.1,1.159l-2.8.008a1.134,1.134,0,0,1-1.16-1.1" transform="translate(-130.321 -25.084)" fill="#f2e9da"/>
        <path id="Trazado_1242085" data-name="Trazado 1242085" d="M221.693,48.967a1.336,1.336,0,0,1,1.3-1.366l3.279-.02a1.331,1.331,0,1,1,.07,2.661l-3.279.02a1.335,1.335,0,0,1-1.368-1.3" transform="translate(-129.748 -27.847)" fill="#f2e9da"/>
        <path id="Trazado_1242086" data-name="Trazado 1242086" d="M221.778,54.969a1.337,1.337,0,0,1,1.3-1.368l3.279-.02a1.337,1.337,0,0,1,1.368,1.3,1.32,1.32,0,0,1-.367.95,1.338,1.338,0,0,1-.931.416l-3.279.02a1.336,1.336,0,0,1-1.368-1.3" transform="translate(-129.798 -31.359)" fill="#f2e9da"/>
        <path id="Trazado_1242087" data-name="Trazado 1242087" d="M221.843,60.464a1.239,1.239,0,0,1,.427-.951,1.67,1.67,0,0,1,1.077-.42l2.831-.009a1.451,1.451,0,0,1,1.574,1.29,1.243,1.243,0,0,1-.427.953,1.657,1.657,0,0,1-1.077.42l-2.831.009a1.451,1.451,0,0,1-1.574-1.292" transform="translate(-129.836 -34.579)" fill="#f2e9da"/>
        <path id="Trazado_1242088" data-name="Trazado 1242088" d="M223.736,59.558a.207.207,0,0,1,.006-.415l4.307-.038a.213.213,0,0,1,.209.206.207.207,0,0,1-.206.209l-4.308.038h-.009" transform="translate(-130.826 -34.592)" fill="#25292b"/>
        <path id="Trazado_1242089" data-name="Trazado 1242089" d="M223.763,53.684a.207.207,0,0,1,.008-.414l4.154.016a.2.2,0,0,1,.207.208.207.207,0,0,1-.208.207l-4.154-.016h-.007" transform="translate(-130.842 -31.177)" fill="#25292b"/>
        <path id="Trazado_1242090" data-name="Trazado 1242090" d="M223.791,47.488a.207.207,0,0,1,0-.414l4.166-.117a.21.21,0,0,1,.212.2.207.207,0,0,1-.2.212l-4.166.117h-.012" transform="translate(-130.859 -27.482)" fill="#25292b"/>
        <path id="Trazado_1242091" data-name="Trazado 1242091" d="M109,141.313h-7.287a1.489,1.489,0,0,1,0-2.977H109a1.489,1.489,0,0,1,0,2.977" transform="translate(-58.656 -80.962)" fill="#f2e9da"/>
        <path id="Trazado_1242092" data-name="Trazado 1242092" d="M97.6,138.337a6.7,6.7,0,0,0-3.808,1.269v5.778l5.442,1.036a4.312,4.312,0,0,0,2.481-.265l10.877-2.843a1.111,1.111,0,0,0,.626-1.043,1.034,1.034,0,0,0-.941-1.107h-8Z" transform="translate(-54.893 -80.963)" fill="#f2e9da"/>
        <path id="Trazado_1242093" data-name="Trazado 1242093" d="M112.825,145.061H105.64a.207.207,0,0,1,0-.415h7.184a.207.207,0,1,1,0,.415" transform="translate(-61.706 -84.655)" fill="#25292b"/>
        <path id="Trazado_1242094" data-name="Trazado 1242094" d="M116.919,151.039a.207.207,0,0,1-.018-.414l9.087-.794a.207.207,0,1,1,.036.413l-9.087.794h-.018" transform="translate(-68.307 -87.69)" fill="#25292b"/>
        <path id="Trazado_1242095" data-name="Trazado 1242095" d="M563.006,391.49a3.621,3.621,0,0,1-3.621,3.621H538.269l-1.066-9.546,3.024-3.855L563,391.319c0,.056,0,.116,0,.172" transform="translate(-314.403 -223.399)" fill="#8b6fa0"/>
        <path id="Trazado_1242096" data-name="Trazado 1242096" d="M442.787,331.63H413.6a9.089,9.089,0,0,1-9.076-8.593l1.327-32.308-13.733,2,1.955,29.445H381.631l-7.814-33.194a9.088,9.088,0,0,1,6.267-10.8l18.046-5.344,32.463,2.262c-.852,11.85-9.609,41.645-9.609,41.645l20.36,1.994Z" transform="translate(-218.638 -159.681)" fill="#25292b"/>
        <path id="Trazado_1242097" data-name="Trazado 1242097" d="M451.109,303.5a.207.207,0,0,1-.022-.414c.18-.019,18.071-1.993,21.28-8.661a.207.207,0,0,1,.373.18c-3.308,6.876-20.863,8.814-21.609,8.893h-.022" transform="translate(-263.895 -172.248)" fill="#f2e9da"/>
        <path id="Trazado_1242098" data-name="Trazado 1242098" d="M398.329,327.407a.208.208,0,0,1-.2-.17l-5.382-29.547a6.2,6.2,0,0,1,3.659-6.783l17.531-7.564a.207.207,0,0,1,.165.381l-17.531,7.564a5.78,5.78,0,0,0-3.415,6.329l5.382,29.546a.208.208,0,0,1-.167.241.232.232,0,0,1-.038,0" transform="translate(-229.801 -165.819)" fill="#f2e9da"/>
        <path id="Trazado_1242099" data-name="Trazado 1242099" d="M387.735,391.779H375.658l-3.189,2.817s-9.45-.267-9.45,6.644h24.716Z" transform="translate(-212.46 -229.292)" fill="#8b6fa0"/>
        <path id="Trazado_1242100" data-name="Trazado 1242100" d="M387.442,412.064h-.088l-23.2-.087a.207.207,0,0,1,0-.415h0l23.291.087a.207.207,0,0,1,0,.415" transform="translate(-213.002 -240.87)" fill="#25292b"/>
        <path id="Trazado_1242101" data-name="Trazado 1242101" d="M389.229,392.928a13.257,13.257,0,0,1-4.156-.667.194.194,0,0,1-.055-.027.2.2,0,0,1-.175-.03,26.415,26.415,0,0,1-3.741-3.163,1.566,1.566,0,0,1-.6-1.381,1.15,1.15,0,0,1,1.342-.749,2.478,2.478,0,0,1,1.254.795,9.408,9.408,0,0,1,2.228,3.733,6.052,6.052,0,0,1,5.6-.958c.617.213,1.294.707,1.171,1.4-.095.536-.624.883-1.49.975a13.083,13.083,0,0,1-1.374.073m-3.828-1a12.865,12.865,0,0,0,5.159.513c.311-.033,1.042-.161,1.126-.635s-.526-.808-.9-.937a5.622,5.622,0,0,0-5.37,1.025.2.2,0,0,1-.016.034M381.61,387.3a.7.7,0,0,0-.707.452c-.083.349.221.715.5.994a26.03,26.03,0,0,0,3.542,3.016l.039-.036a8.99,8.99,0,0,0-2.181-3.736,2.118,2.118,0,0,0-1.035-.676.814.814,0,0,0-.153-.014" transform="translate(-222.676 -226.431)" fill="#25292b"/>
        <path id="Trazado_1242102" data-name="Trazado 1242102" d="M566.583,393.675a.209.209,0,0,1-.081-.017l-21.425-9.135a.207.207,0,1,1,.163-.382l21.425,9.135a.207.207,0,0,1-.081.4" transform="translate(-318.937 -224.813)" fill="#25292b"/>
        <path id="Trazado_1242103" data-name="Trazado 1242103" d="M443.735,121.547,440.873,162.4l.148,11.259A30.558,30.558,0,0,1,425,178.283c-9.417.028-16.444-6.891-16.444-6.891l6.056-9.721-.78-7.334-6.942,3.781a6.872,6.872,0,0,1-9.545-3.21l-5.955-13.182,6.639-3.665,5.859,7.694s16.379-11.991,18.766-12.6c.36-.092.711-.164,1.059-.22a14.319,14.319,0,0,1,5.14.088l4.852-3.361-1.93-11.171-.636-3.689-6.607-10.78,5.152-4.521,12.139,15.724a9.27,9.27,0,0,1,1.911,6.319" transform="translate(-229.065 -58.236)" fill="#c8a0e6"/>
        <path id="Trazado_1242104" data-name="Trazado 1242104" d="M494.728,174.564a.207.207,0,0,1-.173-.093l-1.6-2.424a.207.207,0,0,1,.346-.229l1.6,2.424a.207.207,0,0,1-.173.321" transform="translate(-288.486 -100.504)" fill="#25292b"/>
        <path id="Trazado_1242105" data-name="Trazado 1242105" d="M483.589,181.638a.2.2,0,0,1-.1-.026l-1.894-1.051a.207.207,0,1,1,.2-.362l1.893,1.051a.207.207,0,0,1-.1.389" transform="translate(-281.795 -105.448)" fill="#25292b"/>
        <path id="Trazado_1242106" data-name="Trazado 1242106" d="M445.211,224.968a.207.207,0,0,1-.1-.387l8.113-4.721a.207.207,0,1,1,.209.359l-8.112,4.721a.207.207,0,0,1-.1.028" transform="translate(-260.443 -128.659)" fill="#25292b"/>
        <path id="Trazado_1242107" data-name="Trazado 1242107" d="M414.764,212.689a.207.207,0,0,1-.113-.381l2.683-1.749a.208.208,0,1,1,.227.348l-2.684,1.749a.207.207,0,0,1-.113.034" transform="translate(-242.623 -123.212)" fill="#25292b"/>
        <path id="Trazado_1242108" data-name="Trazado 1242108" d="M487.278,253.125a.207.207,0,0,1-.092-.393,56.2,56.2,0,0,0,8.021-4.877.208.208,0,0,1,.245.336,56.642,56.642,0,0,1-8.081,4.913.206.206,0,0,1-.092.022" transform="translate(-285.062 -145.036)" fill="#25292b"/>
        <path id="Trazado_1242109" data-name="Trazado 1242109" d="M468.757,135.031a69.388,69.388,0,0,1-2.39,9.037c.036.168-.156.352-.308.2a16.28,16.28,0,0,1-1.687-1.982,16.534,16.534,0,0,1-3.038-8.233,9.557,9.557,0,0,1-7.362,1.223c-2.13-.532-4.453-1.851-5.288-4a3.8,3.8,0,0,1,.056-2.93,3.034,3.034,0,0,1,2.33-1.735,11.917,11.917,0,0,1,1.851-.116,16.079,16.079,0,0,0,2.01-.172,21.428,21.428,0,0,0,4-1.127,7.23,7.23,0,0,1,3.833-.564,3.347,3.347,0,0,1,1.958,1.143,3.527,3.527,0,0,1,2.989,1.027c2.13,2.142,1.519,5.564,1.039,8.226" transform="translate(-262.441 -72.894)" fill="#25292b"/>
        <path id="Trazado_1242110" data-name="Trazado 1242110" d="M471.665,151.256l-4.852,3.361a14.319,14.319,0,0,0-5.14-.088l.2-2.214-1.1-.747a8.794,8.794,0,0,1-4-6.487l-.52-4.868c6.783-1.375,9.713-3.817,9.713-3.817.016,2.738,2.994,4.293,3.094,4.281h.02v.028s0-.008.008-.008a3.509,3.509,0,0,1,.652-.612Z" transform="translate(-267.024 -79.826)" fill="#f2e9da"/>
        <path id="Trazado_1242111" data-name="Trazado 1242111" d="M493.142,147.987c-.36,1.743-1.383,2.87-3,2.734l.552,4.888-1.931-11.171a3.175,3.175,0,0,1,1.247-.547,2.983,2.983,0,0,1,1.175,0c1.73.352,2.338,2.218,1.954,4.093" transform="translate(-286.054 -84.18)" fill="#f2e9da"/>
        <path id="Trazado_1242112" data-name="Trazado 1242112" d="M460.866,152.676a.873.873,0,1,1-.966-.864.919.919,0,0,1,.966.864" transform="translate(-268.711 -88.847)" fill="#25292b"/>
        <path id="Trazado_1242113" data-name="Trazado 1242113" d="M473.533,151.335a.873.873,0,1,1-.966-.864.919.919,0,0,1,.966.864" transform="translate(-276.124 -88.062)" fill="#25292b"/>
        <path id="Trazado_1242114" data-name="Trazado 1242114" d="M459.593,148.49a2.061,2.061,0,0,0-1.892.559.267.267,0,0,0,.357.4,1.8,1.8,0,0,1,.151-.141c.026-.021.053-.041.08-.061l.01-.006.044-.028a1.782,1.782,0,0,1,.182-.1c.031-.015.063-.028.095-.041l.015-.006.054-.018a1.832,1.832,0,0,1,.2-.05l.1-.016.051-.006h.006a1.9,1.9,0,0,1,.206,0c.034,0,.068.005.1.01l.051.007h.009l.01,0a.274.274,0,0,0,.337-.169.27.27,0,0,0-.169-.337" transform="translate(-267.823 -86.88)" fill="#25292b"/>
        <path id="Trazado_1242115" data-name="Trazado 1242115" d="M471.332,147.686a.273.273,0,0,0,.365.095l.01,0,.008,0,.048-.018c.033-.011.065-.022.1-.031a1.976,1.976,0,0,1,.2-.044h.006l.051,0c.034,0,.069,0,.1-.005a1.811,1.811,0,0,1,.207.007l.056.006.016,0,.1.02a1.722,1.722,0,0,1,.2.058l.049.018.01,0c.031.014.061.028.091.044a1.779,1.779,0,0,1,.177.105.267.267,0,0,0,.266-.462,2.06,2.06,0,0,0-1.968-.151.27.27,0,0,0-.095.365" transform="translate(-275.832 -86.115)" fill="#25292b"/>
        <path id="Trazado_1242116" data-name="Trazado 1242116" d="M471.224,173.087a2.867,2.867,0,0,1-1.857-.648.207.207,0,0,1,.281-.305,2.556,2.556,0,0,0,2.247.46,4.587,4.587,0,0,0,2.38-1.97.207.207,0,1,1,.357.21A4.935,4.935,0,0,1,471.989,173a3.356,3.356,0,0,1-.765.09" transform="translate(-274.662 -99.799)" fill="#25292b"/>
        <path id="Trazado_1242117" data-name="Trazado 1242117" d="M463.655,156.376a.207.207,0,0,1-.206-.234l.571-4.5a.207.207,0,0,1,.411.052l-.533,4.2,1.743-.441a.208.208,0,0,1,.1.4l-2.038.516a.215.215,0,0,1-.051.006" transform="translate(-271.237 -88.646)" fill="#25292b"/>
        <path id="Trazado_1242118" data-name="Trazado 1242118" d="M470.233,162.576a.207.207,0,0,1-.057-.407,2.218,2.218,0,0,0,1.576-1.734.207.207,0,0,1,.408.075,2.633,2.633,0,0,1-1.87,2.059.208.208,0,0,1-.057.008" transform="translate(-275.087 -93.796)" fill="#25292b"/>
        <path id="Trazado_1242119" data-name="Trazado 1242119" d="M492.159,150.914a.207.207,0,0,1-.039-.411,1.178,1.178,0,0,0,.9-1.029,1.372,1.372,0,0,0-.665-1.258.736.736,0,0,0-.495-.121.3.3,0,0,0-.246.254.208.208,0,0,1-.19.213.211.211,0,0,1-.222-.18,5.478,5.478,0,0,1-.066-1.022,2.219,2.219,0,0,1,.294-1.038,1.233,1.233,0,0,1,.807-.606,1.046,1.046,0,0,1,.852.238,1.227,1.227,0,0,1,.409.76.207.207,0,0,1-.411.058.8.8,0,0,0-.266-.5.635.635,0,0,0-.51-.146.824.824,0,0,0-.526.412,1.817,1.817,0,0,0-.235.846,3.338,3.338,0,0,0,0,.392.755.755,0,0,1,.224-.085,1.117,1.117,0,0,1,.79.17,1.775,1.775,0,0,1,.866,1.654,1.585,1.585,0,0,1-1.239,1.4.219.219,0,0,1-.04,0" transform="translate(-287.442 -85.274)" fill="#25292b"/>
        <path id="Trazado_1242120" data-name="Trazado 1242120" d="M454.819,93.419l4.762-4.179-7.529-6.517a2.907,2.907,0,0,0-1.679-.7l-4.77-.366a.738.738,0,0,0-.794.735l-.51-.024a1.406,1.406,0,0,0-1.472,1.4v.373a1.406,1.406,0,0,0,1.278,1.4l4.185.383,1.445,2.239-2.342,3.126a1.053,1.053,0,0,0,1.474,1.5l2.515-2.274a6.253,6.253,0,0,0,3.435,2.9" transform="translate(-259.169 -47.789)" fill="#f2e9da"/>
        <path id="Trazado_1242121" data-name="Trazado 1242121" d="M452.544,83.755h-.017l-5.229-.408a.207.207,0,0,1,.032-.413l5.229.407a.207.207,0,0,1-.016.414" transform="translate(-261.674 -48.537)" fill="#25292b"/>
        <path id="Trazado_1242122" data-name="Trazado 1242122" d="M449.092,87.739h-.022l-6.555-.685a.207.207,0,1,1,.043-.412l6.555.685a.207.207,0,0,1-.021.413" transform="translate(-258.877 -50.706)" fill="#25292b"/>
        <path id="Trazado_1242123" data-name="Trazado 1242123" d="M393.36,177.4l-5.123,2.829a29.878,29.878,0,0,1-3.579-3.154c-.361-.653-.5-6.306-.5-6.306h4.6v-3.169a1.3,1.3,0,1,1,2.593,0v4.225a9.716,9.716,0,0,1,2.008,5.576" transform="translate(-224.831 -97.327)" fill="#f2e9da"/>
        <path id="Trazado_1242124" data-name="Trazado 1242124" d="M392.8,179a.207.207,0,0,1-.19-.292l.9-2.019a.207.207,0,0,1,.379.168l-.9,2.019a.207.207,0,0,1-.19.123" transform="translate(-229.766 -103.337)" fill="#25292b"/>
        <path id="Trazado_1242125" data-name="Trazado 1242125" d="M255.339,414.788c0,.108-.141.195-.311.195H.315c-.174,0-.315-.087-.315-.195s.141-.195.315-.195H255.028c.17,0,.311.087.311.195" transform="translate(0 -242.644)" fill="#25292b"/>
      </g>
    </g>
  </g>
</svg>
