<svg xmlns="http://www.w3.org/2000/svg" xmlns:xlink="http://www.w3.org/1999/xlink" width="115" height="115" viewBox="0 0 115 115">
  <defs>
    <clipPath id="clip-path">
      <rect id="Rectángulo_410884" data-name="Rectángulo 410884" width="115" height="115" transform="translate(799.781 1954)" fill="#e8bad8" opacity="0.41"/>
    </clipPath>
  </defs>
  <g id="Grupo_1205905" data-name="Grupo 1205905" transform="translate(-322.051 -11739)">
    <g id="Enmascarar_grupo_1099392" data-name="Enmascarar grupo 1099392" transform="translate(-477.73 9785)" clip-path="url(#clip-path)">
      <g id="Grupo_1204997" data-name="Grupo 1204997" transform="translate(799.781 1960.273)">
        <g id="Grupo_1204996" data-name="Grupo 1204996">
          <ellipse id="Elipse_12409" data-name="Elipse 12409" cx="28.658" cy="28.658" rx="28.658" ry="28.658" transform="translate(56.527 44.289)" fill="#c8a0e6"/>
          <ellipse id="Elipse_12410" data-name="Elipse 12410" cx="20.842" cy="20.842" rx="20.842" ry="20.842" fill="#c8a0e6"/>
        </g>
      </g>
    </g>
    <g id="seo1" transform="translate(333.067 11750.007)">
      <g id="Grupo_1205231" data-name="Grupo 1205231" transform="translate(10.034 10.042)">
        <g id="Grupo_1205229" data-name="Grupo 1205229" transform="translate(0 0)">
          <path id="Trazado_1242126" data-name="Trazado 1242126" d="M38.571,16h6.871a.75.75,0,0,1,.749.749v4.713a.75.75,0,0,1-.749.749H38.571a.75.75,0,0,1-.749-.749V16.749A.75.75,0,0,1,38.571,16ZM16.749,16H31.987a.75.75,0,0,1,.749.749v4.713a.75.75,0,0,1-.749.749H16.749A.75.75,0,0,1,16,21.461V16.749A.75.75,0,0,1,16.749,16ZM31,27.889H16.749a.75.75,0,0,0-.749.749V33.35a.75.75,0,0,0,.749.749H31a.75.75,0,0,0,.749-.749V28.638A.75.75,0,0,0,31,27.889Zm20.838,0H37.586a.75.75,0,0,0-.749.749V33.35a.75.75,0,0,0,.749.749H51.84a.75.75,0,0,0,.749-.749V28.638A.75.75,0,0,0,51.84,27.889Zm13.454,0H58.424a.75.75,0,0,0-.749.749V33.35a.75.75,0,0,0,.749.749h6.871a.75.75,0,0,0,.749-.749V28.638A.75.75,0,0,0,65.295,27.889Zm21.822,0H71.878a.75.75,0,0,0-.749.749V33.35a.75.75,0,0,0,.749.749H87.116a.75.75,0,0,0,.749-.749V28.638A.75.75,0,0,0,87.116,27.889ZM72.862,16H87.116a.75.75,0,0,1,.749.749v4.713a.75.75,0,0,1-.749.749H72.862a.75.75,0,0,1-.749-.749V16.749A.75.75,0,0,1,72.862,16ZM52.025,16H66.279a.75.75,0,0,1,.749.749v4.713a.75.75,0,0,1-.749.749H52.025a.75.75,0,0,1-.749-.749V16.749A.75.75,0,0,1,52.025,16Z" transform="translate(-16 -16)" fill="#e4e8eb" fill-rule="evenodd"/>
          <path id="Trazado_1242127" data-name="Trazado 1242127" d="M20.409,234.991H83.456a4.417,4.417,0,0,1,4.409,4.409v5.291a4.417,4.417,0,0,1-4.409,4.409H20.409A4.417,4.417,0,0,1,16,244.691V239.4A4.417,4.417,0,0,1,20.409,234.991Z" transform="translate(-16 -202.204)" fill="#66d4f1" fill-rule="evenodd"/>
        </g>
        <g id="Grupo_1205230" data-name="Grupo 1205230" transform="translate(19.298 23.206)">
          <path id="Trazado_1242128" data-name="Trazado 1242128" d="M0,0H4.649V8.138H0Z" transform="translate(25.844 29.142) rotate(-45)" fill="#a9b0bb" fill-rule="evenodd"/>
          <path id="Trazado_1242129" data-name="Trazado 1242129" d="M348.169,376.788l2.512-2.512a2.14,2.14,0,0,1,3.017,0l11.544,11.544a2.14,2.14,0,0,1,0,3.017l-2.512,2.512a2.14,2.14,0,0,1-3.017,0l-11.544-11.544A2.14,2.14,0,0,1,348.169,376.788Z" transform="translate(-317.205 -343.312)" fill="#d5a889" fill-rule="evenodd"/>
          <circle id="Elipse_12443" data-name="Elipse 12443" cx="16.635" cy="16.635" r="16.635" fill="#e4e8eb"/>
          <circle id="Elipse_12444" data-name="Elipse 12444" cx="12.016" cy="12.016" r="12.016" transform="translate(3.694 27.624) rotate(-85.241)" fill="#f4f6f8"/>
        </g>
      </g>
      <path id="Trazado_1242130" data-name="Trazado 1242130" d="M45.971,61.513a11.631,11.631,0,1,1,11.624-11.63,11.641,11.641,0,0,1-11.624,11.63Zm0-25.358A13.727,13.727,0,1,0,59.694,49.883,13.743,13.743,0,0,0,45.971,36.155Zm34.88,16.373a3.364,3.364,0,0,1-3.36,3.36H62.6a17.6,17.6,0,0,0,0-12.012H77.49a3.364,3.364,0,0,1,3.36,3.361ZM61.716,63.823l-2.381-2.378a17.872,17.872,0,0,1-1.8,1.8l2.374,2.379Zm2.6.812a1.072,1.072,0,0,1,.768.318L76.631,76.5a1.088,1.088,0,0,1,0,1.535l-2.515,2.512a1.087,1.087,0,0,1-1.536,0L61.04,69a1.087,1.087,0,0,1,0-1.534l2.508-2.512A1.084,1.084,0,0,1,64.316,64.635ZM30.38,49.883A15.587,15.587,0,1,0,45.97,34.3,15.607,15.607,0,0,0,30.38,49.883ZM14.444,55.888a3.364,3.364,0,0,1-3.36-3.36V47.238a3.364,3.364,0,0,1,3.36-3.361H29.337a17.707,17.707,0,0,0,0,12.012ZM77.49,41.78H61.681a17.677,17.677,0,0,0-31.428,0H14.444a5.466,5.466,0,0,0-5.46,5.458v5.291a5.466,5.466,0,0,0,5.46,5.456H30.253a17.672,17.672,0,0,0,25.6,6.553l2.881,2.881a3.183,3.183,0,0,0,.817,3.063L71.1,82.025a3.185,3.185,0,0,0,4.5,0l2.508-2.512a3.186,3.186,0,0,0,0-4.5L66.563,63.47a3.167,3.167,0,0,0-3.058-.822l-2.881-2.881a17.071,17.071,0,0,0,1.057-1.783H77.49a5.466,5.466,0,0,0,5.46-5.456V47.238a5.467,5.467,0,0,0-5.46-5.458Zm-45.568-18.8H45.576v4.112H31.923Zm-.3,6.209H45.872a1.8,1.8,0,0,0,1.8-1.8V22.679a1.8,1.8,0,0,0-1.8-1.8H31.62a1.8,1.8,0,0,0-1.8,1.8V27.39a1.8,1.8,0,0,0,1.8,1.8ZM11.083,22.979H24.737v4.112H11.083Zm-.3,6.209H25.04a1.8,1.8,0,0,0,1.8-1.8V22.679a1.8,1.8,0,0,0-1.8-1.8H10.78a1.8,1.8,0,0,0-1.8,1.8V27.39a1.8,1.8,0,0,0,1.8,1.8Zm70.07-2.1H66.211V22.979h14.64Zm.3-6.209H65.915a1.8,1.8,0,0,0-1.8,1.8V27.39a1.8,1.8,0,0,0,1.8,1.8H81.153a1.8,1.8,0,0,0,1.8-1.8V22.679A1.8,1.8,0,0,0,81.153,20.882Zm-70.07-9.793h14.64V15.2H11.083Zm-.3,6.209H26.019a1.8,1.8,0,0,0,1.8-1.8V10.789a1.8,1.8,0,0,0-1.8-1.8H10.78a1.8,1.8,0,0,0-1.8,1.8V15.5a1.8,1.8,0,0,0,1.8,1.8Zm70.07-2.1H67.2V11.089H80.851Zm.3-6.209H66.894a1.8,1.8,0,0,0-1.8,1.8V15.5a1.8,1.8,0,0,0,1.8,1.8H81.153a1.8,1.8,0,0,0,1.8-1.8V10.789A1.8,1.8,0,0,0,81.153,8.993Zm-22.121,18.1h-6.27V22.979h6.27Zm-6.573-6.209a1.8,1.8,0,0,0-1.8,1.8V27.39a1.8,1.8,0,0,0,1.8,1.8h6.869a1.8,1.8,0,0,0,1.8-1.8V22.679a1.8,1.8,0,0,0-1.8-1.8Zm-6.1-9.793H60.011V15.2H46.358Zm-.3,6.209H60.314a1.8,1.8,0,0,0,1.8-1.8V10.789a1.8,1.8,0,0,0-1.8-1.8H46.062a1.8,1.8,0,0,0-1.8,1.8V15.5A1.8,1.8,0,0,0,46.062,17.3ZM32.9,11.089h6.277V15.2H32.9Zm-.3,6.209h6.869a1.8,1.8,0,0,0,1.8-1.8V10.789a1.8,1.8,0,0,0-1.8-1.8H32.606a1.8,1.8,0,0,0-1.8,1.8V15.5A1.8,1.8,0,0,0,32.606,17.3Z" fill-rule="evenodd"/>
    </g>
  </g>
</svg>
