<svg xmlns="http://www.w3.org/2000/svg" xmlns:xlink="http://www.w3.org/1999/xlink" width="115" height="115" viewBox="0 0 115 115">
  <defs>
    <clipPath id="clip-path">
      <rect id="Rectángulo_410965" data-name="Rectángulo 410965" width="115" height="115" transform="translate(799.781 1954)" fill="#e8bad8" opacity="0.41"/>
    </clipPath>
  </defs>
  <g id="Grupo_1205240" data-name="Grupo 1205240" transform="translate(-742.051 -11739)">
    <g id="Enmascarar_grupo_1099404" data-name="Enmascarar grupo 1099404" transform="translate(-57.73 9785)" clip-path="url(#clip-path)">
      <g id="Grupo_1205233" data-name="Grupo 1205233" transform="translate(799.781 1960.273)">
        <g id="Grupo_1205232" data-name="Grupo 1205232">
          <ellipse id="Elipse_12445" data-name="Elipse 12445" cx="28.658" cy="28.658" rx="28.658" ry="28.658" transform="translate(56.527 44.289)" fill="#c8a0e6"/>
          <ellipse id="Elipse_12446" data-name="Elipse 12446" cx="20.842" cy="20.842" rx="20.842" ry="20.842" fill="#c8a0e6"/>
        </g>
      </g>
    </g>
    <g id="categorias" transform="translate(761.051 11758)">
      <path id="Trazado_1242131" data-name="Trazado 1242131" d="M81.293,21.9H7.5V10.5a3,3,0,0,1,3-3H78.294a3,3,0,0,1,3,3Z" transform="translate(-6.386 -6.386)" fill="#8d9ca8"/>
      <path id="Trazado_1242132" data-name="Trazado 1242132" d="M449.89,7.5h-6a3,3,0,0,1,3,3V21.9h6V10.5A3,3,0,0,0,449.89,7.5Z" transform="translate(-377.982 -6.386)" fill="#7a8c98"/>
      <path id="Trazado_1242133" data-name="Trazado 1242133" d="M78.294,163.871H10.5a3,3,0,0,1-3-3V104.476H81.293v56.395A3,3,0,0,1,78.294,163.871Z" transform="translate(-6.386 -88.964)" fill="#dff6fd"/>
      <path id="Trazado_1242134" data-name="Trazado 1242134" d="M446.891,104.476v56.395a3,3,0,0,1-3,3h6a3,3,0,0,0,3-3V104.476Z" transform="translate(-377.983 -88.964)" fill="#c8effe"/>
      <circle id="Elipse_12447" data-name="Elipse 12447" cx="2.4" cy="2.4" r="2.4" transform="translate(5.913 5.913)" fill="#fd8087"/>
      <circle id="Elipse_12448" data-name="Elipse 12448" cx="2.4" cy="2.4" r="2.4" transform="translate(15.512 5.913)" fill="#ffe177"/>
      <circle id="Elipse_12449" data-name="Elipse 12449" cx="2.4" cy="2.4" r="2.4" transform="translate(25.111 5.913)" fill="#bbec6c"/>
      <path id="Trazado_1242135" data-name="Trazado 1242135" d="M51.225,150.3h-9.3a2.1,2.1,0,0,1-2.1-2.1v-9.3a2.1,2.1,0,0,1,2.1-2.1h9.3a2.1,2.1,0,0,1,2.1,2.1v9.3A2.1,2.1,0,0,1,51.225,150.3Z" transform="translate(-33.913 -116.489)" fill="#fd8087"/>
      <path id="Trazado_1242136" data-name="Trazado 1242136" d="M89.072,136.8h-4.8a2.1,2.1,0,0,1,2.1,2.1v9.3a2.1,2.1,0,0,1-2.1,2.1h4.8a2.1,2.1,0,0,0,2.1-2.1v-9.3A2.1,2.1,0,0,0,89.072,136.8Z" transform="translate(-71.76 -116.489)" fill="#fe646f"/>
      <path id="Trazado_1242137" data-name="Trazado 1242137" d="M51.225,271.52h-9.3a2.1,2.1,0,0,1-2.1-2.1v-9.3a2.1,2.1,0,0,1,2.1-2.1h9.3a2.1,2.1,0,0,1,2.1,2.1v9.3A2.1,2.1,0,0,1,51.225,271.52Z" transform="translate(-33.913 -219.711)" fill="#bbec6c"/>
      <path id="Trazado_1242138" data-name="Trazado 1242138" d="M89.072,258.02h-4.8a2.1,2.1,0,0,1,2.1,2.1v9.3a2.1,2.1,0,0,1-2.1,2.1h4.8a2.1,2.1,0,0,0,2.1-2.1v-9.3A2.1,2.1,0,0,0,89.072,258.02Z" transform="translate(-71.76 -219.71)" fill="#a2e62e"/>
      <path id="Trazado_1242139" data-name="Trazado 1242139" d="M51.225,392.739h-9.3a2.1,2.1,0,0,1-2.1-2.1v-9.3a2.1,2.1,0,0,1,2.1-2.1h9.3a2.1,2.1,0,0,1,2.1,2.1v9.3A2.1,2.1,0,0,1,51.225,392.739Z" transform="translate(-33.913 -322.931)" fill="#ffe177"/>
      <path id="Trazado_1242140" data-name="Trazado 1242140" d="M89.072,379.24h-4.8a2.1,2.1,0,0,1,2.1,2.1v9.3a2.1,2.1,0,0,1-2.1,2.1h4.8a2.1,2.1,0,0,0,2.1-2.1v-9.3A2.1,2.1,0,0,0,89.072,379.24Z" transform="translate(-71.76 -322.931)" fill="#ffd15b"/>
      <path id="Trazado_1242141" data-name="Trazado 1242141" d="M267.4,150.3h-9.3a2.1,2.1,0,0,1-2.1-2.1v-9.3a2.1,2.1,0,0,1,2.1-2.1h9.3a2.1,2.1,0,0,1,2.1,2.1v9.3A2.1,2.1,0,0,1,267.4,150.3Z" transform="translate(-217.99 -116.489)" fill="#cb97e7"/>
      <path id="Trazado_1242142" data-name="Trazado 1242142" d="M267.4,271.52h-9.3a2.1,2.1,0,0,1-2.1-2.1v-9.3a2.1,2.1,0,0,1,2.1-2.1h9.3a2.1,2.1,0,0,1,2.1,2.1v9.3A2.1,2.1,0,0,1,267.4,271.52Z" transform="translate(-217.99 -219.711)" fill="#62dbfb"/>
      <path id="Trazado_1242143" data-name="Trazado 1242143" d="M267.4,392.739h-9.3a2.1,2.1,0,0,1-2.1-2.1v-9.3a2.1,2.1,0,0,1,2.1-2.1h9.3a2.1,2.1,0,0,1,2.1,2.1v9.3A2.1,2.1,0,0,1,267.4,392.739Z" transform="translate(-217.99 -322.931)" fill="#fea95c"/>
      <path id="Trazado_1242144" data-name="Trazado 1242144" d="M305.247,136.8h-4.8a2.1,2.1,0,0,1,2.1,2.1v9.3a2.1,2.1,0,0,1-2.1,2.1h4.8a2.1,2.1,0,0,0,2.1-2.1v-9.3A2.1,2.1,0,0,0,305.247,136.8Z" transform="translate(-255.837 -116.489)" fill="#bd80e1"/>
      <path id="Trazado_1242145" data-name="Trazado 1242145" d="M305.247,258.02h-4.8a2.1,2.1,0,0,1,2.1,2.1v9.3a2.1,2.1,0,0,1-2.1,2.1h4.8a2.1,2.1,0,0,0,2.1-2.1v-9.3A2.1,2.1,0,0,0,305.247,258.02Z" transform="translate(-255.837 -219.71)" fill="#01d0fb"/>
      <path id="Trazado_1242146" data-name="Trazado 1242146" d="M305.247,379.24h-4.8a2.1,2.1,0,0,1,2.1,2.1v9.3a2.1,2.1,0,0,1-2.1,2.1h4.8a2.1,2.1,0,0,0,2.1-2.1v-9.3A2.1,2.1,0,0,0,305.247,379.24Z" transform="translate(-255.837 -322.931)" fill="#fe9738"/>
      <path id="Trazado_1242147" data-name="Trazado 1242147" d="M55.96,76.021H4.113A4.117,4.117,0,0,1,0,71.908V4.113A4.117,4.117,0,0,1,4.113,0H60.508a1.114,1.114,0,1,1,0,2.227H4.113A1.888,1.888,0,0,0,2.227,4.113V71.908a1.888,1.888,0,0,0,1.886,1.886H55.96a1.114,1.114,0,1,1,0,2.227Z" transform="translate(0)"/>
      <path id="Trazado_1242148" data-name="Trazado 1242148" d="M416.255,76.021H405.5a1.114,1.114,0,1,1,0-2.227h10.751a1.888,1.888,0,0,0,1.886-1.886V4.113a1.888,1.888,0,0,0-1.886-1.886h-6.2a1.114,1.114,0,1,1,0-2.227h6.2a4.117,4.117,0,0,1,4.113,4.113V71.908A4.117,4.117,0,0,1,416.255,76.021Z" transform="translate(-344.347)"/>
      <path id="Línea_564" data-name="Línea 564" d="M2.564-5.273h-8.95A1.114,1.114,0,0,1-7.5-6.386,1.114,1.114,0,0,1-6.386-7.5h8.95A1.114,1.114,0,0,1,3.677-6.386,1.114,1.114,0,0,1,2.564-5.273Z" transform="translate(7.5 21.899)"/>
      <path id="Línea_565" data-name="Línea 565" d="M53.26-5.273H-6.386A1.114,1.114,0,0,1-7.5-6.386,1.114,1.114,0,0,1-6.386-7.5H53.26a1.114,1.114,0,0,1,1.114,1.114A1.114,1.114,0,0,1,53.26-5.273Z" transform="translate(21.647 21.899)"/>
      <path id="Elipse_12450" data-name="Elipse 12450" d="M-3.987-7.5A3.517,3.517,0,0,1-.473-3.987,3.517,3.517,0,0,1-3.987-.473,3.517,3.517,0,0,1-7.5-3.987,3.517,3.517,0,0,1-3.987-7.5Zm0,4.8A1.288,1.288,0,0,0-2.7-3.987,1.288,1.288,0,0,0-3.987-5.273,1.288,1.288,0,0,0-5.273-3.987,1.288,1.288,0,0,0-3.987-2.7Z" transform="translate(12.3 12.3)"/>
      <path id="Elipse_12451" data-name="Elipse 12451" d="M-3.987-7.5A3.517,3.517,0,0,1-.473-3.987,3.517,3.517,0,0,1-3.987-.473,3.517,3.517,0,0,1-7.5-3.987,3.517,3.517,0,0,1-3.987-7.5Zm0,4.8A1.288,1.288,0,0,0-2.7-3.987,1.288,1.288,0,0,0-3.987-5.273,1.288,1.288,0,0,0-5.273-3.987,1.288,1.288,0,0,0-3.987-2.7Z" transform="translate(21.899 12.3)"/>
      <path id="Elipse_12452" data-name="Elipse 12452" d="M-3.987-7.5A3.517,3.517,0,0,1-.473-3.987,3.517,3.517,0,0,1-3.987-.473,3.517,3.517,0,0,1-7.5-3.987,3.517,3.517,0,0,1-3.987-7.5Zm0,4.8A1.288,1.288,0,0,0-2.7-3.987,1.288,1.288,0,0,0-3.987-5.273,1.288,1.288,0,0,0-5.273-3.987,1.288,1.288,0,0,0-3.987-2.7Z" transform="translate(31.498 12.3)"/>
      <path id="Trazado_1242149" data-name="Trazado 1242149" d="M44.839,145.027h-9.3a3.217,3.217,0,0,1-3.213-3.213v-9.3a3.217,3.217,0,0,1,3.213-3.213h9.3a3.217,3.217,0,0,1,3.213,3.213v9.3A3.217,3.217,0,0,1,44.839,145.027Zm-9.3-13.5a.987.987,0,0,0-.986.986v9.3a.987.987,0,0,0,.986.986h9.3a.987.987,0,0,0,.986-.986v-9.3a.987.987,0,0,0-.986-.986Z" transform="translate(-27.526 -110.103)"/>
      <path id="Trazado_1242150" data-name="Trazado 1242150" d="M44.839,266.247h-9.3a3.217,3.217,0,0,1-3.213-3.213v-9.3a3.217,3.217,0,0,1,3.213-3.213h9.3a3.217,3.217,0,0,1,3.213,3.213v9.3A3.217,3.217,0,0,1,44.839,266.247Zm-9.3-13.5a.987.987,0,0,0-.986.986v9.3a.987.987,0,0,0,.986.986h9.3a.987.987,0,0,0,.986-.986v-9.3a.987.987,0,0,0-.986-.986Z" transform="translate(-27.526 -213.324)"/>
      <path id="Trazado_1242151" data-name="Trazado 1242151" d="M44.839,387.466h-9.3a3.217,3.217,0,0,1-3.213-3.213v-9.3a3.217,3.217,0,0,1,3.213-3.213h9.3a3.217,3.217,0,0,1,3.213,3.213v9.3A3.217,3.217,0,0,1,44.839,387.466Zm-9.3-13.5a.987.987,0,0,0-.986.986v9.3a.987.987,0,0,0,.986.986h9.3a.987.987,0,0,0,.986-.986v-9.3a.987.987,0,0,0-.986-.986Z" transform="translate(-27.526 -316.545)"/>
      <path id="Trazado_1242152" data-name="Trazado 1242152" d="M261.013,145.027h-9.3a3.217,3.217,0,0,1-3.213-3.213v-9.3a3.217,3.217,0,0,1,3.213-3.213h9.3a3.217,3.217,0,0,1,3.213,3.213v9.3a3.213,3.213,0,0,1-3.213,3.213Zm-9.3-13.5a.987.987,0,0,0-.986.986v9.3a.987.987,0,0,0,.986.986h9.3a.986.986,0,0,0,.986-.986v-9.3a.987.987,0,0,0-.986-.986Z" transform="translate(-211.603 -110.103)"/>
      <path id="Trazado_1242153" data-name="Trazado 1242153" d="M261.013,266.247h-9.3a3.217,3.217,0,0,1-3.213-3.213v-9.3a3.217,3.217,0,0,1,3.213-3.213h9.3a3.217,3.217,0,0,1,3.213,3.213v9.3a3.213,3.213,0,0,1-3.213,3.213Zm-9.3-13.5a.987.987,0,0,0-.986.986v9.3a.987.987,0,0,0,.986.986h9.3a.986.986,0,0,0,.986-.986v-9.3a.987.987,0,0,0-.986-.986Z" transform="translate(-211.603 -213.324)"/>
      <path id="Trazado_1242154" data-name="Trazado 1242154" d="M261.013,387.466h-9.3a3.217,3.217,0,0,1-3.213-3.213v-9.3a3.217,3.217,0,0,1,3.213-3.213h9.3a3.217,3.217,0,0,1,3.213,3.213v9.3a3.213,3.213,0,0,1-3.213,3.213Zm-9.3-13.5a.987.987,0,0,0-.986.986v9.3a.987.987,0,0,0,.986.986h9.3a.986.986,0,0,0,.986-.986v-9.3a.987.987,0,0,0-.986-.986Z" transform="translate(-211.603 -316.545)"/>
      <g id="Grupo_1205234" data-name="Grupo 1205234" transform="translate(23.098 23.548)">
        <path id="Línea_566" data-name="Línea 566" d="M2.613-5.273h-9A1.114,1.114,0,0,1-7.5-6.386,1.114,1.114,0,0,1-6.386-7.5h9A1.114,1.114,0,0,1,3.726-6.386,1.114,1.114,0,0,1,2.613-5.273Z" transform="translate(7.5 7.5)"/>
        <path id="Línea_567" data-name="Línea 567" d="M-1.887-5.273h-4.5A1.114,1.114,0,0,1-7.5-6.386,1.114,1.114,0,0,1-6.386-7.5h4.5A1.114,1.114,0,0,1-.773-6.386,1.114,1.114,0,0,1-1.887-5.273Z" transform="translate(7.5 12.3)"/>
      </g>
      <g id="Grupo_1205235" data-name="Grupo 1205235" transform="translate(23.098 41.546)">
        <path id="Línea_568" data-name="Línea 568" d="M2.613-5.273h-9A1.114,1.114,0,0,1-7.5-6.386,1.114,1.114,0,0,1-6.386-7.5h9A1.114,1.114,0,0,1,3.726-6.386,1.114,1.114,0,0,1,2.613-5.273Z" transform="translate(7.5 7.5)"/>
        <path id="Línea_569" data-name="Línea 569" d="M-1.887-5.273h-4.5A1.114,1.114,0,0,1-7.5-6.386,1.114,1.114,0,0,1-6.386-7.5h4.5A1.114,1.114,0,0,1-.773-6.386,1.114,1.114,0,0,1-1.887-5.273Z" transform="translate(7.5 12.3)"/>
      </g>
      <g id="Grupo_1205236" data-name="Grupo 1205236" transform="translate(23.098 59.545)">
        <path id="Línea_570" data-name="Línea 570" d="M2.613-5.273h-9A1.114,1.114,0,0,1-7.5-6.386,1.114,1.114,0,0,1-6.386-7.5h9A1.114,1.114,0,0,1,3.726-6.386,1.114,1.114,0,0,1,2.613-5.273Z" transform="translate(7.5 7.5)"/>
        <path id="Línea_571" data-name="Línea 571" d="M-1.887-5.273h-4.5A1.114,1.114,0,0,1-7.5-6.386,1.114,1.114,0,0,1-6.386-7.5h4.5A1.114,1.114,0,0,1-.773-6.386,1.114,1.114,0,0,1-1.887-5.273Z" transform="translate(7.5 12.3)"/>
      </g>
      <g id="Grupo_1205237" data-name="Grupo 1205237" transform="translate(55.195 23.548)">
        <path id="Línea_572" data-name="Línea 572" d="M2.613-5.273h-9A1.114,1.114,0,0,1-7.5-6.386,1.114,1.114,0,0,1-6.386-7.5h9A1.114,1.114,0,0,1,3.726-6.386,1.114,1.114,0,0,1,2.613-5.273Z" transform="translate(7.5 7.5)"/>
        <path id="Línea_573" data-name="Línea 573" d="M-1.887-5.273h-4.5A1.114,1.114,0,0,1-7.5-6.386,1.114,1.114,0,0,1-6.386-7.5h4.5A1.114,1.114,0,0,1-.773-6.386,1.114,1.114,0,0,1-1.887-5.273Z" transform="translate(7.5 12.3)"/>
      </g>
      <g id="Grupo_1205238" data-name="Grupo 1205238" transform="translate(55.195 41.546)">
        <path id="Línea_574" data-name="Línea 574" d="M2.613-5.273h-9A1.114,1.114,0,0,1-7.5-6.386,1.114,1.114,0,0,1-6.386-7.5h9A1.114,1.114,0,0,1,3.726-6.386,1.114,1.114,0,0,1,2.613-5.273Z" transform="translate(7.5 7.5)"/>
        <path id="Línea_575" data-name="Línea 575" d="M-1.887-5.273h-4.5A1.114,1.114,0,0,1-7.5-6.386,1.114,1.114,0,0,1-6.386-7.5h4.5A1.114,1.114,0,0,1-.773-6.386,1.114,1.114,0,0,1-1.887-5.273Z" transform="translate(7.5 12.3)"/>
      </g>
      <g id="Grupo_1205239" data-name="Grupo 1205239" transform="translate(55.195 59.545)">
        <path id="Línea_576" data-name="Línea 576" d="M2.613-5.273h-9A1.114,1.114,0,0,1-7.5-6.386,1.114,1.114,0,0,1-6.386-7.5h9A1.114,1.114,0,0,1,3.726-6.386,1.114,1.114,0,0,1,2.613-5.273Z" transform="translate(7.5 7.5)"/>
        <path id="Línea_577" data-name="Línea 577" d="M-1.887-5.273h-4.5A1.114,1.114,0,0,1-7.5-6.386,1.114,1.114,0,0,1-6.386-7.5h4.5A1.114,1.114,0,0,1-.773-6.386,1.114,1.114,0,0,1-1.887-5.273Z" transform="translate(7.5 12.3)"/>
      </g>
    </g>
  </g>
</svg>
