<svg xmlns="http://www.w3.org/2000/svg" xmlns:xlink="http://www.w3.org/1999/xlink" width="115" height="115" viewBox="0 0 115 115">
  <defs>
    <clipPath id="clip-path">
      <rect id="Rectángulo_410887" data-name="Rectángulo 410887" width="115" height="115" transform="translate(799.781 1954)" fill="#e8bad8" opacity="0.41"/>
    </clipPath>
  </defs>
  <g id="Grupo_1205254" data-name="Grupo 1205254" transform="translate(-1160.051 -11739)">
    <g id="Enmascarar_grupo_1099394" data-name="Enmascarar grupo 1099394" transform="translate(360.27 9785)" clip-path="url(#clip-path)">
      <g id="Grupo_1205001" data-name="Grupo 1205001" transform="translate(799.781 1960.273)">
        <g id="Grupo_1205000" data-name="Grupo 1205000">
          <ellipse id="Elipse_12413" data-name="Elipse 12413" cx="28.658" cy="28.658" rx="28.658" ry="28.658" transform="translate(56.527 44.289)" fill="#c8a0e6"/>
          <ellipse id="Elipse_12414" data-name="Elipse 12414" cx="20.842" cy="20.842" rx="20.842" ry="20.842" fill="#c8a0e6"/>
        </g>
      </g>
    </g>
    <g id="seo" transform="translate(1178.051 11737.569)">
      <g id="Grupo_1205241" data-name="Grupo 1205241" transform="translate(1.134 29.806)">
        <path id="Trazado_1242147" data-name="Trazado 1242147" d="M73.053,118.068H10.4a3.109,3.109,0,0,1-3.109-3.109v-40.4H76.162v40.4A3.109,3.109,0,0,1,73.053,118.068Z" transform="translate(-7.295 -74.564)" fill="#9dc6fb"/>
      </g>
      <g id="Grupo_1205242" data-name="Grupo 1205242" transform="translate(1.134 29.806)">
        <path id="Trazado_1242148" data-name="Trazado 1242148" d="M70.314,74.564V109.2a3.024,3.024,0,0,1-3.024,3.024H7.3v2.739a3.109,3.109,0,0,0,3.109,3.109h62.65a3.109,3.109,0,0,0,3.109-3.109v-40.4Z" transform="translate(-7.295 -74.564)" fill="#89aada"/>
      </g>
      <g id="Grupo_1205243" data-name="Grupo 1205243" transform="translate(1.134 22.702)">
        <path id="Trazado_1242149" data-name="Trazado 1242149" d="M76.162,39.768H7.295v-7.8A3.109,3.109,0,0,1,10.4,28.863h62.65a3.109,3.109,0,0,1,3.109,3.109Z" transform="translate(-7.295 -28.863)" fill="#f6f1f1"/>
      </g>
      <g id="Grupo_1205244" data-name="Grupo 1205244" transform="translate(64.151 22.702)">
        <path id="Trazado_1242150" data-name="Trazado 1242150" d="M415.454,28.863h-2.741v10.9h5.85v-7.8A3.109,3.109,0,0,0,415.454,28.863Z" transform="translate(-412.713 -28.863)" fill="#e7ecf6"/>
      </g>
      <g id="Grupo_1205245" data-name="Grupo 1205245" transform="translate(60.321 75.178)">
        <path id="Trazado_1242151" data-name="Trazado 1242151" d="M405.3,379.31a3.082,3.082,0,0,0-1.783-.874.3.3,0,0,1-.244-.376,2.176,2.176,0,0,0-.566-2.093l-9.507-9.507-5.132,5.132,9.507,9.507a2.177,2.177,0,0,0,2.093.566.3.3,0,0,1,.375.248,3.1,3.1,0,0,0,5.378,1.666A3.121,3.121,0,0,0,405.3,379.31Z" transform="translate(-388.068 -366.461)" fill="#aa7a63"/>
      </g>
      <g id="Grupo_1205246" data-name="Grupo 1205246" transform="translate(63.488 75.178)">
        <path id="Trazado_1242152" data-name="Trazado 1242152" d="M422.512,379.31a3.082,3.082,0,0,0-1.783-.874.3.3,0,0,1-.244-.376,2.177,2.177,0,0,0-.566-2.093l-9.507-9.507-1.964,1.964,8.753,8.753a2.177,2.177,0,0,1,.566,2.093.3.3,0,0,0,.244.376,3.082,3.082,0,0,1,1.783.874,3.124,3.124,0,0,1,.278,4.076,3.1,3.1,0,0,0,2.44-5.286Z" transform="translate(-408.447 -366.461)" fill="#8b5e5e"/>
      </g>
      <g id="Grupo_1205247" data-name="Grupo 1205247" transform="translate(29.709 44.262)">
        <circle id="Elipse_12450" data-name="Elipse 12450" cx="19.499" cy="19.499" r="19.499" transform="translate(0 0)" fill="#e7ecf6"/>
      </g>
      <g id="Grupo_1205248" data-name="Grupo 1205248" transform="translate(32.812 47.366)">
        <path id="Trazado_1242153" data-name="Trazado 1242153" d="M241.278,190.143a19.578,19.578,0,0,0-3.229-2.608,19.5,19.5,0,0,1-26.955,26.954,19.5,19.5,0,1,0,30.183-24.347Z" transform="translate(-211.095 -187.535)" fill="#d5dff4"/>
      </g>
      <g id="Grupo_1205250" data-name="Grupo 1205250" transform="translate(27.256 41.799)">
        <g id="Grupo_1205249" data-name="Grupo 1205249">
          <path id="Trazado_1242154" data-name="Trazado 1242154" d="M197.3,195.649a21.962,21.962,0,1,1,15.529-6.432A21.817,21.817,0,0,1,197.3,195.649Zm0-39.361a17.4,17.4,0,1,0,12.3,5.1A17.285,17.285,0,0,0,197.3,156.288Z" transform="translate(-175.351 -151.725)" fill="#8b5e5e"/>
        </g>
      </g>
      <g id="Grupo_1205252" data-name="Grupo 1205252" transform="translate(32.638 47.18)">
        <g id="Grupo_1205251" data-name="Grupo 1205251" transform="translate(0 0)">
          <path id="Trazado_1242155" data-name="Trazado 1242155" d="M242.072,187.393q-.548-.548-1.128-1.052a21.962,21.962,0,0,1-30.971,30.994q.5.572,1.041,1.117a21.962,21.962,0,0,0,31.059-31.059Z" transform="translate(-209.973 -186.341)" fill="#664545"/>
        </g>
      </g>
      <g id="Grupo_1205253" data-name="Grupo 1205253" transform="translate(0 21.568)">
        <circle id="Elipse_12451" data-name="Elipse 12451" cx="1.635" cy="1.635" r="1.635" transform="translate(6.349 5.283)"/>
        <circle id="Elipse_12452" data-name="Elipse 12452" cx="1.635" cy="1.635" r="1.635" transform="translate(12.567 5.283)"/>
        <circle id="Elipse_12453" data-name="Elipse 12453" cx="1.635" cy="1.635" r="1.635" transform="translate(18.785 5.283)"/>
        <path id="Trazado_1242156" data-name="Trazado 1242156" d="M78.352,87.222a4.191,4.191,0,0,0-1.623-1.007,3.326,3.326,0,0,0-.968-2.333l-7.322-7.322a23.08,23.08,0,1,0-40.746-4.385H4.158a1.892,1.892,0,0,1-1.89-1.89V34.741h66.6V46.447a1.134,1.134,0,0,0,2.268,0V25.726a4.162,4.162,0,0,0-4.158-4.158H23.491a1.134,1.134,0,0,0,0,2.268H66.977a1.892,1.892,0,0,1,1.89,1.89v6.747H2.268V25.726a1.892,1.892,0,0,1,1.89-1.89H17.689a1.134,1.134,0,1,0,0-2.268H4.158A4.162,4.162,0,0,0,0,25.726v44.56a4.162,4.162,0,0,0,4.158,4.158H28.724a23.118,23.118,0,0,0,32.917,8.789l7.385,7.385a3.324,3.324,0,0,0,2.333.968,4.193,4.193,0,0,0,1.016,1.632,4.233,4.233,0,1,0,5.978-6ZM34.48,78.489a20.828,20.828,0,1,1,14.728,6.1A20.686,20.686,0,0,1,34.48,78.489ZM76.832,91.537a1.975,1.975,0,0,1-2.854.078,1.943,1.943,0,0,1-.557-1.131,1.442,1.442,0,0,0-1.786-1.2,1.037,1.037,0,0,1-1.005-.271L63.512,81.9a23.489,23.489,0,0,0,3.561-3.5l7.085,7.085a1.037,1.037,0,0,1,.271,1,1.442,1.442,0,0,0,1.2,1.786,1.942,1.942,0,0,1,1.129.554A1.985,1.985,0,0,1,76.832,91.537Z" transform="translate(0 -21.568)"/>
        <path id="Trazado_1242157" data-name="Trazado 1242157" d="M228.981,179.212a18.533,18.533,0,1,0-19.034,30.674,1.134,1.134,0,0,0,.723-2.149,16.27,16.27,0,1,1,16.707-26.92,16.265,16.265,0,0,1-11.5,27.767,1.134,1.134,0,1,0,0,2.268,18.533,18.533,0,0,0,13.1-31.638Z" transform="translate(-166.668 -150.124)"/>
        <path id="Trazado_1242158" data-name="Trazado 1242158" d="M294.853,267.194a1.134,1.134,0,0,0-1.134-1.134h-2.6v-2.167h2.328a1.134,1.134,0,1,0,0-2.268h-2.328v-2.167h2.6a1.134,1.134,0,0,0,0-2.268h-3.737a1.134,1.134,0,0,0-1.134,1.134v8.869a1.134,1.134,0,0,0,1.134,1.134h3.737A1.134,1.134,0,0,0,294.853,267.194Z" transform="translate(-243.95 -220.566)"/>
        <path id="Trazado_1242159" data-name="Trazado 1242159" d="M227.876,265.879a3.1,3.1,0,0,1-2.279-.954,1.134,1.134,0,1,0-1.681,1.523,5.4,5.4,0,0,0,3.959,1.7,3.707,3.707,0,0,0,3.781-2.875c.224-1.254-.345-2.892-2.612-3.728-1.1-.4-2.118-.845-2.434-.984a.606.606,0,0,1-.212-.567.884.884,0,0,1,.7-.7,2.967,2.967,0,0,1,2.449.567A1.134,1.134,0,0,0,231,258.114a5.232,5.232,0,0,0-4.557-1,3.163,3.163,0,0,0-2.292,2.554,2.835,2.835,0,0,0,1.433,2.917c.052.023,1.285.572,2.674,1.084.389.143,1.281.548,1.164,1.2a1.494,1.494,0,0,1-1.549,1.006Z" transform="translate(-188.863 -220.344)"/>
        <path id="Trazado_1242160" data-name="Trazado 1242160" d="M348.979,262.537a5.609,5.609,0,1,0-5.61,5.609A5.616,5.616,0,0,0,348.979,262.537Zm-8.951,0a3.342,3.342,0,1,1,3.342,3.342A3.345,3.345,0,0,1,340.028,262.537Z" transform="translate(-285.259 -220.343)"/>
        <path id="Trazado_1242161" data-name="Trazado 1242161" d="M52.169,132.827A10.849,10.849,0,1,0,41.32,143.676,10.861,10.861,0,0,0,52.169,132.827Zm-2.345-1.134H47.385a16.052,16.052,0,0,0-1.478-6.112A8.591,8.591,0,0,1,49.824,131.693Zm-9.638-7.008v7.008h-2.66C37.738,128.249,38.9,125.67,40.186,124.685Zm0,9.276v7.008c-1.29-.985-2.448-3.564-2.66-7.008Zm2.268,7.008v-7.008h2.66C44.9,137.4,43.744,139.983,42.454,140.969Zm0-9.276v-7.008c1.29.985,2.448,3.564,2.66,7.008Zm-5.722-6.112a16.049,16.049,0,0,0-1.478,6.112H32.816A8.592,8.592,0,0,1,36.732,125.581Zm-3.916,8.38h2.438a16.049,16.049,0,0,0,1.478,6.112A8.592,8.592,0,0,1,32.816,133.961Zm13.091,6.112a16.049,16.049,0,0,0,1.478-6.112h2.438A8.591,8.591,0,0,1,45.908,140.073Z" transform="translate(-25.735 -106.37)"/>
        <path id="Trazado_1242162" data-name="Trazado 1242162" d="M55.514,288.518a1.134,1.134,0,0,0-1.134-1.134H39.408a1.134,1.134,0,0,0,0,2.268H54.38A1.134,1.134,0,0,0,55.514,288.518Z" transform="translate(-32.325 -246.066)"/>
        <path id="Trazado_1242163" data-name="Trazado 1242163" d="M39.407,318.593a1.134,1.134,0,1,0,0,2.268H44a1.134,1.134,0,1,0,0-2.268Z" transform="translate(-32.324 -272.424)"/>
      </g>
    </g>
  </g>
</svg>
