<svg xmlns="http://www.w3.org/2000/svg" xmlns:xlink="http://www.w3.org/1999/xlink" width="420" height="211.786" viewBox="0 0 420 211.786">
  <defs>
    <clipPath id="clip-path">
      <rect id="Rectángulo_411204" data-name="Rectángulo 411204" width="210" height="178.665" fill="none"/>
    </clipPath>
    <clipPath id="clip-path-3">
      <rect id="Rectángulo_411190" data-name="Rectángulo 411190" width="3.846" height="3.846" fill="none"/>
    </clipPath>
    <clipPath id="clip-path-4">
      <rect id="Rectángulo_411191" data-name="Rectángulo 411191" width="2.884" height="2.884" fill="none"/>
    </clipPath>
    <clipPath id="clip-path-5">
      <rect id="Rectángulo_411192" data-name="Rectángulo 411192" width="5.036" height="5.036" fill="none"/>
    </clipPath>
    <clipPath id="clip-path-6">
      <rect id="Rectángulo_411193" data-name="Rectángulo 411193" width="7.428" height="12.126" fill="none"/>
    </clipPath>
    <clipPath id="clip-path-7">
      <rect id="Rectángulo_411194" data-name="Rectángulo 411194" width="6.602" height="6.602" fill="none"/>
    </clipPath>
    <clipPath id="clip-path-8">
      <rect id="Rectángulo_411195" data-name="Rectángulo 411195" width="7.358" height="7.358" fill="none"/>
    </clipPath>
    <clipPath id="clip-path-9">
      <rect id="Rectángulo_411196" data-name="Rectángulo 411196" width="4.02" height="4.021" fill="none"/>
    </clipPath>
    <clipPath id="clip-path-10">
      <rect id="Rectángulo_411197" data-name="Rectángulo 411197" width="4.633" height="4.632" fill="none"/>
    </clipPath>
    <clipPath id="clip-path-11">
      <rect id="Rectángulo_411198" data-name="Rectángulo 411198" width="3.773" height="3.773" fill="none"/>
    </clipPath>
    <clipPath id="clip-path-12">
      <rect id="Rectángulo_411199" data-name="Rectángulo 411199" width="8.653" height="9.966" fill="none"/>
    </clipPath>
    <clipPath id="clip-path-13">
      <rect id="Rectángulo_411200" data-name="Rectángulo 411200" width="4.567" height="4.567" fill="none"/>
    </clipPath>
    <clipPath id="clip-path-14">
      <rect id="Rectángulo_411201" data-name="Rectángulo 411201" width="3.916" height="3.916" fill="none"/>
    </clipPath>
    <clipPath id="clip-path-15">
      <rect id="Rectángulo_411202" data-name="Rectángulo 411202" width="54.596" height="54.597" fill="none"/>
    </clipPath>
  </defs>
  <g id="Grupo_1205892" data-name="Grupo 1205892" transform="translate(-390 -13894.512)">
    <rect id="Rectángulo_410896" data-name="Rectángulo 410896" width="420" height="211.786" transform="translate(390 13894.512)" fill="#8b6fa0"/>
    <g id="Grupo_1205891" data-name="Grupo 1205891" transform="translate(484 13911.023)">
      <g id="Grupo_1205890" data-name="Grupo 1205890" clip-path="url(#clip-path)">
        <g id="Grupo_1205889" data-name="Grupo 1205889" transform="translate(0 0)">
          <g id="Grupo_1205888" data-name="Grupo 1205888" clip-path="url(#clip-path)">
            <path id="Trazado_1242390" data-name="Trazado 1242390" d="M410.528,1356.586H236.352a.353.353,0,0,1,0-.706H410.528a.353.353,0,0,1,0,.706" transform="translate(-205.024 -1177.921)" fill="#030047"/>
            <path id="Trazado_1242391" data-name="Trazado 1242391" d="M108.009,216.525H10.326a7.635,7.635,0,0,1-7.635-7.635V146.978a7.635,7.635,0,0,1,7.635-7.635h97.683a7.635,7.635,0,0,1,7.635,7.635v61.913a7.635,7.635,0,0,1-7.635,7.635" transform="translate(-2.338 -121.054)" fill="#fff"/>
            <path id="Trazado_1242392" data-name="Trazado 1242392" d="M105.671,214.541H7.988A8,8,0,0,1,0,206.554V144.641a8,8,0,0,1,7.988-7.988h97.683a8,8,0,0,1,7.988,7.988v61.913a8,8,0,0,1-7.988,7.988M7.988,137.359a7.29,7.29,0,0,0-7.282,7.281v61.913a7.29,7.29,0,0,0,7.282,7.281h97.683a7.29,7.29,0,0,0,7.282-7.281V144.641a7.29,7.29,0,0,0-7.282-7.281Z" transform="translate(0 -118.717)" fill="#030047"/>
            <rect id="Rectángulo_411187" data-name="Rectángulo 411187" width="92.558" height="4.265" transform="translate(11.164 60.756)" fill="#e6f3fc"/>
            <rect id="Rectángulo_411188" data-name="Rectángulo 411188" width="92.558" height="4.265" transform="translate(11.164 69.376)" fill="#e6f3fc"/>
            <rect id="Rectángulo_411189" data-name="Rectángulo 411189" width="92.558" height="4.265" transform="translate(11.164 77.995)" fill="#e6f3fc"/>
            <path id="Trazado_1242393" data-name="Trazado 1242393" d="M233.3,291.3H171.183a3.8,3.8,0,0,1-3.8-3.8V277.6a3.8,3.8,0,0,1,3.8-3.8H233.3a3.8,3.8,0,0,1,3.8,3.8v9.893a3.8,3.8,0,0,1-3.8,3.8" transform="translate(-145.412 -237.862)" fill="#8b6fa0"/>
            <path id="Trazado_1242394" data-name="Trazado 1242394" d="M449.457,1106.37a17.718,17.718,0,0,1-17.716,17.711H300.735a17.713,17.713,0,0,1,0-35.427H431.741a17.713,17.713,0,0,1,17.716,17.716" transform="translate(-245.877 -945.768)" fill="#fff"/>
            <path id="Trazado_1242395" data-name="Trazado 1242395" d="M429.4,1122.1H298.4a18.066,18.066,0,0,1,0-36.133H429.4a18.066,18.066,0,0,1,0,36.133M298.4,1086.67a17.36,17.36,0,0,0,0,34.72H429.4a17.36,17.36,0,1,0,0-34.72Z" transform="translate(-243.541 -943.431)" fill="#030047"/>
            <path id="Trazado_1242396" data-name="Trazado 1242396" d="M1293.257,1106.37a17.717,17.717,0,0,1-17.716,17.711h-3.525a17.713,17.713,0,0,1,0-35.427h3.525a17.713,17.713,0,0,1,17.716,17.716" transform="translate(-1089.677 -945.768)" fill="#e6e51d"/>
            <path id="Trazado_1242397" data-name="Trazado 1242397" d="M1273.2,1122.1h-3.526a18.066,18.066,0,0,1,0-36.133h3.526a18.066,18.066,0,0,1,0,36.133m-3.526-35.426a17.36,17.36,0,0,0,0,34.72h3.526a17.36,17.36,0,1,0,0-34.72Z" transform="translate(-1087.34 -943.431)" fill="#030047"/>
            <path id="Trazado_1242398" data-name="Trazado 1242398" d="M1351.494,1161.294a8.181,8.181,0,0,1-10,1.224l-3.863,3.863a1.972,1.972,0,1,1-2.789-2.789l3.863-3.863a8.181,8.181,0,1,1,12.793,1.564" transform="translate(-1159.139 -996.74)" fill="#634f72"/>
            <path id="Trazado_1242399" data-name="Trazado 1242399" d="M1392.341,1180.511a4.931,4.931,0,1,1,0-6.976,4.931,4.931,0,0,1,0,6.976" transform="translate(-1202.283 -1018.254)" fill="#e6e51d"/>
            <path id="Trazado_1242400" data-name="Trazado 1242400" d="M587.245,751.14l-15.853,1.467a9.232,9.232,0,0,0-9.025,4.56l-8.092,11.665,19.131,15.9Z" transform="translate(-481.527 -652.553)" fill="#634f72"/>
            <path id="Trazado_1242401" data-name="Trazado 1242401" d="M293.7,742.632l15.527,23.26,7.579-8.874,21.155,7.88-17.2,23.876a14.468,14.468,0,0,1-23.839-.513l-21.72-38.22,12.178-8.083" transform="translate(-239.09 -644.577)" fill="#fff"/>
            <path id="Trazado_1242402" data-name="Trazado 1242402" d="M306.7,792.807a14.863,14.863,0,0,1-12.4-6.688L272.567,747.88a.354.354,0,0,1,.112-.469l12.178-8.083a.353.353,0,0,1,.391.589l-11.9,7.9L294.9,785.751a14.146,14.146,0,0,0,12.678,6.323,13.956,13.956,0,0,0,5.937-1.736,14.217,14.217,0,0,0,4.63-4.106l16.926-23.5-20.49-7.632-7.418,8.686a.359.359,0,0,1-.289.123.354.354,0,0,1-.273-.156l-15.528-23.26a.353.353,0,0,1,.587-.392l15.268,22.872,7.276-8.519a.354.354,0,0,1,.392-.1l21.156,7.88a.353.353,0,0,1,.163.537l-17.2,23.876a14.927,14.927,0,0,1-4.861,4.311,14.655,14.655,0,0,1-6.235,1.823c-.308.019-.616.029-.923.029" transform="translate(-236.752 -642.24)" fill="#030047"/>
            <path id="Trazado_1242403" data-name="Trazado 1242403" d="M562.369,797.06l-8.091,11.665,19.131,15.9,10.355-23.253" transform="translate(-481.528 -692.445)" fill="#634f72"/>
            <path id="Trazado_1242404" data-name="Trazado 1242404" d="M571.072,822.645a.351.351,0,0,1-.226-.082l-19.131-15.9a.353.353,0,0,1-.064-.473l8.091-11.665a.353.353,0,1,1,.58.4l-7.907,11.4,18.524,15.4L581.1,798.894a.353.353,0,0,1,.646.287l-10.355,23.254a.354.354,0,0,1-.323.209" transform="translate(-479.191 -690.108)" fill="#030047"/>
            <g id="Grupo_1205851" data-name="Grupo 1205851" transform="translate(82.702 116.476)" opacity="0.4">
              <g id="Grupo_1205850" data-name="Grupo 1205850">
                <g id="Grupo_1205849" data-name="Grupo 1205849" clip-path="url(#clip-path-3)">
                  <path id="Trazado_1242405" data-name="Trazado 1242405" d="M633.954,889.355a1.923,1.923,0,1,1-1.923-1.923,1.923,1.923,0,0,1,1.923,1.923" transform="translate(-630.108 -887.432)" fill="#fff"/>
                </g>
              </g>
            </g>
            <g id="Grupo_1205854" data-name="Grupo 1205854" transform="translate(84.906 106.432)" opacity="0.4">
              <g id="Grupo_1205853" data-name="Grupo 1205853">
                <g id="Grupo_1205852" data-name="Grupo 1205852" clip-path="url(#clip-path-4)">
                  <path id="Trazado_1242406" data-name="Trazado 1242406" d="M646.906,812.353a1.442,1.442,0,1,0,1.442-1.442,1.442,1.442,0,0,0-1.442,1.442" transform="translate(-646.906 -810.911)" fill="#fff"/>
                </g>
              </g>
            </g>
            <path id="Trazado_1242407" data-name="Trazado 1242407" d="M708.386,1172.614l1.072-27.972-46.507,3.5-3.54,24.471Z" transform="translate(-572.864 -994.408)" fill="#030047"/>
            <path id="Trazado_1242408" data-name="Trazado 1242408" d="M698.1,740.707c4.643-.116,18.492,1.763,18.492,1.763a6.094,6.094,0,0,1,5.007,5.679l.936,51.452-49.238-.45,3.792-50.56A6.094,6.094,0,0,1,682.417,743s11.722-2.192,15.682-2.291" transform="translate(-584.928 -643.484)" fill="#634f72"/>
            <g id="Grupo_1205857" data-name="Grupo 1205857" transform="translate(94.883 132.662)" opacity="0.4">
              <g id="Grupo_1205856" data-name="Grupo 1205856">
                <g id="Grupo_1205855" data-name="Grupo 1205855" clip-path="url(#clip-path-5)">
                  <path id="Trazado_1242409" data-name="Trazado 1242409" d="M722.918,1013.275a2.518,2.518,0,1,0,2.518-2.518,2.518,2.518,0,0,0-2.518,2.518" transform="translate(-722.918 -1010.757)" fill="#fff"/>
                </g>
              </g>
            </g>
            <g id="Grupo_1205860" data-name="Grupo 1205860" transform="translate(88.583 141.375)" opacity="0.4">
              <g id="Grupo_1205859" data-name="Grupo 1205859">
                <g id="Grupo_1205858" data-name="Grupo 1205858" clip-path="url(#clip-path-6)">
                  <path id="Trazado_1242410" data-name="Trazado 1242410" d="M675.811,1077.166a3.9,3.9,0,0,1,.471-.024,6.063,6.063,0,0,1,0,12.126,5.676,5.676,0,0,1-1.365-.16" transform="translate(-674.916 -1077.142)" fill="#fff"/>
                </g>
              </g>
            </g>
            <g id="Grupo_1205863" data-name="Grupo 1205863" transform="translate(107.728 123.83)" opacity="0.4">
              <g id="Grupo_1205862" data-name="Grupo 1205862">
                <g id="Grupo_1205861" data-name="Grupo 1205861" clip-path="url(#clip-path-7)">
                  <path id="Trazado_1242411" data-name="Trazado 1242411" d="M827.386,946.763a3.3,3.3,0,1,1-3.3-3.3,3.3,3.3,0,0,1,3.3,3.3" transform="translate(-820.784 -943.462)" fill="#fff"/>
                </g>
              </g>
            </g>
            <g id="Grupo_1205866" data-name="Grupo 1205866" transform="translate(122.981 134.019)" opacity="0.4">
              <g id="Grupo_1205865" data-name="Grupo 1205865">
                <g id="Grupo_1205864" data-name="Grupo 1205864" clip-path="url(#clip-path-8)">
                  <path id="Trazado_1242412" data-name="Trazado 1242412" d="M937,1024.772a3.679,3.679,0,1,0,3.679-3.679,3.679,3.679,0,0,0-3.679,3.679" transform="translate(-936.997 -1021.093)" fill="#fff"/>
                </g>
              </g>
            </g>
            <g id="Grupo_1205869" data-name="Grupo 1205869" transform="translate(109.019 141.377)" opacity="0.4">
              <g id="Grupo_1205868" data-name="Grupo 1205868">
                <g id="Grupo_1205867" data-name="Grupo 1205867" clip-path="url(#clip-path-9)">
                  <path id="Trazado_1242413" data-name="Trazado 1242413" d="M834.639,1079.167a2.01,2.01,0,1,1-2.01-2.01,2.01,2.01,0,0,1,2.01,2.01" transform="translate(-830.618 -1077.157)" fill="#fff"/>
                </g>
              </g>
            </g>
            <g id="Grupo_1205872" data-name="Grupo 1205872" transform="translate(97.603 111.461)" opacity="0.4">
              <g id="Grupo_1205871" data-name="Grupo 1205871">
                <g id="Grupo_1205870" data-name="Grupo 1205870" clip-path="url(#clip-path-10)">
                  <path id="Trazado_1242414" data-name="Trazado 1242414" d="M748.272,851.542a2.316,2.316,0,1,1-2.316-2.316,2.316,2.316,0,0,1,2.316,2.316" transform="translate(-743.639 -849.226)" fill="#fff"/>
                </g>
              </g>
            </g>
            <g id="Grupo_1205875" data-name="Grupo 1205875" transform="translate(113.305 111.891)" opacity="0.4">
              <g id="Grupo_1205874" data-name="Grupo 1205874">
                <g id="Grupo_1205873" data-name="Grupo 1205873" clip-path="url(#clip-path-11)">
                  <path id="Trazado_1242415" data-name="Trazado 1242415" d="M867.052,854.388a1.886,1.886,0,1,1-1.886-1.886,1.886,1.886,0,0,1,1.886,1.886" transform="translate(-863.279 -852.502)" fill="#fff"/>
                </g>
              </g>
            </g>
            <line id="Línea_564" data-name="Línea 564" y1="44.255" x2="3.319" transform="translate(88.37 111.891)" fill="#fff"/>
            <path id="Trazado_1242416" data-name="Trazado 1242416" d="M670.962,894.775h-.027a.353.353,0,0,1-.326-.378l3.319-44.255a.353.353,0,0,1,.7.053l-3.319,44.255a.353.353,0,0,1-.352.327" transform="translate(-582.591 -738.276)" fill="#030047"/>
            <path id="Trazado_1242417" data-name="Trazado 1242417" d="M903.464,887.249a14.911,14.911,0,0,1-5.7,7.4l-24.535,16.2-11.1,8.662a1.871,1.871,0,0,1-1.6.061,1.7,1.7,0,0,1-.843-.659,1.822,1.822,0,0,1,.372-2.485l2.537-2.043-4.75,3.78a1.991,1.991,0,0,1-1.93.344.056.056,0,0,1-.014-.01,1.716,1.716,0,0,1-.847-.659,1.825,1.825,0,0,1,.372-2.476l4.835-3.888-7.24,5.781a1.9,1.9,0,0,1-1.605.061,1.726,1.726,0,0,1-.843-.659,1.778,1.778,0,0,1,.4-2.438l6.929-5.677-5.075,4.077a1.877,1.877,0,0,1-1.61.061,1.711,1.711,0,0,1-.838-.659,1.782,1.782,0,0,1,.4-2.434l8.615-7.033-4.759,1.031a2.1,2.1,0,0,1-.951-.113,1.968,1.968,0,0,1,.348-3.766l10.507-4.331v0l18.665-12.88-8.342-10.422L886.974,858.5l13.1,13.445a14.879,14.879,0,0,1,3.389,15.3" transform="translate(-738.498 -745.823)" fill="#fff"/>
            <path id="Trazado_1242418" data-name="Trazado 1242418" d="M858.935,917.741a2.461,2.461,0,0,1-.9-.174,2.061,2.061,0,0,1-1.008-.794,2.2,2.2,0,0,1-.381-1.418l-.945.752a2.342,2.342,0,0,1-2.274.4.345.345,0,0,1-.046-.022,2.068,2.068,0,0,1-.987-.783,2.194,2.194,0,0,1-.378-1.413l-1.141.911a.328.328,0,0,1-.044.03,2.228,2.228,0,0,1-1.907.085,2.074,2.074,0,0,1-1.009-.79,2.127,2.127,0,0,1,.48-2.92l.94-.77a2.623,2.623,0,0,1-.611-.157,2.043,2.043,0,0,1-1.006-.795,2.123,2.123,0,0,1,.484-2.91l7.464-6.094-3.322.719a2.47,2.47,0,0,1-1.144-.125,2.357,2.357,0,0,1-1.37-1.44,2.311,2.311,0,0,1,.2-1.89,2.342,2.342,0,0,1,1.534-1.108l10.425-4.3,18.338-12.654-8.1-10.126a.353.353,0,0,1,.012-.456l12.107-13.571a.353.353,0,0,1,.516-.011l13.1,13.444a15.148,15.148,0,0,1,3.47,15.667h0a15.336,15.336,0,0,1-2.308,4.254,15.167,15.167,0,0,1-3.528,3.321L871.057,908.81l-11.073,8.646a.389.389,0,0,1-.04.027,2.006,2.006,0,0,1-1.009.259m1.3-6.044a.353.353,0,0,1,.222.628l-2.538,2.043a1.469,1.469,0,0,0-.3,2.01,1.353,1.353,0,0,0,.676.529,1.522,1.522,0,0,0,1.28-.025l11.075-8.646L895.2,892.018a14.452,14.452,0,0,0,3.361-3.164,14.613,14.613,0,0,0,2.2-4.059,14.445,14.445,0,0,0-3.309-14.94l-12.837-13.173-11.657,13.066,8.155,10.189a.353.353,0,0,1-.076.511L862.414,893.3a.344.344,0,0,1-.1.065L851.8,897.7a.366.366,0,0,1-.066.02,1.636,1.636,0,0,0-1.1.778,1.584,1.584,0,0,0-.138,1.311,1.64,1.64,0,0,0,.946,1,1.729,1.729,0,0,0,.783.091l4.724-1.025a.353.353,0,0,1,.3.619l-8.615,7.033a1.425,1.425,0,0,0-.332,1.96,1.355,1.355,0,0,0,.67.528,1.538,1.538,0,0,0,1.287-.023l5.053-4.059a.353.353,0,0,1,.445.548l-6.929,5.677a1.428,1.428,0,0,0-.333,1.965,1.378,1.378,0,0,0,.672.528,1.566,1.566,0,0,0,1.288-.023l7.217-5.763a.353.353,0,0,1,.441.551h0l-4.834,3.888a1.466,1.466,0,0,0-.3,2,1.375,1.375,0,0,0,.68.529.378.378,0,0,1,.059.029,1.632,1.632,0,0,0,1.54-.307l4.752-3.782a.351.351,0,0,1,.22-.077M901.1,884.912h0Z" transform="translate(-736.132 -743.486)" fill="#030047"/>
            <path id="Trazado_1242419" data-name="Trazado 1242419" d="M950.937,751.14l7.291.615c2.162.405,4.562,2.541,6.055,4.156l10.508,11.367L961,783.231,947.2,770.018Z" transform="translate(-822.882 -652.553)" fill="#634f72"/>
            <path id="Trazado_1242420" data-name="Trazado 1242420" d="M985.593,787.5,996.1,798.862l-13.794,15.953-10.575-10.129" transform="translate(-844.192 -684.136)" fill="#634f72"/>
            <path id="Trazado_1242421" data-name="Trazado 1242421" d="M979.969,812.83a.353.353,0,0,1-.244-.1L969.15,802.6a.353.353,0,1,1,.488-.51l10.307,9.872,13.344-15.433L983,785.4a.353.353,0,0,1,.519-.479l10.508,11.367a.353.353,0,0,1,.008.471l-13.794,15.953a.354.354,0,0,1-.25.122h-.017" transform="translate(-841.854 -681.799)" fill="#030047"/>
            <g id="Grupo_1205878" data-name="Grupo 1205878" transform="translate(142.779 113.606)" opacity="0.4">
              <g id="Grupo_1205877" data-name="Grupo 1205877">
                <g id="Grupo_1205876" data-name="Grupo 1205876" clip-path="url(#clip-path-12)">
                  <path id="Trazado_1242422" data-name="Trazado 1242422" d="M1089.328,875.532a6.019,6.019,0,0,1,7.169-9.363" transform="translate(-1087.844 -865.566)" fill="#fff"/>
                </g>
              </g>
            </g>
            <g id="Grupo_1205881" data-name="Grupo 1205881" transform="translate(128.056 107.875)" opacity="0.4">
              <g id="Grupo_1205880" data-name="Grupo 1205880">
                <g id="Grupo_1205879" data-name="Grupo 1205879" clip-path="url(#clip-path-13)">
                  <path id="Trazado_1242423" data-name="Trazado 1242423" d="M975.661,824.184a2.284,2.284,0,1,0,2.284-2.284,2.284,2.284,0,0,0-2.284,2.284" transform="translate(-975.661 -821.9)" fill="#fff"/>
                </g>
              </g>
            </g>
            <g id="Grupo_1205884" data-name="Grupo 1205884" transform="translate(132.477 117.019)" opacity="0.4">
              <g id="Grupo_1205883" data-name="Grupo 1205883">
                <g id="Grupo_1205882" data-name="Grupo 1205882" clip-path="url(#clip-path-14)">
                  <path id="Trazado_1242424" data-name="Trazado 1242424" d="M1009.348,893.527a1.958,1.958,0,1,0,1.958-1.958,1.958,1.958,0,0,0-1.958,1.958" transform="translate(-1009.348 -891.569)" fill="#fff"/>
                </g>
              </g>
            </g>
            <path id="Trazado_1242425" data-name="Trazado 1242425" d="M794.645,627.371v13.186c-8.544,10.422-17.475,1.741-17.485,1.722l4.177-17.469Z" transform="translate(-675.158 -542.804)" fill="#fff"/>
            <path id="Trazado_1242426" data-name="Trazado 1242426" d="M783.044,643.7a10.5,10.5,0,0,1-1.12-.06,13.291,13.291,0,0,1-7.416-3.541.353.353,0,0,1-.029-.243l4.177-17.469a.353.353,0,0,1,.41-.265l13.308,2.561a.353.353,0,0,1,.286.347v13.186a.354.354,0,0,1-.08.224c-2.865,3.495-6.069,5.26-9.537,5.26m-7.83-3.88a12.38,12.38,0,0,0,8.258,3.162c3.057-.147,5.91-1.793,8.482-4.893V625.327l-12.69-2.442Zm-.391.118h0Z" transform="translate(-672.82 -540.468)" fill="#030047"/>
            <path id="Trazado_1242427" data-name="Trazado 1242427" d="M750.477,476.189c4.752-6.761,6.229-17.874,6.229-17.874l-16.2-9.421c-.407.271-11.711,3.428-13.459,16.061-1.557,11.253,1.377,18.994,17.187,16.2" transform="translate(-631.302 -389.977)" fill="#fff"/>
            <path id="Trazado_1242428" data-name="Trazado 1242428" d="M736.035,479.721c-3.939,0-6.864-.957-8.866-2.885-2.818-2.715-3.725-7.391-2.769-14.3,1.045-7.552,5.778-13.3,13.327-16.2.153-.059.256-.1.3-.12a.327.327,0,0,1,.358,0l16.2,9.421a.353.353,0,0,1,.172.352c-.015.112-1.543,11.276-6.29,18.03a.353.353,0,1,1-.577-.406c4.271-6.076,5.889-15.858,6.134-17.485l-15.837-9.21-.208.08c-7.3,2.8-11.872,8.348-12.88,15.633-.922,6.664-.085,11.143,2.56,13.69,2.731,2.63,7.383,3.322,14.216,2.115a.353.353,0,0,1,.123.7,34.56,34.56,0,0,1-5.963.584" transform="translate(-629.004 -387.61)" fill="#030047"/>
            <path id="Trazado_1242429" data-name="Trazado 1242429" d="M751.47,393.352s5.332-2.1,7.907-.113-.316,6.687-.316,6.687,4.428-.723,6.642,4.338-5.829,12.046-5.829,12.046l-4.661-3.041c.09.059-.269.29-.3.3-.415.152-1.131-.513-1.339-.793a8.864,8.864,0,0,1-.722-1.857,10.9,10.9,0,0,0-1.119-2.014,11.175,11.175,0,0,0-7.439-4.666c-1.761-.249-3.569-.066-5.317-.4a9.188,9.188,0,0,1-7.465-9.648,5.754,5.754,0,0,1,1.359-3.559c1.26-1.354,3.236-1.705,5.064-1.981,2.667-.4,5.416-.8,8.034-.156s5.1,2.607,5.515,5.272" transform="translate(-635.487 -337.213)" fill="#030047"/>
            <path id="Trazado_1242430" data-name="Trazado 1242430" d="M759.828,552.263c-.33.693-.974,1.075-1.439.853s-.574-.962-.244-1.655.974-1.075,1.439-.853.574.962.244,1.655" transform="translate(-658.473 -478.286)" fill="#030047"/>
            <path id="Trazado_1242431" data-name="Trazado 1242431" d="M767.366,538.689a2.565,2.565,0,0,1,2.358,1.61" transform="translate(-666.649 -467.986)" fill="#fff"/>
            <path id="Trazado_1242432" data-name="Trazado 1242432" d="M767.388,538.315a.353.353,0,0,1-.323-.211,2.221,2.221,0,0,0-2.026-1.4h-.009a.353.353,0,0,1-.009-.706,2.9,2.9,0,0,1,2.69,1.821.353.353,0,0,1-.323.5" transform="translate(-664.313 -465.648)" fill="#030047"/>
            <path id="Trazado_1242433" data-name="Trazado 1242433" d="M815.561,578.757c-.33.693-.974,1.075-1.439.853s-.574-.962-.244-1.655.974-1.075,1.439-.853.574.962.244,1.655" transform="translate(-706.891 -501.302)" fill="#030047"/>
            <path id="Trazado_1242434" data-name="Trazado 1242434" d="M823.1,565.183a2.565,2.565,0,0,1,2.358,1.61" transform="translate(-715.068 -491.002)" fill="#fff"/>
            <path id="Trazado_1242435" data-name="Trazado 1242435" d="M823.121,564.808a.353.353,0,0,1-.323-.211,2.217,2.217,0,0,0-1.979-1.4h-.056a.353.353,0,0,1-.009-.706,2.9,2.9,0,0,1,2.69,1.821.353.353,0,0,1-.323.5" transform="translate(-712.731 -488.664)" fill="#030047"/>
            <path id="Trazado_1242436" data-name="Trazado 1242436" d="M903.442,564.5s5.028-3.359,7.212-2.061-.348,9.4-3.292,9.622a7.809,7.809,0,0,1-4.969-1.329" transform="translate(-783.954 -488.355)" fill="#fff"/>
            <path id="Trazado_1242437" data-name="Trazado 1242437" d="M904.445,570.136a8.069,8.069,0,0,1-4.6-1.424.353.353,0,0,1,.429-.561A7.545,7.545,0,0,0,905,569.409c1.484-.112,2.965-2.709,3.538-5.155.447-1.905.29-3.4-.4-3.811-1.634-.97-5.488,1.152-6.835,2.052a.353.353,0,0,1-.393-.587c.213-.142,5.239-3.467,7.588-2.071.991.588,1.262,2.3.728,4.58-.639,2.723-2.278,5.555-4.173,5.7-.207.016-.41.023-.609.023" transform="translate(-781.619 -486.061)" fill="#030047"/>
            <path id="Trazado_1242438" data-name="Trazado 1242438" d="M932.492,587.587a2.565,2.565,0,0,1,.826-.65,1.419,1.419,0,0,1,.635-.169.758.758,0,0,1,.586.261,1.075,1.075,0,0,1,.1.9,4.215,4.215,0,0,1-.7,1.552" transform="translate(-810.102 -509.754)" fill="#fff"/>
            <path id="Trazado_1242439" data-name="Trazado 1242439" d="M931.608,587.5a.353.353,0,0,1-.285-.56,3.877,3.877,0,0,0,.639-1.421.751.751,0,0,0-.035-.606.409.409,0,0,0-.313-.128,1.049,1.049,0,0,0-.475.133,2.218,2.218,0,0,0-.712.56.353.353,0,0,1-.542-.453,2.938,2.938,0,0,1,.94-.74,1.777,1.777,0,0,1,.8-.206,1.113,1.113,0,0,1,.86.394,1.364,1.364,0,0,1,.172,1.2,4.589,4.589,0,0,1-.756,1.682.352.352,0,0,1-.286.146" transform="translate(-807.766 -507.417)" fill="#030047"/>
            <path id="Trazado_1242440" data-name="Trazado 1242440" d="M774.456,572.05c-.47,1-1.816,3.706-2.287,4.71a3.826,3.826,0,0,0-.517,1.883,1.608,1.608,0,0,0,1.332,1.437" transform="translate(-670.367 -496.968)" fill="#fff"/>
            <path id="Trazado_1242441" data-name="Trazado 1242441" d="M770.646,578.095a.35.35,0,0,1-.054,0,1.959,1.959,0,0,1-1.63-1.756,4.113,4.113,0,0,1,.549-2.063c.237-.506.7-1.442,1.153-2.375s.9-1.836,1.134-2.334a.353.353,0,1,1,.639.3c-.234.5-.686,1.422-1.139,2.345s-.913,1.861-1.148,2.364a3.6,3.6,0,0,0-.485,1.7,1.262,1.262,0,0,0,1.034,1.118.353.353,0,0,1-.053.7" transform="translate(-668.029 -494.631)" fill="#030047"/>
            <path id="Trazado_1242442" data-name="Trazado 1242442" d="M802.143,631.379a3.71,3.71,0,0,1-4.6,2.476" transform="translate(-692.862 -548.51)" fill="#fff"/>
            <path id="Trazado_1242443" data-name="Trazado 1242443" d="M796.248,632.021a4.041,4.041,0,0,1-1.148-.166.353.353,0,1,1,.2-.677,3.357,3.357,0,0,0,4.165-2.241.353.353,0,0,1,.676.206,4.056,4.056,0,0,1-3.893,2.878" transform="translate(-690.523 -546.172)" fill="#030047"/>
            <path id="Trazado_1242444" data-name="Trazado 1242444" d="M275.224,624.657l8.59,32.138A4.141,4.141,0,0,0,291.8,654.6l-8.59-32.138a22.318,22.318,0,0,1-7.987,2.192" transform="translate(-239.101 -540.766)" fill="#030047"/>
            <path id="Trazado_1242445" data-name="Trazado 1242445" d="M305.581,671.389l-.89-3.342-4.952.118a3.5,3.5,0,0,1-.3-7l6.929-.428a3.5,3.5,0,0,1,3.57,2.505l1.957,8.822" transform="translate(-257.282 -574.007)" fill="#fff"/>
            <path id="Trazado_1242446" data-name="Trazado 1242446" d="M309.559,670.077a.353.353,0,0,1-.344-.277l-1.957-8.822a3.12,3.12,0,0,0-3.2-2.229l-6.929.428a3.152,3.152,0,0,0,.27,6.3l4.952-.118a.349.349,0,0,1,.349.262l.89,3.342a.353.353,0,1,1-.682.182l-.818-3.073-4.674.111a3.858,3.858,0,0,1-.33-7.707l6.929-.428a3.83,3.83,0,0,1,3.93,2.758l1.963,8.845a.353.353,0,0,1-.268.421.349.349,0,0,1-.077.009" transform="translate(-254.945 -571.669)" fill="#030047"/>
            <path id="Trazado_1242447" data-name="Trazado 1242447" d="M268.034,739.845c.781,3.011,1.688,7.2,6.054,9.145,3.346,1.488,10.725-2.271,6.2-6.755a3.358,3.358,0,0,0,.5-3.367c-.71-2.108-1.941-1.723-1.941-1.723s2.021-1.7,1.032-3.436a2.613,2.613,0,0,0-2.405-1.565s2.033-.724.613-3.547-7.87.114-8.985.975c-2.563,1.981-1.7,7.811-1.065,10.273" transform="translate(-232.273 -631.927)" fill="#fff"/>
            <path id="Trazado_1242448" data-name="Trazado 1242448" d="M273.5,747.331a4.676,4.676,0,0,1-1.893-.362c-4.338-1.93-5.387-6.013-6.153-8.994l-.1-.385c-.78-3.008-1.407-8.633,1.191-10.641.8-.619,5.1-2.747,7.766-2.141a2.448,2.448,0,0,1,1.75,1.286,3.469,3.469,0,0,1,.377,2.849,2.109,2.109,0,0,1-.4.638,3.338,3.338,0,0,1,1.808,1.608,2.89,2.89,0,0,1-.571,3.324,2.719,2.719,0,0,1,1.508,1.9,3.8,3.8,0,0,1-.37,3.454c1.985,2.13,1.3,3.9.694,4.79a7.191,7.191,0,0,1-5.607,2.676m-7.462-9.918.1.387c.77,3,1.73,6.734,5.756,8.524,1.946.866,5.353-.2,6.63-2.067.879-1.286.594-2.709-.826-4.115a.353.353,0,0,1-.006-.5,3,3,0,0,0,.422-3.009c-.581-1.725-1.469-1.507-1.508-1.5a.358.358,0,0,1-.408-.176.351.351,0,0,1,.081-.432c.018-.015,1.784-1.536.954-2.992a2.278,2.278,0,0,0-2.06-1.389.353.353,0,0,1-.157-.683,1.448,1.448,0,0,0,.772-.8,2.839,2.839,0,0,0-.356-2.258,1.755,1.755,0,0,0-1.276-.915c-2.242-.51-6.3,1.332-7.177,2.011-2.312,1.786-1.626,7.26-.94,9.9" transform="translate(-229.939 -629.583)" fill="#030047"/>
            <line id="Línea_565" data-name="Línea 565" x1="4.189" y2="0.959" transform="translate(43.821 110.307)" fill="#fff"/>
            <path id="Trazado_1242449" data-name="Trazado 1242449" d="M331.54,839.41a.353.353,0,0,1-.078-.7l4.188-.959a.353.353,0,1,1,.157.688l-4.188.959a.355.355,0,0,1-.079.009" transform="translate(-287.719 -727.791)" fill="#030047"/>
            <line id="Línea_566" data-name="Línea 566" x1="4.171" y2="0.687" transform="translate(42.4 105.217)" fill="#fff"/>
            <path id="Trazado_1242450" data-name="Trazado 1242450" d="M320.71,800.36a.353.353,0,0,1-.057-.7l4.171-.687a.357.357,0,0,1,.406.291.353.353,0,0,1-.291.406l-4.171.687a.342.342,0,0,1-.058,0" transform="translate(-278.31 -694.103)" fill="#030047"/>
            <line id="Línea_567" data-name="Línea 567" x1="3.721" y2="0.852" transform="translate(41.478 100.216)" fill="#fff"/>
            <path id="Trazado_1242451" data-name="Trazado 1242451" d="M313.684,762.419a.353.353,0,0,1-.079-.7l3.721-.852a.353.353,0,1,1,.157.688l-3.721.852a.356.356,0,0,1-.079.009" transform="translate(-272.207 -660.997)" fill="#030047"/>
            <g id="Grupo_1205887" data-name="Grupo 1205887" transform="translate(6.071 29.071)" opacity="0.2">
              <g id="Grupo_1205886" data-name="Grupo 1205886">
                <g id="Grupo_1205885" data-name="Grupo 1205885" clip-path="url(#clip-path-15)">
                  <path id="Trazado_1242452" data-name="Trazado 1242452" d="M47.237,256.012A27.3,27.3,0,0,0,75.7,276.006a27.652,27.652,0,0,0,9.893-2.715,27.294,27.294,0,1,0-38.358-17.279" transform="translate(-46.257 -221.494)" fill="#fff"/>
                </g>
              </g>
            </g>
            <path id="Trazado_1242453" data-name="Trazado 1242453" d="M71.162,274.134A27.651,27.651,0,1,1,83.379,271.3a28,28,0,0,1-10.019,2.75q-1.1.088-2.2.087m.015-54.593a26.942,26.942,0,1,0,2.126,53.8,27.3,27.3,0,0,0,9.766-2.68,26.943,26.943,0,0,0-11.892-51.122" transform="translate(-37.815 -190.112)" fill="#030047"/>
            <path id="Trazado_1242454" data-name="Trazado 1242454" d="M49.355,184.352a1.549,1.549,0,1,1-1.547-1.547,1.547,1.547,0,0,1,1.547,1.547" transform="translate(-40.186 -158.812)" fill="#030047"/>
            <path id="Trazado_1242455" data-name="Trazado 1242455" d="M84.741,184.352a1.549,1.549,0,1,1-1.547-1.547,1.547,1.547,0,0,1,1.547,1.547" transform="translate(-70.927 -158.812)" fill="#030047"/>
            <path id="Trazado_1242456" data-name="Trazado 1242456" d="M120.127,184.352a1.549,1.549,0,1,1-1.547-1.547,1.547,1.547,0,0,1,1.547,1.547" transform="translate(-101.669 -158.812)" fill="#030047"/>
            <path id="Trazado_1242457" data-name="Trazado 1242457" d="M1201.982,487.725h-41.693a8.383,8.383,0,0,1-8.383-8.383V446.626a8.383,8.383,0,0,1,8.383-8.383h41.693a8.383,8.383,0,0,1,8.383,8.383v32.715a8.383,8.383,0,0,1-8.383,8.383" transform="translate(-1000.718 -380.723)" fill="#fff"/>
            <path id="Trazado_1242458" data-name="Trazado 1242458" d="M1199.645,485.741h-41.693a8.746,8.746,0,0,1-8.736-8.736V444.289a8.746,8.746,0,0,1,8.736-8.736h41.693a8.746,8.746,0,0,1,8.736,8.736V477a8.746,8.746,0,0,1-8.736,8.736m-41.693-49.482a8.039,8.039,0,0,0-8.03,8.03V477a8.039,8.039,0,0,0,8.03,8.03h41.693a8.039,8.039,0,0,0,8.03-8.03V444.289a8.039,8.039,0,0,0-8.03-8.03Z" transform="translate(-998.381 -378.387)" fill="#030047"/>
            <path id="Trazado_1242459" data-name="Trazado 1242459" d="M1195.156,483.254a1.549,1.549,0,1,1-1.547-1.547,1.547,1.547,0,0,1,1.547,1.547" transform="translate(-1035.6 -418.483)" fill="#030047"/>
            <path id="Trazado_1242460" data-name="Trazado 1242460" d="M1230.542,483.254a1.549,1.549,0,1,1-1.547-1.547,1.547,1.547,0,0,1,1.547,1.547" transform="translate(-1066.342 -418.483)" fill="#030047"/>
            <path id="Trazado_1242461" data-name="Trazado 1242461" d="M1265.927,483.254a1.549,1.549,0,1,1-1.547-1.547,1.547,1.547,0,0,1,1.547,1.547" transform="translate(-1097.083 -418.483)" fill="#030047"/>
            <path id="Trazado_1242462" data-name="Trazado 1242462" d="M1249.286,578.789H1212.14a3.167,3.167,0,0,1-3.167-3.167V555.387a3.167,3.167,0,0,1,3.167-3.167h37.146a3.167,3.167,0,0,1,3.167,3.167v20.235a3.167,3.167,0,0,1-3.167,3.167" transform="translate(-1050.295 -479.741)" fill="#88ddd8"/>
            <path id="Trazado_1242463" data-name="Trazado 1242463" d="M1351.08,622.448l-4.565,3.13a1.768,1.768,0,0,1-2.768-1.458v-6.261a1.768,1.768,0,0,1,2.768-1.458l4.565,3.13a1.768,1.768,0,0,1,0,2.916" transform="translate(-1167.38 -535.227)" fill="#fff"/>
            <path id="Trazado_1242464" data-name="Trazado 1242464" d="M971.323,159.885h-22.1a7.387,7.387,0,0,1-7.387-7.387V134.262a7.387,7.387,0,0,1,7.387-7.387h22.1a7.387,7.387,0,0,1,7.387,7.387V152.5a7.387,7.387,0,0,1-7.387,7.387" transform="translate(-818.218 -110.223)" fill="#c8a0e6"/>
            <path id="Trazado_1242465" data-name="Trazado 1242465" d="M1016.012,228.408H990.6s4.291-9.147,7.2-9.147c1.455,0,2.146,4.574,3.6,4.574,2.223,0,3.277-6.987,5.5-6.988,3.679,0,9.106,11.561,9.106,11.561" transform="translate(-860.586 -188.386)" fill="#fff"/>
            <path id="Trazado_1242466" data-name="Trazado 1242466" d="M1054.643,183.831a2.6,2.6,0,1,0,2.6-2.6,2.6,2.6,0,0,0-2.6,2.6" transform="translate(-916.221 -157.443)" fill="#fff"/>
            <path id="Trazado_1242467" data-name="Trazado 1242467" d="M74.321,888.154l.029-2.6-5-.056-.029,2.6a12.012,12.012,0,0,0-4.117,1.655l-1.82-1.863-3.57,3.491,1.82,1.863a12.069,12.069,0,0,0-1.746,4.079l-2.6-.029-.056,4.993,2.6.029a12.024,12.024,0,0,0,1.655,4.117l-1.861,1.822,3.492,3.57L64.983,910a12.017,12.017,0,0,0,4.08,1.746l-.029,2.6,5,.056.029-2.6a12.018,12.018,0,0,0,4.117-1.655l1.82,1.863,3.57-3.492-1.82-1.863a12.025,12.025,0,0,0,1.746-4.08l2.6.029.056-4.993-2.6-.029a12.063,12.063,0,0,0-1.655-4.117l1.861-1.822-3.491-3.57L78.4,889.9m-6.285,16.082a6.044,6.044,0,1,1,5.594-5.471,6.045,6.045,0,0,1-5.594,5.471" transform="translate(-49.723 -769.274)" fill="#e6e51d"/>
            <path id="Trazado_1242468" data-name="Trazado 1242468" d="M1379.323,267.017l-2.718,1.71a2.725,2.725,0,0,1-3.749-.853l-1.711-2.718a2.714,2.714,0,0,1,.851-3.74l2.72-1.719a2.724,2.724,0,0,1,3.749.853l1.709,2.726a2.714,2.714,0,0,1-.851,3.74" transform="translate(-1190.821 -225.25)" fill="#e6e51d"/>
            <path id="Trazado_1242469" data-name="Trazado 1242469" d="M753.343,6.141,751.185,7.5a2.163,2.163,0,0,1-2.977-.677L746.85,4.665a2.155,2.155,0,0,1,.675-2.97l2.16-1.365a2.164,2.164,0,0,1,2.977.677l1.357,2.165a2.155,2.155,0,0,1-.676,2.97" transform="translate(-648.538 0.002)" fill="#e6e51d"/>
            <path id="Trazado_1242470" data-name="Trazado 1242470" d="M1274.636,58.408l-1.306,1.025a1.1,1.1,0,0,1-1.727-.393l-.734-1.489a1.805,1.805,0,0,1,.483-2.124l1.307-1.03a1.1,1.1,0,0,1,1.727.393l.733,1.494a1.8,1.8,0,0,1-.483,2.124" transform="translate(-1103.926 -47.023)" fill="#e6e51d"/>
            <path id="Trazado_1242471" data-name="Trazado 1242471" d="M324.773,47.08l-1.707,1.074a1.711,1.711,0,0,1-2.355-.536l-1.074-1.707a1.7,1.7,0,0,1,.534-2.349l1.708-1.08a1.711,1.711,0,0,1,2.355.535l1.073,1.712a1.7,1.7,0,0,1-.534,2.349" transform="translate(-277.457 -36.68)" fill="#e6e51d"/>
          </g>
        </g>
      </g>
    </g>
  </g>
</svg>
