<svg xmlns="http://www.w3.org/2000/svg" xmlns:xlink="http://www.w3.org/1999/xlink" width="107.141" height="107.142" viewBox="0 0 107.141 107.142">
  <defs>
    <filter id="Trazado_874925" x="0" y="0" width="107.141" height="107.142" filterUnits="userSpaceOnUse">
      <feOffset dy="3" input="SourceAlpha"/>
      <feGaussianBlur stdDeviation="3" result="blur"/>
      <feFlood flood-opacity="0.161"/>
      <feComposite operator="in" in2="blur"/>
      <feComposite in="SourceGraphic"/>
    </filter>
  </defs>
  <g id="Grupo_1205083" data-name="Grupo 1205083" transform="translate(-380.051 -2702)">
    <g id="Grupo_1204844" data-name="Grupo 1204844" transform="translate(104.051 -3389.407)">
      <g id="Grupo_1187153" data-name="Grupo 1187153" transform="translate(285 6097.407)">
        <g id="Grupo_1182177" data-name="Grupo 1182177">
          <g id="Grupo_1181903" data-name="Grupo 1181903">
            <g id="Grupo_1181438" data-name="Grupo 1181438">
              <g id="Grupo_1111314" data-name="Grupo 1111314">
                <g transform="matrix(1, 0, 0, 1, -9, -6)" filter="url(#Trazado_874925)">
                  <g id="Trazado_874925-2" data-name="Trazado 874925" transform="translate(9 6)" fill="#e6e51d">
                    <path d="M 44.57049560546875 88.14150238037109 C 38.68807220458984 88.14150238037109 32.98214340209961 86.98964691162109 27.61120223999023 84.71792602539062 C 22.42297744750977 82.52349090576172 17.76327133178711 79.38175964355469 13.76150703430176 75.38001251220703 C 9.759742736816406 71.37824249267578 6.618013381958008 66.71852874755859 4.423577785491943 61.53030395507812 C 2.151860237121582 56.15936279296875 1.000001430511475 50.45343399047852 1.000001430511475 44.57101058959961 C 1.000001430511475 38.68807983398438 2.151860237121582 32.98215103149414 4.423577785491943 27.61119842529297 C 6.618013381958008 22.42297554016113 9.759742736816406 17.76326942443848 13.76150703430176 13.76150417327881 C 17.76327133178711 9.759739875793457 22.42297744750977 6.6180100440979 27.61120223999023 4.423574924468994 C 32.98214340209961 2.151857137680054 38.68807220458984 0.9999982714653015 44.57049560546875 0.9999982714653015 C 50.45291900634766 0.9999982714653015 56.15884780883789 2.151857137680054 61.52978897094727 4.423574924468994 C 66.71800994873047 6.6180100440979 71.37773132324219 9.759739875793457 75.37949371337891 13.76150417327881 C 79.38124847412109 17.76326942443848 82.52297973632812 22.42297554016113 84.71741485595703 27.61119842529297 C 86.98912811279297 32.98215103149414 88.1409912109375 38.68807983398438 88.1409912109375 44.57050323486328 C 88.1409912109375 50.45343399047852 86.98912811279297 56.15936279296875 84.71741485595703 61.53030395507812 C 82.52297973632812 66.71853637695312 79.38124847412109 71.37824249267578 75.37949371337891 75.38001251220703 C 71.37773132324219 79.38175964355469 66.71802520751953 82.52349090576172 61.52978897094727 84.71792602539062 C 56.15884780883789 86.98964691162109 50.45291900634766 88.14150238037109 44.57049560546875 88.14150238037109 Z" stroke="none"/>
                    <path d="M 44.57049560546875 2.000007629394531 C 38.82262802124023 2.000007629394531 33.24776077270508 3.125282287597656 28.00074768066406 5.344581604003906 C 22.93172454833984 7.488601684570312 18.37885284423828 10.55836486816406 14.46860504150391 14.46860504150391 C 10.55836486816406 18.37886047363281 7.488601684570312 22.93172454833984 5.344573974609375 28.00075149536133 C 3.125282287597656 33.24776458740234 2 38.8226318359375 2 44.57100296020508 C 2 50.31887054443359 3.125282287597656 55.89373779296875 5.344573974609375 61.14075088500977 C 7.488601684570312 66.20977783203125 10.55836486816406 70.76264190673828 14.46860504150391 74.67289733886719 C 18.37885284423828 78.58313751220703 22.93172454833984 81.65290069580078 28.00074768066406 83.79692077636719 C 33.24776077270508 86.01622009277344 38.82262802124023 87.14149475097656 44.57049560546875 87.14149475097656 C 50.31836318969727 87.14149475097656 55.89323043823242 86.01622009277344 61.14024353027344 83.79692077636719 C 66.20926666259766 81.65290069580078 70.76213836669922 78.58313751220703 74.67238616943359 74.67289733886719 C 78.58262634277344 70.76264190673828 81.65238952636719 66.20977783203125 83.79641723632812 61.14075088500977 C 86.01570892333984 55.89373779296875 87.1409912109375 50.31887054443359 87.1409912109375 44.57049942016602 C 87.1409912109375 38.8226318359375 86.01570892333984 33.24776458740234 83.79641723632812 28.00075149536133 C 81.65238952636719 22.93172454833984 78.58262634277344 18.37886047363281 74.67238616943359 14.46860504150391 C 70.76213836669922 10.55836486816406 66.20926666259766 7.488601684570312 61.14024353027344 5.344581604003906 C 55.89323043823242 3.125282287597656 50.31836318969727 2.000007629394531 44.57049560546875 2.000007629394531 M 44.57049560546875 7.62939453125e-06 C 69.18611145019531 7.62939453125e-06 89.1409912109375 19.95488739013672 89.1409912109375 44.57049942016602 L 89.1409912109375 44.57100296020508 C 89.1409912109375 69.18661499023438 69.18611145019531 89.14149475097656 44.57049560546875 89.14149475097656 C 19.95487976074219 89.14149475097656 0 69.18661499023438 0 44.57100296020508 L 0 44.57049942016602 C 0 19.95488739013672 19.95487976074219 7.62939453125e-06 44.57049560546875 7.62939453125e-06 Z" stroke="none" fill="#a09f14"/>
                  </g>
                </g>
              </g>
            </g>
          </g>
        </g>
      </g>
    </g>
    <g id="Layer_34" data-name="Layer 34" transform="translate(405.051 2725)">
      <g id="database_server" data-name="database server" transform="translate(2 2)">
        <rect id="Rectángulo_410929" data-name="Rectángulo 410929" width="35" height="11" rx="2" transform="translate(1.078 15.078)" fill="#57a4ff"/>
        <path id="Trazado_1241810" data-name="Trazado 1241810" d="M42.308,20.769v7.077a1.775,1.775,0,0,1-1.769,1.769H37a1.775,1.775,0,0,0,1.769-1.769V20.769A1.775,1.775,0,0,0,37,19h3.539a1.775,1.775,0,0,1,1.769,1.769Z" transform="translate(-6.038 -3.961)" fill="#2488ff"/>
        <path id="Trazado_1241811" data-name="Trazado 1241811" d="M33,31h5.308v3.539H33Z" transform="translate(-5.576 -5.346)" fill="#acabb1"/>
        <path id="Trazado_1241812" data-name="Trazado 1241812" d="M33,15h5.308v3.539H33Z" transform="translate(-5.576 -3.5)" fill="#acabb1"/>
        <path id="Trazado_1241813" data-name="Trazado 1241813" d="M36,15h2.654v3.539H36Z" transform="translate(-5.922 -3.5)" fill="#898890"/>
        <path id="Trazado_1241814" data-name="Trazado 1241814" d="M36,31h2.654v3.539H36Z" transform="translate(-5.922 -5.346)" fill="#898890"/>
        <rect id="Rectángulo_410930" data-name="Rectángulo 410930" width="35" height="11" rx="2" transform="translate(1.078 29.078)" fill="#57a4ff"/>
        <path id="Trazado_1241815" data-name="Trazado 1241815" d="M42.308,36.769v7.077a1.775,1.775,0,0,1-1.769,1.769H37a1.775,1.775,0,0,0,1.769-1.769V36.769A1.775,1.775,0,0,0,37,35h3.539A1.775,1.775,0,0,1,42.308,36.769Z" transform="translate(-6.038 -5.807)" fill="#2488ff"/>
        <path id="Trazado_1241816" data-name="Trazado 1241816" d="M15,39h3.539v3.539H15Z" transform="translate(-3.5 -6.268)" fill="#00b6bd"/>
        <path id="Trazado_1241817" data-name="Trazado 1241817" d="M15,23h3.539v3.539H15Z" transform="translate(-3.5 -4.423)" fill="#00b6bd"/>
        <rect id="Rectángulo_410931" data-name="Rectángulo 410931" width="35" height="10" rx="2" transform="translate(1.078 1.078)" fill="#57a4ff"/>
        <path id="Trazado_1241818" data-name="Trazado 1241818" d="M42.308,4.769v7.077a1.775,1.775,0,0,1-1.769,1.769H37a1.775,1.775,0,0,0,1.769-1.769V4.769A1.775,1.775,0,0,0,37,3h3.539a1.775,1.775,0,0,1,1.769,1.769Z" transform="translate(-6.038 -2.115)" fill="#2488ff"/>
        <path id="Trazado_1241819" data-name="Trazado 1241819" d="M15,7h3.539v3.539H15Z" transform="translate(-3.5 -2.577)" fill="#00b6bd"/>
        <path id="Trazado_1241820" data-name="Trazado 1241820" d="M7,31h5.308v3.539H7Z" transform="translate(-2.577 -5.346)" fill="#acabb1"/>
        <path id="Trazado_1241821" data-name="Trazado 1241821" d="M7,15h5.308v3.539H7Z" transform="translate(-2.577 -3.5)" fill="#acabb1"/>
        <path id="Trazado_1241822" data-name="Trazado 1241822" d="M10,15h2.654v3.539H10Z" transform="translate(-2.923 -3.5)" fill="#898890"/>
        <path id="Trazado_1241823" data-name="Trazado 1241823" d="M10,31h2.654v3.539H10Z" transform="translate(-2.923 -5.346)" fill="#898890"/>
        <path id="Trazado_1241824" data-name="Trazado 1241824" d="M7,39h3.539v3.539H7Z" transform="translate(-2.577 -6.268)" fill="#ff7956"/>
        <path id="Trazado_1241825" data-name="Trazado 1241825" d="M7,23h3.539v3.539H7Z" transform="translate(-2.577 -4.423)" fill="#ff7956"/>
        <path id="Trazado_1241826" data-name="Trazado 1241826" d="M7,7h3.539v3.539H7Z" transform="translate(-2.577 -2.577)" fill="#ff7956"/>
        <path id="Trazado_1241827" data-name="Trazado 1241827" d="M56.847,46v8.846c0,2.442-7.13,4.423-15.923,4.423S25,57.288,25,54.846V46c0,2.442,7.13,4.423,15.923,4.423S56.847,48.442,56.847,46Z" transform="translate(-4.653 -7.076)" fill="#ffde55"/>
        <path id="Trazado_1241828" data-name="Trazado 1241828" d="M56.847,36v8.846c0,2.442-7.13,4.423-15.923,4.423S25,47.288,25,44.846V36c0,2.442,7.13,4.423,15.923,4.423S56.847,38.442,56.847,36Z" transform="translate(-4.653 -5.922)" fill="#ffde55"/>
        <path id="Trazado_1241829" data-name="Trazado 1241829" d="M56.847,26v8.846c0,2.442-7.13,4.423-15.923,4.423S25,37.288,25,34.846V26c0,2.442,7.13,4.423,15.923,4.423S56.847,28.442,56.847,26Z" transform="translate(-4.653 -4.769)" fill="#ffde55"/>
        <g id="Grupo_1205082" data-name="Grupo 1205082" transform="translate(20.347 16.808)">
          <ellipse id="Elipse_12416" data-name="Elipse 12416" cx="16" cy="4.5" rx="16" ry="4.5" transform="translate(-0.269 0.27)" fill="#ffcd00"/>
          <path id="Trazado_1241830" data-name="Trazado 1241830" d="M58.693,46v8.846c0,2.442-7.13,4.423-15.923,4.423-.6,0-1.185-.009-1.769-.035C48.962,59,55.154,57.12,55.154,54.846V48.778C57.366,48.017,58.693,47.053,58.693,46Z" transform="translate(-26.846 -23.884)" fill="#ffcd00"/>
          <path id="Trazado_1241831" data-name="Trazado 1241831" d="M58.693,36v8.846c0,1.053-1.327,2.017-3.539,2.778A40.79,40.79,0,0,1,42.769,49.27c-.6,0-1.185-.009-1.769-.035C48.962,49,55.154,47.12,55.154,44.846V38.778C57.366,38.017,58.693,37.053,58.693,36Z" transform="translate(-26.846 -22.73)" fill="#ffcd00"/>
          <path id="Trazado_1241832" data-name="Trazado 1241832" d="M58.693,26v8.846c0,1.053-1.327,2.017-3.539,2.778A40.79,40.79,0,0,1,42.769,39.27c-.6,0-1.185-.009-1.769-.035C48.962,39,55.154,37.12,55.154,34.846V28.778C57.366,28.017,58.693,27.053,58.693,26Z" transform="translate(-26.846 -21.577)" fill="#ffcd00"/>
        </g>
        <path id="Trazado_1241833" data-name="Trazado 1241833" d="M58.693,25.423c0,1.053-1.327,2.017-3.539,2.778a40.79,40.79,0,0,1-12.385,1.645c-.6,0-1.185-.009-1.769-.035,7.962-.239,14.154-2.114,14.154-4.388S48.962,21.274,41,21.035c.584-.027,1.168-.035,1.769-.035C51.563,21,58.693,22.982,58.693,25.423Z" transform="translate(-6.499 -4.192)" fill="#ebbf00"/>
        <path id="Trazado_1241834" data-name="Trazado 1241834" d="M55.154,46v2.778a40.79,40.79,0,0,1-12.385,1.645c-.6,0-1.185-.009-1.769-.035C48.962,50.149,55.154,48.274,55.154,46Z" transform="translate(-6.499 -7.076)" fill="#ffde55"/>
        <path id="Trazado_1241835" data-name="Trazado 1241835" d="M55.154,36v2.778a40.79,40.79,0,0,1-12.385,1.645c-.6,0-1.185-.009-1.769-.035C48.962,40.149,55.154,38.274,55.154,36Z" transform="translate(-6.499 -5.922)" fill="#ffde55"/>
        <path id="Trazado_1241836" data-name="Trazado 1241836" d="M39,17.932A2.642,2.642,0,0,0,36.5,16.154h-.885V14.385H36.5a2.662,2.662,0,0,0,2.654-2.654V4.654A2.662,2.662,0,0,0,36.5,2H4.654A2.662,2.662,0,0,0,2,4.654v7.077a2.662,2.662,0,0,0,2.654,2.654h.885v1.769H4.654A2.662,2.662,0,0,0,2,18.808v7.077a2.662,2.662,0,0,0,2.654,2.654h.885v1.769H4.654A2.662,2.662,0,0,0,2,32.962v7.077a2.662,2.662,0,0,0,2.654,2.654H21.462V49.77c0,3.485,8.457,5.308,16.808,5.308s16.808-1.822,16.808-5.308V23.231C55.078,19.843,47.108,18.038,39,17.932ZM4.654,12.616a.885.885,0,0,1-.885-.885V4.654a.885.885,0,0,1,.885-.885H36.5a.885.885,0,0,1,.885.885v7.077a.885.885,0,0,1-.885.885Zm29.193,1.769v1.769H30.308V14.385Zm-5.308,0v1.769H12.616V14.385Zm-17.693,0v1.769H7.308V14.385ZM21.462,40.924H4.654a.885.885,0,0,1-.885-.885V32.962a.885.885,0,0,1,.885-.885H21.462ZM7.308,30.308V28.539h3.539v1.769Zm14.154,0H12.616V28.539h8.846Zm0-7.077V26.77H4.654a.885.885,0,0,1-.885-.885V18.808a.885.885,0,0,1,.885-.885H36.5a.619.619,0,0,1,.124.027C28.84,18.171,21.462,19.976,21.462,23.231ZM53.309,49.77c0,1.2-5.308,3.539-15.039,3.539S23.231,50.973,23.231,49.77V43.419c2.91,1.849,8.988,2.813,15.039,2.813s12.128-.964,15.039-2.813Zm0-8.846c0,1.2-5.308,3.539-15.039,3.539s-15.039-2.335-15.039-3.539V34.572c2.91,1.849,8.988,2.813,15.039,2.813s12.128-.964,15.039-2.813Zm0-8.846c0,1.2-5.308,3.539-15.039,3.539s-15.039-2.335-15.039-3.539V25.726c2.91,1.849,8.988,2.813,15.039,2.813s12.128-.964,15.039-2.813ZM38.27,26.77c-9.731,0-15.039-2.335-15.039-3.539s5.308-3.539,15.039-3.539,15.039,2.335,15.039,3.539S48,26.77,38.27,26.77Z" transform="translate(-2 -2)"/>
        <path id="Trazado_1241837" data-name="Trazado 1241837" d="M42,35h1.769v1.769H42Z" transform="translate(-6.615 -5.807)"/>
        <path id="Trazado_1241838" data-name="Trazado 1241838" d="M42,46h1.769v1.769H42Z" transform="translate(-6.615 -7.076)"/>
        <path id="Trazado_1241839" data-name="Trazado 1241839" d="M42,55h1.769v1.769H42Z" transform="translate(-6.615 -8.114)"/>
        <path id="Trazado_1241840" data-name="Trazado 1241840" d="M10.423,22H6.885A.885.885,0,0,0,6,22.885v3.539a.885.885,0,0,0,.885.885h3.539a.885.885,0,0,0,.885-.885V22.885A.885.885,0,0,0,10.423,22Zm-.885,3.539H7.769V23.769H9.539Z" transform="translate(-2.461 -4.307)"/>
        <path id="Trazado_1241841" data-name="Trazado 1241841" d="M18.423,22H14.885a.885.885,0,0,0-.885.885v3.539a.885.885,0,0,0,.885.885h3.539a.885.885,0,0,0,.885-.885V22.885A.885.885,0,0,0,18.423,22Zm-.885,3.539H15.769V23.769h1.769Z" transform="translate(-3.384 -4.307)"/>
        <path id="Trazado_1241842" data-name="Trazado 1241842" d="M10.423,6H6.885A.885.885,0,0,0,6,6.885v3.539a.885.885,0,0,0,.885.885h3.539a.885.885,0,0,0,.885-.885V6.885A.885.885,0,0,0,10.423,6ZM9.539,9.539H7.769V7.769H9.539Z" transform="translate(-2.461 -2.461)"/>
        <path id="Trazado_1241843" data-name="Trazado 1241843" d="M18.423,6H14.885A.885.885,0,0,0,14,6.885v3.539a.885.885,0,0,0,.885.885h3.539a.885.885,0,0,0,.885-.885V6.885A.885.885,0,0,0,18.423,6Zm-.885,3.539H15.769V7.769h1.769Z" transform="translate(-3.384 -2.461)"/>
        <path id="Trazado_1241844" data-name="Trazado 1241844" d="M22,6H34.385V7.769H22Z" transform="translate(-4.307 -2.461)"/>
        <path id="Trazado_1241845" data-name="Trazado 1241845" d="M38,6h1.769V7.769H38Z" transform="translate(-6.153 -2.461)"/>
        <path id="Trazado_1241846" data-name="Trazado 1241846" d="M22,10H34.385v1.769H22Z" transform="translate(-4.307 -2.923)"/>
        <path id="Trazado_1241847" data-name="Trazado 1241847" d="M38,10h1.769v1.769H38Z" transform="translate(-6.153 -2.923)"/>
        <path id="Trazado_1241848" data-name="Trazado 1241848" d="M10.423,38H6.885A.885.885,0,0,0,6,38.885v3.539a.885.885,0,0,0,.885.885h3.539a.885.885,0,0,0,.885-.885V38.885A.885.885,0,0,0,10.423,38Zm-.885,3.539H7.769V39.769H9.539Z" transform="translate(-2.461 -6.153)"/>
        <path id="Trazado_1241849" data-name="Trazado 1241849" d="M18.423,38H14.885a.885.885,0,0,0-.885.885v3.539a.885.885,0,0,0,.885.885h3.539a.885.885,0,0,0,.885-.885V38.885A.885.885,0,0,0,18.423,38Zm-.885,3.539H15.769V39.769h1.769Z" transform="translate(-3.384 -6.153)"/>
      </g>
    </g>
  </g>
</svg>
