<svg xmlns="http://www.w3.org/2000/svg" xmlns:xlink="http://www.w3.org/1999/xlink" width="107.141" height="107.142" viewBox="0 0 107.141 107.142">
  <defs>
    <filter id="Trazado_874925" x="0" y="0" width="107.141" height="107.142" filterUnits="userSpaceOnUse">
      <feOffset dy="3" input="SourceAlpha"/>
      <feGaussianBlur stdDeviation="3" result="blur"/>
      <feFlood flood-opacity="0.161"/>
      <feComposite operator="in" in2="blur"/>
      <feComposite in="SourceGraphic"/>
    </filter>
  </defs>
  <g id="Grupo_1205085" data-name="Grupo 1205085" transform="translate(-746.051 -2702)">
    <g id="Grupo_1204928" data-name="Grupo 1204928" transform="translate(470.051 -3389.407)">
      <g id="Grupo_1187153" data-name="Grupo 1187153" transform="translate(285 6097.407)">
        <g id="Grupo_1182177" data-name="Grupo 1182177">
          <g id="Grupo_1181903" data-name="Grupo 1181903">
            <g id="Grupo_1181438" data-name="Grupo 1181438">
              <g id="Grupo_1111314" data-name="Grupo 1111314">
                <g transform="matrix(1, 0, 0, 1, -9, -6)" filter="url(#Trazado_874925)">
                  <g id="Trazado_874925-2" data-name="Trazado 874925" transform="translate(9 6)" fill="#e6e51d">
                    <path d="M 44.57049560546875 88.14150238037109 C 38.68807220458984 88.14150238037109 32.98214340209961 86.98964691162109 27.61120223999023 84.71792602539062 C 22.42297744750977 82.52349090576172 17.76327133178711 79.38175964355469 13.76150703430176 75.38001251220703 C 9.759742736816406 71.37824249267578 6.618013381958008 66.71852874755859 4.423577785491943 61.53030395507812 C 2.151860237121582 56.15936279296875 1.000001430511475 50.45343399047852 1.000001430511475 44.57101058959961 C 1.000001430511475 38.68807983398438 2.151860237121582 32.98215103149414 4.423577785491943 27.61119842529297 C 6.618013381958008 22.42297554016113 9.759742736816406 17.76326942443848 13.76150703430176 13.76150417327881 C 17.76327133178711 9.759739875793457 22.42297744750977 6.6180100440979 27.61120223999023 4.423574924468994 C 32.98214340209961 2.151857137680054 38.68807220458984 0.9999982714653015 44.57049560546875 0.9999982714653015 C 50.45291900634766 0.9999982714653015 56.15884780883789 2.151857137680054 61.52978897094727 4.423574924468994 C 66.71800994873047 6.6180100440979 71.37773132324219 9.759739875793457 75.37949371337891 13.76150417327881 C 79.38124847412109 17.76326942443848 82.52297973632812 22.42297554016113 84.71741485595703 27.61119842529297 C 86.98912811279297 32.98215103149414 88.1409912109375 38.68807983398438 88.1409912109375 44.57050323486328 C 88.1409912109375 50.45343399047852 86.98912811279297 56.15936279296875 84.71741485595703 61.53030395507812 C 82.52297973632812 66.71853637695312 79.38124847412109 71.37824249267578 75.37949371337891 75.38001251220703 C 71.37773132324219 79.38175964355469 66.71802520751953 82.52349090576172 61.52978897094727 84.71792602539062 C 56.15884780883789 86.98964691162109 50.45291900634766 88.14150238037109 44.57049560546875 88.14150238037109 Z" stroke="none"/>
                    <path d="M 44.57049560546875 2.000007629394531 C 38.82262802124023 2.000007629394531 33.24776077270508 3.125282287597656 28.00074768066406 5.344581604003906 C 22.93172454833984 7.488601684570312 18.37885284423828 10.55836486816406 14.46860504150391 14.46860504150391 C 10.55836486816406 18.37886047363281 7.488601684570312 22.93172454833984 5.344573974609375 28.00075149536133 C 3.125282287597656 33.24776458740234 2 38.8226318359375 2 44.57100296020508 C 2 50.31887054443359 3.125282287597656 55.89373779296875 5.344573974609375 61.14075088500977 C 7.488601684570312 66.20977783203125 10.55836486816406 70.76264190673828 14.46860504150391 74.67289733886719 C 18.37885284423828 78.58313751220703 22.93172454833984 81.65290069580078 28.00074768066406 83.79692077636719 C 33.24776077270508 86.01622009277344 38.82262802124023 87.14149475097656 44.57049560546875 87.14149475097656 C 50.31836318969727 87.14149475097656 55.89323043823242 86.01622009277344 61.14024353027344 83.79692077636719 C 66.20926666259766 81.65290069580078 70.76213836669922 78.58313751220703 74.67238616943359 74.67289733886719 C 78.58262634277344 70.76264190673828 81.65238952636719 66.20977783203125 83.79641723632812 61.14075088500977 C 86.01570892333984 55.89373779296875 87.1409912109375 50.31887054443359 87.1409912109375 44.57049942016602 C 87.1409912109375 38.8226318359375 86.01570892333984 33.24776458740234 83.79641723632812 28.00075149536133 C 81.65238952636719 22.93172454833984 78.58262634277344 18.37886047363281 74.67238616943359 14.46860504150391 C 70.76213836669922 10.55836486816406 66.20926666259766 7.488601684570312 61.14024353027344 5.344581604003906 C 55.89323043823242 3.125282287597656 50.31836318969727 2.000007629394531 44.57049560546875 2.000007629394531 M 44.57049560546875 7.62939453125e-06 C 69.18611145019531 7.62939453125e-06 89.1409912109375 19.95488739013672 89.1409912109375 44.57049942016602 L 89.1409912109375 44.57100296020508 C 89.1409912109375 69.18661499023438 69.18611145019531 89.14149475097656 44.57049560546875 89.14149475097656 C 19.95487976074219 89.14149475097656 0 69.18661499023438 0 44.57100296020508 L 0 44.57049942016602 C 0 19.95488739013672 19.95487976074219 7.62939453125e-06 44.57049560546875 7.62939453125e-06 Z" stroke="none" fill="#a09f14"/>
                  </g>
                </g>
              </g>
            </g>
          </g>
        </g>
      </g>
    </g>
    <g id="Page-1" transform="translate(773.051 2726)">
      <g id="_069---SQL-Database" data-name="069---SQL-Database">
        <path id="Shape" d="M24.728,41.544v7.3a34.3,34.3,0,0,1-7.3.757C8.356,49.6,1,46.335,1,42.3V35c0,4.034,7.356,7.3,16.427,7.3A34.3,34.3,0,0,0,24.728,41.544Z" transform="translate(-0.087 -3.058)" fill="#02a9f4"/>
        <path id="Shape-2" data-name="Shape" d="M23.422,42.63v6.845a33.753,33.753,0,0,1-6.033.725c.486.019.974.033,1.47.033a34.3,34.3,0,0,0,7.3-.757v-7.3c-.868.187-1.791.335-2.738.456Z" transform="translate(-1.519 -3.685)" fill="#0377bc"/>
        <path id="Shape-3" data-name="Shape" d="M33.855,26V36.039h-7.3a1.831,1.831,0,0,0-1.825,1.825v2.893a34.3,34.3,0,0,1-7.3.757C8.356,41.515,1,38.247,1,34.214V26c0,4.034,7.356,7.3,16.427,7.3S33.855,30.034,33.855,26Z" transform="translate(-0.087 -2.272)" fill="#02a9f4"/>
        <path id="Shape-4" data-name="Shape" d="M23.422,38.825v2.893a33.753,33.753,0,0,1-6.033.725c.486.019.974.033,1.47.033a34.3,34.3,0,0,0,7.3-.757V38.825A1.831,1.831,0,0,1,27.986,37H25.248a1.831,1.831,0,0,0-1.825,1.825Z" transform="translate(-1.519 -3.233)" fill="#0377bc"/>
        <path id="Shape-5" data-name="Shape" d="M34,30.033v6.006h2.738V26C36.738,27.492,35.727,28.878,34,30.033Z" transform="translate(-2.971 -2.272)" fill="#0377bc"/>
        <path id="Shape-6" data-name="Shape" d="M33.855,17v8.214c0,4.034-7.356,7.3-16.427,7.3S1,29.247,1,25.214V17c0,4.034,7.356,7.3,16.427,7.3S33.855,21.034,33.855,17Z" transform="translate(-0.087 -1.485)" fill="#02a9f4"/>
        <path id="Shape-7" data-name="Shape" d="M32.558,21.033v4.181c0,3.833-6.628,6.961-15.058,7.27.456.017.907.031,1.369.031,9.072,0,16.427-3.267,16.427-7.3V17C35.3,18.492,34.285,19.878,32.558,21.033Z" transform="translate(-1.529 -1.485)" fill="#0377bc"/>
        <path id="Shape-8" data-name="Shape" d="M33.855,8.3v7.3c0,4.034-7.356,7.3-16.427,7.3S1,19.636,1,15.6V8.3C1,4.267,8.356,1,17.427,1S33.855,4.267,33.855,8.3Z" transform="translate(-0.087 -0.087)" fill="#02a9f4"/>
        <path id="Shape-9" data-name="Shape" d="M18.869,1c-.462,0-.913.014-1.369.031,8.43.309,15.058,3.442,15.058,7.27v7.3c0,3.833-6.628,6.961-15.058,7.27.456.017.907.031,1.369.031,9.072,0,16.427-3.267,16.427-7.3V8.3C35.3,4.267,27.94,1,18.869,1Z" transform="translate(-1.529 -0.087)" fill="#0377bc"/>
        <rect id="Rectangle-path" width="29" height="20" rx="2" transform="translate(25 33.758)" fill="#ffdc00"/>
        <path id="Shape-10" data-name="Shape" d="M56.738,37H54a1.831,1.831,0,0,1,1.825,1.825V55.253A1.831,1.831,0,0,1,54,57.078h2.738a1.831,1.831,0,0,0,1.825-1.825V38.825A1.831,1.831,0,0,0,56.738,37Z" transform="translate(-4.718 -3.233)" fill="#fec108"/>
        <ellipse id="Oval" cx="12" cy="4.5" rx="12" ry="4.5" transform="translate(5 4.758)" fill="#0377bc"/>
        <g id="Grupo_1205084" data-name="Grupo 1205084">
          <path id="Shape-11" data-name="Shape" d="M17.777,14.952c6.194,0,12.777-1.917,12.777-5.476S23.971,4,17.777,4,5,5.917,5,9.476,11.583,14.952,17.777,14.952Zm0-9.126c6.785,0,10.952,2.126,10.952,3.651s-4.166,3.651-10.952,3.651S6.825,11,6.825,9.476,10.991,5.825,17.777,5.825Z" transform="translate(-0.437 -0.349)"/>
          <path id="Shape-12" data-name="Shape" d="M52.02,32.855H34.68V8.214C34.68,3.608,27.063,0,17.34,0S0,3.608,0,8.214V39.243c0,4.606,7.617,8.214,17.34,8.214a35.524,35.524,0,0,0,6.388-.569V52.02a2.738,2.738,0,0,0,2.738,2.738H52.02a2.738,2.738,0,0,0,2.738-2.738V35.593A2.738,2.738,0,0,0,52.02,32.855Zm-25.554,0a2.738,2.738,0,0,0-2.738,2.738v2.136a33.467,33.467,0,0,1-6.388.6c-9.281,0-15.515-3.3-15.515-6.388v-4.5c2.816,2.691,8.629,4.5,15.515,4.5s12.7-1.813,15.515-4.5v5.417Zm6.388-9.126c0,3.086-6.234,6.388-15.515,6.388s-15.515-3.3-15.515-6.388v-4.5c2.816,2.691,8.629,4.5,15.515,4.5s12.7-1.813,15.515-4.5ZM1.825,8.214c0-3.086,6.234-6.388,15.515-6.388s15.515,3.3,15.515,6.388v7.3c0,3.086-6.234,6.388-15.515,6.388S1.825,18.6,1.825,15.515ZM17.34,45.632c-9.281,0-15.515-3.3-15.515-6.388V35.651c2.816,2.691,8.629,4.5,15.515,4.5a35.507,35.507,0,0,0,6.388-.569V45.03A33.408,33.408,0,0,1,17.34,45.632ZM52.933,52.02a.913.913,0,0,1-.913.913H26.466a.913.913,0,0,1-.913-.913V35.593a.913.913,0,0,1,.913-.913H52.02a.913.913,0,0,1,.913.913Z"/>
          <path id="Shape-13" data-name="Shape" d="M34.194,43.825h2.282a.913.913,0,0,0,0-1.825H34.194a3.194,3.194,0,0,0,0,6.388,1.369,1.369,0,0,1,0,2.738H31.913a.913.913,0,1,0,0,1.825h2.282a3.194,3.194,0,0,0,0-6.388,1.369,1.369,0,1,1,0-2.738Z" transform="translate(-2.708 -3.67)"/>
          <path id="Shape-14" data-name="Shape" d="M47.076,50.523A3.624,3.624,0,0,0,47.3,49.3V45.651a3.651,3.651,0,0,0-7.3,0V49.3a3.631,3.631,0,0,0,6.023,2.752l.632.632a.913.913,0,0,0,1.29-1.29Zm-3.425.6A1.825,1.825,0,0,1,41.825,49.3V45.651a1.825,1.825,0,1,1,3.651,0v3.273l-.267-.267a.913.913,0,0,0-1.29,1.29l.816.816a1.812,1.812,0,0,1-1.083.364Z" transform="translate(-3.495 -3.67)"/>
          <path id="Shape-15" data-name="Shape" d="M54.651,51.126H52.825V42.913a.913.913,0,1,0-1.825,0v9.126a.913.913,0,0,0,.913.913h2.738a.913.913,0,1,0,0-1.825Z" transform="translate(-4.456 -3.67)"/>
        </g>
      </g>
    </g>
  </g>
</svg>
