<svg xmlns="http://www.w3.org/2000/svg" xmlns:xlink="http://www.w3.org/1999/xlink" width="107.141" height="107.142" viewBox="0 0 107.141 107.142">
  <defs>
    <filter id="Trazado_874925" x="0" y="0" width="107.141" height="107.142" filterUnits="userSpaceOnUse">
      <feOffset dy="3" input="SourceAlpha"/>
      <feGaussianBlur stdDeviation="3" result="blur"/>
      <feFlood flood-opacity="0.161"/>
      <feComposite operator="in" in2="blur"/>
      <feComposite in="SourceGraphic"/>
    </filter>
  </defs>
  <g id="Grupo_1205124" data-name="Grupo 1205124" transform="translate(-1116.051 -2702)">
    <g id="Grupo_1204929" data-name="Grupo 1204929" transform="translate(840.051 -3389.407)">
      <g id="Grupo_1187153" data-name="Grupo 1187153" transform="translate(285 6097.407)">
        <g id="Grupo_1182177" data-name="Grupo 1182177">
          <g id="Grupo_1181903" data-name="Grupo 1181903">
            <g id="Grupo_1181438" data-name="Grupo 1181438">
              <g id="Grupo_1111314" data-name="Grupo 1111314">
                <g transform="matrix(1, 0, 0, 1, -9, -6)" filter="url(#Trazado_874925)">
                  <g id="Trazado_874925-2" data-name="Trazado 874925" transform="translate(9 6)" fill="#e6e51d">
                    <path d="M 44.57049560546875 88.14150238037109 C 38.68807220458984 88.14150238037109 32.98214340209961 86.98964691162109 27.61120223999023 84.71792602539062 C 22.42297744750977 82.52349090576172 17.76327133178711 79.38175964355469 13.76150703430176 75.38001251220703 C 9.759742736816406 71.37824249267578 6.618013381958008 66.71852874755859 4.423577785491943 61.53030395507812 C 2.151860237121582 56.15936279296875 1.000001430511475 50.45343399047852 1.000001430511475 44.57101058959961 C 1.000001430511475 38.68807983398438 2.151860237121582 32.98215103149414 4.423577785491943 27.61119842529297 C 6.618013381958008 22.42297554016113 9.759742736816406 17.76326942443848 13.76150703430176 13.76150417327881 C 17.76327133178711 9.759739875793457 22.42297744750977 6.6180100440979 27.61120223999023 4.423574924468994 C 32.98214340209961 2.151857137680054 38.68807220458984 0.9999982714653015 44.57049560546875 0.9999982714653015 C 50.45291900634766 0.9999982714653015 56.15884780883789 2.151857137680054 61.52978897094727 4.423574924468994 C 66.71800994873047 6.6180100440979 71.37773132324219 9.759739875793457 75.37949371337891 13.76150417327881 C 79.38124847412109 17.76326942443848 82.52297973632812 22.42297554016113 84.71741485595703 27.61119842529297 C 86.98912811279297 32.98215103149414 88.1409912109375 38.68807983398438 88.1409912109375 44.57050323486328 C 88.1409912109375 50.45343399047852 86.98912811279297 56.15936279296875 84.71741485595703 61.53030395507812 C 82.52297973632812 66.71853637695312 79.38124847412109 71.37824249267578 75.37949371337891 75.38001251220703 C 71.37773132324219 79.38175964355469 66.71802520751953 82.52349090576172 61.52978897094727 84.71792602539062 C 56.15884780883789 86.98964691162109 50.45291900634766 88.14150238037109 44.57049560546875 88.14150238037109 Z" stroke="none"/>
                    <path d="M 44.57049560546875 2.000007629394531 C 38.82262802124023 2.000007629394531 33.24776077270508 3.125282287597656 28.00074768066406 5.344581604003906 C 22.93172454833984 7.488601684570312 18.37885284423828 10.55836486816406 14.46860504150391 14.46860504150391 C 10.55836486816406 18.37886047363281 7.488601684570312 22.93172454833984 5.344573974609375 28.00075149536133 C 3.125282287597656 33.24776458740234 2 38.8226318359375 2 44.57100296020508 C 2 50.31887054443359 3.125282287597656 55.89373779296875 5.344573974609375 61.14075088500977 C 7.488601684570312 66.20977783203125 10.55836486816406 70.76264190673828 14.46860504150391 74.67289733886719 C 18.37885284423828 78.58313751220703 22.93172454833984 81.65290069580078 28.00074768066406 83.79692077636719 C 33.24776077270508 86.01622009277344 38.82262802124023 87.14149475097656 44.57049560546875 87.14149475097656 C 50.31836318969727 87.14149475097656 55.89323043823242 86.01622009277344 61.14024353027344 83.79692077636719 C 66.20926666259766 81.65290069580078 70.76213836669922 78.58313751220703 74.67238616943359 74.67289733886719 C 78.58262634277344 70.76264190673828 81.65238952636719 66.20977783203125 83.79641723632812 61.14075088500977 C 86.01570892333984 55.89373779296875 87.1409912109375 50.31887054443359 87.1409912109375 44.57049942016602 C 87.1409912109375 38.8226318359375 86.01570892333984 33.24776458740234 83.79641723632812 28.00075149536133 C 81.65238952636719 22.93172454833984 78.58262634277344 18.37886047363281 74.67238616943359 14.46860504150391 C 70.76213836669922 10.55836486816406 66.20926666259766 7.488601684570312 61.14024353027344 5.344581604003906 C 55.89323043823242 3.125282287597656 50.31836318969727 2.000007629394531 44.57049560546875 2.000007629394531 M 44.57049560546875 7.62939453125e-06 C 69.18611145019531 7.62939453125e-06 89.1409912109375 19.95488739013672 89.1409912109375 44.57049942016602 L 89.1409912109375 44.57100296020508 C 89.1409912109375 69.18661499023438 69.18611145019531 89.14149475097656 44.57049560546875 89.14149475097656 C 19.95487976074219 89.14149475097656 0 69.18661499023438 0 44.57100296020508 L 0 44.57049942016602 C 0 19.95488739013672 19.95487976074219 7.62939453125e-06 44.57049560546875 7.62939453125e-06 Z" stroke="none" fill="#a09f14"/>
                  </g>
                </g>
              </g>
            </g>
          </g>
        </g>
      </g>
    </g>
    <g id="redes" transform="translate(1142.993 2727)">
      <g id="Grupo_1205122" data-name="Grupo 1205122" transform="translate(0.829 0.771)">
        <g id="Grupo_1205087" data-name="Grupo 1205087" transform="translate(9.166 9.153)">
          <g id="Grupo_1205086" data-name="Grupo 1205086">
            <ellipse id="Elipse_12417" data-name="Elipse 12417" cx="16.365" cy="16.368" rx="16.365" ry="16.368" fill="#71d8fd"/>
          </g>
        </g>
        <g id="Grupo_1205089" data-name="Grupo 1205089" transform="translate(23.525 9.153)">
          <g id="Grupo_1205088" data-name="Grupo 1205088">
            <path id="Trazado_1241850" data-name="Trazado 1241850" d="M238.5,96.576a16.517,16.517,0,0,0-2.005.122,16.37,16.37,0,0,1,0,32.492A16.369,16.369,0,1,0,238.5,96.576Z" transform="translate(-236.491 -96.576)" fill="#60c3f7"/>
          </g>
        </g>
        <g id="Grupo_1205091" data-name="Grupo 1205091" transform="translate(0 0.166)">
          <g id="Grupo_1205090" data-name="Grupo 1205090">
            <ellipse id="Elipse_12418" data-name="Elipse 12418" cx="3.062" cy="3.063" rx="3.062" ry="3.063" fill="#ffcd74"/>
          </g>
        </g>
        <g id="Grupo_1205093" data-name="Grupo 1205093" transform="translate(44.947 0.166)">
          <g id="Grupo_1205092" data-name="Grupo 1205092">
            <ellipse id="Elipse_12419" data-name="Elipse 12419" cx="3.062" cy="3.063" rx="3.062" ry="3.063" fill="#ffcd74"/>
          </g>
        </g>
        <g id="Grupo_1205095" data-name="Grupo 1205095" transform="translate(0 44.892)">
          <g id="Grupo_1205094" data-name="Grupo 1205094">
            <ellipse id="Elipse_12420" data-name="Elipse 12420" cx="3.062" cy="3.063" rx="3.062" ry="3.063" fill="#ffcd74"/>
          </g>
        </g>
        <g id="Grupo_1205097" data-name="Grupo 1205097" transform="translate(0 22.479)">
          <g id="Grupo_1205096" data-name="Grupo 1205096">
            <ellipse id="Elipse_12421" data-name="Elipse 12421" cx="3.062" cy="3.063" rx="3.062" ry="3.063" fill="#b4e173"/>
          </g>
        </g>
        <g id="Grupo_1205099" data-name="Grupo 1205099" transform="translate(44.947 22.479)">
          <g id="Grupo_1205098" data-name="Grupo 1205098">
            <ellipse id="Elipse_12422" data-name="Elipse 12422" cx="3.062" cy="3.063" rx="3.062" ry="3.063" fill="#b4e173"/>
          </g>
        </g>
        <g id="Grupo_1205101" data-name="Grupo 1205101" transform="translate(22.468)">
          <g id="Grupo_1205100" data-name="Grupo 1205100">
            <ellipse id="Elipse_12423" data-name="Elipse 12423" cx="3.062" cy="3.063" rx="3.062" ry="3.063" fill="#b4e173"/>
          </g>
        </g>
        <g id="Grupo_1205103" data-name="Grupo 1205103" transform="translate(22.468 44.958)">
          <g id="Grupo_1205102" data-name="Grupo 1205102">
            <ellipse id="Elipse_12424" data-name="Elipse 12424" cx="3.062" cy="3.063" rx="3.062" ry="3.063" fill="#b4e173"/>
          </g>
        </g>
        <g id="Grupo_1205105" data-name="Grupo 1205105" transform="translate(44.947 44.892)">
          <g id="Grupo_1205104" data-name="Grupo 1205104">
            <ellipse id="Elipse_12425" data-name="Elipse 12425" cx="3.062" cy="3.063" rx="3.062" ry="3.063" fill="#ffcd74"/>
          </g>
        </g>
        <g id="Grupo_1205107" data-name="Grupo 1205107" transform="translate(2.078 0.167)">
          <g id="Grupo_1205106" data-name="Grupo 1205106">
            <path id="Trazado_1241851" data-name="Trazado 1241851" d="M31.83,12.187a3.062,3.062,0,0,1-4.047,2.9,3.062,3.062,0,0,0,0-5.8,3.062,3.062,0,0,1,4.047,2.9Z" transform="translate(-27.783 -9.124)" fill="#ff9650"/>
          </g>
        </g>
        <g id="Grupo_1205109" data-name="Grupo 1205109" transform="translate(47.026 0.167)">
          <g id="Grupo_1205108" data-name="Grupo 1205108">
            <path id="Trazado_1241852" data-name="Trazado 1241852" d="M469.228,12.187a3.062,3.062,0,0,1-4.046,2.9,3.063,3.063,0,0,0,0-5.8,3.061,3.061,0,0,1,4.046,2.9Z" transform="translate(-465.182 -9.124)" fill="#ff9650"/>
          </g>
        </g>
        <g id="Grupo_1205111" data-name="Grupo 1205111" transform="translate(2.078 44.893)">
          <g id="Grupo_1205110" data-name="Grupo 1205110">
            <path id="Trazado_1241853" data-name="Trazado 1241853" d="M31.83,447.431a3.062,3.062,0,0,1-4.047,2.9,3.062,3.062,0,0,0,0-5.8,3.062,3.062,0,0,1,4.047,2.9Z" transform="translate(-27.783 -444.368)" fill="#ff9650"/>
          </g>
        </g>
        <g id="Grupo_1205113" data-name="Grupo 1205113" transform="translate(2.078 22.479)">
          <g id="Grupo_1205112" data-name="Grupo 1205112">
            <path id="Trazado_1241854" data-name="Trazado 1241854" d="M31.83,229.315a3.063,3.063,0,0,1-3.063,3.063,3.032,3.032,0,0,1-.984-.163,3.062,3.062,0,0,0,0-5.8,3.063,3.063,0,0,1,4.047,2.9Z" transform="translate(-27.783 -226.252)" fill="#87b45f"/>
          </g>
        </g>
        <g id="Grupo_1205115" data-name="Grupo 1205115" transform="translate(47.026 22.479)">
          <g id="Grupo_1205114" data-name="Grupo 1205114">
            <path id="Trazado_1241855" data-name="Trazado 1241855" d="M469.228,229.315a3.063,3.063,0,0,1-3.062,3.063,3.032,3.032,0,0,1-.984-.163,3.063,3.063,0,0,0,0-5.8,3.062,3.062,0,0,1,4.046,2.9Z" transform="translate(-465.182 -226.252)" fill="#87b45f"/>
          </g>
        </g>
        <g id="Grupo_1205117" data-name="Grupo 1205117" transform="translate(24.547 0)">
          <g id="Grupo_1205116" data-name="Grupo 1205116">
            <path id="Trazado_1241856" data-name="Trazado 1241856" d="M250.478,10.564a3.063,3.063,0,0,1-3.062,3.064,3.032,3.032,0,0,1-.984-.163,3.063,3.063,0,0,0,0-5.8,3.062,3.062,0,0,1,4.046,2.9Z" transform="translate(-246.432 -7.501)" fill="#87b45f"/>
          </g>
        </g>
        <g id="Grupo_1205119" data-name="Grupo 1205119" transform="translate(24.547 44.958)">
          <g id="Grupo_1205118" data-name="Grupo 1205118">
            <path id="Trazado_1241857" data-name="Trazado 1241857" d="M250.478,448.065a3.062,3.062,0,0,1-4.046,2.9,3.063,3.063,0,0,0,0-5.8,3.062,3.062,0,0,1,4.046,2.9Z" transform="translate(-246.432 -445.002)" fill="#87b45f"/>
          </g>
        </g>
        <g id="Grupo_1205121" data-name="Grupo 1205121" transform="translate(47.026 44.893)">
          <g id="Grupo_1205120" data-name="Grupo 1205120">
            <path id="Trazado_1241858" data-name="Trazado 1241858" d="M469.228,447.431a3.062,3.062,0,0,1-4.046,2.9,3.063,3.063,0,0,0,0-5.8,3.062,3.062,0,0,1,4.046,2.9Z" transform="translate(-465.182 -444.368)" fill="#ff9650"/>
          </g>
        </g>
      </g>
      <g id="Grupo_1205123" data-name="Grupo 1205123" transform="translate(0.058)">
        <path id="Trazado_1241859" data-name="Trazado 1241859" d="M247.858,285.352a.828.828,0,1,0,.828.828A.829.829,0,0,0,247.858,285.352Z" transform="translate(-221.651 -256.029)"/>
        <path id="Trazado_1241860" data-name="Trazado 1241860" d="M231.376,258.7a3.6,3.6,0,0,0-2.544,1.044.771.771,0,1,0,1.082,1.1,2.078,2.078,0,0,1,2.968.047A.771.771,0,0,0,234,259.823,3.636,3.636,0,0,0,231.376,258.7Z" transform="translate(-205.117 -232.113)"/>
        <path id="Trazado_1241861" data-name="Trazado 1241861" d="M218.808,233.42a6.412,6.412,0,0,0-9.1-.085.771.771,0,1,0,1.085,1.1,4.871,4.871,0,0,1,6.915.064.771.771,0,0,0,1.1-1.075Z" transform="translate(-187.955 -207.694)"/>
        <path id="Trazado_1241862" data-name="Trazado 1241862" d="M201.956,207.124a.771.771,0,0,0,1.1-1.08,9.311,9.311,0,0,0-13.191-.094.771.771,0,1,0,1.083,1.1,7.77,7.77,0,0,1,11.008.078Z" transform="translate(-170.155 -182.371)"/>
        <path id="Trazado_1241863" data-name="Trazado 1241863" d="M3.891,226.418a3.834,3.834,0,1,0-3.833-3.834A3.838,3.838,0,0,0,3.891,226.418Zm0-6.126A2.292,2.292,0,1,1,1.6,222.584,2.295,2.295,0,0,1,3.891,220.291Z" transform="translate(-0.058 -196.271)"/>
        <path id="Trazado_1241864" data-name="Trazado 1241864" d="M441.287,218.75a3.834,3.834,0,1,0,3.833,3.834A3.838,3.838,0,0,0,441.287,218.75Zm0,6.126a2.292,2.292,0,1,1,2.292-2.292A2.295,2.295,0,0,1,441.287,224.876Z" transform="translate(-392.507 -196.271)"/>
        <path id="Trazado_1241865" data-name="Trazado 1241865" d="M222.537,7.668A3.834,3.834,0,1,0,218.7,3.834,3.838,3.838,0,0,0,222.537,7.668Zm0-6.126a2.292,2.292,0,1,1-2.292,2.292A2.295,2.295,0,0,1,222.537,1.541Z" transform="translate(-196.236)"/>
        <path id="Trazado_1241866" data-name="Trazado 1241866" d="M222.537,437.5a3.834,3.834,0,1,0,3.833,3.834A3.838,3.838,0,0,0,222.537,437.5Zm0,6.126a2.292,2.292,0,1,1,2.292-2.292A2.295,2.295,0,0,1,222.537,443.625Z" transform="translate(-196.236 -392.541)"/>
        <path id="Trazado_1241867" data-name="Trazado 1241867" d="M48.838,46.346a3.81,3.81,0,0,0-1.97.546l-7.675-7.8a17.107,17.107,0,0,0,.019-22.665L46.807,8.7a3.84,3.84,0,1,0-1.115-1.064l-7.549,7.675A17.128,17.128,0,0,0,19.2,12.171a.771.771,0,1,0,.645,1.4,15.568,15.568,0,0,1,1.795-.695,13.1,13.1,0,0,0-2.054,2.937,20.576,20.576,0,0,0-1.538,3.9,20.629,20.629,0,0,0-3.611,1.416,13,13,0,0,0-3,2.056,15.543,15.543,0,0,1,1.022-2.521A15.743,15.743,0,0,1,17,15.269a.771.771,0,1,0-.926-1.232,17.118,17.118,0,0,0-1.5,1.268L7.037,7.641A3.837,3.837,0,1,0,5.92,8.7l7.586,7.712a17.21,17.21,0,0,0-2.416,3.545,17.133,17.133,0,0,0,2.439,19.131l-7.67,7.8a3.844,3.844,0,1,0,1.136,1.043L14.6,40.2a17.071,17.071,0,0,0,11.748,4.684h.021A17.071,17.071,0,0,0,38.122,40.2l7.611,7.738a3.831,3.831,0,1,0,3.105-1.59ZM1.6,5.454A2.292,2.292,0,1,1,3.891,7.746,2.295,2.295,0,0,1,1.6,5.454ZM30.558,35.869a.771.771,0,0,0,.885.637q.758-.123,1.48-.281a18.271,18.271,0,0,1-1.153,2.737c-1.3,2.461-2.92,3.959-4.64,4.3V36.9c.436-.01.871-.028,1.3-.055a.771.771,0,0,0-.1-1.538c-.65.041-1.314.062-1.974.062a28.927,28.927,0,0,1-7.053-.838,29.465,29.465,0,0,1,0-13.565,28.927,28.927,0,0,1,7.053-.838,28.926,28.926,0,0,1,7.053.838,29.465,29.465,0,0,1,0,13.562q-1.063.269-2.219.459A.771.771,0,0,0,30.558,35.869ZM11.449,32.317a13.012,13.012,0,0,0,2.987,2.049,20.628,20.628,0,0,0,3.611,1.416,20.573,20.573,0,0,0,1.538,3.9,13.108,13.108,0,0,0,2.048,2.932A15.665,15.665,0,0,1,11.449,32.317Zm5.534-3.8a30.105,30.105,0,0,0,.629,5.513,18.3,18.3,0,0,1-2.472-1.036c-2.444-1.253-3.936-2.82-4.291-4.477h6.134ZM19.8,36.226a30.67,30.67,0,0,0,5.792.673v6.367c-1.719-.346-3.344-1.844-4.639-4.3A18.288,18.288,0,0,1,19.8,36.226Zm11.973-19.7a18.282,18.282,0,0,1,1.153,2.735,30.666,30.666,0,0,0-5.793-.673V12.226C28.849,12.572,30.474,14.07,31.769,16.531Zm3.967,10.445a30.105,30.105,0,0,0-.629-5.513A18.3,18.3,0,0,1,37.579,22.5c2.444,1.253,3.936,2.82,4.291,4.477Zm0,1.541h6.133c-.483,2.217-3.022,4.245-6.762,5.51A30.113,30.113,0,0,0,35.736,28.517Zm13.1-25.355a2.292,2.292,0,1,1-2.292,2.292A2.295,2.295,0,0,1,48.838,3.161ZM41.27,23.176a13.012,13.012,0,0,0-2.987-2.049,20.628,20.628,0,0,0-3.611-1.416,20.576,20.576,0,0,0-1.538-3.9,13.111,13.111,0,0,0-2.048-2.932A15.665,15.665,0,0,1,41.27,23.176Zm-20.32-6.645c1.3-2.461,2.92-3.959,4.639-4.3v6.367a30.671,30.671,0,0,0-5.792.673A18.262,18.262,0,0,1,20.949,16.531ZM15.14,22.5a18.308,18.308,0,0,1,2.472-1.036,30.105,30.105,0,0,0-.629,5.513H10.849C11.2,25.319,12.7,23.752,15.14,22.5ZM3.891,52.472A2.292,2.292,0,1,1,6.183,50.18,2.295,2.295,0,0,1,3.891,52.472Zm27.194-9.861a13.1,13.1,0,0,0,2.048-2.932,20.576,20.576,0,0,0,1.538-3.9,16.25,16.25,0,0,0,6.6-3.483A15.665,15.665,0,0,1,31.085,42.611Zm17.753,9.861A2.292,2.292,0,1,1,51.13,50.18,2.295,2.295,0,0,1,48.838,52.472Z" transform="translate(-0.058 -1.454)"/>
      </g>
    </g>
  </g>
</svg>
