<svg xmlns="http://www.w3.org/2000/svg" xmlns:xlink="http://www.w3.org/1999/xlink" width="107.141" height="107.142" viewBox="0 0 107.141 107.142">
  <defs>
    <filter id="Trazado_874925" x="0" y="0" width="107.141" height="107.142" filterUnits="userSpaceOnUse">
      <feOffset dy="3" input="SourceAlpha"/>
      <feGaussianBlur stdDeviation="3" result="blur"/>
      <feFlood flood-opacity="0.161"/>
      <feComposite operator="in" in2="blur"/>
      <feComposite in="SourceGraphic"/>
    </filter>
  </defs>
  <g id="Grupo_1205155" data-name="Grupo 1205155" transform="translate(625.051 8905.501)">
    <g id="Grupo_1204930" data-name="Grupo 1204930" transform="translate(-901.051 -14996.908)">
      <g id="Grupo_1187153" data-name="Grupo 1187153" transform="translate(285 6097.407)">
        <g id="Grupo_1182177" data-name="Grupo 1182177">
          <g id="Grupo_1181903" data-name="Grupo 1181903">
            <g id="Grupo_1181438" data-name="Grupo 1181438">
              <g id="Grupo_1111314" data-name="Grupo 1111314">
                <g transform="matrix(1, 0, 0, 1, -9, -6)" filter="url(#Trazado_874925)">
                  <g id="Trazado_874925-2" data-name="Trazado 874925" transform="translate(9 6)" fill="#e6e51d">
                    <path d="M 44.57049560546875 88.14150238037109 C 38.68807220458984 88.14150238037109 32.98214340209961 86.98964691162109 27.61120223999023 84.71792602539062 C 22.42297744750977 82.52349090576172 17.76327133178711 79.38175964355469 13.76150703430176 75.38001251220703 C 9.759742736816406 71.37824249267578 6.618013381958008 66.71852874755859 4.423577785491943 61.53030395507812 C 2.151860237121582 56.15936279296875 1.000001430511475 50.45343399047852 1.000001430511475 44.57101058959961 C 1.000001430511475 38.68807983398438 2.151860237121582 32.98215103149414 4.423577785491943 27.61119842529297 C 6.618013381958008 22.42297554016113 9.759742736816406 17.76326942443848 13.76150703430176 13.76150417327881 C 17.76327133178711 9.759739875793457 22.42297744750977 6.6180100440979 27.61120223999023 4.423574924468994 C 32.98214340209961 2.151857137680054 38.68807220458984 0.9999982714653015 44.57049560546875 0.9999982714653015 C 50.45291900634766 0.9999982714653015 56.15884780883789 2.151857137680054 61.52978897094727 4.423574924468994 C 66.71800994873047 6.6180100440979 71.37773132324219 9.759739875793457 75.37949371337891 13.76150417327881 C 79.38124847412109 17.76326942443848 82.52297973632812 22.42297554016113 84.71741485595703 27.61119842529297 C 86.98912811279297 32.98215103149414 88.1409912109375 38.68807983398438 88.1409912109375 44.57050323486328 C 88.1409912109375 50.45343399047852 86.98912811279297 56.15936279296875 84.71741485595703 61.53030395507812 C 82.52297973632812 66.71853637695312 79.38124847412109 71.37824249267578 75.37949371337891 75.38001251220703 C 71.37773132324219 79.38175964355469 66.71802520751953 82.52349090576172 61.52978897094727 84.71792602539062 C 56.15884780883789 86.98964691162109 50.45291900634766 88.14150238037109 44.57049560546875 88.14150238037109 Z" stroke="none"/>
                    <path d="M 44.57049560546875 2.000007629394531 C 38.82262802124023 2.000007629394531 33.24776077270508 3.125282287597656 28.00074768066406 5.344581604003906 C 22.93172454833984 7.488601684570312 18.37885284423828 10.55836486816406 14.46860504150391 14.46860504150391 C 10.55836486816406 18.37886047363281 7.488601684570312 22.93172454833984 5.344573974609375 28.00075149536133 C 3.125282287597656 33.24776458740234 2 38.8226318359375 2 44.57100296020508 C 2 50.31887054443359 3.125282287597656 55.89373779296875 5.344573974609375 61.14075088500977 C 7.488601684570312 66.20977783203125 10.55836486816406 70.76264190673828 14.46860504150391 74.67289733886719 C 18.37885284423828 78.58313751220703 22.93172454833984 81.65290069580078 28.00074768066406 83.79692077636719 C 33.24776077270508 86.01622009277344 38.82262802124023 87.14149475097656 44.57049560546875 87.14149475097656 C 50.31836318969727 87.14149475097656 55.89323043823242 86.01622009277344 61.14024353027344 83.79692077636719 C 66.20926666259766 81.65290069580078 70.76213836669922 78.58313751220703 74.67238616943359 74.67289733886719 C 78.58262634277344 70.76264190673828 81.65238952636719 66.20977783203125 83.79641723632812 61.14075088500977 C 86.01570892333984 55.89373779296875 87.1409912109375 50.31887054443359 87.1409912109375 44.57049942016602 C 87.1409912109375 38.8226318359375 86.01570892333984 33.24776458740234 83.79641723632812 28.00075149536133 C 81.65238952636719 22.93172454833984 78.58262634277344 18.37886047363281 74.67238616943359 14.46860504150391 C 70.76213836669922 10.55836486816406 66.20926666259766 7.488601684570312 61.14024353027344 5.344581604003906 C 55.89323043823242 3.125282287597656 50.31836318969727 2.000007629394531 44.57049560546875 2.000007629394531 M 44.57049560546875 7.62939453125e-06 C 69.18611145019531 7.62939453125e-06 89.1409912109375 19.95488739013672 89.1409912109375 44.57049942016602 L 89.1409912109375 44.57100296020508 C 89.1409912109375 69.18661499023438 69.18611145019531 89.14149475097656 44.57049560546875 89.14149475097656 C 19.95487976074219 89.14149475097656 0 69.18661499023438 0 44.57100296020508 L 0 44.57049942016602 C 0 19.95488739013672 19.95487976074219 7.62939453125e-06 44.57049560546875 7.62939453125e-06 Z" stroke="none" fill="#a09f14"/>
                  </g>
                </g>
              </g>
            </g>
          </g>
        </g>
      </g>
    </g>
    <g id="html" transform="translate(-598.357 -8895.064)">
      <g id="Grupo_1205153" data-name="Grupo 1205153" transform="translate(0.788 15.6)">
        <g id="Grupo_1205126" data-name="Grupo 1205126" transform="translate(0 0)">
          <g id="Grupo_1205125" data-name="Grupo 1205125">
            <path id="Trazado_1241868" data-name="Trazado 1241868" d="M59.681,25.52V59.808a3.2,3.2,0,0,1-3.2,3.2H10.7a3.2,3.2,0,0,1-3.2-3.2V25.52a3.2,3.2,0,0,1,3.2-3.2H56.478A3.2,3.2,0,0,1,59.681,25.52Z" transform="translate(-7.502 -22.316)" fill="#e4eaf7"/>
          </g>
        </g>
        <g id="Grupo_1205128" data-name="Grupo 1205128" transform="translate(42.502 0)">
          <g id="Grupo_1205127" data-name="Grupo 1205127">
            <path id="Trazado_1241869" data-name="Trazado 1241869" d="M422.009,25.52V59.808a3.2,3.2,0,0,1-3.2,3.2h-6.474a3.2,3.2,0,0,0,3.2-3.2V25.52a3.2,3.2,0,0,0-3.2-3.2h6.474A3.2,3.2,0,0,1,422.009,25.52Z" transform="translate(-412.332 -22.316)" fill="#d2dcf0"/>
          </g>
        </g>
        <g id="Grupo_1205130" data-name="Grupo 1205130" transform="translate(0 0)">
          <g id="Grupo_1205129" data-name="Grupo 1205129">
            <path id="Trazado_1241870" data-name="Trazado 1241870" d="M7.5,27.489h9.614A2.752,2.752,0,0,0,19.23,26.5L21.9,23.307a2.752,2.752,0,0,1,2.112-.988h6.92a2.752,2.752,0,0,1,2.123,1l2.612,3.168a2.752,2.752,0,0,0,2.123,1h21.9v6.54H7.5Z" transform="translate(-7.504 -22.319)" fill="#bec8dc"/>
          </g>
        </g>
        <g id="Grupo_1205132" data-name="Grupo 1205132" transform="translate(45.705 5.171)">
          <g id="Grupo_1205131" data-name="Grupo 1205131">
            <rect id="Rectángulo_410932" data-name="Rectángulo 410932" width="6.473" height="6.54" fill="#afbbd0"/>
          </g>
        </g>
        <g id="Grupo_1205134" data-name="Grupo 1205134" transform="translate(26.09 11.711)">
          <g id="Grupo_1205133" data-name="Grupo 1205133">
            <path id="Trazado_1241871" data-name="Trazado 1241871" d="M282.092,133.859V159.64a3.2,3.2,0,0,1-3.2,3.2H256V133.859Z" transform="translate(-256.003 -133.859)" fill="#ff8d95"/>
          </g>
        </g>
        <g id="Grupo_1205136" data-name="Grupo 1205136" transform="translate(42.502 11.711)">
          <g id="Grupo_1205135" data-name="Grupo 1205135">
            <path id="Trazado_1241872" data-name="Trazado 1241872" d="M422.009,133.859V159.64a3.2,3.2,0,0,1-3.2,3.2h-6.474a3.2,3.2,0,0,0,3.2-3.2V133.859Z" transform="translate(-412.332 -133.859)" fill="#ff6469"/>
          </g>
        </g>
        <g id="Grupo_1205138" data-name="Grupo 1205138" transform="translate(26.089 15.363)">
          <g id="Grupo_1205137" data-name="Grupo 1205137">
            <path id="Trazado_1241873" data-name="Trazado 1241873" d="M277.2,176.11H256v-7.463h21.2a.5.5,0,0,1,.5.5v6.464A.5.5,0,0,1,277.2,176.11Z" transform="translate(-256 -168.647)" fill="#fff"/>
          </g>
        </g>
        <g id="Grupo_1205140" data-name="Grupo 1205140" transform="translate(40.326 26.34)">
          <g id="Grupo_1205139" data-name="Grupo 1205139" transform="translate(0 0)">
            <path id="Trazado_1241874" data-name="Trazado 1241874" d="M399.064,287.557h-7.459V273.643a.443.443,0,0,1,.443-.443h6.574a.443.443,0,0,1,.443.443v13.914Z" transform="translate(-391.605 -273.2)" fill="#c3b4fa"/>
          </g>
        </g>
        <g id="Grupo_1205142" data-name="Grupo 1205142" transform="translate(26.089 26.34)">
          <g id="Grupo_1205141" data-name="Grupo 1205141" transform="translate(0 0)">
            <path id="Trazado_1241875" data-name="Trazado 1241875" d="M266.235,287.557H256V273.2h9.792a.443.443,0,0,1,.443.443v13.914Z" transform="translate(-256 -273.201)" fill="#ffcd74"/>
          </g>
        </g>
        <g id="Grupo_1205148" data-name="Grupo 1205148" transform="translate(30.047 18.755)">
          <g id="Grupo_1205147" data-name="Grupo 1205147">
            <g id="Grupo_1205144" data-name="Grupo 1205144">
              <g id="Grupo_1205143" data-name="Grupo 1205143">
                <path id="Trazado_1241876" data-name="Trazado 1241876" d="M293.7,205.023l3.983-3.985a.3.3,0,0,1,.419,0L302.06,205Z" transform="translate(-293.695 -200.952)" fill="#3879e3"/>
              </g>
            </g>
            <g id="Grupo_1205146" data-name="Grupo 1205146" transform="translate(4.182)">
              <g id="Grupo_1205145" data-name="Grupo 1205145">
                <path id="Trazado_1241877" data-name="Trazado 1241877" d="M333.532,205.023l3.983-3.985a.3.3,0,0,1,.419,0L341.9,205Z" transform="translate(-333.532 -200.952)" fill="#3879e3"/>
              </g>
            </g>
          </g>
        </g>
        <g id="Grupo_1205150" data-name="Grupo 1205150" transform="translate(8.738 33.942)">
          <g id="Grupo_1205149" data-name="Grupo 1205149">
            <path id="Trazado_1241878" data-name="Trazado 1241878" d="M123.547,360.733H92.623a1.889,1.889,0,0,1-1.889-1.889V347.5a1.889,1.889,0,0,1,1.889-1.889h30.924a1.889,1.889,0,0,1,1.889,1.889v11.348A1.889,1.889,0,0,1,123.547,360.733Z" transform="translate(-90.734 -345.606)" fill="#b4e173"/>
          </g>
        </g>
        <g id="Grupo_1205152" data-name="Grupo 1205152" transform="translate(38.433 33.942)">
          <g id="Grupo_1205151" data-name="Grupo 1205151">
            <path id="Trazado_1241879" data-name="Trazado 1241879" d="M376.691,345.606h-3.119a1.889,1.889,0,0,1,1.889,1.89v11.348a1.889,1.889,0,0,1-1.889,1.89h3.119a1.889,1.889,0,0,0,1.889-1.89V347.5A1.889,1.889,0,0,0,376.691,345.606Z" transform="translate(-373.572 -345.606)" fill="#a7d16c"/>
          </g>
        </g>
      </g>
      <g id="Grupo_1205154" data-name="Grupo 1205154" transform="translate(0 14.812)">
        <path id="Trazado_1241880" data-name="Trazado 1241880" d="M49.763,14.812H3.991A4,4,0,0,0,0,18.8V46.818a.787.787,0,1,0,1.575,0V28.1H18.163a.787.787,0,1,0,0-1.575H1.575V21.558H10.4a3.53,3.53,0,0,0,2.717-1.271l2.666-3.194a1.959,1.959,0,0,1,1.508-.706h6.92a1.958,1.958,0,0,1,1.515.715L28.34,20.27a3.528,3.528,0,0,0,2.73,1.288H52.179v4.966H21.995a.787.787,0,1,0,0,1.575h4.095V48.754H6.028a.787.787,0,1,0,0,1.575H8.977a2.66,2.66,0,0,0-.238,1.1v.431H4.448a.787.787,0,1,0,0,1.575H8.738v2.072H3.991a2.419,2.419,0,0,1-2.416-2.417V50.669a.787.787,0,1,0-1.575,0v2.422a4,4,0,0,0,3.991,3.992H8.738v5.7a2.68,2.68,0,0,0,2.677,2.677H42.339a2.68,2.68,0,0,0,2.677-2.677v-5.7h4.748a4,4,0,0,0,3.991-3.992V18.8A4,4,0,0,0,49.763,14.812ZM11.91,19.277a1.959,1.959,0,0,1-1.508.706H1.575V18.8a2.42,2.42,0,0,1,2.416-2.418H14.323Zm19.161.706a1.958,1.958,0,0,1-1.515-.715l-2.376-2.881H49.763A2.42,2.42,0,0,1,52.179,18.8v1.178ZM34.7,37.569H32.748l2.279-2.279.978.979Zm2.227,0,2.278-2.279,2.277,2.278H36.931Zm6.783,0-3.948-3.95a.788.788,0,0,0-1.114,0l-1.534,1.535-1.534-1.535a.787.787,0,0,0-.557-.231h0a.788.788,0,0,0-.557.231l-3.949,3.95H27.664V31.681H47.786v5.888ZM27.664,42.727h8.659v6.027H27.664ZM45.015,55.508v-.387a.787.787,0,0,0-1.575,0v7.658a1.1,1.1,0,0,1-1.1,1.1H11.415a1.1,1.1,0,0,1-1.1-1.1V51.431a1.1,1.1,0,0,1,1.1-1.1H42.339a1.1,1.1,0,0,1,1.1,1.1V52.1a.787.787,0,0,0,1.575,0v-.672a2.68,2.68,0,0,0-2.677-2.677H41.9V42.727h5.886V55.509H45.015Zm4.748,0h-.4V41.94a.787.787,0,0,0-.787-.787h-7.46a.787.787,0,0,0-.787.787v6.814H37.9V41.94a.787.787,0,0,0-.787-.787H27.664V39.144H30.7a.785.785,0,0,0,.138.014h0l4.06-.009a.794.794,0,0,0,.121.01h0l5.925-.014h7.629a.787.787,0,0,0,.787-.787V30.893a.787.787,0,0,0-.787-.787H27.664V28.1H52.179V53.092A2.419,2.419,0,0,1,49.763,55.508Z" transform="translate(0 -14.812)"/>
        <circle id="Elipse_12426" data-name="Elipse 12426" cx="0.8" cy="0.8" r="0.8" transform="translate(3.441 2.716)"/>
        <circle id="Elipse_12427" data-name="Elipse 12427" cx="0.8" cy="0.8" r="0.8" transform="translate(6.015 2.716)"/>
        <circle id="Elipse_12428" data-name="Elipse 12428" cx="0.8" cy="0.8" r="0.8" transform="translate(8.97 2.716)"/>
        <circle id="Elipse_12429" data-name="Elipse 12429" cx="0.799" cy="0.799" r="0.799" transform="translate(46.009 8.477)"/>
        <circle id="Elipse_12430" data-name="Elipse 12430" cx="0.799" cy="0.799" r="0.799" transform="translate(49.206 8.477)"/>
        <path id="Trazado_1241881" data-name="Trazado 1241881" d="M96.838,96.458a.787.787,0,0,0,.787.787h26.157a.787.787,0,0,0,0-1.575H97.625A.787.787,0,0,0,96.838,96.458Z" transform="translate(-86.671 -87.182)"/>
        <path id="Trazado_1241882" data-name="Trazado 1241882" d="M168.3,48.033a.787.787,0,1,0,0-1.575H162.26a.787.787,0,1,0,0,1.575Z" transform="translate(-144.52 -43.136)"/>
        <path id="Trazado_1241883" data-name="Trazado 1241883" d="M31.054,90.258a.787.787,0,0,0-1.114,0l-.615.615a.787.787,0,0,0,.022,1.134l.615.569a.787.787,0,1,0,1.07-1.156l-.015-.014.037-.037A.787.787,0,0,0,31.054,90.258Z" transform="translate(-26.04 -82.131)"/>
        <path id="Trazado_1241884" data-name="Trazado 1241884" d="M59.379,92.535a.787.787,0,0,0,1.113.043l.615-.569a.787.787,0,0,0,.022-1.134l-.615-.615A.787.787,0,0,0,59.4,91.372l.037.037-.015.014A.788.788,0,0,0,59.379,92.535Z" transform="translate(-52.958 -82.131)"/>
        <path id="Trazado_1241885" data-name="Trazado 1241885" d="M36.567,160.486H32.81a.787.787,0,1,0,0,1.575h3.756a.787.787,0,0,0,0-1.575Z" transform="translate(-28.661 -145.192)"/>
        <path id="Trazado_1241886" data-name="Trazado 1241886" d="M59.352,190.09H50.7a.787.787,0,1,0,0,1.575h8.652a.787.787,0,1,0,0-1.575Z" transform="translate(-44.673 -171.688)"/>
        <path id="Trazado_1241887" data-name="Trazado 1241887" d="M53.31,219.693H50.7a.787.787,0,1,0,0,1.575h2.61a.787.787,0,0,0,0-1.575Z" transform="translate(-44.673 -198.183)"/>
        <path id="Trazado_1241888" data-name="Trazado 1241888" d="M107.36,219.693h-6.389a.787.787,0,1,0,0,1.575h6.389a.787.787,0,1,0,0-1.575Z" transform="translate(-89.666 -198.183)"/>
        <path id="Trazado_1241889" data-name="Trazado 1241889" d="M50.7,310.078h6.583a.787.787,0,0,0,0-1.575H50.7a.787.787,0,0,0,0,1.575Z" transform="translate(-44.673 -277.669)"/>
        <path id="Trazado_1241890" data-name="Trazado 1241890" d="M138.724,310.078H142.7a.787.787,0,1,0,0-1.575h-3.977a.787.787,0,0,0,0,1.575Z" transform="translate(-123.455 -277.669)"/>
        <path id="Trazado_1241891" data-name="Trazado 1241891" d="M81.473,250.084a.787.787,0,0,0,.787.787h4.033a.787.787,0,1,0,0-1.575H82.26A.787.787,0,0,0,81.473,250.084Z" transform="translate(-72.919 -224.679)"/>
        <path id="Trazado_1241892" data-name="Trazado 1241892" d="M156.533,250.084a.787.787,0,0,0-.787-.787h-8.052a.787.787,0,1,0,0,1.575h8.052A.787.787,0,0,0,156.533,250.084Z" transform="translate(-131.484 -224.679)"/>
        <path id="Trazado_1241893" data-name="Trazado 1241893" d="M89.587,279.686a.787.787,0,0,0-.787-.787H82.26a.787.787,0,0,0,0,1.575H88.8A.787.787,0,0,0,89.587,279.686Z" transform="translate(-72.919 -251.173)"/>
        <path id="Trazado_1241894" data-name="Trazado 1241894" d="M172.233,279.686a.787.787,0,0,0-.787-.787h-1.371a.787.787,0,0,0,0,1.575h1.371A.787.787,0,0,0,172.233,279.686Z" transform="translate(-151.514 -251.173)"/>
        <circle id="Elipse_12431" data-name="Elipse 12431" cx="0.8" cy="0.8" r="0.8" transform="translate(36.36 17.377)"/>
        <path id="Trazado_1241895" data-name="Trazado 1241895" d="M139.772,377.153a1.322,1.322,0,0,0-1.1,0,.384.384,0,0,0-.227.358v3.119h-2.687v-3.119a.384.384,0,0,0-.227-.358,1.322,1.322,0,0,0-1.1,0,.384.384,0,0,0-.227.358v7.767a.4.4,0,0,0,.227.358,1.2,1.2,0,0,0,1.093,0,.4.4,0,0,0,.233-.358v-3.429h2.687v3.429a.4.4,0,0,0,.227.358,1.2,1.2,0,0,0,1.093,0,.4.4,0,0,0,.233-.358v-7.767A.384.384,0,0,0,139.772,377.153Z" transform="translate(-120.116 -339.004)"/>
        <path id="Trazado_1241896" data-name="Trazado 1241896" d="M203.113,377.033h-5.052a.4.4,0,0,0-.364.2.88.88,0,0,0-.125.471.863.863,0,0,0,.131.489.409.409,0,0,0,.358.2h1.756v6.88a.4.4,0,0,0,.227.36,1.2,1.2,0,0,0,1.093,0,.4.4,0,0,0,.233-.36V378.4h1.744a.407.407,0,0,0,.358-.2.872.872,0,0,0,.131-.483.881.881,0,0,0-.125-.471A.4.4,0,0,0,203.113,377.033Z" transform="translate(-176.828 -339.004)"/>
        <path id="Trazado_1241897" data-name="Trazado 1241897" d="M269.79,377.224a.819.819,0,0,0-.555-.191,1.281,1.281,0,0,0-.687.155,1.882,1.882,0,0,0-.532.669l-1.469,2.677-1.469-2.677a1.929,1.929,0,0,0-.525-.669,1.25,1.25,0,0,0-.681-.155.819.819,0,0,0-.555.191.733.733,0,0,0-.221.586v7.468a.4.4,0,0,0,.227.358,1.2,1.2,0,0,0,1.093,0,.4.4,0,0,0,.233-.358v-5.234l1.374,2.581a.547.547,0,0,0,.514.311.556.556,0,0,0,.525-.311l1.4-2.485v5.138a.4.4,0,0,0,.227.358,1.2,1.2,0,0,0,1.093,0,.4.4,0,0,0,.233-.358V377.81A.733.733,0,0,0,269.79,377.224Z" transform="translate(-235.474 -339.004)"/>
        <path id="Trazado_1241898" data-name="Trazado 1241898" d="M347.08,384.406h-2.914v-6.895a.384.384,0,0,0-.227-.358,1.322,1.322,0,0,0-1.1,0,.384.384,0,0,0-.227.358v7.767a.407.407,0,0,0,.2.358.858.858,0,0,0,.478.131h3.786a.383.383,0,0,0,.34-.2.974.974,0,0,0,0-.956A.384.384,0,0,0,347.08,384.406Z" transform="translate(-306.643 -339.004)"/>
      </g>
    </g>
  </g>
</svg>
