<svg xmlns="http://www.w3.org/2000/svg" xmlns:xlink="http://www.w3.org/1999/xlink" width="315.033" height="281.169" viewBox="0 0 315.033 281.169">
  <defs>
    <clipPath id="clip-path">
      <rect id="Rectangle_410883" data-name="Rectangle 410883" width="247" height="258" transform="translate(3825 -10726)" fill="#fff" stroke="#707070" stroke-width="1"/>
    </clipPath>
  </defs>
  <g id="Group_1200771" data-name="Group 1200771" transform="translate(-3775.767 10744.584)">
    <g id="Group_1200692" data-name="Group 1200692" transform="translate(3775.767 -10744.584)">
      <g id="Group_1200628" data-name="Group 1200628">
        <ellipse id="Ellipse_12399" data-name="Ellipse 12399" cx="79.304" cy="79.304" rx="79.304" ry="79.304" transform="translate(156.426 122.56)" fill="#c8a0e6"/>
        <ellipse id="Ellipse_12400" data-name="Ellipse 12400" cx="57.676" cy="57.676" rx="57.676" ry="57.676" fill="#c8a0e6"/>
      </g>
    </g>
    <g id="Mask_Group_1099466" data-name="Mask Group 1099466" clip-path="url(#clip-path)">
      <g id="Layer_x5F_1" transform="translate(3804.296 -10741.202)">
        <g id="_274742064">
          <g id="Group_1200769" data-name="Group 1200769">
            <path id="_274744224" d="M49.813,23.7a5.694,5.694,0,0,1,5.678-5.678H178.973L200.948,56.9l37.644,20.746V264.7a5.694,5.694,0,0,1-5.678,5.678H55.491a5.694,5.694,0,0,1-5.678-5.678V23.7Z" fill="#f5cc59" fill-rule="evenodd"/>
            <path id="_274744008" d="M216.416,160.785H71.989V40.2H178.974l37.442,37.442Z" fill="#ededed" fill-rule="evenodd"/>
            <path id="_274744488" d="M178.972,18.025l59.62,59.619h-54.85a4.783,4.783,0,0,1-4.769-4.769V18.025Z" fill="#e1a143" fill-rule="evenodd"/>
            <path id="_274743528" d="M45.008,156.561H243.4a4.3,4.3,0,0,1,4.3,4.3v79.957a4.3,4.3,0,0,1-4.3,4.3H45.008a4.3,4.3,0,0,1-4.3-4.3V160.861A4.3,4.3,0,0,1,45.008,156.561Z" fill="#9376e2" fill-rule="evenodd"/>
            <path id="_274743384" d="M88.353,60.535a2.816,2.816,0,0,0,0,5.633h74.257a2.816,2.816,0,0,0,0-5.633Zm0,70.061a2.816,2.816,0,0,0,0,5.633h111.7a2.816,2.816,0,0,0,0-5.633Zm0-23.354a2.816,2.816,0,0,0,0,5.633h111.7a2.816,2.816,0,0,0,0-5.633Zm0-23.354a2.816,2.816,0,0,0,0,5.633h74.257a2.816,2.816,0,0,0,0-5.633Z" fill="#999"/>
            <path id="_274743864" d="M49.813,23.7a5.694,5.694,0,0,1,5.678-5.678H178.973L200.948,56.9l37.644,20.746V264.7a5.694,5.694,0,0,1-5.678,5.678H55.491a5.694,5.694,0,0,1-5.678-5.678V23.7Z" fill="#f5cc59" fill-rule="evenodd"/>
            <path id="_274743264" d="M216.416,160.785H71.989V40.2H178.974l37.442,37.442Z" fill="#ededed" fill-rule="evenodd"/>
            <path id="_274743504" d="M178.972,18.025l59.62,59.619h-54.85a4.783,4.783,0,0,1-4.769-4.769V18.025Z" fill="#e1a143" fill-rule="evenodd"/>
            <path id="_274743072" d="M45.008,156.561H243.4a4.3,4.3,0,0,1,4.3,4.3v79.957a4.3,4.3,0,0,1-4.3,4.3H45.008a4.3,4.3,0,0,1-4.3-4.3V160.861A4.3,4.3,0,0,1,45.008,156.561Z" fill="#9376e2" fill-rule="evenodd"/>
            <path id="_274742736" d="M88.353,60.535a2.816,2.816,0,0,0,0,5.633h74.257a2.816,2.816,0,0,0,0-5.633Zm0,70.061a2.816,2.816,0,0,0,0,5.633h111.7a2.816,2.816,0,0,0,0-5.633Zm0-23.354a2.816,2.816,0,0,0,0,5.633h111.7a2.816,2.816,0,0,0,0-5.633Zm0-23.354a2.816,2.816,0,0,0,0,5.633h74.257a2.816,2.816,0,0,0,0-5.633Z" fill="#999"/>
          </g>
          <g id="Group_1200770" data-name="Group 1200770">
            <path id="_274743048" d="M181.246,198.026h15.848a8.942,8.942,0,1,0,0-17.884H181.246v17.884Zm15.848,5.634H178.43a2.818,2.818,0,0,1-2.818-2.816V177.325a2.813,2.813,0,0,1,2.816-2.816h18.665a14.575,14.575,0,1,1,0,29.15Z" fill-rule="evenodd"/>
            <path id="_274742976" d="M178.43,227.177a2.817,2.817,0,0,1-2.818-2.816V200.843a2.816,2.816,0,0,1,5.633,0V224.36a2.818,2.818,0,0,1-2.816,2.816Z" fill-rule="evenodd"/>
            <path id="_274742616" d="M82.37,198.026H98.218a8.942,8.942,0,0,0,0-17.884H82.37v17.884Zm15.848,5.634H79.553a2.818,2.818,0,0,1-2.817-2.816V177.325a2.817,2.817,0,0,1,2.816-2.816H98.218a14.575,14.575,0,0,1,0,29.15Z" fill-rule="evenodd"/>
            <path id="_274742880" d="M98.218,227.177H79.553a2.817,2.817,0,0,1-2.817-2.816V200.843a2.816,2.816,0,1,1,5.632,0v20.7H98.218a8.942,8.942,0,0,0,0-17.884,2.816,2.816,0,1,1,0-5.633,14.575,14.575,0,0,1,0,29.151Z" fill-rule="evenodd"/>
            <path id="_274742472" d="M159.412,227.177a2.817,2.817,0,0,1-2.817-2.816V187.706l-9.964,17.016a2.818,2.818,0,0,1-4.859,0L131.8,187.706v36.655a2.817,2.817,0,0,1-5.634,0V177.325a2.816,2.816,0,0,1,5.246-1.425L144.2,197.721l12.78-21.822a2.819,2.819,0,0,1,5.251,1.426v47.035a2.817,2.817,0,0,1-2.822,2.816Z" fill-rule="evenodd"/>
            <path id="_274742592" d="M238.6,159.376a2.817,2.817,0,0,1-2.817-2.816V78.808L177.806,20.836H55.484A2.863,2.863,0,0,0,52.626,23.7V156.56a2.817,2.817,0,0,1-5.634,0V23.7a8.5,8.5,0,0,1,8.49-8.5H178.974a2.811,2.811,0,0,1,1.989.822L240.59,75.651a2.81,2.81,0,0,1,.821,1.989v78.92a2.817,2.817,0,0,1-2.816,2.816ZM232.921,273.2H55.484a8.5,8.5,0,0,1-8.491-8.5V245.125a2.816,2.816,0,0,1,5.632,0v19.58a2.861,2.861,0,0,0,2.856,2.863H232.921a2.865,2.865,0,0,0,2.857-2.863V245.125a2.816,2.816,0,1,1,5.632,0v19.58a8.5,8.5,0,0,1-8.489,8.5Z" fill-rule="evenodd"/>
            <path id="_274742544" d="M71.985,159.376a2.817,2.817,0,0,1-2.817-2.816V40.2a2.812,2.812,0,0,1,2.815-2.816H178.975a2.817,2.817,0,0,1,0,5.634H74.8V156.56a2.817,2.817,0,0,1-2.816,2.816Zm144.437,0a2.813,2.813,0,0,1-2.817-2.816V77.64a2.816,2.816,0,1,1,5.632,0v78.92a2.818,2.818,0,0,1-2.817,2.816Z" fill-rule="evenodd"/>
            <path id="_274742352" d="M238.6,80.457H183.744a7.6,7.6,0,0,1-7.587-7.587V18.019a2.816,2.816,0,1,1,5.632,0v54.85a1.954,1.954,0,0,0,1.954,1.955H238.6a2.817,2.817,0,0,1,0,5.634Z" fill-rule="evenodd"/>
            <path id="_274741872" d="M45,159.376a1.505,1.505,0,0,0-1.485,1.485v79.964A1.506,1.506,0,0,0,45,242.309H243.4a1.5,1.5,0,0,0,1.484-1.485V160.86a1.5,1.5,0,0,0-1.484-1.484H45Zm198.4,88.566H45a7.128,7.128,0,0,1-7.117-7.117V160.86a7.124,7.124,0,0,1,7.117-7.117H243.4a7.125,7.125,0,0,1,7.117,7.117v79.964A7.129,7.129,0,0,1,243.4,247.942Z" fill-rule="evenodd"/>
            <path id="_274742232" d="M200.057,136.229H88.349a2.816,2.816,0,1,1,0-5.633H200.058a2.817,2.817,0,0,1,0,5.634Z" fill-rule="evenodd"/>
            <path id="_274741920" d="M200.057,112.87H88.349a2.816,2.816,0,1,1,0-5.632H200.058a2.816,2.816,0,0,1,0,5.632Z" fill-rule="evenodd"/>
            <path id="_274742136" d="M162.609,89.516H88.348a2.816,2.816,0,1,1,0-5.632h74.261a2.816,2.816,0,1,1,0,5.632Z" fill-rule="evenodd"/>
            <path id="_274741728" d="M162.609,66.163H88.348a2.816,2.816,0,1,1,0-5.632h74.261a2.816,2.816,0,0,1,0,5.633Z" fill-rule="evenodd"/>
          </g>
        </g>
      </g>
    </g>
  </g>
</svg>
