<svg xmlns="http://www.w3.org/2000/svg" xmlns:xlink="http://www.w3.org/1999/xlink" width="315.033" height="281.168" viewBox="0 0 315.033 281.168">
  <defs>
    <clipPath id="clip-path">
      <rect id="Rectangle_410873" data-name="Rectangle 410873" width="247" height="258" transform="translate(974.051 1114)" fill="#fff" stroke="#707070" stroke-width="1"/>
    </clipPath>
  </defs>
  <g id="Group_1200775" data-name="Group 1200775" transform="translate(-944.818 -1102.095)">
    <g id="Group_1200768" data-name="Group 1200768">
      <g id="Group_1200699" data-name="Group 1200699">
        <g id="Group_1200629" data-name="Group 1200629" transform="translate(944.818 1102.095)">
          <g id="Group_1200628" data-name="Group 1200628">
            <ellipse id="Ellipse_12399" data-name="Ellipse 12399" cx="79.304" cy="79.304" rx="79.304" ry="79.304" transform="translate(156.426 122.56)" fill="#c8a0e6"/>
            <ellipse id="Ellipse_12400" data-name="Ellipse 12400" cx="57.676" cy="57.676" rx="57.676" ry="57.676" fill="#c8a0e6"/>
          </g>
        </g>
      </g>
    </g>
    <g id="Mask_Group_1099458" data-name="Mask Group 1099458" clip-path="url(#clip-path)">
      <g id="Page-1" transform="translate(974.051 1119.5)">
        <g id="_040---JPG" data-name="040---JPG">
          <g id="Group_1200698" data-name="Group 1200698">
            <path id="Shape" d="M69.983,148.2v65.867a4.117,4.117,0,0,0,4.117,4.117H193.483v20.583a4.117,4.117,0,0,1-4.117,4.117H8.233a4.117,4.117,0,0,1-4.117-4.117V8.233A4.117,4.117,0,0,1,8.233,4.117H135.85V57.633a4.117,4.117,0,0,0,4.117,4.117h53.517v82.333H74.1A4.117,4.117,0,0,0,69.983,148.2Z" fill="#f5f5f5"/>
            <path id="Shape-2" data-name="Shape" d="M127.617,61.75h12.35a4.117,4.117,0,0,1-4.117-4.117V4.117H123.5V57.633A4.117,4.117,0,0,0,127.617,61.75Z" fill="#cfd8dc"/>
            <path id="Shape-3" data-name="Shape" d="M74.1,144.083H61.75a4.117,4.117,0,0,0-4.117,4.117v65.867a4.117,4.117,0,0,0,4.117,4.117H74.1a4.117,4.117,0,0,1-4.117-4.117V148.2A4.117,4.117,0,0,1,74.1,144.083Z" fill="#cfd8dc"/>
            <path id="Rectangle-path" d="M181.133,61.75h12.35v82.333h-12.35Z" fill="#cfd8dc"/>
            <path id="Shape-4" data-name="Shape" d="M181.133,238.767a4.117,4.117,0,0,1-4.117,4.117h12.35a4.117,4.117,0,0,0,4.117-4.117V218.183h-12.35Z" fill="#cfd8dc"/>
            <path id="Shape-5" data-name="Shape" d="M20.583,172.9,84.021,77.723a8.18,8.18,0,0,1,13.42-.247l70.86,96.486" fill="#60a917"/>
            <path id="Shape-6" data-name="Shape" d="M85.091,77.476l70.807,96.4,12.416.091L97.442,77.476A8.139,8.139,0,0,0,84.647,77a5.362,5.362,0,0,1,.445.478Z" fill="#549414"/>
            <path id="Shape-7" data-name="Shape" d="M207.369,173.238,154.7,94.07a7.78,7.78,0,0,0-13,0L79.04,173.563" fill="#008a00"/>
            <path id="Shape-8" data-name="Shape" d="M154.7,94.07a7.739,7.739,0,0,0-12.675-.362c.1.128.226.222.325.362l52.669,79.168-115.934.3-.025.029,128.308-.325Z" fill="#007900"/>
            <rect id="Rectangle-path-2" data-name="Rectangle-path" width="172.9" height="74.1" rx="4.117" transform="translate(69.983 144.083)" fill="#02a9f4"/>
            <path id="Shape-9" data-name="Shape" d="M238.767,144.083h-12.35a4.117,4.117,0,0,1,4.117,4.117v65.867a4.117,4.117,0,0,1-4.117,4.117h12.35a4.117,4.117,0,0,0,4.117-4.117V148.2A4.117,4.117,0,0,0,238.767,144.083Z" fill="#0377bc"/>
            <path id="Shape-10" data-name="Shape" d="M193.483,61.75H139.967a4.117,4.117,0,0,1-4.117-4.117V4.117Z" fill="#9e9e9e"/>
            <circle id="Oval" cx="12.35" cy="12.35" r="12.35" transform="translate(37.05 37.05)" fill="#ffdc00"/>
          </g>
          <path id="Shape-11" data-name="Shape" d="M102.917,160.55h24.7" fill="none" stroke="#000" stroke-linecap="round" stroke-linejoin="round" stroke-width="8.233" fill-rule="evenodd"/>
          <path id="Shape-12" data-name="Shape" d="M8.233,247H189.367a8.233,8.233,0,0,0,8.233-8.233V222.3h41.167A8.233,8.233,0,0,0,247,214.067V148.2a8.233,8.233,0,0,0-8.233-8.233H197.6V61.75h-.037a4.08,4.08,0,0,0-1.169-2.91L138.76,1.206A4.059,4.059,0,0,0,135.85.041V0H8.233A8.233,8.233,0,0,0,0,8.233V238.767A8.233,8.233,0,0,0,8.233,247Zm230.533-32.933H74.1V148.2H238.767Zm-98.8-200.012,43.579,43.579H139.967ZM8.233,8.233h123.5v49.4a8.233,8.233,0,0,0,8.233,8.233h49.4v74.1H74.1a8.233,8.233,0,0,0-8.233,8.233v65.867A8.233,8.233,0,0,0,74.1,222.3H189.367v16.467H8.233Z"/>
          <path id="Shape-13" data-name="Shape" d="M90.744,78.217a4.055,4.055,0,0,1,3.38,1.7l25.8,35.136-7.892,10.02a4.117,4.117,0,1,0,6.463,5.1l26.565-33.72a3.767,3.767,0,0,1,6.208-.095L173.587,129.9a4.118,4.118,0,0,0,6.858-4.561L158.08,91.695a12,12,0,0,0-9.88-5.245,11.868,11.868,0,0,0-9.732,5.072l-13.256,16.821L100.776,75.063A12.066,12.066,0,0,0,90.6,69.983a12.309,12.309,0,0,0-10,5.459L17.158,170.615a4.117,4.117,0,1,0,6.85,4.57L87.442,80.012a4,4,0,0,1,3.3-1.795Z"/>
          <path id="Shape-14" data-name="Shape" d="M49.4,65.867A16.467,16.467,0,1,0,32.933,49.4,16.467,16.467,0,0,0,49.4,65.867Zm0-24.7A8.233,8.233,0,1,1,41.167,49.4,8.233,8.233,0,0,1,49.4,41.167Z"/>
          <path id="Shape-15" data-name="Shape" d="M49.4,28.817A4.117,4.117,0,0,0,53.517,24.7V20.583a4.117,4.117,0,0,0-8.233,0V24.7A4.117,4.117,0,0,0,49.4,28.817Z"/>
          <path id="Shape-16" data-name="Shape" d="M20.583,53.517H24.7a4.117,4.117,0,0,0,0-8.233H20.583a4.117,4.117,0,0,0,0,8.233Z"/>
          <path id="Shape-17" data-name="Shape" d="M45.283,74.1v4.117a4.117,4.117,0,1,0,8.233,0V74.1a4.117,4.117,0,1,0-8.233,0Z"/>
          <path id="Shape-18" data-name="Shape" d="M74.1,53.517h4.117a4.117,4.117,0,0,0,0-8.233H74.1a4.117,4.117,0,0,0,0,8.233Z"/>
          <path id="Shape-19" data-name="Shape" d="M104.975,205.833a14.408,14.408,0,0,0,14.408-14.408V164.667h8.233a4.117,4.117,0,1,0,0-8.233h-24.7a4.117,4.117,0,1,0,0,8.233h8.233v26.758a6.175,6.175,0,1,1-12.35,0v-2.058a4.117,4.117,0,1,0-8.233,0v2.058A14.408,14.408,0,0,0,104.975,205.833Z"/>
          <path id="Shape-20" data-name="Shape" d="M144.083,205.833a4.117,4.117,0,0,0,4.117-4.117V185.25h10.292a14.408,14.408,0,1,0,0-28.817H144.083a4.117,4.117,0,0,0-4.117,4.117v41.167A4.117,4.117,0,0,0,144.083,205.833Zm4.117-41.167h10.292a6.175,6.175,0,0,1,0,12.35H148.2Z"/>
          <path id="Shape-21" data-name="Shape" d="M193.483,205.833h8.233a12.35,12.35,0,0,0,12.35-12.35v-4.117h4.117a4.117,4.117,0,1,0,0-8.233H201.717a4.117,4.117,0,0,0,0,8.233h4.117v4.117a4.117,4.117,0,0,1-4.117,4.117h-8.233a4.117,4.117,0,0,1-4.117-4.117v-24.7a4.117,4.117,0,0,1,4.117-4.117h8.233a4.117,4.117,0,0,1,4.117,4.117,4.117,4.117,0,0,0,8.233,0,12.35,12.35,0,0,0-12.35-12.35h-8.233a12.35,12.35,0,0,0-12.35,12.35v24.7A12.35,12.35,0,0,0,193.483,205.833Z"/>
        </g>
      </g>
    </g>
  </g>
</svg>
