<svg xmlns="http://www.w3.org/2000/svg" xmlns:xlink="http://www.w3.org/1999/xlink" width="315.033" height="281.169" viewBox="0 0 315.033 281.169">
  <defs>
    <clipPath id="clip-path">
      <rect id="Rectangle_410874" data-name="Rectangle 410874" width="247" height="258" transform="translate(3805 -11433.179)" fill="#fff" stroke="#707070" stroke-width="1"/>
    </clipPath>
  </defs>
  <g id="Group_1200702" data-name="Group 1200702" transform="translate(-3775.767 11445.084)">
    <g id="Group_1200691" data-name="Group 1200691" transform="translate(3775.767 -11445.084)">
      <g id="Group_1200628" data-name="Group 1200628">
        <ellipse id="Ellipse_12399" data-name="Ellipse 12399" cx="79.304" cy="79.304" rx="79.304" ry="79.304" transform="translate(156.426 122.56)" fill="#c8a0e6"/>
        <ellipse id="Ellipse_12400" data-name="Ellipse 12400" cx="57.676" cy="57.676" rx="57.676" ry="57.676" fill="#c8a0e6"/>
      </g>
    </g>
    <g id="Mask_Group_1099459" data-name="Mask Group 1099459" clip-path="url(#clip-path)">
      <g id="gif_180830" transform="translate(3799.5 -11433.179)">
        <path id="Path_1242522" data-name="Path 1242522" d="M184.321,6.081H32.711V251.919H225.289V47.049Z" fill="#e8e8e8"/>
        <g id="Group_1200701" data-name="Group 1200701">
          <rect id="Rectangle_410881" data-name="Rectangle 410881" width="97.212" height="97.212" transform="translate(79.788 56.113)" fill="#38a3ff"/>
          <path id="Path_1242523" data-name="Path 1242523" d="M155.921,105.554l-19.308,32.58L105.2,85.125,79.788,128.009v25.315H177v-12.2Z" fill="#007934"/>
          <g id="Group_1200700" data-name="Group 1200700">
            <path id="Path_1242524" data-name="Path 1242524" d="M158.349,93.71a31.607,31.607,0,0,0-59.389-.893l-.207-.439a3.506,3.506,0,1,0-6.345,2.985l4.8,10.209a3.506,3.506,0,0,0,5.531,1.1l8.348-7.591a3.505,3.505,0,0,0-4.717-5.187l-.452.412a24.6,24.6,0,0,1,45.8,1.7,3.506,3.506,0,1,0,6.624-2.3Z" fill="#fff"/>
            <path id="Path_1242525" data-name="Path 1242525" d="M164.56,112.8l-4.8-10.21a3.505,3.505,0,0,0-5.531-1.1l-8.348,7.591a3.505,3.505,0,1,0,4.717,5.187l.452-.412a24.6,24.6,0,0,1-45.8-1.7,3.506,3.506,0,1,0-6.624,2.3,31.607,31.607,0,0,0,59.389.893l.207.439a3.505,3.505,0,0,0,6.345-2.982Z" fill="#fff"/>
          </g>
        </g>
        <path id="Path_1242526" data-name="Path 1242526" d="M190.661,26.566H32.711V6.081h151.61Z" fill="#38a3ff"/>
        <path id="Path_1242527" data-name="Path 1242527" d="M184.321,47.049h40.968L184.321,6.081Z" fill="#d1d3d3"/>
        <path id="Path_1242528" data-name="Path 1242528" d="M128.595,228.147h10.564v-38.9H128.595Zm100.994-185.4L188.622,1.781A6.081,6.081,0,0,0,184.321,0H32.711A6.081,6.081,0,0,0,26.63,6.081V251.919A6.081,6.081,0,0,0,32.711,258H225.289a6.081,6.081,0,0,0,6.081-6.081V47.049A6.08,6.08,0,0,0,229.589,42.749ZM190.4,20.762l20.2,20.205H190.4V20.762Zm-151.61-8.6H178.24v8.322H38.792ZM219.208,245.837H38.792V32.647H178.24v14.4a6.081,6.081,0,0,0,6.081,6.081h34.886V245.837Zm-71.64-17.69h10.351V213.538h11.655V205.1H157.919v-7.424h12.64v-8.435H147.568v38.9Zm-43.694-14.662h6.945v6.093a19.212,19.212,0,0,1-4.31.452,7.888,7.888,0,0,1-6.56-2.861q-2.276-2.861-2.275-8.316,0-5.561,2.514-8.555a8.782,8.782,0,0,1,7.118-2.994,20.578,20.578,0,0,1,9.234,2.076l3.327-8.25a29.316,29.316,0,0,0-5.682-1.756,33.385,33.385,0,0,0-6.932-.692q-9.686,0-15.061,5.242t-5.375,14.662q0,9.66,4.91,14.875t13.9,5.215a46.149,46.149,0,0,0,15.035-2.342V205.369H103.874v8.117Z" fill="#333e48"/>
      </g>
    </g>
  </g>
</svg>
