<svg xmlns="http://www.w3.org/2000/svg" xmlns:xlink="http://www.w3.org/1999/xlink" width="315.033" height="281.169" viewBox="0 0 315.033 281.169">
  <defs>
    <clipPath id="clip-path">
      <rect id="Rectangle_410876" data-name="Rectangle 410876" width="247" height="258" transform="translate(3800.216 -10018.679)" fill="#fff" stroke="#707070" stroke-width="1"/>
    </clipPath>
  </defs>
  <g id="Group_1200776" data-name="Group 1200776" transform="translate(-3770.983 10030.584)">
    <g id="Group_1200693" data-name="Group 1200693" transform="translate(3770.983 -10030.584)">
      <g id="Group_1200628" data-name="Group 1200628">
        <ellipse id="Ellipse_12399" data-name="Ellipse 12399" cx="79.304" cy="79.304" rx="79.304" ry="79.304" transform="translate(156.426 122.56)" fill="#c8a0e6"/>
        <ellipse id="Ellipse_12400" data-name="Ellipse 12400" cx="57.676" cy="57.676" rx="57.676" ry="57.676" fill="#c8a0e6"/>
      </g>
    </g>
    <g id="Mask_Group_1099461" data-name="Mask Group 1099461" clip-path="url(#clip-path)">
      <g id="png-file_3294593" transform="translate(3794.716 -10018.679)">
        <g id="Group_1200715" data-name="Group 1200715">
          <g id="Group_1200714" data-name="Group 1200714">
            <g id="Group_1200710" data-name="Group 1200710">
              <path id="Path_1242546" data-name="Path 1242546" d="M222.307,57.575V230.137a8.858,8.858,0,0,1-8.855,8.855H42.4a8.855,8.855,0,0,1-8.855-8.855V12.625A8.85,8.85,0,0,1,42.4,3.776H168.5a1.761,1.761,0,0,1,1.238.508l52.052,52.057a1.746,1.746,0,0,1,.513,1.233Z" fill="#f3f0f3"/>
            </g>
            <g id="Group_1200711" data-name="Group 1200711">
              <path id="Path_1242547" data-name="Path 1242547" d="M180.385,187.8H72.4a5.148,5.148,0,0,1-5.223-5.116V12.625a8.85,8.85,0,0,1,8.855-8.85H42.4a8.85,8.85,0,0,0-8.855,8.85V230.137a8.855,8.855,0,0,0,8.855,8.855H199.513V206.928A19.129,19.129,0,0,0,180.385,187.8Z" fill="#e2dee2"/>
              <path id="Path_1242548" data-name="Path 1242548" d="M222.29,57.333l-5.616-2.093L181.7,40.433l-14-36.179.23-.478h-10.3V54.861A12.554,12.554,0,0,0,170.172,67.4h52.143V57.574a1.763,1.763,0,0,0-.025-.241Z" fill="#e2dee2"/>
              <path id="Path_1242549" data-name="Path 1242549" d="M207.669,62.964l.609-1.395V57.335L175.632,18.88H139.669l-7.852,3.309-1.622-3.309H103.026L94.7,22.231,93.527,18.88H58.083l-3.915,145.4,38.279-1.757,115.831,1.75V124.34l-2.782.177-.6-4.972,3.384-8.262V74.445l-2.51-2.523Z" fill="#e2dee2"/>
            </g>
            <path id="Path_1242550" data-name="Path 1242550" d="M208.277,57.335,175.632,18.88H157.625V54.862A12.554,12.554,0,0,0,170.165,67.4h38.112V57.335Z" fill="#cbc4cc"/>
            <g id="Group_1200713" data-name="Group 1200713">
              <path id="Path_1242551" data-name="Path 1242551" d="M181.457,254.224H73.522a9.06,9.06,0,0,1-9.06-9.06V206.93a9.06,9.06,0,0,1,9.06-9.06H181.457a9.06,9.06,0,0,1,9.06,9.06v38.234a9.06,9.06,0,0,1-9.06,9.06Z" fill="#99e6fc"/>
              <path id="Path_1242552" data-name="Path 1242552" d="M92.207,246.482a9.06,9.06,0,0,1-9.06-9.061V199.187a9.1,9.1,0,0,1,.106-1.318H73.522a9.06,9.06,0,0,0-9.06,9.06v38.234a9.06,9.06,0,0,0,9.06,9.06H181.456a9.055,9.055,0,0,0,8.954-7.742h-98.2Z" fill="#62dbfb"/>
              <g id="XMLID_228_">
                <g id="Group_1200712" data-name="Group 1200712">
                  <path id="Path_1242553" data-name="Path 1242553" d="M208.277,67.4V61.569L204.055,67.4Z" fill="#e2dee2"/>
                  <path id="Path_1242554" data-name="Path 1242554" d="M168.267,104.524a3.2,3.2,0,0,0-5.215-.146l-24.264,32.183L125.3,151.92l19.956,15.26,17.368,4.977h45.654v-7.883Z" fill="#22b27f"/>
                  <path id="Path_1242555" data-name="Path 1242555" d="M54.755,18.88a5.03,5.03,0,0,0-5.03,5.03V78.123l3.139,2.941L49.725,91.6v36.114l3.76,2.343-3.76,10.836v23.592l17.448-.8V18.88Z" fill="#cbc4cc"/>
                  <path id="Path_1242556" data-name="Path 1242556" d="M138.787,136.561l23.836,35.6H49.725v-7.672l54.363-72.1a3.2,3.2,0,0,1,5.21.146Z" fill="#57be92"/>
                  <path id="Path_1242557" data-name="Path 1242557" d="M67.173,141.343,49.725,164.485v7.672H67.173Z" fill="#22b27f"/>
                </g>
              </g>
              <circle id="Ellipse_12402" data-name="Ellipse 12402" cx="11.828" cy="11.828" r="11.828" transform="translate(132.816 58.983)" fill="#fedf30"/>
            </g>
            <path id="Path_1242558" data-name="Path 1242558" d="M222.29,57.333a1.753,1.753,0,0,0-.5-.992l-.015-.015L169.742,4.284a1.761,1.761,0,0,0-1.238-.508h-.81V54.861a2.473,2.473,0,0,0,2.472,2.472H222.29Z" fill="#f3f0f3"/>
          </g>
        </g>
        <g id="Group_1200716" data-name="Group 1200716">
          <path id="Path_1242559" data-name="Path 1242559" d="M181.457,194.094h-16.94a3.776,3.776,0,1,0,0,7.551h16.94a5.29,5.29,0,0,1,5.285,5.285v38.234a5.29,5.29,0,0,1-5.285,5.285H73.523a5.291,5.291,0,0,1-5.285-5.285V206.93a5.29,5.29,0,0,1,5.285-5.285h74.9a3.776,3.776,0,0,0,0-7.551h-74.9A12.85,12.85,0,0,0,60.687,206.93v38.234A12.85,12.85,0,0,0,73.523,258H181.457a12.85,12.85,0,0,0,12.836-12.836V206.93a12.85,12.85,0,0,0-12.836-12.836Z"/>
          <path id="Path_1242560" data-name="Path 1242560" d="M225.536,53.672,173.482,1.618A5.491,5.491,0,0,0,169.575,0H43.475A12.644,12.644,0,0,0,30.846,12.63V230.138a12.644,12.644,0,0,0,12.629,12.629h6a3.776,3.776,0,1,0,0-7.551h-6a5.084,5.084,0,0,1-5.078-5.078V12.63a5.084,5.084,0,0,1,5.078-5.079H164.99V21.41L149.221,42.739a3.775,3.775,0,1,0,6.071,4.489l9.7-13.117V54.865a6.252,6.252,0,0,0,6.245,6.245H172.3l-3.866,5.228a3.775,3.775,0,1,0,6.071,4.489L181.7,61.11h4.87a3.776,3.776,0,0,0,0-7.551H172.541v-42.2l42.2,42.2H202.655a3.776,3.776,0,1,0,0,7.551H219.6V230.138a5.084,5.084,0,0,1-5.078,5.078h-6a3.776,3.776,0,0,0,0,7.551h6a12.644,12.644,0,0,0,12.629-12.629V57.579a5.49,5.49,0,0,0-1.617-3.907Z"/>
          <path id="Path_1242561" data-name="Path 1242561" d="M157.439,18.878a3.775,3.775,0,0,0-3.776-3.776H49.723a3.775,3.775,0,0,0-3.776,3.776v153.28a3.775,3.775,0,0,0,3.776,3.776H208.276a3.775,3.775,0,0,0,3.776-3.776V72.437a3.776,3.776,0,1,0-7.551,0v44.311L192.165,133.43,179.2,114.072l18.444-24.945a3.775,3.775,0,0,0-6.071-4.489L174.74,107.407l-3.338-4.985a6.974,6.974,0,0,0-11.364-.318L138.968,130.05,135.05,124.2l18.36-24.833a3.775,3.775,0,0,0-6.071-4.489l-16.752,22.657L117.624,98.174l7.6-10.279a3.775,3.775,0,0,0-6.071-4.489l-5.992,8.1-.725-1.082a6.974,6.974,0,0,0-11.364-.318L82.6,114.611a3.775,3.775,0,0,0,6.029,4.545L106.613,95.3l48.938,73.081H53.5V165.75l25.348-33.62a3.775,3.775,0,1,0-6.029-4.545L53.5,153.208v-17.9L136.8,22.653h16.869a3.775,3.775,0,0,0,3.776-3.776ZM204.5,129.449v22.4l-7.872-11.756Zm-61.084,7.244L165.579,107.3,204.5,165.421v2.962H164.637ZM90.738,22.653,53.5,73.017V22.653ZM53.5,122.609V85.718l46.629-63.065H127.4Z"/>
          <path id="Path_1242562" data-name="Path 1242562" d="M144.644,86.413a15.6,15.6,0,1,0-15.6-15.6A15.621,15.621,0,0,0,144.644,86.413Zm0-23.655a8.052,8.052,0,1,1-8.052,8.052,8.062,8.062,0,0,1,8.052-8.052Z"/>
        </g>
        <g id="Group_1200717" data-name="Group 1200717">
          <path id="Path_1242563" data-name="Path 1242563" d="M97.442,210.257h-6.68a3.775,3.775,0,0,0-3.776,3.776v23.992a3.776,3.776,0,1,0,7.551,0v-6.666c1.108-.005,2.211-.01,2.9-.01a10.547,10.547,0,1,0,0-21.092Zm0,13.541c-.694,0-1.8,0-2.9.01v-6h2.9a3,3,0,1,1,0,5.99Z"/>
          <path id="Path_1242564" data-name="Path 1242564" d="M170.1,222.271h-7.188a3.776,3.776,0,0,0,0,7.551h2.829a6.029,6.029,0,0,1-6.012,4.463,8.239,8.239,0,1,1,4.6-15.073,3.776,3.776,0,1,0,4.228-6.257,15.79,15.79,0,1,0-8.831,28.881c8.329,0,14.147-6.493,14.147-15.79A3.776,3.776,0,0,0,170.1,222.271Z"/>
          <path id="Path_1242565" data-name="Path 1242565" d="M133.75,210.506h-.037a3.776,3.776,0,0,0-3.739,3.812l.117,12.145-9.863-14.282a3.775,3.775,0,0,0-6.882,2.146v24a3.776,3.776,0,0,0,7.551,0V226.438l9.348,13.537a4.081,4.081,0,0,0,4.616,1.681,4.2,4.2,0,0,0,2.888-4.172l-.225-23.239a3.775,3.775,0,0,0-3.774-3.74Z"/>
        </g>
      </g>
    </g>
  </g>
</svg>
