<svg xmlns="http://www.w3.org/2000/svg" xmlns:xlink="http://www.w3.org/1999/xlink" width="315.033" height="281.169" viewBox="0 0 315.033 281.169">
  <defs>
    <clipPath id="clip-path">
      <rect id="Rectangle_410877" data-name="Rectangle 410877" width="247" height="258" transform="translate(5273 -11445.763)" fill="#fff" stroke="#707070" stroke-width="1"/>
    </clipPath>
  </defs>
  <g id="Group_1200777" data-name="Group 1200777" transform="translate(-5243.768 11457.668)">
    <g id="Group_1200694" data-name="Group 1200694" transform="translate(5243.768 -11457.668)">
      <g id="Group_1200628" data-name="Group 1200628">
        <ellipse id="Ellipse_12399" data-name="Ellipse 12399" cx="79.304" cy="79.304" rx="79.304" ry="79.304" transform="translate(156.426 122.56)" fill="#c8a0e6"/>
        <ellipse id="Ellipse_12400" data-name="Ellipse 12400" cx="57.676" cy="57.676" rx="57.676" ry="57.676" fill="#c8a0e6"/>
      </g>
    </g>
    <g id="Mask_Group_1099462" data-name="Mask Group 1099462" clip-path="url(#clip-path)">
      <g id="tiff_2266875" transform="translate(5267.502 -11445.763)">
        <path id="Path_1242566" data-name="Path 1242566" d="M223.19,252.961H34.81V5.044H173.092l50.1,50.093Z" fill="#f1f1f1"/>
        <path id="Path_1242567" data-name="Path 1242567" d="M223.19,55.137h-50.1V5.044Z" fill="#a0a0a0"/>
        <path id="Path_1242568" data-name="Path 1242568" d="M20.1,125.82H237.9v77.269H20.1Z" fill="#29abe1"/>
        <path id="Path_1242569" data-name="Path 1242569" d="M240.807,121.708l-12.6-12.663V54.785a4.392,4.392,0,0,0-.081-.63,4.231,4.231,0,0,0-.171-.625.472.472,0,0,0-.055-.161c-.076-.191-.156-.378-.247-.559a.294.294,0,0,1,0-.04,4.8,4.8,0,0,0-.348-.549,1.429,1.429,0,0,0-.1-.141,5.8,5.8,0,0,0-.433-.5l-50.113-50.1a5.039,5.039,0,0,0-.5-.423L176.02.947A5.688,5.688,0,0,0,175.465.6h-.035a4.671,4.671,0,0,0-.574-.272L174.7.272A5.489,5.489,0,0,0,174.079.1a5.25,5.25,0,0,0-.645-.1H34.81a5.039,5.039,0,0,0-5.039,5.039v104L16.538,122.258a4.633,4.633,0,0,0-.338.368c-.045.055-.086.116-.131.176s-.111.146-.161.222l-.131.217c-.04.066-.086.136-.121.207l-.111.222a2.361,2.361,0,0,0-.1.227c-.03.081-.055.146-.086.222s-.055.156-.081.242-.04.151-.06.227-.045.166-.06.252a2.353,2.353,0,0,0-.04.262,1.765,1.765,0,0,1-.035.227c0,.161-.025.328-.025.5v77.244a5.039,5.039,0,0,0,5.039,5.039h9.675v44.848A5.039,5.039,0,0,0,34.81,258H223.19a5.039,5.039,0,0,0,5.039-5.039V208.113h9.67a5.039,5.039,0,0,0,5.039-5.039V125.82a5.039,5.039,0,0,0-2.132-4.112Zm-62.671-104.5L211.016,50.1h-32.88ZM39.854,10.078h128.2V55.132a5.039,5.039,0,0,0,5.039,5.039h45.054v60.61H39.854ZM218.146,247.922H39.854V208.113H218.146Zm14.714-49.887H25.14V130.864H232.86Z"/>
        <path id="Path_1242570" data-name="Path 1242570" d="M89.045,184.112a4.359,4.359,0,0,1-1.285-3.3V157.068H80.65a4.943,4.943,0,0,1-3.3-.937,3.559,3.559,0,0,1-1.083-2.847,3.46,3.46,0,0,1,1.083-2.822,5.069,5.069,0,0,1,3.3-.907h23.6a5.06,5.06,0,0,1,3.3.907,3.475,3.475,0,0,1,1.083,2.822,3.544,3.544,0,0,1-1.083,2.847,5.018,5.018,0,0,1-3.3.937h-7.11v23.744a4.359,4.359,0,0,1-1.285,3.3,5.311,5.311,0,0,1-6.808,0Z"/>
        <path id="Path_1242571" data-name="Path 1242571" d="M112.84,184.163a4.535,4.535,0,0,1-1.235-3.351V153.838a4.47,4.47,0,0,1,1.235-3.3A4.535,4.535,0,0,1,116.2,149.3a4.7,4.7,0,0,1,3.427,1.235,4.4,4.4,0,0,1,1.26,3.3v26.974a4.47,4.47,0,0,1-1.26,3.351A4.676,4.676,0,0,1,116.2,185.4a4.535,4.535,0,0,1-3.356-1.235Z"/>
        <path id="Path_1242572" data-name="Path 1242572" d="M128.6,184.137a4.48,4.48,0,0,1-1.26-3.326V153.838a3.87,3.87,0,0,1,4.283-4.283h16.941a5.148,5.148,0,0,1,3.326.882,3.439,3.439,0,0,1,1.058,2.8,3.245,3.245,0,0,1-1.083,2.721,5.3,5.3,0,0,1-3.3.862H136.468v6.551h11.086a5.06,5.06,0,0,1,3.3.907,3.4,3.4,0,0,1,1.083,2.777,3.219,3.219,0,0,1-1.083,2.721,5.3,5.3,0,0,1-3.3.857H136.468v10.184a4.535,4.535,0,0,1-1.235,3.351,5.039,5.039,0,0,1-6.631-.025Z"/>
        <path id="Path_1242573" data-name="Path 1242573" d="M157.723,184.137a4.48,4.48,0,0,1-1.26-3.326V153.838a3.87,3.87,0,0,1,4.283-4.283h16.941a5.148,5.148,0,0,1,3.326.882,3.439,3.439,0,0,1,1.058,2.8,3.245,3.245,0,0,1-1.083,2.721,5.3,5.3,0,0,1-3.3.862H165.594v6.551H176.68a5.06,5.06,0,0,1,3.3.907,3.4,3.4,0,0,1,1.083,2.777,3.233,3.233,0,0,1-1.083,2.721,5.286,5.286,0,0,1-3.3.857H165.594v10.184a4.535,4.535,0,0,1-1.24,3.351,4.439,4.439,0,0,1-3.3,1.235,4.485,4.485,0,0,1-3.331-1.26Z"/>
      </g>
    </g>
  </g>
</svg>
