<svg xmlns="http://www.w3.org/2000/svg" xmlns:xlink="http://www.w3.org/1999/xlink" width="315.033" height="281.169" viewBox="0 0 315.033 281.169">
  <defs>
    <clipPath id="clip-path">
      <rect id="Rectangle_410878" data-name="Rectangle 410878" width="247" height="258" transform="translate(5273 -10713.595)" fill="#fff" stroke="#707070" stroke-width="1"/>
    </clipPath>
  </defs>
  <g id="Group_1200747" data-name="Group 1200747" transform="translate(-5243.768 10725.5)">
    <g id="Group_1200695" data-name="Group 1200695" transform="translate(5243.768 -10725.5)">
      <g id="Group_1200628" data-name="Group 1200628">
        <ellipse id="Ellipse_12399" data-name="Ellipse 12399" cx="79.304" cy="79.304" rx="79.304" ry="79.304" transform="translate(156.426 122.56)" fill="#c8a0e6"/>
        <ellipse id="Ellipse_12400" data-name="Ellipse 12400" cx="57.676" cy="57.676" rx="57.676" ry="57.676" fill="#c8a0e6"/>
      </g>
    </g>
    <g id="Mask_Group_1099463" data-name="Mask Group 1099463" clip-path="url(#clip-path)">
      <g id="psd-file_15584919" transform="translate(5258.474 -10722.612)">
        <g id="Group_1200720" data-name="Group 1200720">
          <path id="Path_1242574" data-name="Path 1242574" d="M241.127,116.987v101.47a11.763,11.763,0,0,1-11.753,11.753H46.678a11.763,11.763,0,0,1-11.753-11.753V94.025A11.763,11.763,0,0,1,46.678,82.272H83.652A11.834,11.834,0,0,1,92.686,86.5l12.13,14.514a11.706,11.706,0,0,0,9.034,4.224H229.416a11.728,11.728,0,0,1,11.711,11.753Z" fill="#f4f6f8"/>
        </g>
        <g id="Group_1200721" data-name="Group 1200721">
          <path id="Path_1242575" data-name="Path 1242575" d="M229.374,232.678H46.678a14.236,14.236,0,0,1-14.221-14.221V94.025A14.236,14.236,0,0,1,46.678,79.8H83.652a14.145,14.145,0,0,1,10.917,5.1L106.7,99.42a9.174,9.174,0,0,0,7.11,3.346H229.374a14.236,14.236,0,0,1,14.221,14.221V218.5a14.2,14.2,0,0,1-14.221,14.179ZM46.678,84.74a9.318,9.318,0,0,0-9.285,9.285V218.457a9.318,9.318,0,0,0,9.285,9.285h182.7a9.318,9.318,0,0,0,9.285-9.285V116.987a9.318,9.318,0,0,0-9.285-9.285H113.809a14.145,14.145,0,0,1-10.917-5.1L90.762,88.086a9.174,9.174,0,0,0-7.11-3.346Z" fill="#000102"/>
        </g>
        <g id="Group_1200732" data-name="Group 1200732">
          <g id="Group_1200725" data-name="Group 1200725">
            <g id="Group_1200722" data-name="Group 1200722">
              <path id="Path_1242576" data-name="Path 1242576" d="M216.115,46.134V151.828H59.686V26.6A15.048,15.048,0,0,1,74.743,11.544H181.525Z" fill="#d7dadf"/>
            </g>
            <g id="Group_1200723" data-name="Group 1200723">
              <path id="Path_1242577" data-name="Path 1242577" d="M59.686,145.889H216.115v5.939H59.686Z" fill="#b9bec6"/>
            </g>
            <g id="Group_1200724" data-name="Group 1200724">
              <path id="Path_1242578" data-name="Path 1242578" d="M216.115,154.3H59.686a2.446,2.446,0,0,1-2.468-2.468V26.6A17.547,17.547,0,0,1,74.743,9.076H181.525a2.465,2.465,0,0,1,1.757.711l34.632,34.632a2.465,2.465,0,0,1,.711,1.757V151.828a2.508,2.508,0,0,1-2.51,2.468ZM62.153,149.361H213.647V47.18L180.479,14.012H74.743A12.6,12.6,0,0,0,62.153,26.6Z" fill="#000102"/>
            </g>
          </g>
          <g id="Group_1200726" data-name="Group 1200726">
            <path id="Path_1242579" data-name="Path 1242579" d="M135.433,142.125H75.872a2.468,2.468,0,1,1,0-4.935h59.518a2.468,2.468,0,0,1,.042,4.935Z" fill="#000102"/>
          </g>
          <g id="Group_1200727" data-name="Group 1200727">
            <path id="Path_1242580" data-name="Path 1242580" d="M216.115,46.134H196.582a15.048,15.048,0,0,1-15.057-15.057V11.5Z" fill="#8c9ffa"/>
          </g>
          <g id="Group_1200728" data-name="Group 1200728">
            <path id="Path_1242581" data-name="Path 1242581" d="M216.115,48.644H196.582a17.547,17.547,0,0,1-17.525-17.525V11.5a2.475,2.475,0,0,1,4.224-1.757l34.632,34.632a2.454,2.454,0,0,1,.544,2.677A2.585,2.585,0,0,1,216.115,48.644Zm-32.122-31.16V31.077a12.6,12.6,0,0,0,12.59,12.59h13.593Z" fill="#000102"/>
          </g>
          <g id="Group_1200729" data-name="Group 1200729">
            <path id="Path_1242582" data-name="Path 1242582" d="M166.426,128.322H75.872a2.468,2.468,0,0,1,0-4.935h90.553a2.446,2.446,0,0,1,2.468,2.468A2.42,2.42,0,0,1,166.426,128.322Z" fill="#000102"/>
          </g>
          <g id="Group_1200730" data-name="Group 1200730">
            <path id="Path_1242583" data-name="Path 1242583" d="M198.8,114.561H75.872a2.468,2.468,0,1,1,0-4.935H198.8a2.468,2.468,0,1,1,0,4.935Z" fill="#000102"/>
          </g>
          <g id="Group_1200731" data-name="Group 1200731">
            <path id="Path_1242584" data-name="Path 1242584" d="M198.8,100.759H75.872a2.468,2.468,0,0,1,0-4.935H198.8a2.468,2.468,0,1,1,0,4.935Z" fill="#000102"/>
          </g>
        </g>
        <g id="Group_1200737" data-name="Group 1200737">
          <g id="Group_1200733" data-name="Group 1200733">
            <path id="Path_1242585" data-name="Path 1242585" d="M151.452,33.043v41.2a7.46,7.46,0,0,1-7.487,7.445H86.078A7.54,7.54,0,0,1,78.591,74.2V33.043A7.462,7.462,0,0,1,86.036,25.6h57.887a7.427,7.427,0,0,1,7.529,7.445Z" fill="#8c9ffa"/>
            <path id="Path_1242586" data-name="Path 1242586" d="M144.007,84.154H86.078A9.968,9.968,0,0,1,77.545,79.3a9.763,9.763,0,0,1-1.422-5.1V33.043a9.978,9.978,0,0,1,9.955-9.955h57.887a9.978,9.978,0,0,1,9.955,9.955v41.2a9.866,9.866,0,0,1-1.338,4.977,10.012,10.012,0,0,1-8.574,4.935ZM86.078,28.023A4.962,4.962,0,0,0,81.1,33V74.2a4.993,4.993,0,0,0,.711,2.551,4.934,4.934,0,0,0,4.266,2.468h57.887a4.99,4.99,0,0,0,4.308-2.51,5.074,5.074,0,0,0,.669-2.468v-41.2a4.962,4.962,0,0,0-4.977-4.977H86.078Z"/>
          </g>
          <g id="Group_1200734" data-name="Group 1200734">
            <path id="Path_1242587" data-name="Path 1242587" d="M125.394,81.686H86.078a7.45,7.45,0,0,1-6.4-3.639L97.2,57.929a4.983,4.983,0,0,1,7.487,0l14.054,16.145Z" fill="#f76c82"/>
            <path id="Path_1242588" data-name="Path 1242588" d="M125.394,84.154H86.078A9.968,9.968,0,0,1,77.545,79.3a2.523,2.523,0,0,1,.251-2.886L95.322,56.3a7.438,7.438,0,0,1,5.6-2.551,7.309,7.309,0,0,1,5.6,2.551l20.662,23.757a2.429,2.429,0,0,1,.376,2.635,2.326,2.326,0,0,1-2.175,1.464ZM82.941,78.089a4.967,4.967,0,0,0,3.137,1.129h33.879L102.85,59.56a2.583,2.583,0,0,0-1.882-.878,2.32,2.32,0,0,0-1.882.878Z"/>
          </g>
          <g id="Group_1200735" data-name="Group 1200735">
            <path id="Path_1242589" data-name="Path 1242589" d="M150.448,77.922a7.434,7.434,0,0,1-6.483,3.723h-31.83l6.609-7.612L129.159,62.07a4.983,4.983,0,0,1,7.487,0Z" fill="#f76c82"/>
            <path id="Path_1242590" data-name="Path 1242590" d="M144.007,84.154h-31.83a2.532,2.532,0,0,1-2.259-1.464,2.429,2.429,0,0,1,.376-2.635L127.318,60.48a7.432,7.432,0,0,1,11.209,0l13.761,15.81a2.47,2.47,0,0,1,.293,2.844,9.913,9.913,0,0,1-8.574,5.019Zm-26.434-4.935h26.434a4.954,4.954,0,0,0,3.221-1.213L134.805,63.743a2.583,2.583,0,0,0-1.882-.878,2.32,2.32,0,0,0-1.882.878Z"/>
          </g>
          <g id="Group_1200736" data-name="Group 1200736">
            <circle id="Ellipse_12403" data-name="Ellipse 12403" cx="6.943" cy="6.943" r="6.943" transform="translate(110.17 37.936)" fill="#fdcd56"/>
            <path id="Path_1242591" data-name="Path 1242591" d="M117.113,54.29a9.411,9.411,0,1,1,9.411-9.411A9.425,9.425,0,0,1,117.113,54.29Zm0-13.886a4.475,4.475,0,1,0,4.475,4.475A4.48,4.48,0,0,0,117.113,40.4Z"/>
          </g>
        </g>
        <g id="Group_1200738" data-name="Group 1200738">
          <path id="Path_1242592" data-name="Path 1242592" d="M34.925,163.54V252.8A11.763,11.763,0,0,0,46.678,264.55h182.7A11.763,11.763,0,0,0,241.127,252.8V140.577a11.763,11.763,0,0,0-11.753-11.753H192.4a11.833,11.833,0,0,0-9.034,4.224l-12.13,14.514a11.706,11.706,0,0,1-9.034,4.224H46.678A11.737,11.737,0,0,0,34.925,163.54Z" fill="#fdcd56"/>
        </g>
        <g id="Group_1200739" data-name="Group 1200739">
          <path id="Path_1242593" data-name="Path 1242593" d="M241.127,244.85v7.905a11.763,11.763,0,0,1-11.753,11.753H46.678a11.763,11.763,0,0,1-11.753-11.753V244.85A11.763,11.763,0,0,0,46.678,256.6h182.7A11.763,11.763,0,0,0,241.127,244.85Z" fill="#e3b84d"/>
        </g>
        <g id="Group_1200740" data-name="Group 1200740">
          <path id="Path_1242594" data-name="Path 1242594" d="M229.374,267.017H46.678A14.236,14.236,0,0,1,32.457,252.8V163.54a14.236,14.236,0,0,1,14.221-14.221H162.243a9.174,9.174,0,0,0,7.11-3.346l12.13-14.514a14.145,14.145,0,0,1,10.917-5.1h36.974a14.236,14.236,0,0,1,14.221,14.221V252.755a14.245,14.245,0,0,1-14.221,14.263ZM46.678,154.254a9.318,9.318,0,0,0-9.285,9.285V252.8a9.318,9.318,0,0,0,9.285,9.285h182.7a9.318,9.318,0,0,0,9.285-9.285V140.577a9.318,9.318,0,0,0-9.285-9.285H192.4a9.174,9.174,0,0,0-7.11,3.346l-12.13,14.514a14.145,14.145,0,0,1-10.917,5.1Z" fill="#000102"/>
        </g>
        <g id="Group_1200746" data-name="Group 1200746">
          <g id="Group_1200741" data-name="Group 1200741">
            <path id="Path_1242595" data-name="Path 1242595" d="M138.026,229.458A12.933,12.933,0,0,1,125.1,216.533a2.468,2.468,0,0,1,4.935,0,7.989,7.989,0,1,0,7.989-7.989A12.924,12.924,0,1,1,150.95,195.62a2.468,2.468,0,1,1-4.935,0,7.989,7.989,0,1,0-7.989,7.989,12.924,12.924,0,0,1,0,25.848Z"/>
          </g>
          <g id="Group_1200745" data-name="Group 1200745">
            <g id="Group_1200742" data-name="Group 1200742">
              <path id="Path_1242596" data-name="Path 1242596" d="M89.675,228.5a2.446,2.446,0,0,1-2.468-2.468v-40.99a2.468,2.468,0,0,1,4.935,0v40.99A2.5,2.5,0,0,1,89.675,228.5Z"/>
            </g>
            <g id="Group_1200743" data-name="Group 1200743">
              <path id="Path_1242597" data-name="Path 1242597" d="M101.888,208.419H89.675a2.446,2.446,0,0,1-2.468-2.468V185a2.446,2.446,0,0,1,2.468-2.468h12.213A11.21,11.21,0,0,1,113.1,193.738v3.472a11.21,11.21,0,0,1-11.209,11.209Zm-9.745-4.935h9.745a6.265,6.265,0,0,0,6.274-6.274v-3.472a6.265,6.265,0,0,0-6.274-6.274H92.143Z"/>
            </g>
            <g id="Group_1200744" data-name="Group 1200744">
              <path id="Path_1242598" data-name="Path 1242598" d="M168.852,229.541h-6.358a2.446,2.446,0,0,1-2.468-2.468V185a2.446,2.446,0,0,1,2.468-2.468h6.358a20.064,20.064,0,0,1,20.035,20.035v6.943A20.091,20.091,0,0,1,168.852,229.541Zm-3.89-4.977h3.89a15.075,15.075,0,0,0,15.057-15.057v-6.943a15.075,15.075,0,0,0-15.057-15.057h-3.89Z"/>
            </g>
          </g>
        </g>
      </g>
    </g>
  </g>
</svg>
