<svg xmlns="http://www.w3.org/2000/svg" xmlns:xlink="http://www.w3.org/1999/xlink" width="315.033" height="281.169" viewBox="0 0 315.033 281.169">
  <defs>
    <clipPath id="clip-path">
      <rect id="Rectangle_410879" data-name="Rectangle 410879" width="247" height="258" transform="translate(5268.216 -10010.263)" fill="#fff" stroke="#707070" stroke-width="1"/>
    </clipPath>
  </defs>
  <g id="Group_1200778" data-name="Group 1200778" transform="translate(-5238.983 10022.168)">
    <g id="Group_1200696" data-name="Group 1200696" transform="translate(5238.983 -10022.168)">
      <g id="Group_1200628" data-name="Group 1200628">
        <ellipse id="Ellipse_12399" data-name="Ellipse 12399" cx="79.304" cy="79.304" rx="79.304" ry="79.304" transform="translate(156.426 122.56)" fill="#c8a0e6"/>
        <ellipse id="Ellipse_12400" data-name="Ellipse 12400" cx="57.676" cy="57.676" rx="57.676" ry="57.676" fill="#c8a0e6"/>
      </g>
    </g>
    <g id="Mask_Group_1099464" data-name="Mask Group 1099464" clip-path="url(#clip-path)">
      <g id="raw-file_5139726" transform="translate(5262.716 -10010.263)">
        <g id="Group_1200748" data-name="Group 1200748">
          <path id="Path_1242599" data-name="Path 1242599" d="M248,49.905V243.014A11.206,11.206,0,0,1,236.8,254.22H43.687A11.206,11.206,0,0,1,32.48,243.014V49.905A11.206,11.206,0,0,1,43.687,38.7H236.8A11.207,11.207,0,0,1,248,49.905Z" fill="#ffc344"/>
          <path id="Path_1242600" data-name="Path 1242600" d="M248,49.905V243.014A11.206,11.206,0,0,1,236.8,254.22H223.508a11.206,11.206,0,0,0,11.206-11.206V49.905A11.206,11.206,0,0,0,223.508,38.7H236.8A11.207,11.207,0,0,1,248,49.905Z" fill="#feb137"/>
          <path id="Path_1242601" data-name="Path 1242601" d="M207.29,45.27V179.664H46.661V38.7h159.2a15.778,15.778,0,0,1,1.43,6.571Z" fill="#feb137"/>
          <path id="Path_1242602" data-name="Path 1242602" d="M220.556,45.27V179.664H59.926V14.722A10.942,10.942,0,0,1,70.869,3.779h108.2a15.928,15.928,0,0,1,11.217,4.646L215.91,34.053a15.922,15.922,0,0,1,4.646,11.217Z" fill="#eaf6ff"/>
          <path id="Path_1242603" data-name="Path 1242603" d="M220.556,111.228v68.436H59.926V138.1h53.03a13.212,13.212,0,0,0,10.722-5.485l11.464-15.9a13.221,13.221,0,0,1,10.728-5.49Z" fill="#c8effe"/>
          <path id="Path_1242604" data-name="Path 1242604" d="M220.556,45.27V179.664H207.29V45.27a15.927,15.927,0,0,0-4.646-11.217L177.016,8.425A15.611,15.611,0,0,0,172.37,5.21,15.772,15.772,0,0,0,165.8,3.779h13.266a15.928,15.928,0,0,1,11.217,4.646L215.91,34.053a15.919,15.919,0,0,1,4.645,11.217Z" fill="#c8effe"/>
          <path id="Path_1242605" data-name="Path 1242605" d="M219.126,38.7H196.068a10.435,10.435,0,0,1-10.432-10.432V5.21a15.629,15.629,0,0,1,4.646,3.215L215.91,34.053a15.909,15.909,0,0,1,3.215,4.646Z" fill="#99e6fc"/>
          <path id="Path_1242606" data-name="Path 1242606" d="M219.126,38.7H205.86a15.89,15.89,0,0,0-3.215-4.646L185.636,17.045V5.21a15.629,15.629,0,0,1,4.646,3.215L215.91,34.053a15.909,15.909,0,0,1,3.215,4.646Z" fill="#62dbfb"/>
          <path id="Path_1242607" data-name="Path 1242607" d="M183.673,96.731a45.335,45.335,0,0,1-21.6,26.881L140.241,83.96Z" fill="#99e6fc"/>
          <path id="Path_1242608" data-name="Path 1242608" d="M183.673,96.731a45.335,45.335,0,0,1-21.6,26.881l-6.818-12.384L140.241,83.959l28.414,8.356Z" fill="#99e6fc"/>
          <path id="Path_1242609" data-name="Path 1242609" d="M185.5,83.96a45.288,45.288,0,0,1-1.828,12.771L140.241,83.96V38.7A45.258,45.258,0,0,1,185.5,83.96Z" fill="#6ed5a1"/>
          <path id="Path_1242610" data-name="Path 1242610" d="M185.5,83.96a45.288,45.288,0,0,1-1.828,12.771l-15.019-4.415a45.33,45.33,0,0,0-28.413-50.67V38.7A45.259,45.259,0,0,1,185.5,83.96Z" fill="#46cc8d"/>
          <path id="Path_1242611" data-name="Path 1242611" d="M183.673,96.731a45.335,45.335,0,0,1-21.6,26.881l-6.818-12.384h5.039a45.017,45.017,0,0,0,8.362-18.912Z" fill="#62dbfb"/>
          <path id="Path_1242612" data-name="Path 1242612" d="M162.073,123.612a45.228,45.228,0,0,1-51.552-5.512l29.72-34.14,15.013,27.268Z" fill="#fb5f7a"/>
          <path id="Path_1242613" data-name="Path 1242613" d="M162.073,123.612a45.383,45.383,0,0,1-34.624,3.775l7.695-10.669a13.221,13.221,0,0,1,10.728-5.49h9.383Z" fill="#f74455"/>
          <path id="Path_1242614" data-name="Path 1242614" d="M140.241,83.96l-29.72,34.14A45.344,45.344,0,0,1,96.679,71.63Z" fill="#ffe177"/>
          <path id="Path_1242615" data-name="Path 1242615" d="M126.953,19.275v45.26L83.392,52.206A45.277,45.277,0,0,1,126.953,19.275Z" fill="#cb97e7"/>
          <path id="Path_1242616" data-name="Path 1242616" d="M126.954,19.276v45.26l-14.282-4.044V21.578a45.127,45.127,0,0,1,14.282-2.3Z" fill="#b289c9"/>
          <path id="Path_1242617" data-name="Path 1242617" d="M248,111.228V243.014A11.206,11.206,0,0,1,236.8,254.221H43.687A11.206,11.206,0,0,1,32.48,243.014V138.1h93.763a13.212,13.212,0,0,0,10.722-5.485l11.464-15.9a13.221,13.221,0,0,1,10.728-5.49Z" fill="#ffe177"/>
          <path id="Path_1242618" data-name="Path 1242618" d="M248,111.228V243.014A11.206,11.206,0,0,1,236.8,254.221H223.508a11.206,11.206,0,0,0,11.206-11.206V111.228Z" fill="#ffd15b"/>
          <path id="Path_1242619" data-name="Path 1242619" d="M179.776,231.186H19.48A9.482,9.482,0,0,1,10,221.7v-47.7a9.482,9.482,0,0,1,9.482-9.482h160.3a9.482,9.482,0,0,1,9.482,9.482v47.7A9.482,9.482,0,0,1,179.776,231.186Z" fill="#fb5f7a"/>
          <path id="Path_1242620" data-name="Path 1242620" d="M189.26,174.008v47.7a9.482,9.482,0,0,1-9.486,9.48H163.541a9.478,9.478,0,0,0,9.48-9.48v-47.7a9.483,9.483,0,0,0-9.48-9.486h16.234A9.487,9.487,0,0,1,189.26,174.008Z" fill="#f74455"/>
        </g>
        <g id="Group_1200749" data-name="Group 1200749">
          <path id="Path_1242621" data-name="Path 1242621" d="M248,211.6a3.779,3.779,0,0,0,3.779-3.779V49.906A15,15,0,0,0,236.8,34.92H221.381a19.712,19.712,0,0,0-2.8-3.539L192.959,5.759C189.751,2.458,184.975,0,181.641,0H70.869A14.739,14.739,0,0,0,56.147,14.722v20.2H43.687A15,15,0,0,0,28.7,49.906V160.744H19.48A13.277,13.277,0,0,0,6.219,174.006v47.7A13.277,13.277,0,0,0,19.48,234.965H28.7v8.049A15,15,0,0,0,43.687,258H236.8a15,15,0,0,0,14.986-14.986V226.6a3.779,3.779,0,0,0-7.559,0v16.416a7.436,7.436,0,0,1-7.427,7.427H43.687a7.435,7.435,0,0,1-7.427-7.427v-8.049H179.776A13.277,13.277,0,0,0,193.038,221.7v-47.7a13.277,13.277,0,0,0-13.262-13.262H123.1a3.779,3.779,0,1,0,0,7.559h56.68a5.71,5.71,0,0,1,5.7,5.7v47.7a5.71,5.71,0,0,1-5.7,5.7H19.48a5.71,5.71,0,0,1-5.7-5.7v-47.7a5.71,5.71,0,0,1,5.7-5.7h84.387a3.779,3.779,0,1,0,0-7.559H36.26V141.878h89.984a17.036,17.036,0,0,0,13.787-7.054l11.465-15.9a9.465,9.465,0,0,1,7.661-3.92h85.064v92.817A3.779,3.779,0,0,0,248,211.6ZM189.415,12.9,211.432,34.92H196.068a6.66,6.66,0,0,1-6.653-6.653Zm-44.05,101.6-7.823,10.846A41.125,41.125,0,0,1,115.97,117.6l23.569-27.075,10.713,19.459a16.95,16.95,0,0,0-4.886,4.527Zm-35.092-1.879A41.227,41.227,0,0,1,98.759,83.96a41.778,41.778,0,0,1,.7-7.616l34.016,9.629Zm64.161-5.18H159.158c-.545,0-1.086.034-1.624.086l-9.558-17.362,30.845,9.069a41.281,41.281,0,0,1-4.386,8.207Zm6.513-15.46L144.021,81.131V42.658a41.519,41.519,0,0,1,36.927,49.331Zm35.829,15.46H183.3a49.051,49.051,0,0,0-43.056-72.53,3.779,3.779,0,0,0-3.779,3.779V78.962L97.709,67.992c-1.28-.486-4.208.341-4.667,2.61A49.123,49.123,0,0,0,91.2,83.96c-.419,23.075,17.648,44.8,40.848,48.36a9.463,9.463,0,0,1-5.8,2H63.706V107.964a3.779,3.779,0,0,0-7.559,0v26.355H36.26V49.906a7.435,7.435,0,0,1,7.427-7.427H56.147V88.4a3.779,3.779,0,0,0,7.559,0V14.722a7.172,7.172,0,0,1,7.164-7.164H181.857V28.268a14.227,14.227,0,0,0,14.211,14.211h20.709v64.97Zm7.559,0V42.479H236.8a7.436,7.436,0,0,1,7.427,7.427v57.543Z"/>
          <path id="Path_1242622" data-name="Path 1242622" d="M126.953,15.5a49.218,49.218,0,0,0-47.2,35.682,3.779,3.779,0,0,0,2.608,4.664l43.561,12.33a3.785,3.785,0,0,0,1.029.143,3.982,3.982,0,0,0,3.779-3.779V19.275a3.779,3.779,0,0,0-3.779-3.779Zm-3.779,44.042-34.95-9.893a41.689,41.689,0,0,1,34.95-26.418Z"/>
          <path id="Path_1242623" data-name="Path 1242623" d="M95.6,177.287a4.656,4.656,0,0,0-4.32-2.893h-.005a4.655,4.655,0,0,0-4.318,2.9c-.012.029-.023.057-.034.086L72.139,216.191a3.779,3.779,0,1,0,7.064,2.69l2.754-7.232h18.532l2.725,7.22a3.779,3.779,0,1,0,7.071-2.669L95.638,177.39C95.625,177.356,95.61,177.322,95.6,177.287Zm-10.762,26.8,6.429-16.882,6.371,16.882Z"/>
          <path id="Path_1242624" data-name="Path 1242624" d="M131.086,218.211a4.671,4.671,0,0,0,4.4,3.105h.031a4.672,4.672,0,0,0,4.387-3.165c.011-.033.022-.066.032-.1l8.367-27.033,8.33,27.04c.016.051.033.1.051.153a4.671,4.671,0,0,0,4.4,3.105h.032a4.672,4.672,0,0,0,4.388-3.165,3.819,3.819,0,0,0,.128-.479l7.7-38.689a3.779,3.779,0,1,0-7.413-1.475l-5.443,27.346-8.562-27.793a3.779,3.779,0,0,0-7.32.384l-8.484,27.41-5.423-27.415a3.779,3.779,0,1,0-7.414,1.467l7.67,38.772a3.724,3.724,0,0,0,.146.532Z"/>
          <path id="Path_1242625" data-name="Path 1242625" d="M54.694,188.4c0-7.725-6.544-14.01-14.589-14.01H29.633a3.779,3.779,0,0,0-3.779,3.779v39.364a3.779,3.779,0,1,0,7.559,0V203.37l14.666,16.663a3.779,3.779,0,0,0,5.674-4.994L42.473,202.225A14.213,14.213,0,0,0,54.694,188.4Zm-14.589,6.451c-1.527,0-4.321.013-6.63.024-.012-2.268-.032-10.556-.039-12.926h6.669c3.811,0,7.03,2.954,7.03,6.451S43.916,194.854,40.106,194.854Z"/>
          <path id="Path_1242626" data-name="Path 1242626" d="M165.8,125.441a3.779,3.779,0,1,0,0,7.559h60.4a3.779,3.779,0,0,0,0-7.559Z"/>
        </g>
      </g>
    </g>
  </g>
</svg>
